<svg id="Layer_1" data-name="Layer 1" xmlns="http://www.w3.org/2000/svg" viewBox="0 0 1920 652.13"><title>works_hop_logo@300x</title><path d="M231.73,6.91l36.35,137.5q2.37,8.29,4.94,19.36.78,4,2.17,11.36t2.17,11.75q2.77-12.84,4.94-25.48,1.18-6.12,4.15-17l34-137.5H400L318.25,296.13H245.16L209.4,172.66q-3.75-13.83-6.32-25.48c-.13-.79-.52-2.37-1.18-4.75s-1.39-5.2-2.18-8.49q-.39,1.38-2.76,11.66-3.56,15.79-6.92,27.06L154.88,296.13H81.59L0,6.91H79.61L112.8,145.2q1.59,6.92,4.74,21.53,3.17,15.42,4.15,21.73,2.57-12.24,4-17.38,3.55-16.2,6.13-25.88L168.12,6.91Z"/><path d="M724.22,152.11A152.34,152.34,0,0,1,713,210.79q-11.25,26.67-33.56,48.59a156.31,156.31,0,0,1-50.54,32.8q-29.82,11.65-59,11.65a159.13,159.13,0,0,1-59-11.65,147.8,147.8,0,0,1-50.15-32.8,146.07,146.07,0,0,1-33.56-49,149.22,149.22,0,0,1,0-116.55,146.21,146.21,0,0,1,33.56-49,148.8,148.8,0,0,1,50.15-33.18A154.85,154.85,0,0,1,569.84.4a156.78,156.78,0,0,1,59.42,11.35,152.1,152.1,0,0,1,50,33.09,152.92,152.92,0,0,1,33.66,49A151.23,151.23,0,0,1,724.22,152.11ZM569.74,237.06q32.6,0,54.52-24.3a77.48,77.48,0,0,0,16-27.06,103.21,103.21,0,0,0,5.14-33.59q0-36.15-21.53-60.64-21.93-24.3-54.13-24.3-33,0-54.33,24.3t-21.33,60.64q0,37.74,20.94,61Q536.55,237.06,569.74,237.06Z"/><path d="M773.41,296.13V6.91H855.9q23.93,0,40.45,1a178.5,178.5,0,0,1,27.2,3.36,89,89,0,0,1,32.8,15,74.71,74.71,0,0,1,23.9,30.43q8.49,17.77,8.49,40.3,0,33.39-16.59,54.72-16.2,21.33-48,27.85L1003,296.13h-89.1l-66.38-113.2v113.2Zm74.08-152.51h14.62q25.89,0,37.34-8.49,11.65-9.49,11.66-27.46,0-21.73-10.87-30.82-11.07-9.28-36.94-9.29H847.49Z"/><path d="M1033,296.13V6.91h78V138.29L1202.49,6.91h91.87L1187.48,148l116.16,148.16h-98.38L1111,166.34V296.13Z"/><path d="M1339.15,202.69q18.15,20.15,34.72,29.83,17.36,9.89,33.93,9.88,15.59,0,25.84-8.5a26.76,26.76,0,0,0,10.26-21.53q0-14.22-8.48-22.33-9.08-7.69-40-16-42.21-11.44-59.76-29.63-17.76-18.57-17.76-50.57,0-41.49,27.83-67.57Q1373.13,0,1417.53,0q25.07,0,45.39,6.52a153.1,153.1,0,0,1,40.6,19.36l-24.76,56.7a103.17,103.17,0,0,0-27.62-17.39,74.08,74.08,0,0,0-27.82-5.73q-13.82,0-23.09,6.92a20.5,20.5,0,0,0-8.88,17.38,22.37,22.37,0,0,0,7.71,17.39q8.1,6.51,30.42,12.44c.52.13,1,.23,1.38.3a13.85,13.85,0,0,1,1.78.49q48.19,12.86,63.61,28.84,10.08,10.08,15.81,25.49,5.13,14.63,5.13,33.19,0,45.82-30.22,74.08-30.42,27.86-80.6,27.85-30.82,0-55-10.07t-47.71-32.4Z"/><path d="M1033,644.43V355.22h78.82v112.4h105.29V355.22h78.83V644.43h-78.83V526.69H1111.82V644.43Z"/><path d="M1654.29,500.42A152.29,152.29,0,0,1,1643,559.09q-11.25,26.67-33.56,48.6a156.45,156.45,0,0,1-50.54,32.79q-29.82,11.65-59,11.65a159.13,159.13,0,0,1-59-11.65,147.93,147.93,0,0,1-50.15-32.79,146.21,146.21,0,0,1-33.56-49,149.22,149.22,0,0,1,0-116.55,146.07,146.07,0,0,1,33.56-49A148.82,148.82,0,0,1,1440.88,360a154.85,154.85,0,0,1,59-11.26,156.59,156.59,0,0,1,59.42,11.36,149.08,149.08,0,0,1,95,140.36Zm-154.48,84.94q32.6,0,54.52-24.3a77.48,77.48,0,0,0,16-27.06,103.14,103.14,0,0,0,5.14-33.58q0-36.17-21.53-60.65-21.93-24.3-54.13-24.3-33,0-54.33,24.3t-21.33,60.65q0,37.73,20.94,61Q1466.62,585.36,1499.81,585.36Z"/><path d="M1777.57,644.43h-74.09V355.22H1786q48.06,0,68.25,4.74,19.74,5.13,33,16.2a87.72,87.72,0,0,1,24.3,32.79Q1920,428.9,1920,453.4q0,26.07-8.49,45.44a73.1,73.1,0,0,1-24.3,32.39q-12.06,9.49-29,13.63-15.23,4.15-53,4.15h-27.65Zm0-159h15q28.05,0,39.71-8.1,11.25-7.5,11.26-26.27,0-18-11-25.78t-39.21-7.81h-15.8Z"/></svg>