<?xml version="1.0" encoding="utf-8"?>
<!-- Generator: Adobe Illustrator 22.1.0, SVG Export Plug-In . SVG Version: 6.00 Build 0)  -->
<svg version="1.1" id="Layer_1" xmlns="http://www.w3.org/2000/svg" xmlns:xlink="http://www.w3.org/1999/xlink" x="0px" y="0px"
	 viewBox="0 0 41.5 41.5" enable-background="new 0 0 41.5 41.5" xml:space="preserve">
<path id="layer3" d="M37.8,22.9h-34c-1.2,0-2.1,1-2.1,2.1v12.8c0,1.2,1,2.1,2.1,2.1h34c1.2,0,2.1-1,2.1-2.1V25
	C39.9,23.8,38.9,22.9,37.8,22.9z M10.1,35.6c-2.3,0-4.3-1.9-4.3-4.3s1.9-4.3,4.3-4.3s4.3,1.9,4.3,4.3S12.5,35.6,10.1,35.6z
	 M37.8,1.6h-34c-1.2,0-2.1,1-2.1,2.1v12.8c0,1.2,1,2.1,2.1,2.1h34c1.2,0,2.1-1,2.1-2.1V3.8C39.9,2.6,38.9,1.6,37.8,1.6z M10.1,14.4
	c-2.3,0-4.3-1.9-4.3-4.3s1.9-4.3,4.3-4.3s4.3,1.9,4.3,4.3S12.5,14.4,10.1,14.4z"/>
<path id="layer2" d="M0.5,12.6h8.7V41H0.5V12.6z M16.7,0.5h8.1V41h-8.1V0.5z M32.9,23.7H41V41h-8.1V23.7z"/>
<path id="layer1" d="M31,0.5l10.2,10.2V0.5H31z M41.2,31L31,41.1h10.2V31z M10.7,41.1L0.5,31v10.2H10.7z M0.5,10.6L10.7,0.5H0.5
	V10.6z M33.4,8.2c-6.9-6.9-18.2-6.9-25.1,0s-6.9,18.2,0,25.1s18.2,6.9,25.1,0S40.3,15.2,33.4,8.2z M30.6,30.6
	c-5.4,5.4-14.1,5.4-19.6,0s-5.4-14.1,0-19.6s14.1-5.4,19.6,0S36,25.2,30.6,30.6z"/>
</svg>
