<svg xmlns="http://www.w3.org/2000/svg" viewBox="0 0 593.46 352.72">
    <title>branching</title>
    <defs>
    <style>
    .branching-sprite {
        display:none;
    }
    .branching-sprite:target {
        display: inline;
    }
    </style>
    </defs>

    <g class="branching-sprite" id="max">
        <g id="max-2" data-name="max">
            <path d="M451.58,325.4c-20.82,0-41.72-.08-62.54-.08-1.41-.55-2.82-.23-4.23-.23q-54.48,0-109-.08c-1.33,0-3.44.78-3.91-.63-.63-1.64,1.33-2.66,2.58-3.44,6.42-4.23,12.6-8.77,19.34-12.6,7.82-.86,15.65-.16,23.4-.39,42.9,0,85.79.07,128.69-.08a3.06,3.06,0,0,1,2.58.54c1.1,2.2,3.37,3.61,4.31,5.95-.31,1.57-1.88,2.12-2.74,3.29C448.22,320.63,451,322.82,451.58,325.4Z" transform="translate(0.11)" fill="#cc9e00"/>
            <path d="M448.45,309c-.39-.23-.86-.47-1.25-.7-.78.39-1.49-.16-2.19-.24-12.76-6.81-25.05-14.32-37.57-21.52-26.23-15-52.29-30.22-78.44-45.33-1.25-.7-2.66-1.17-3.36-2.58-.16-1.1.62-1.64,1.4-2.11,4.23-2.67,8.54-5.33,12.92-7.75.94-.55,2-1.41,3,.15q52.37,30.3,104.81,60.51c1,.55,2,1.1,3.13,1.57,1.64,1.17-.08,1.8-.39,2.74-1.41,2.66-.86,4.93,1.64,6.65a2.8,2.8,0,0,1,1.57,2c-.71,1.56-2.51,1.95-3.37,3.28C449.31,306.77,449.63,308.34,448.45,309Z" transform="translate(0.11)" fill="#f44d27"/>
            <path d="M264.58,173.62c4.23-2.66,8.37-5.32,12.6-7.83,6.58-3.91,13.23-7.75,19.81-11.74,2.27-1.41,4.93-2.19,7-4.23a4.11,4.11,0,0,1,5.09-.39q16.2,9.75,32.25,19.49c4.46,1.73,8.46,4.39,12.53,6.81,1.25.79,2.34,1.65,2.11,3.37a3.21,3.21,0,0,1-1.41,1.8q-18.9,11.26-37.89,22.47a4.64,4.64,0,0,1-1.87.54c-1.41,0-2.43-.78-3.61-1.41-9.94-6.1-20.19-11.89-30.21-17.92-1.88-1.1-3.76-2.11-5.64-3.29s-3.6-2.27-5.48-3.29C268,176.75,265.83,175.73,264.58,173.62Z" transform="translate(0.11)" fill="#fbfbf9"/>
            <path d="M0,24.89C4.77,22,9.55,19.18,14.32,16.28c6-3.6,12.06-7.2,18-11,2.27-1.41,4.85-2.27,7-4.22,1.8-1.73,4.3-1.18,6.49.15q15.62,10,31.78,19c3.68,2.19,7.44,4.14,11,6.41,1.41.87,3,1.65,2.82,3.76a3.3,3.3,0,0,1-1.72,2C77.26,39.77,64.81,47,52.37,54.48a4.57,4.57,0,0,1-2.19.71,9.08,9.08,0,0,1-3.92-1.65C32,44.93,17.69,36.56,3.37,28A11.68,11.68,0,0,1,0,24.89Z" transform="translate(0.11)" fill="#fbfbf9"/>
            <path d="M448.61,258.32c4.15-2.66,8.22-5.4,12.37-7.91,6.65-4,13.38-7.91,20-11.9,2.27-1.41,4.85-2.27,6.89-4.22,1.4-1.41,3.67-1.34,5.48-.16,10.25,6.5,20.74,12.68,31.31,18.71a5.46,5.46,0,0,1,1.25,1.41c4.62,1.25,8.37,4.07,12.29,6.42a2.72,2.72,0,0,1,1.49,2.89,3.28,3.28,0,0,1-1.73,2c-12.36,7.43-24.81,14.71-37.18,22.07a4.54,4.54,0,0,1-2.19.71c-1.64-.08-2.9-1-4.23-1.8-12.83-7.75-25.83-15.35-38.74-23-1-.62-1.88-1.64-3.06-2.11A8.91,8.91,0,0,1,448.61,258.32Z" transform="translate(0.11)" fill="#fbfbf9"/>
            <path d="M0,173.62c4.23-2.58,8.38-5.32,12.6-7.83,6.58-3.91,13.23-7.75,19.81-11.66,2.5-1.49,5.4-2.51,7.43-4.78.79.08.94-.7,1.49-.94,1.72-.7,3,.24,4.23,1,4,2.35,7.83,4.86,12,6.89,6.58,4.46,14.09,7.52,20.43,12.29,3.06,2.9,7.13,4.38,10.57,6.65,1.41.94,3.06,1.73,2.82,3.84a3.54,3.54,0,0,1-1.41,1.8Q71,192.17,52.05,203.37a4.64,4.64,0,0,1-1.87.54c-1.41,0-2.43-.78-3.6-1.41-9.95-6.1-20.2-11.89-30.22-17.92-1.88-1.1-3.76-2.11-5.64-3.29S7.12,179,5.24,178C3.37,176.75,1.25,175.73,0,173.62Z" transform="translate(0.11)" fill="#fbfbf9"/>
            <path d="M137,101.6c.23-2.27,2.42-1.95,3.75-2.81Q157.89,88.46,175,78c3.68-2.27,6.26.32,8.85,1.73,9.55,5.47,18.94,11.35,28.41,17.06,5.17,1.57,9.39,4.85,14.09,7.36a2.24,2.24,0,0,1,1,3c-2.43,2.66-5.72,4.07-8.69,5.79-9.47,5.56-18.94,11.28-28.41,16.83a14.16,14.16,0,0,1-3.84,1.8c-5-1-8.77-4.38-13-6.81-10.89-6.34-21.77-12.83-32.57-19.33C139.18,104.66,136.91,104.19,137,101.6Z" transform="translate(0.11)" fill="#f9f9f7"/>
            <path d="M539.33,263.64c-.7-3.29-4-3.37-6-4.93-2.27-1.72-4.86-3-7.28-4.46,4.15-3.21,7.43-1.49,11.35,1.17,18.31,12.53,36.87,24.66,56,37.42-17.69,11.74-35.15,23.32-52.53,34.91-1.56-1.41-.16-3.91-1.8-5.25-.86-1.25-2.5-1.95-3-3.52.23-1.33,1.33-1.8,2.19-2.58,1.88-1.64,2.5-3.52.86-5.72-.86-1.25-2.5-1.87-3-3.52.23-1.33,1.41-1.8,2.19-2.5,1.88-1.65,2.5-3.53.86-5.72-.86-1.25-2.5-1.88-3-3.52.23-1.33,1.41-1.8,2.19-2.5,1.88-1.65,2.5-3.53.86-5.72-.86-1.25-2.5-1.88-3-3.52.23-1.33,1.41-1.8,2.19-2.51,1.88-1.64,2.5-3.52.86-5.71-.86-1.25-2.5-1.88-3-3.44.15-1.18,1.09-1.73,2-2.27A4.37,4.37,0,0,0,539.33,263.64Z" transform="translate(0.11)" fill="#e3e1e0"/>
            <path d="M174.56,297.22q-52-30.06-104.11-60.19l-3-1.65a1.19,1.19,0,0,1,.39-1.41c5.09-3.52,9.94-7.36,16-9.08,8,3.84,15.49,8.61,23.17,13,23.17,13.3,46.18,26.77,69.35,40.07a7.69,7.69,0,0,1,1.57,1.18c.47,1.09-.32,1.8-.94,2.5-2,3.37-1.8,4.7,1,7a3.71,3.71,0,0,1,1.49,1.64c.24,1.88-1.49,2.35-2.5,3.21C175.26,294.17,175.81,296.2,174.56,297.22Z" transform="translate(0.11)" fill="#cc9e00"/>
            <path d="M81.49,78c19.1,11,38.12,21.92,57.22,33,.39,1.09-.47,1.64-.94,2.35-1.25,2.81-1.1,5.24,1.49,7.28a2.49,2.49,0,0,1,1.17,2c-.39,1.41-1.72,1.8-2.66,2.59-1.41.78-.39,3.36-2.66,3.6-5.33-1.65-9.71-4.93-14.41-7.67Q94.17,105.83,67.63,90.41c-1.17-.7-2.74-1.09-3-2.82.62-2.19,2.66-2.66,4.22-3.68,2.74-1.72,5.48-3.44,8.3-5C78.51,78.12,79.84,77,81.49,78Z" transform="translate(0.11)" fill="#f44d27"/>
            <path d="M216,155.62c16.36,9.39,32.72,18.86,49.08,28.25.7.16.7.79.86,1.34-1.64,4.22,1.33,6.57,3.6,9.31-.7,1.64-2.58,2-3.44,3.44-.94,1.57.07,3.92-2,5-3,.16-5-1.95-7.36-3.28-17.85-10.41-35.85-20.67-53.7-31.08-1.33-.78-2.82-1.41-3.75-2.74-.47-1.41.39-2.27,1.4-2.9,4.15-2.58,8.38-5.16,12.69-7.35C214.25,155.15,215.11,154.83,216,155.62Z" transform="translate(0.11)" fill="#f44d27"/>
            <path d="M90.8,30.37c-1.09-3.36-4.69-3.68-7-5.48-2-1.56-5.09-1.95-6.26-4.69,2.81-1.88,5.16-1.34,8.06.39,15,9.16,30.29,18,46,27.39-13.47,7.91-26.38,15.5-39.3,23-1.57-1.41-.16-3.92-1.88-5.25-.86-1.25-2.5-2-3-3.52.23-1.33,1.33-1.8,2.19-2.58,1.88-1.65,2.5-3.52.86-5.72-.86-1.25-2.5-1.88-3-3.52.23-1.33,1.41-1.8,2.19-2.5,1.88-1.65,2.5-3.53.86-5.72-.86-1.25-2.5-1.88-3-3.44.15-1.18,1.09-1.72,2-2.27C91.59,34.83,92.05,32.8,90.8,30.37Z" transform="translate(0.11)" fill="#e3e1e0"/>
            <path d="M355.38,179.1c-.94-3.37-4.38-3.68-6.73-5.32s-5.32-2.66-7.36-4.86c2.82-1.88,5.17-1.33,8.06.39,15,9.16,30.3,18,45.95,27.32-7.28,4.31-13.93,8.38-20.82,12.29-5.87,3.37-11.27,7.36-17.45,10.1-1.65-1.09-.47-3.44-2-4.62-.86-1.25-2.5-1.88-3.05-3.52.23-1.33,1.33-1.8,2.19-2.5,1.88-1.65,2.5-3.53.86-5.72-.86-1.25-2.5-1.88-3.05-3.52.23-1.33,1.41-1.8,2.19-2.51,1.88-1.64,2.5-3.52.86-5.71-.86-1.25-2.5-1.88-3.05-3.44.15-1.18,1.09-1.73,1.95-2.27C356.16,183.56,356.63,181.53,355.38,179.1Z" transform="translate(0.11)" fill="#e3e1e0"/>
            <path d="M227,107c-.71-3.6-4.47-3.29-6.66-4.94a96,96,0,0,0-8.14-5.16c3.45-2,6.26-.94,9.63,1.09,13.31,8.14,26.77,15.89,40.16,23.88.78.47,1.48,1.09,2.27,1.49,2.11,1,1.64,1.8-.08,2.81-8.14,4.78-16.28,9.71-24.43,14.49-3.67,2.19-7.43,4.22-11.19,6.34-1.17-1.18-.78-3.06-2-4.31-.78-1.41-2.74-1.72-3.13-3.52.08-1.33,1.1-2,2-2.66,2.27-1.49,2.58-3.37,1.09-5.64-.86-1.33-2.81-1.72-3.13-3.52.08-1.33,1.1-2,2-2.66,2.27-1.49,2.58-3.37,1-5.64-.87-1.33-2.82-1.72-3.14-3.52a2.5,2.5,0,0,1,1.41-2.12C227.79,112,228,109.67,227,107Z" transform="translate(0.11)" fill="#e3e1e0"/>
            <path d="M0,208.85c.55-2,3.6-.87,3.91-3.14a1,1,0,0,1,.94-.23,7.61,7.61,0,0,1,1.33.7,42.62,42.62,0,0,0,4.15,2.12,7.58,7.58,0,0,1,1.33.86C23.41,216.05,35,223.09,46.73,229.9a11.66,11.66,0,0,0,3.45,1.65c9.23-4.7,17.92-10.34,26.92-15.58,2.51-1.41,4.86-3,7.36-4.38,1.25-.71,2.51-1.41,4-1.1,1.57.55,3,1.25,3.45,3,0,1.57-1.18,2.2-2.35,2.9Q71.36,227,53.31,237.89a7.34,7.34,0,0,1-3.21,1.33c-1.65-.08-2.9-1-4.23-1.88-14.17-8.46-28.34-16.83-42.58-25.29A14.26,14.26,0,0,1,0,208.85Z" transform="translate(0.11)" fill="#fbfbf9"/>
            <path d="M0,197.1c.55-1.95,3.6-.86,3.91-3.13,1.8-.7,3,.55,4.23,1.33,12.68,7.52,25.21,15,38,22.39a16,16,0,0,0,4.14,2.11c8-3.83,15.27-8.84,23-13.15,3.6-2,7.12-4.3,10.72-6.42,1.25-.7,2.43-1.56,4-1.4,1.88.47,3.45,1.25,3.53,3.6-.16,1.17-1.1,1.72-2,2.27-12.29,7.35-24.66,14.63-37,22a4.5,4.5,0,0,1-2.19.71c-1.48,0-2.66-.86-3.91-1.65-11.43-7-23.17-13.62-34.6-20.58-.63-.32-1.17-.79-1.8-1.18a27.79,27.79,0,0,0-4-2.19,11.2,11.2,0,0,1-1.72-1.1A10.62,10.62,0,0,1,0,197.1Z" transform="translate(0.11)" fill="#fbfbf9"/>
            <path d="M175.42,305.21c.71-1.73,2.27-2.12,3.91-2.43,2.2-1.25,3.68.47,5.25,1.41,12.21,7.36,24.66,14.56,36.87,21.92,1.41.86,2.74,2.11,4.62,1.56,10.88-6,21.37-12.76,32.17-18.86,1.41-.87,2.74-2,4.62-1.73a9.13,9.13,0,0,1,3.13,1.57c1.72,2.9-.86,3.68-2.43,4.62-7.83,4.85-15.81,9.47-23.72,14.09-4.69,2.74-9.16,5.87-14.24,8-5.48-1.17-9.63-4.93-14.33-7.51-8.37-4.62-16.36-10-24.89-14.48-.63-.32-1.17-.79-1.8-1.18a17.83,17.83,0,0,0-3.91-2.27,7.71,7.71,0,0,1-1.81-1C177.38,307.87,175.81,307.08,175.42,305.21Z" transform="translate(0.11)" fill="#fbfbf9"/>
            <path d="M0,185.36c.55-2,3.6-.86,3.91-3.13a1.28,1.28,0,0,1,.94-.31,6.77,6.77,0,0,1,1.33.62,28.68,28.68,0,0,1,4.07,2.2c.47.31.87.62,1.26.86,1.48.94,3.05,1.8,4.62,2.74a5.58,5.58,0,0,1,.93.54c10.18,5.88,20.2,12.14,30.38,17.93a8.24,8.24,0,0,0,2.81,1.25c9.48-4.93,18.4-10.72,27.64-16,3.21-1.87,6-4.61,9.94-5,1.88.47,3.44,1.26,3.52,3.6-.16,1.18-1,1.73-2,2.27-12.21,7.36-24.5,14.49-36.71,21.84a5.05,5.05,0,0,1-2.5.87c-1.65-.08-2.9-1-4.23-1.88C31.78,205.32,17.53,197,3.37,188.49A11.68,11.68,0,0,1,0,185.36Z" transform="translate(0.11)" fill="#fbfbf9"/>
            <path d="M536.12,283.91c1.34.79,3.21,1.1,3.21,3.21.32,1.18-.62,1.57-1.4,2-12.29,7.43-24.74,14.64-37,22a4.44,4.44,0,0,1-2.19.71c-1.41,0-2.43-.78-3.6-1.41-9.94-6.11-20.2-11.9-30.22-17.93-1.88-1.09-3.76-2.11-5.63-3.28s-3.6-2.27-5.48-3.29c-2-1.25-4.07-2.27-5.33-4.38.63-1.88,3-.94,3.92-2.35.94-.79,1.8-.39,2.74-.08,12.52,7,24.65,14.48,37,21.76a35.52,35.52,0,0,0,6.58,3.37c7.9-3.84,15.18-8.85,22.86-13.15,3.6-2,7-4.31,10.64-6.35C533.46,284.23,534.56,283,536.12,283.91Z" transform="translate(0.11)" fill="#fbfbf9"/>
            <path d="M87.59,50.65c1.33.78,3.21,1.09,3.21,3.21.32,1.17-.62,1.56-1.41,2C77.1,63.33,64.74,70.61,52.37,78a4.47,4.47,0,0,1-2.19.71A9.18,9.18,0,0,1,46.26,77C32,68.41,17.69,60,3.37,51.51A11.75,11.75,0,0,1,0,48.38c.55-2,3.6-.87,3.91-3.14,1.8-.7,3,.55,4.23,1.34,12.68,7.51,25.21,15,38,22.38a16,16,0,0,0,4.14,2.12c8-3.84,15.19-8.85,22.86-13.15,3.6-2,7-4.31,10.65-6.34C84.93,51,86,49.71,87.59,50.65Z" transform="translate(0.11)" fill="#fbfbf9"/>
            <path d="M87.59,38.9c1.33.79,3.21,1.1,3.21,3.21.32,1.18-.62,1.57-1.41,2-12.29,7.44-24.65,14.71-37,22.07a4.57,4.57,0,0,1-2.19.71,9.08,9.08,0,0,1-3.92-1.65C32,56.67,17.69,48.3,3.37,39.77A11.79,11.79,0,0,1,0,36.63c.55-2,3.6-.86,3.91-3.13,1.8-.7,3,.55,4.23,1.33,12.68,7.52,25.21,15,38,22.39a16,16,0,0,0,4.14,2.11c8-3.83,15.19-8.84,22.86-13.15,3.6-2,7-4.3,10.65-6.34C84.93,39.22,86,38,87.59,38.9Z" transform="translate(0.11)" fill="#fbfbf9"/>
            <path d="M352.17,187.63c1.33.78,3.21,1.1,3.21,3.21.31,1.18-.62,1.57-1.41,2-12.37,7.43-24.73,14.71-37.1,22.07a5.64,5.64,0,0,1-2.19.71c-1.49-.08-2.66-.94-3.92-1.65q-21.6-12.91-43.21-25.67c-1.17-.71-2.74-1.18-2.34-3.06-.08-.47-.16-.86-.24-1.33,1.72.71,2.74-.15,3.44-1.64a1.24,1.24,0,0,1,.94-.31,6.77,6.77,0,0,1,1.33.62,30.36,30.36,0,0,1,4.08,2.19c.46.32.86.63,1.25.87,1.48.93,3.05,1.8,4.62,2.73a7.14,7.14,0,0,1,.94.55c10.17,5.87,20.19,12.14,30.37,17.93a8.4,8.4,0,0,0,2.82,1.25c9.15-4.7,17.84-10.33,26.69-15.5,2.35-1.33,4.69-2.89,7-4.23C349.75,187.79,350.76,186.69,352.17,187.63Z" transform="translate(0.11)" fill="#fbfbf9"/>
            <path d="M87.59,62.39c1.33.78,3.21,1.09,3.21,3.21.32,1.17-.62,1.56-1.41,2C77.1,75.07,64.66,82.27,52.29,89.71a4.52,4.52,0,0,1-2.19.7c-1.49-.08-2.66-.94-3.92-1.64C32,80.16,17.69,71.78,3.37,63.25A11.75,11.75,0,0,1,0,60.12c.55-2,3.6-.86,3.91-3.13,1.8-.71,3,.54,4.23,1.33,12.68,7.51,25.21,15,38,22.38a15.73,15.73,0,0,0,4.14,2.12C58.24,79,65.44,74,73.11,69.67c3.6-2,7-4.31,10.65-6.34C84.93,62.7,86,61.45,87.59,62.39Z" transform="translate(0.11)" fill="#fbfbf9"/>
            <path d="M536.12,295.66c1.34.78,3.21,1.09,3.21,3.2.32,1.18-.62,1.57-1.4,2-12.37,7.44-24.74,14.72-37.11,22.07a5.43,5.43,0,0,1-2.19.71,7.35,7.35,0,0,1-3.52-1.49c-14.48-8.69-29-17.22-43.53-25.91-1.17-.7-2.73-1.17-2.34-3.13.39-.7,1.72-.86,1.41-2a2.25,2.25,0,0,0,1.87-.87,1.28,1.28,0,0,1,.94-.31,6.79,6.79,0,0,1,1.33.63,28.61,28.61,0,0,1,4.07,2.19c.47.31.87.63,1.26.86,1.48.94,3.05,1.8,4.62,2.74a5.66,5.66,0,0,1,.93.55c10.18,5.87,20.2,12.13,30.38,17.92a8.45,8.45,0,0,0,2.81,1.26c9.16-4.7,17.85-10.34,26.7-15.5,2.35-1.33,4.69-2.9,7-4.23C533.7,295.81,534.72,294.72,536.12,295.66Z" transform="translate(0.11)" fill="#fbfbf9"/>
            <path d="M175.34,316.87c.86-1.72,2.51-2.11,4.15-2.51a1.71,1.71,0,0,1,1.49-.31,22.32,22.32,0,0,1,4.07,2.11,18.23,18.23,0,0,0,1.8,1c11.58,7.05,23.33,13.78,34.91,20.75,1.33.78,2.58,1.95,4.31,1.25,10.88-6.11,21.44-12.76,32.25-19,1.48-.86,2.81-1.88,4.62-1.8a4.63,4.63,0,0,1,3.44,2.19c.47,1.56-.39,2.58-1.57,3.29-13.07,7.82-25.91,16-39.45,23-4.93-.86-8.53-4.23-12.68-6.58-11.27-6.49-22.39-13.23-33.58-19.8C177.69,319.61,176.05,318.83,175.34,316.87Z" transform="translate(0.11)" fill="#fbfbf9"/>
            <path d="M536.12,272.17c1.34.78,3.21,1.1,3.21,3.21.32,1.18-.62,1.57-1.4,2-12.29,7.43-24.74,14.63-37,22a4.54,4.54,0,0,1-2.19.71c-1.65-.08-2.9-1-4.23-1.88-12.84-7.75-25.83-15.34-38.75-23a21.42,21.42,0,0,0-3.05-2.11,9,9,0,0,1-4.15-3.13c.39-2.19,3-1,3.84-2.5.94-.79,1.8-.4,2.74-.08,12.52,7,24.65,14.48,37,21.76a34.88,34.88,0,0,0,6.58,3.36c7.9-3.83,15.18-8.84,22.86-13.15,3.6-2,7-4.3,10.64-6.34C533.46,272.49,534.56,271.23,536.12,272.17Z" transform="translate(0.11)" fill="#fbfbf9"/>
            <path d="M223.87,115.54c.55,1.56,3.06,1.17,3.14,3.21-.24,1.33-1.34,1.88-2.27,2.5-12.22,7.28-24.35,14.48-36.64,21.61a5,5,0,0,1-1.8.62c-4.62-.86-8.14-4-12.05-6.26C162.74,130.57,151.39,123.76,140,117c-1.49-.86-3.83-1.49-3-4.23.54-.63,1.56-.7,1.64-1.72h1.49c2.19-1.25,3.75.47,5.24,1.41,12.21,7.43,24.66,14.56,36.87,21.91,1.41.87,2.74,2.12,4.62,1.49,10.88-6.1,21.45-12.84,32.33-18.94C220.67,116,222,114.6,223.87,115.54Z" transform="translate(0.11)" fill="#fbfbf9"/>
            <path d="M0,60.12c16.67,9.94,33.42,19.8,50.1,29.74,1.41,2.12,1.64,4.15-.63,5.87-2,.32-3.44-.86-5.09-1.72s-2.42-.47-2.5,1.41c-.08,1,0,2.11,0,3.13v44.78c0,2,.16,4.15-1.18,6-.23.71-.54.47-.86,0,0-18.78,0-37.57.16-56.36,0-2.27-.78-3.44-2.74-4.61C25.75,81.72,14.48,74.76,3,68.18-.7,66.14.16,63.09,0,60.12Z" transform="translate(0.11)" fill="#e6e2d5"/>
            <path d="M266.3,320.86c-1-.63-2.11-1.17-3.13-1.8,1.49-3.05,4.07-5.64,3.84-9.39-.08-1.18,1.09-1.49,1.95-1.49a212.59,212.59,0,0,1,23.41.16,2,2,0,0,1,1.25.86c-5.56,4.69-12,8.14-17.93,12.37a10.91,10.91,0,0,0-3.44,3.2H384.58c1.49,0,3.13-.54,4.54.63-19,0-38,.08-57.14.08H267.79C266.22,324.23,267.24,322.27,266.3,320.86Z" transform="translate(0.11)" fill="#bc9717"/>
            <path d="M175.34,316.87q24.78,15.25,50,29.67c1.25,1.72.94,3.75.94,5.63-2.19,1.1-3.68-.78-5.17-1.64-14-8.22-27.86-16.68-41.95-24.74C175.26,323.6,174.79,320.63,175.34,316.87Z" transform="translate(0.11)" fill="#e6e2d5"/>
            <path d="M226.3,328.69c-2.19,1.09-3.52-.78-5.09-1.72q-19.25-11.4-38.35-22.78a24.49,24.49,0,0,0-3.6-1.41c-1.49-1.88-4.47-2.58-4.7-5.56.78-1.41-.55-3.6,1.64-4.46,15.27,9.63,31,18.55,46.5,27.87,1.1.7,2.35,1.17,3.13,2.27C226.54,324.77,225.75,326.81,226.3,328.69Z" transform="translate(0.11)" fill="#e6e2d5"/>
            <path d="M0,208.85c16.67,9.94,33.42,19.8,50.1,29.74,1.56,2,1.09,4,.15,6.11C34.52,235.38,18.79,226,3,216.91-.7,214.79.16,211.82,0,208.85Z" transform="translate(0.11)" fill="#e6e2d5"/>
            <path d="M451.58,325.4c-3.36-2.19-4-5.17-2.34-8.69,5.87,2.19,10.88,6,16.28,9.16,9.7,5.79,19.49,11.35,29.12,17.3,1.72,1.1,3.75,1.88,4.69,3.91a6.9,6.9,0,0,1-.54,5.56c-14.49-8.53-29-17-43.37-25.52A10.1,10.1,0,0,0,451.58,325.4Z" transform="translate(0.11)" fill="#e6e2d5"/>
            <path d="M0,36.63c16.67,9.95,33.42,19.81,50.1,29.75,1.56,2,1.09,4,.15,6Q28.53,59.6,6.65,46.81a29.9,29.9,0,0,0-2.74-1.49C-.23,43.68-.23,40.23,0,36.63Z" transform="translate(0.11)" fill="#e6e2d5"/>
            <path d="M50.33,84.15,6.65,58.55a29.9,29.9,0,0,0-2.74-1.49C-.23,55.5-.31,52.05,0,48.45,16.67,58.4,33.42,68.26,50.1,78.2,51.74,80.08,51.27,82.11,50.33,84.15Z" transform="translate(0.11)" fill="#e6e2d5"/>
            <path d="M0,185.36c16.67,9.94,33.42,19.81,50.1,29.75,1.56,1.95,1.09,4,.15,6C35.69,212.6,21.14,204,6.58,195.46c-.87-.55-1.81-1-2.74-1.49C-.23,192.41-.23,189,0,185.36Z" transform="translate(0.11)" fill="#e6e2d5"/>
            <path d="M50.33,60.67,6.65,35.07a29.9,29.9,0,0,0-2.74-1.49C-.23,32-.31,28.57,0,25c16.67,9.94,33.42,19.8,50.1,29.75C51.74,56.59,51.27,58.63,50.33,60.67Z" transform="translate(0.11)" fill="#e6e2d5"/>
            <path d="M187.16,136.91c-2.19,1.09-3.52-.78-5.09-1.72q-19.24-11.4-38.35-22.78a24.49,24.49,0,0,0-3.6-1.41c-2.66-1.88-4.54-4.07-4.23-7.59.08-.94.31-1.41,1.1-1.73,4.77,4.31,10.56,6.89,16,10.1,11,6.58,22.08,13.07,33.11,19.57C187.79,132.92,186.54,135.11,187.16,136.91Z" transform="translate(0.11)" fill="#e6e2d5"/>
            <path d="M226.3,352.17c-1.49-1.72-1.17-3.68-.94-5.63,12.21-7.21,24.35-14.41,36.48-21.77,1.64-1,4.07-1.33,4.38-3.91,2.12,1,1,3.05,1.49,4.62.16,2.27-1.49,3-3.13,4C251.9,337,239.06,344.58,226.3,352.17Z" transform="translate(0.11)" fill="#b2a68e"/>
            <path d="M50.25,244.7c-.07-2-.07-4.07-.15-6.11,13.31-7.83,26.53-15.65,39.84-23.56a14.05,14.05,0,0,0,1.8-1.49c2.58,1.33,1.41,3.6,1.33,5.56-.94,2.66-3.6,3.29-5.56,4.77a6.56,6.56,0,0,1-1.87.94,4,4,0,0,1-1.88.4c-5.8,2.89-11.51,5.87-16.44,10C62.15,237,58,240.47,53.23,242.9,52.29,243.52,51.27,244.07,50.25,244.7Z" transform="translate(0.11)" fill="#b1a68e"/>
            <path d="M227,142.23c2.74.86.94,3.21,1.56,4.78-2.58,3.05-6.5,4.07-9.63,6.34-1,.7-2.42,1-3,2.27-5.79,2.74-11.59,5.55-16.36,9.94-3.92,2.89-7.91,5.63-12.68,6.89-2.19-1.65-1.88-3.84-1.33-6,2.11-2.58,5.16-3.84,8-5.48,9.86-5.79,19.65-11.66,29.51-17.46C224.27,142.78,225.36,141.68,227,142.23Z" transform="translate(0.11)" fill="#b2a68e"/>
            <path d="M498.79,352.72c-.08-2-.08-4.07-.16-6.11.47-1.72,2-2.27,3.29-3.05,10.88-6.57,21.92-12.84,32.72-19.49,1.41-.86,2.82-1.88,4.62-1.72.7-.16,1.56-.55,1.56.78,0,1.57,0,3.13-.08,4.62-3.21,1.88-6.42,3.76-9.55,5.79-1.09.71-2.74,1-3.05,2.74-5.71,3.05-10.8,7.2-17,9.39C507.16,348,503,350.37,498.79,352.72Z" transform="translate(0.11)" fill="#b2a68e"/>
            <path d="M355.38,214.32c.71-.15,1.49-.62,1.57.71s.08,2.74.15,4.07c-3.13,3.37-7.59,4.7-11.19,7.36-1.1.78-2.66,1.09-3.21,2.66-3.52.23-5.87,2.9-8.77,4.38s-5.4,3.37-8.14,5c-3.36,3.06-6.49,6.34-11.58,6.11a7.78,7.78,0,0,1-.24-5.48c.63-1.57,2-2.35,3.37-3.13,11.19-6.81,22.54-13.31,33.74-20.12C352.41,215,353.74,214.17,355.38,214.32Z" transform="translate(0.11)" fill="#b2a68e"/>
            <path d="M49.47,95.5c1.33-1.72.39-3.76.71-5.64,13.54-8.06,27.08-16.2,40.7-24.26.71-.16,1.57-.55,1.57.78V71C89,73.66,84.7,74.91,81.57,78c-5.88,2.43-11.12,6-16.44,9.48-1.88,2.58-4.93,3.44-7.36,5.24-.47.31-.86.63-1.33.94-1.49.7-2.74,1.72-4.23,2.43C51.19,96.36,49.94,97.46,49.47,95.5Z" transform="translate(0.11)" fill="#b1a68e"/>
            <path d="M453.07,290.25h-.62c-4.15-1.56-4.23-5-3.92-8.61a20.5,20.5,0,0,1,5.56,3.76,1.51,1.51,0,0,1-.08.55C452.29,287,455,289.16,453.07,290.25Z" transform="translate(0.11)" fill="#e4e2d5"/>
            <path d="M4.54,182.23H3.91c-4.14-1.56-4.22-5-3.91-8.61a20.42,20.42,0,0,1,5.56,3.76,1.54,1.54,0,0,1-.08.55C3.76,178.94,6.42,181.13,4.54,182.23Z" transform="translate(0.11)" fill="#e4e2d5"/>
            <path d="M269.12,182.23h-.63c-4.15-1.56-4.22-5-3.91-8.61a20.58,20.58,0,0,1,5.56,3.76,1.54,1.54,0,0,1-.08.55C268.34,178.94,271,181.13,269.12,182.23Z" transform="translate(0.11)" fill="#e4e2d5"/>
            <path d="M0,197.1c1.57,1.1,3.13,2.12,4.7,3.21-.39,1.8,1,3.68-.16,5.4H3.91C-.23,204.15-.31,200.7,0,197.1Z" transform="translate(0.11)" fill="#e4e2d5"/>
            <path d="M448.61,270.06c1.49.78,3,1.56,4.38,2.27,1.57,1.09-.07,2.66.63,3.91.08,1,.63,2.27-1.17,2.43C448,277.18,448.38,273.58,448.61,270.06Z" transform="translate(0.11)" fill="#05a64d"/>
            <path d="M448.61,258.32c1.49.78,3,1.56,4.38,2.27,1.57,1.09-.07,2.66.63,3.91.08,1,.63,2.27-1.17,2.43C448,265.44,448.38,261.84,448.61,258.32Z" transform="translate(0.11)" fill="#05a64d"/>
            <path d="M175.42,305.21l4,3.28c-.15,1.73,1,3.53-.08,5.25C174.64,312.41,175.26,308.65,175.42,305.21Z" transform="translate(0.11)" fill="#d3decb"/>
            <path d="M179.33,313.74c.79-1.72-1.8-3.52.08-5.25.47.24.94.39,1.41.63,1.41,1.8,3.37,3.52.08,5.32h-1.33A3.44,3.44,0,0,0,179.33,313.74Z" transform="translate(0.11)" fill="#01a952"/>
            <path d="M452.45,266.93c1.56-.86,1-1.72.07-2.66.79-1.8,1.8-.87,2.82-.32,1.33,1.65.71,3.06-.62,4.39-.79-.24-1.57-.55-2.35-.79A1.88,1.88,0,0,0,452.45,266.93Z" transform="translate(0.11)" fill="#eef7f1"/>
            <path d="M452.45,278.67c1.56-.86,1-1.72.07-2.66.79-1.8,1.8-.86,2.82-.32,1.33,1.65.71,3.06-.62,4.39-.79-.24-1.57-.55-2.27-.78Z" transform="translate(0.11)" fill="#eef7f1"/>
            <path d="M539.33,322.35c-13.54,8.06-27.08,16.2-40.7,24.26-14.48-8.61-29-17.14-43.37-25.83-2-1.25-4.69-1.64-6-4.07,1.09-.7,2.19-1.49,3.28-2.19a1.53,1.53,0,0,1,.87-.55,2.09,2.09,0,0,1,1,.24c1.49.7,2.9,1.33,4.31,2.11a15.22,15.22,0,0,1,1.41.86c11.74,6.89,23.32,13.94,35.07,20.75a11.83,11.83,0,0,0,3.44,1.64c9.24-4.7,17.93-10.33,26.85-15.5,2.35-1.33,4.62-2.9,7-4.15,1.09-.55,2.11-1.64,3.52-.78S539.33,320.23,539.33,322.35Z" transform="translate(0.11)" fill="#fbfbf9"/>
            <path d="M293.54,309.12c-7.9,0-15.89-.08-23.79-.08-1,0-2.67-.55-2.12,1.57,1,4.15-1.25,6.49-4.46,8.45-7.28,3.37-13.93,7.91-20.82,11.9-5.4,3.13-10.73,6.34-16,9.47-3.83-1.33-2.19-3.52-.86-5.64,12.76-7.59,25.44-15.1,38.12-22.77.94-.55,3.6-.55,2.11-3.06.87-2.5,3.06-1.88,4.78-1.88q13-.1,26.07,0c5.16.16,10.41-.07,15.57,0a9.82,9.82,0,0,1,4.23.55,1.23,1.23,0,0,1,.71,1.18C309.2,308.88,301.37,309,293.54,309.12Z" transform="translate(0.11)" fill="#b2a68e"/>
            <path d="M317,308.73c.08-.16.08-.32,0-.39,1.41-1.57,3.28-1.33,5.09-1.33,39.13-.08,78.35,0,117.49-.08,2,0,3.84.7,5.79.62l1.8.71c-.78.94-1.95.62-2.89.62q-63.06,0-126.11-.07A3.09,3.09,0,0,1,317,308.73Z" transform="translate(0.11)" fill="#e3e1e0"/>
            <path d="M453.39,314.44c-.24,0-.55.08-.79.08-.86-2.27-4.77-2.19-4.15-5.56.4-1.33-.39-2.89.79-4.07,1.8.63,3.6,1.33,4.61,3.13C451.74,310.06,455,312.41,453.39,314.44Z" transform="translate(0.11)" fill="#e4e0d1"/>
            <path d="M445.4,307.63c-1.41,1.1-3,.63-4.54.63H322.11c-1.72,0-3.36.08-5.08.15-6.81-.07-13.55-.07-20.36-.15-.23-2,1.49-2.59,2.74-3.37,4.93-3.36,10-6.65,14.95-10,3-2,3.06-2.42.24-4.3C296.36,278.36,278.12,266.3,260,254c-2.74-1.88-4.62,0-7,.24-4.38-.63-7.9-3.29-11.5-5.4-7.13-4.31-14.09-8.77-21.37-12.84a5.58,5.58,0,0,0-6.19.15c-10.8,6.5-21.76,12.76-32.4,19.34-1.65,1-3.6,1.49-4.94,3.13-2.73,3.6.32,5.71,2.2,8.14.15,1.72-1.41,2.43-2.2,3.6-1.56,2.35-1.4,4.46.71,6.34a3.33,3.33,0,0,1,1.41,2.12c-.24.54-.55.94-1.25.62-13.39-7.67-26.85-15.26-40.16-22.93C120.63,247,104,237.26,87.44,227.63c-1.26-.7-2.43-1.56-3.6-2.27.23-.62.86-.78,1.48-.86a23.32,23.32,0,0,1,7.67-1q91,0,181.92,0a21,21,0,0,1,11.43,3.21c8,4.93,16.05,9.71,24.19,14.41a14.44,14.44,0,0,1,4.38,3.75l11-6.26,117.89,68.1A6.14,6.14,0,0,1,445.4,307.63Z" transform="translate(0.11)" fill="#fefefe"/>
            <path d="M453.31,308.34c-1-1.57-3.37-1.49-4.07-3.37,1.25-.78,2.5-1.57,3.75-2.27,2.43-1.1,3.92.86,5.64,1.88,12.21,7.2,24.42,14.48,36.71,21.68a13.24,13.24,0,0,0,3.52,1.72c6.89-3.05,13-7.51,19.57-11.11,4.78-2.58,9.32-5.64,14-8.3,1.17-.62,2.27-2,3.83-.94,1.33.78,3.21,1.1,3.21,3.21.31,1.18-.63,1.57-1.41,2-12.29,7.43-24.73,14.63-37,22a4.57,4.57,0,0,1-2.2.71c-1.48,0-2.66-.94-3.91-1.65-11.43-7-23.17-13.62-34.6-20.58-.62-.4-1.25-.79-1.8-1.18a32.71,32.71,0,0,0-3.68-2.11A6.07,6.07,0,0,1,453.31,308.34Z" transform="translate(0.11)" fill="#fbfbf9"/>
            <path d="M498.86,329.16c-14.48-8.53-29-17-43.44-25.52-.78-.47-1.64-.7-2.43-1.1-3.68-2.19-5.95-4.93-3.75-9.39,4.07,3.76,9.08,5.87,13.7,8.61,11.82,7.2,23.79,14.25,35.77,21.29C500.27,325.09,499.8,327.12,498.86,329.16Z" transform="translate(0.11)" fill="#e6e2d5"/>
            <path d="M352.17,187.63q-18.66,10.92-37.26,21.84a4.39,4.39,0,0,1-.15-6.1c13.54-8.07,27.08-16.21,40.7-24.27,2.11.86,2.27,4.54.31,6.11C354.6,186.07,353.35,186.85,352.17,187.63Z" transform="translate(0.11)" fill="#b2a68e"/>
            <path d="M314.76,203.37c.07,2,.07,4.07.15,6.1-11.43-6.5-22.86-13-33.89-20.27a16.8,16.8,0,0,1-.47-4.86,1.53,1.53,0,0,1,.7-.7C292.45,190.22,303.56,196.79,314.76,203.37Z" transform="translate(0.11)" fill="#e6e2d5"/>
            <path d="M306.69,156.79c-10.1,5.48-19.65,11.9-30,17-.23-.47-.55-.94-.78-1.41,10-5.72,20-11.43,30-17.15C306.14,155.69,306.46,156.24,306.69,156.79Z" transform="translate(0.11)" fill="#e4e4e4"/>
            <path d="M309.28,163.52c-3.61,3.21-7.91,4.78-11.75,7.13s-7.59,4.46-11.42,6.65c-.63.31-1.41,1.1-2.12.23s.24-1.48.86-1.8c7.36-4.3,14.8-8.53,22.23-12.76C307.71,162.58,308.34,162.66,309.28,163.52Z" transform="translate(0.11)" fill="#e5e5e4"/>
            <path d="M301.68,164c-7.12,4.15-13.54,7.91-20,11.59a1,1,0,0,1-1.41-.24c-.47-.55,0-.86.47-1.17,6.34-3.76,12.45-7.91,19.26-10.73C300.12,163.37,300.43,163.6,301.68,164Z" transform="translate(0.11)" fill="#e5e5e4"/>
            <path d="M317.73,186.85c-1.8.08-2.9,2.11-6.11,1.64,5.48-3.68,10-7,15.5-8.61,1.18,1.88-.54,2.51-1.56,3.21A27.64,27.64,0,0,1,317.73,186.85Z" transform="translate(0.11)" fill="#afafaf"/>
            <path d="M317,176.75c.78,0,1.8.16,1.72,1,0,.47-1.1.94-1.72,1.41-3.06,3.13-6.27,5.71-11,5.56-.94-.55-.32-1.18,0-1.73C309.12,179.73,313,178,317,176.75Z" transform="translate(0.11)" fill="#b2b2b2"/>
            <path d="M280.31,189.2c-1.56-1-3.21-2.12-4.77-3.13a34.93,34.93,0,0,1-.55-4.86,1.77,1.77,0,0,1,.7-.78c1.88,1.1,3.68,2.19,5.56,3.21l-.23.16C279.06,185.36,281.57,187.55,280.31,189.2Z" transform="translate(0.11)" fill="#d8e0ce"/>
            <path d="M310.84,176c3.92-1.49,7.05-4.54,12-5.79-2,3.52-5.33,3.75-7.28,5.79a3.29,3.29,0,0,1-2.51,2C311.55,178.24,310.06,178.24,310.84,176Z" transform="translate(0.11)" fill="#b1b1b1"/>
            <path d="M328.92,181.53c1.73-.08,2.9-2.35,5.56-.94a47.69,47.69,0,0,1-11.11,6.18c-1.65-.86-1.18-1.88,0-2.58C325.17,183.17,326.89,181.92,328.92,181.53Z" transform="translate(0.11)" fill="#b3b4b3"/>
            <path d="M310.92,171.35c1.33-.08,2.5-1.64,4.23-.39-3,2.82-6.81,4.07-10.1,6.26-.55.39-1.33.47-1.65-.31-.39-1,.87-1.1,1.18-1.72C306,172.76,308.49,172.13,310.92,171.35Z" transform="translate(0.11)" fill="#b2b2b2"/>
            <path d="M310.84,176c1.57,3.44,3.13-.24,4.7,0,.31.62.94.7,1.56.78a83.58,83.58,0,0,1-11,6.26l-1.56-1.33c1.17-2.27,4-2.35,5.48-4.22C310.06,176.83,310.14,176.28,310.84,176Z" transform="translate(0.11)" fill="#f2eeec"/>
            <path d="M274.6,185.36c-1.49-.78-3.05-1.64-4.54-2.42.16-1.81-.78-3.61-.08-5.41l.16-.23c1.88,1,3.68,2,5.55,3l-.15.24C273.89,181.92,276.32,184.11,274.6,185.36Z" transform="translate(0.11)" fill="#dbe1d0"/>
            <path d="M318,180c.94,0,2.82.47,1.65,1.25-3.21,2.12-6.11,5.09-10.33,5.25-.24,0-.47-.24-.63-.39C310.68,182.39,314.6,181.53,318,180Z" transform="translate(0.11)" fill="#b2b2b1"/>
            <path d="M328.92,181.53c-1.25,1.56-3.13,2.11-4.77,3-1,.55-1.65,1.18-.78,2.27-.4.08-.71.08-1.1.16-1.1.78-2.27,1.33-3.68.62-.31-.23-.55-.54-.86-.78,1.64-2,4.23-2.43,6.26-3.91,1.18-.86,3.05-1.1,3.13-3.06C327.75,180.43,328.38,181,328.92,181.53Z" transform="translate(0.11)" fill="#f1f3f0"/>
            <path d="M299,176.59c-2.5,1.49-5.09,3-7.59,4.47-.78.47-1.57.54-2-.32-.55-1.09.63-1.17,1.18-1.48,1.72-1.1,3.52-2.12,5.32-3.21C297,175.5,298,174.87,299,176.59Z" transform="translate(0.11)" fill="#63c36e"/>
            <path d="M302.54,178.71l-7.28,4.23c-.7.39-1.48.86-2,0-.71-1,.47-1.34,1-1.57,2.58-1.25,4.77-3.68,7.9-3.68A10.75,10.75,0,0,0,302.54,178.71Z" transform="translate(0.11)" fill="#66c471"/>
            <path d="M303.64,174.25c-1.33.15-2.51,1.64-4.46.23,3.36-2,5.95-4.7,9.94-4.77,1.1,1.41-.08,2-1,2.58A16.09,16.09,0,0,1,303.64,174.25Z" transform="translate(0.11)" fill="#b3b3b2"/>
            <path d="M318,180c-3.13,2-6.18,4.07-9.31,6.11-.86-.47-1.64-.94-2.51-1.33,4.15-.94,7.13-4.07,11-5.56A6.82,6.82,0,0,1,318,180Z" transform="translate(0.11)" fill="#f2f2f0"/>
            <path d="M318.59,187.63c1.17-.47,2.35-1.09,3.68-.62.08,1.8-1.57,1.87-2.58,2.42-1.18.63-2.66,2.43-3.6.86S317.89,188.73,318.59,187.63Z" transform="translate(0.11)" fill="#6dc777"/>
            <path d="M310.06,177.46c-.39,3.28-3.52,3-5.48,4.22-.71-.47-1.25-1.17-.24-1.72C306.14,179.1,307.63,177.3,310.06,177.46Z" transform="translate(0.11)" fill="#b23d40"/>
            <path d="M320.78,192.88c-1.64.94-3.21,1.88-4.69,2.81-.47.32-.94.47-1.41,0-.24-.23-.55-.62-.47-.86C314.44,193.66,319.14,192.17,320.78,192.88Z" transform="translate(0.11)" fill="#3a91ca"/>
            <path d="M303.64,174.25c1.25-2.2,4.77-1.65,5.48-4.54.63.54,1.17,1.09,1.8,1.64-1.72,2-4.23,2.66-6.42,3.84A10.35,10.35,0,0,1,303.64,174.25Z" transform="translate(0.11)" fill="#f1f1f0"/>
            <path d="M298.08,185.83a7,7,0,0,1-1.17-.86c.94-2,3-2.43,4.77-3.37.47-.23,1.33.24,1.18.63C302.07,184.42,299.65,184.42,298.08,185.83Z" transform="translate(0.11)" fill="#2f8bc7"/>
            <path d="M50.33,60.67c-.08-2-.08-4.08-.15-6,13.54-8.06,27.08-16.21,40.7-24.27,2.11.86,2.27,4.54.31,6.11-1.09.86-2.34,1.64-3.52,2.42q-17.49,10.22-35,20.51C51.9,59.88,51.12,60.27,50.33,60.67Z" transform="translate(0.11)" fill="#b2a68e"/>
            <path d="M42.19,7.91c-9.94,5.79-19.8,11.82-30,17.22a18.6,18.6,0,0,1-.86-1.65L41.41,6.34A9.57,9.57,0,0,0,42.19,7.91Z" transform="translate(0.11)" fill="#e4e4e4"/>
            <path d="M44.31,14.64c-.08,1-.79,1.33-1.49,1.72-6.89,4-13.86,8-20.82,12-.79.39-1.88,1.64-2.59.23-.47-.94.79-1.49,1.49-2,7-4,13.86-8.06,20.82-12C42.58,14.17,43.52,13.39,44.31,14.64Z" transform="translate(0.11)" fill="#e5e5e4"/>
            <path d="M15.34,25.91A230.07,230.07,0,0,1,35.77,14.17a12.49,12.49,0,0,0,.79,1.41c-6.81,3.91-13.7,7.83-20.51,11.74A11.64,11.64,0,0,1,15.34,25.91Z" transform="translate(0.11)" fill="#e5e5e4"/>
            <path d="M53.15,38.12c-1.56.63-3.13,1.33-4.77,2l-.47-.94c4.61-3.13,9.15-6.34,14.63-8C63.72,33,62,33.66,61,34.36A27.64,27.64,0,0,1,53.15,38.12Z" transform="translate(0.11)" fill="#afafaf"/>
            <path d="M41.57,36c-.94-.55-.32-1.18,0-1.72,3-3.21,6.81-5,11-6.27.79,0,1.8.16,1.73,1,0,.47-1.1.94-1.73,1.41C49.47,33.5,46.26,36.16,41.57,36Z" transform="translate(0.11)" fill="#b2b2b2"/>
            <path d="M46.26,27.24c3.84-1.49,7.05-4.54,12.06-5.87-2,3.6-5.4,3.84-7.36,5.87a3.32,3.32,0,0,1-2.51,2C47,29.51,45.48,29.51,46.26,27.24Z" transform="translate(0.11)" fill="#b1b1b1"/>
            <path d="M46.34,22.62c1.33-.08,2.51-1.64,4.23-.39-3,2.82-6.81,4.07-10.1,6.26-.55.39-1.33.47-1.64-.31-.4-1,.86-1.1,1.17-1.72C41.41,24,43.91,23.41,46.34,22.62Z" transform="translate(0.11)" fill="#b2b2b2"/>
            <path d="M46.26,27.24c1.57,3.44,3.13-.23,4.7,0,.31.63.94.71,1.56.78a84.18,84.18,0,0,1-11,6.27L40,33c1.17-2.27,4-2.34,5.48-4.22C45.48,28.1,45.56,27.55,46.26,27.24Z" transform="translate(0.11)" fill="#f2eeec"/>
            <path d="M64.34,32.8c1.73-.16,3-2.12,5.8-1.1A48.29,48.29,0,0,1,58.86,38c-1.64-.86-1.17-1.88,0-2.58C60.59,34.44,62.31,33.19,64.34,32.8Z" transform="translate(0.11)" fill="#b3b4b3"/>
            <path d="M53.39,31.23c.93,0,2.81.47,1.64,1.26-3.21,2.11-6.11,5.08-10.33,5.24-.24,0-.47-.23-.63-.39C46.11,33.66,50,32.8,53.39,31.23Z" transform="translate(0.11)" fill="#b2b2b1"/>
            <path d="M64.34,32.8c-1.25,1.56-3.13,2.11-4.77,3-1,.55-1.64,1.18-.78,2.27-.39.08-.71.08-1.1.16-1.1.78-2.27,1.33-3.68.63-.31-.24-.55-.55-.86-.79,1.64-1.95,4.23-2.42,6.26-3.91,1.18-.86,3.06-1.1,3.13-3.05C63.17,31.7,63.8,32.25,64.34,32.8Z" transform="translate(0.11)" fill="#f1f3f0"/>
            <path d="M25.83,32.8c-.39-.39-.86-.63-1.09-1s.15-.63.47-.78c2.34-1.41,4.69-2.74,7-4.07a1.29,1.29,0,0,1,2,.62c.31.79-.63.94-1.18,1.26C30.68,30.14,28.34,31.39,25.83,32.8Z" transform="translate(0.11)" fill="#63c36e"/>
            <path d="M39.06,25.52c-1.33.16-2.5,1.64-4.46.23C38,23.8,40.55,21.06,44.54,21c1.1,1.41-.08,2-1,2.58A16.09,16.09,0,0,1,39.06,25.52Z" transform="translate(0.11)" fill="#b3b3b2"/>
            <path d="M38,30c-2.5,1.49-5,2.9-7.51,4.38-.78.47-1.57.47-2-.39s.55-1,1.1-1.33c2-1.17,4-2.35,6-3.52C36.48,28.57,37.34,28.65,38,30Z" transform="translate(0.11)" fill="#66c471"/>
            <path d="M53.39,31.23c-3.14,2-6.19,4.07-9.32,6.11-.86-.47-1.64-.94-2.5-1.33,4.14-.94,7.12-4.07,11-5.56A7.64,7.64,0,0,1,53.39,31.23Z" transform="translate(0.11)" fill="#f2f2f0"/>
            <path d="M54,38.9c1.18-.47,2.35-1.09,3.68-.62.08,1.8-1.56,1.88-2.58,2.42-1.18.63-2.66,2.43-3.6.87S53.31,40,54,38.9Z" transform="translate(0.11)" fill="#6dc777"/>
            <path d="M39.06,25.52c1.25-2.19,4.78-1.65,5.48-4.54.63.55,1.17,1.09,1.8,1.64-1.72,2-4.23,2.66-6.42,3.84A12,12,0,0,1,39.06,25.52Z" transform="translate(0.11)" fill="#f1f1f0"/>
            <path d="M45.48,28.73C45.09,32,42,31.7,40,33c-.7-.46-1.25-1.17-.23-1.72C41.57,30.37,43.05,28.57,45.48,28.73Z" transform="translate(0.11)" fill="#b23d40"/>
            <path d="M56.59,43.91c-2,1.18-3.52,2.12-5.08,3.06a1.24,1.24,0,0,1-1.73-.16c-.7-.86.16-1.17.63-1.33C52.21,44.85,53.46,42.43,56.59,43.91Z" transform="translate(0.11)" fill="#3a91ca"/>
            <path d="M38.36,33.82c-.86,1.48-2.59,1.72-3.92,2.66a1.39,1.39,0,0,1-2,0,1,1,0,0,1,.08-.94,44.47,44.47,0,0,1,4.69-2.66C37.57,32.72,38.2,33.11,38.36,33.82Z" transform="translate(0.11)" fill="#2f8bc7"/>
            <path d="M454.79,268.34c-.86-1.33,1.65-2.59.16-4-.78-1-.47-1.56.71-1.72,14.32,8.46,28.64,16.83,43,25.29,1.56,2,1.41,4-.16,5.94-13.15-7.74-26.22-15.42-39.37-23.17C457.77,269.9,456.2,269.12,454.79,268.34Z" transform="translate(0.11)" fill="#01a54a"/>
            <path d="M498.55,293.85c.08-2,.08-4,.16-5.94,13.54-8.07,27.16-16.21,40.7-24.27,2.12.86,2.27,4.54.32,6.11-1.1.86-2.35,1.64-3.53,2.42l-34.52,20.2A26.86,26.86,0,0,1,498.55,293.85Z" transform="translate(0.11)" fill="#b2a68e"/>
            <path d="M459.57,257.06c10.57-5.87,20.12-12.21,30.68-16.75C485.64,245.32,462.39,258,459.57,257.06Z" transform="translate(0.11)" fill="#e4e4e4"/>
            <path d="M467.71,262c1.49-3.14,4.93-3.53,7.28-5.17,4.7-3.13,9.78-5.79,14.72-8.61.94-.47,2.19-1.8,3-.31.63,1.17-1,1.56-1.8,2-6.58,3.84-13.23,7.67-19.8,11.43C470.14,261.84,469.2,262.86,467.71,262Z" transform="translate(0.11)" fill="#e5e5e4"/>
            <path d="M464,259.41c5.17-4.22,18.08-11.11,21.14-10.49-6.89,3.92-13.7,7.83-20.59,11.67C464.34,260.2,464.11,259.8,464,259.41Z" transform="translate(0.11)" fill="#e5e5e4"/>
            <path d="M501.68,271.39c-1.8.08-2.89,2.11-6.1,1.64,5.48-3.68,10-7,15.5-8.61,1.17,1.88-.55,2.51-1.57,3.21A27.64,27.64,0,0,1,501.68,271.39Z" transform="translate(0.11)" fill="#afafaf"/>
            <path d="M501,261.29c.78,0,1.8.16,1.72,1,0,.47-1.1.94-1.72,1.41-3.05,3.13-6.26,5.71-11,5.56-.94-.55-.31-1.18,0-1.73C493.07,264.27,496.91,262.54,501,261.29Z" transform="translate(0.11)" fill="#b2b2b2"/>
            <path d="M494.79,260.51c3.92-1.49,7-4.54,12-5.79-2,3.52-5.32,3.75-7.28,5.79a3.29,3.29,0,0,1-2.5,2C495.5,262.78,494,262.78,494.79,260.51Z" transform="translate(0.11)" fill="#b1b1b1"/>
            <path d="M494.79,260.51c1.57,3.44,3.14-.24,4.7,0,.31.62.94.7,1.57.78a84.9,84.9,0,0,1-11,6.26l-1.57-1.33c1.18-2.27,4-2.35,5.48-4.22C494,261.37,494.09,260.82,494.79,260.51Z" transform="translate(0.11)" fill="#f2eeec"/>
            <path d="M512.88,266.07c1.72-.16,3-2.12,5.79-1.1a48.23,48.23,0,0,1-11.27,6.34c-1.65-.86-1.18-1.88,0-2.58C509.12,267.71,510.84,266.46,512.88,266.07Z" transform="translate(0.11)" fill="#b3b4b3"/>
            <path d="M494.87,255.89c1.33-.08,2.51-1.64,4.23-.39-3,2.82-6.81,4.07-10.1,6.26-.55.39-1.33.47-1.64-.31-.39-1,.86-1.1,1.17-1.72C489.94,257.3,492.45,256.67,494.87,255.89Z" transform="translate(0.11)" fill="#b2b2b2"/>
            <path d="M501.92,264.5c.94,0,2.82.47,1.64,1.25-3.21,2.12-6.1,5.09-10.33,5.25-.24,0-.47-.24-.63-.39C494.64,266.93,498.55,266.07,501.92,264.5Z" transform="translate(0.11)" fill="#b2b2b1"/>
            <path d="M512.88,266.07c-1.26,1.56-3.13,2.11-4.78,3-1,.55-1.64,1.18-.78,2.27-.39.08-.71.08-1.1.16-1.09.78-2.27,1.33-3.68.62-.31-.23-.54-.54-.86-.78,1.65-2,4.23-2.43,6.26-3.91,1.18-.86,3.06-1.1,3.14-3.06C511.7,265,512.33,265.52,512.88,266.07Z" transform="translate(0.11)" fill="#f1f3f0"/>
            <path d="M483.05,261.06c-2.58,1.48-5.09,3-7.59,4.46-.7.47-1.49.62-2-.16-.7-1.17.55-1.17,1-1.49,1.88-1.17,3.76-2.27,5.64-3.36A1.93,1.93,0,0,1,483.05,261.06Z" transform="translate(0.11)" fill="#63c36e"/>
            <path d="M487.59,258.79c-1.33.15-2.5,1.64-4.46.15,3.29-1.95,5.95-4.62,9.94-4.77,1.1,1.41-.08,2-1,2.58A14.15,14.15,0,0,1,487.59,258.79Z" transform="translate(0.11)" fill="#b3b3b2"/>
            <path d="M486.5,263.25l-7.28,4.23c-.71.39-1.49.86-2,0-.7-1,.47-1.34,1-1.57,2.58-1.25,4.77-3.68,7.91-3.76A5.37,5.37,0,0,0,486.5,263.25Z" transform="translate(0.11)" fill="#66c471"/>
            <path d="M501.92,264.5c-3.13,2-6.19,4.07-9.32,6.11-.86-.47-1.64-.94-2.5-1.33,4.15-.94,7.12-4.07,11-5.56A8.55,8.55,0,0,1,501.92,264.5Z" transform="translate(0.11)" fill="#f2f2f0"/>
            <path d="M502.54,272.17c1.18-.47,2.35-1.09,3.68-.62.08,1.8-1.56,1.87-2.58,2.42s-2.66,2.43-3.6.86S501.84,273.27,502.54,272.17Z" transform="translate(0.11)" fill="#6dc777"/>
            <path d="M504.74,277.42c-1.65.94-3.21,1.88-4.7,2.81-.47.32-.94.47-1.41,0-.23-.23-.55-.62-.47-.86C498.39,278.2,503.09,276.71,504.74,277.42Z" transform="translate(0.11)" fill="#3a91ca"/>
            <path d="M487.59,258.79c1.26-2.2,4.78-1.65,5.48-4.54.63.54,1.18,1.09,1.8,1.64-1.72,2-4.22,2.66-6.42,3.84A12,12,0,0,1,487.59,258.79Z" transform="translate(0.11)" fill="#f1f1f0"/>
            <path d="M494,262c-.39,3.28-3.52,3-5.48,4.22-.7-.47-1.25-1.17-.23-1.72C490.1,263.64,491.58,261.84,494,262Z" transform="translate(0.11)" fill="#b23d40"/>
            <path d="M487,267.08c-.16.79-5,3.29-5.64,2.9a1.37,1.37,0,0,1-.55-.78c0-.79,4.93-3.29,5.56-2.9C486.65,266.46,486.81,266.85,487,267.08Z" transform="translate(0.11)" fill="#2f8bc7"/>
            <path d="M455.66,262.62a1.42,1.42,0,0,0-.71,1.72c-.78-.15-1.49-1.17-2.35-.15-.55-.32-1.17-.86-.23-1.25,1.48-.55.94-1.49.7-2.43C454.32,260.74,455,261.68,455.66,262.62Z" transform="translate(0.11)" fill="#bce7ce"/>
            <path d="M57.14,92.21c2.66-1.56,5.25-3.13,7.91-4.77q27.58,16.08,55.18,32.09c5.09,3,10.1,5.79,15.19,8.77,1.64,1.95,3.68,3.52,4.93,5.87-.62,1.49-2.66,1.64-3.13,3.29-.47,3,.16,5.48,3.13,7.2,15.42,9.16,31,18.16,46.42,27.47.08.08.24-.08.39-.08,4.15-2.19,7.75-5.4,12.45-6.65,21.45,12.37,42.82,24.82,64.26,37.18,2.2.47,4.39.94,4.86,3.76a3.25,3.25,0,0,1-2.74,1.8c-26.22.24-52.45.08-78.67.16-8.85,0-17.77-.08-26.62.08-14.63,0-29.35.39-44-.24-3-1.1-1.56-2.43-.08-3.44,3.29-2.2,6.66-4.07,10-6,3.21-1.8,3.21-2.35-.07-4.31-12.53-7.28-24.9-14.71-37.26-22.15-3.68-2.19-7.21-4.3-11.75-3.44C70.76,164.85,64,160.94,57.06,157a9.5,9.5,0,0,1-1.17-4.86c0-9.86-.08-19.64.08-29.51.23-8.29.08-16.59.08-24.89A10.06,10.06,0,0,1,57.14,92.21Z" transform="translate(0.11)" fill="#fefefe"/>
            <path d="M57.06,122.66c0,11.51,0,22.94.08,34.44-4.15-2.42-8.37-4.77-12.44-7.2-1.26-.7-2.35-1.56-3.84-.62V90.65c3.13,1.72,6,3.28,8.69,4.85,2.9.55,4.38-2.35,6.81-2.82,1,2.9.39,5.87.47,8.77C57,108.49,56.44,115.62,57.06,122.66Z" transform="translate(0.11)" fill="#008f99"/>
            <path d="M77.57,168.92C81,167,83.84,168,87.2,170c13.23,8.14,26.77,15.89,40.16,23.8.78.47,1.49,1.09,2.27,1.48,2,1,1.8,1.8,0,2.82-4.15,2.35-8.22,4.93-12.37,7.28-.78.47-1.64.78-2,1.72a3.23,3.23,0,0,1-2.58,1.18c-6.34.08-12.76.55-19.1-.24-2.74-.94-1.33-3.83-2.58-5.48,0-2.11-1.88-2.42-3.21-3.21-.16-1.25.86-1.72,1.64-2.34,2.27-1.65,2.82-3.68,1.57-6.19,0-2.11-1.88-2.43-3.21-3.21-.16-1.25.86-1.72,1.64-2.35,2.27-1.64,2.82-3.68,1.57-6.18-1.1-3.37-4.7-3.68-7-5.48C81.72,172.05,78.75,171.66,77.57,168.92Z" transform="translate(0.11)" fill="#e3e1e0"/>
            <path d="M90.8,179.1c2.12.86,2.27,4.54.32,6.11-1.1.86-2.35,1.64-3.53,2.42q-18.66,10.92-37.26,21.84a4.39,4.39,0,0,1-.15-6.1C63.72,195.3,77.26,187.16,90.8,179.1Z" transform="translate(0.11)" fill="#b2a68e"/>
            <path d="M50.18,203.37c.07,2,.07,4.07.15,6.1-11.43-6.5-22.85-13-33.89-20.27a16.8,16.8,0,0,1-.47-4.86,1.58,1.58,0,0,1,.7-.7C27.87,190.22,39,196.79,50.18,203.37Z" transform="translate(0.11)" fill="#e6e2d5"/>
            <path d="M11.35,172.21l30-17.06c.24.47.55,1,.78,1.48-9.94,5.87-19.8,11.75-29.9,17.3C12,173.39,11.66,172.84,11.35,172.21Z" transform="translate(0.11)" fill="#e4e4e4"/>
            <path d="M19,177.61c1.57-3.29,5-3.68,7.44-5.32,4.69-3.13,9.78-5.79,14.71-8.61.87-.47,2.2-1.8,3-.31.62,1.17-1,1.56-1.88,2-6.58,3.84-13.23,7.67-19.8,11.43C21.6,177.3,20.67,178.16,19,177.61Z" transform="translate(0.11)" fill="#e5e5e4"/>
            <path d="M15.58,175.26c6.49-4.61,13-9,20.58-11.58A91.35,91.35,0,0,1,15.58,175.26Z" transform="translate(0.11)" fill="#e5e5e4"/>
            <path d="M53.15,186.85c-1.8.08-2.9,2.11-6.11,1.64,5.48-3.68,10-7,15.5-8.61,1.18,1.88-.54,2.51-1.56,3.21A27.64,27.64,0,0,1,53.15,186.85Z" transform="translate(0.11)" fill="#afafaf"/>
            <path d="M41.57,184.74c-.94-.55-.32-1.18,0-1.73,3-3.21,6.81-5,11-6.26.79,0,1.8.16,1.73,1,0,.47-1.1.94-1.73,1.41C49.47,182.23,46.26,184.89,41.57,184.74Z" transform="translate(0.11)" fill="#b2b2b2"/>
            <path d="M15.73,189.2c-1.56-1-3.21-2.12-4.77-3.13a34.93,34.93,0,0,1-.55-4.86,1.73,1.73,0,0,1,.71-.78c1.87,1.1,3.67,2.19,5.55,3.21l-.23.16C14.48,185.36,17,187.55,15.73,189.2Z" transform="translate(0.11)" fill="#d8e0ce"/>
            <path d="M46.26,176c3.92-1.49,7.05-4.54,12-5.79-2,3.52-5.32,3.75-7.28,5.79a3.29,3.29,0,0,1-2.51,2C47,178.24,45.48,178.24,46.26,176Z" transform="translate(0.11)" fill="#b1b1b1"/>
            <path d="M46.34,171.35c1.33-.08,2.51-1.64,4.23-.39-3,2.82-6.81,4.07-10.1,6.26-.55.39-1.33.47-1.64-.31-.4-1,.86-1.1,1.17-1.72C41.41,172.76,43.91,172.13,46.34,171.35Z" transform="translate(0.11)" fill="#b2b2b2"/>
            <path d="M64.34,181.53c1.73-.08,2.9-2.35,5.56-.94a47.69,47.69,0,0,1-11.11,6.18c-1.65-.86-1.18-1.88,0-2.58C60.59,183.17,62.31,181.92,64.34,181.53Z" transform="translate(0.11)" fill="#b3b4b3"/>
            <path d="M46.26,176c1.57,3.44,3.13-.24,4.7,0,.31.62.94.7,1.56.78a84.11,84.11,0,0,1-11,6.26L40,181.68c1.17-2.27,4-2.35,5.48-4.22C45.48,176.83,45.56,176.28,46.26,176Z" transform="translate(0.11)" fill="#f2eeec"/>
            <path d="M10,185.36c-1.49-.78-3-1.64-4.54-2.42.16-1.81-.78-3.61-.08-5.41l.16-.23c1.88,1,3.68,2,5.56,3l-.16.24C9.32,181.92,11.74,184.11,10,185.36Z" transform="translate(0.11)" fill="#dbe1d0"/>
            <path d="M53.39,180c.93,0,2.81.47,1.64,1.25-3.21,2.12-6.11,5.09-10.33,5.25-.24,0-.47-.24-.63-.39C46.11,182.39,50,181.53,53.39,180Z" transform="translate(0.11)" fill="#b2b2b1"/>
            <path d="M64.34,181.53c-1.25,1.56-3.13,2.11-4.77,3-1,.55-1.64,1.18-.78,2.27-.39.08-.71.08-1.1.16-1.1.78-2.27,1.33-3.68.62-.31-.23-.55-.54-.86-.78,1.64-2,4.23-2.43,6.26-3.91,1.18-.86,3.06-1.1,3.13-3.06C63.17,180.43,63.8,181,64.34,181.53Z" transform="translate(0.11)" fill="#f1f3f0"/>
            <path d="M34.44,176.59c-2.66,1.49-5.09,3-7.51,4.39-.71.47-1.49.62-2-.16-.78-1.17.55-1.17,1-1.49,1.88-1.17,3.76-2.27,5.64-3.36C32.56,175.34,33.5,175,34.44,176.59Z" transform="translate(0.11)" fill="#63c36e"/>
            <path d="M28.18,182.23c3.05-1.56,5.64-4.23,9.24-4.62.15.39.39.79.54,1.18-3,1.64-6,3.36-9,5C28.65,183.25,28.41,182.7,28.18,182.23Z" transform="translate(0.11)" fill="#66c471"/>
            <path d="M39.06,174.25c-1.33.15-2.5,1.64-4.46.23,3.36-2,5.95-4.7,9.94-4.77,1.1,1.41-.08,2-1,2.58A16.09,16.09,0,0,1,39.06,174.25Z" transform="translate(0.11)" fill="#b3b3b2"/>
            <path d="M53.39,180c-3.14,2-6.19,4.07-9.32,6.11-.86-.47-1.64-.94-2.5-1.33,4.14-.94,7.12-4.07,11-5.56A7.64,7.64,0,0,1,53.39,180Z" transform="translate(0.11)" fill="#f2f2f0"/>
            <path d="M54,187.63c1.18-.47,2.35-1.09,3.68-.62.08,1.8-1.56,1.87-2.58,2.42-1.18.63-2.66,2.43-3.6.86S53.31,188.73,54,187.63Z" transform="translate(0.11)" fill="#6dc777"/>
            <path d="M39.06,174.25c1.25-2.2,4.78-1.65,5.48-4.54.63.54,1.17,1.09,1.8,1.64-1.72,2-4.23,2.66-6.42,3.84A12,12,0,0,1,39.06,174.25Z" transform="translate(0.11)" fill="#f1f1f0"/>
            <path d="M56.75,192.64c-2.27,1.33-4,2.35-5.63,3.29-.55.31-1-.08-1.34-.39-.15-.16-.07-.86.08-.86C51.82,193.82,53.23,191.31,56.75,192.64Z" transform="translate(0.11)" fill="#3a91ca"/>
            <path d="M45.48,177.46c-.39,3.28-3.52,3-5.48,4.22-.7-.47-1.25-1.17-.23-1.72C41.57,179.1,43.05,177.3,45.48,177.46Z" transform="translate(0.11)" fill="#b23d40"/>
            <path d="M33.19,185.83c-.31-.39-.94-1-.94-1.09a10.61,10.61,0,0,1,5.17-3.06c.23-.08.7.63,1,.94C37,184.11,35.07,184.81,33.19,185.83Z" transform="translate(0.11)" fill="#2f8bc7"/>
            <path d="M187.16,136.91c-3-1.41-.31-3.84-1-5.64,13.63-8.06,27.25-16.2,40.87-24.26,2.11,2.11,2.11,4.77,0,6.34-1,.78-2.43,1-3.14,2.19-9.78,4.93-18.86,11-28.33,16.44C192.72,133.54,190,135.26,187.16,136.91Z" transform="translate(0.11)" fill="#b2a68e"/>
            <path d="M178.79,84.31c-4.39,2.5-8.22,4.61-12,6.81-5.4,3.13-10.72,6.41-16.13,9.47-.86.47-2.19,1.8-3,.31-.63-1.17,1-1.57,1.88-2,8.22-4.77,16.44-9.54,24.66-14.24A3.85,3.85,0,0,1,178.79,84.31Z" transform="translate(0.11)" fill="#e5e5e4"/>
            <path d="M180.35,91.12c-8.14,5.4-16.2,10.88-25.44,14.16C163.13,100,171.19,94.56,180.35,91.12Z" transform="translate(0.11)" fill="#e5e5e4"/>
            <path d="M171.66,91.82c-6.49,5.64-18.47,11.59-21,10.88C157.89,99.1,164.07,94,171.66,91.82Z" transform="translate(0.11)" fill="#e5e5e4"/>
            <path d="M169.08,103.17c.63-.47,1.17-1,1.8-1.49,1.33,1.18,2.35.16,3.44-.47,1.34-.7,2.51-1.88,4.23-1.17.31.31.63.55.94.86-.23,2.9-3.76,2.43-4.77,4.54a7.75,7.75,0,0,0-.86.86c-2.2,0-3.68,1.65-5.56,2.43-1.49.62-2.74,2-4.62,1.49-.31-.32-.71-.63-1-.94.08-2.12,2.11-2.27,3.29-3.21S169,105.21,169.08,103.17Z" transform="translate(0.11)" fill="#f0f5ef"/>
            <path d="M184,116.63c-.47-.47-1.09-1.09-.23-1.56,4.38-2.43,8.84-4.78,13.3-7.12a1.32,1.32,0,0,1,1.65.62c0,.16.15.31.08.39C194.44,112.49,190.14,116.32,184,116.63Z" transform="translate(0.11)" fill="#b0b0b0"/>
            <path d="M184,116.63c5.48-1.64,9.86-5.32,14.8-8,.54.31,1.09.55,1.64.86-.78,3.29-4.54,3-6.26,5.25-.08.7-.16,1.4-1,1.64-2.74-1.1-4.07,1.33-5.95,2.43C186.14,118,185.13,117.34,184,116.63Z" transform="translate(0.11)" fill="#f1f3f0"/>
            <path d="M185.52,106.3a11.51,11.51,0,0,1,2.66-1.25c1.1-.31,2-.16,1.33,1.41-2.66,3.29-6.34,4.85-10.25,6.1-.71,0-1.73.47-2-.54s1-1,1.33-1.73C180.2,107.71,182.94,107.08,185.52,106.3Z" transform="translate(0.11)" fill="#b1b1b1"/>
            <path d="M181.68,104.66c3.84-2.27,7.28-5.33,11.82-6.19a9.28,9.28,0,0,0,.47.86c-3.29,2-6.65,4.08-9.94,6.11C182.78,106.38,182.23,105.6,181.68,104.66Z" transform="translate(0.11)" fill="#b2b2b2"/>
            <path d="M194.21,114.68c-.79-2.27,1.56-1.88,2.42-2.66a41.66,41.66,0,0,1,3.84-2.59c1.64.08,2.74-2.74,5.24-.47C201.64,110.76,198.59,114,194.21,114.68Z" transform="translate(0.11)" fill="#b4b4b4"/>
            <path d="M174.64,105.44c-.94-1.41.31-1.64,1.09-2.11,1.26-.79,2.74-1.18,3.68-2.43,2.19-.39,3.84-2.5,6.42-2C182.47,101.53,179,104.27,174.64,105.44Z" transform="translate(0.11)" fill="#b1b1b1"/>
            <path d="M190.22,107.79c.54.39,1.72.86.7,1.56-2.9,1.88-5.87,3.6-8.85,5.25-1,.55-1.64-.31-1.95-1.18C183.09,110.76,186.22,108.49,190.22,107.79Z" transform="translate(0.11)" fill="#b0b0b0"/>
            <path d="M169.08,103.17c.47.63,2,1.1.08,2.11a72.29,72.29,0,0,0-6.5,4.07c-.94.16-2,.16-2.27-.94-.16-.78,1-.93,1.57-1.25C164.31,105.75,166.65,104.5,169.08,103.17Z" transform="translate(0.11)" fill="#66c470"/>
            <path d="M178.47,100c-1.56.86-3.05,1.72-4.69,2.5-1.18.55-2.66,1.57-3-.86,2.27-1.17,4.54-2.35,6.81-3.6.71-.39,1.65-.78,2.12-.08C180.35,99.1,179.18,99.49,178.47,100Z" transform="translate(0.11)" fill="#b4b4b4"/>
            <path d="M163.68,110.22c2.27-1.26,4.46-2.51,6.73-3.76,1.1-.63,2.19-1.41,3.45-.16-2.12,2-4.94,3-7.36,4.54C165.32,111.62,164.31,111.62,163.68,110.22Z" transform="translate(0.11)" fill="#65c46f"/>
            <path d="M190.22,107.79c-3.37,1.88-6.74,3.76-10.18,5.56l-.86-.86c3.44-2,6.89-4.08,10.25-6.11A12.49,12.49,0,0,1,190.22,107.79Z" transform="translate(0.11)" fill="#f1f1ef"/>
            <path d="M181.68,104.66a3.18,3.18,0,0,0,2.27.86,1.61,1.61,0,0,0,1.57.78,32,32,0,0,1-7,4c-.31-.31-.7-.62-1.09-.94.23-2.5,2.74-2.42,4.07-3.6A8.39,8.39,0,0,0,181.68,104.66Z" transform="translate(0.11)" fill="#f1edeb"/>
            <path d="M181.6,105.68c-.31,2.42-3.13,1.95-4.07,3.6a3.11,3.11,0,0,1-2.81-.4C176.75,107.24,178.55,105.21,181.6,105.68Z" transform="translate(0.11)" fill="#b23f42"/>
            <path d="M167.91,113c2-1.33,3.52-3.91,7.2-2.66C172.45,111.86,170.72,113.82,167.91,113Z" transform="translate(0.11)" fill="#3a91ca"/>
            <path d="M187.24,118.75c.47-3,3.13-3.21,5.32-3.84.79-.23.79.78.63,1.41C191.08,116.79,189.67,119.06,187.24,118.75Z" transform="translate(0.11)" fill="#63c36d"/>
            <path d="M185.28,123.21c2-1.25,3.53-3.6,7-2.9C189.82,122.27,188.1,124,185.28,123.21Z" transform="translate(0.11)" fill="#3b92ca"/>
            <path d="M498.63,299.65c13.54-8.07,27.16-16.21,40.7-24.27,2.12.86,2.27,4.54.32,6.11-1.1.86-2.35,1.64-3.53,2.42Q518.87,294,501.6,304.11c-1,.55-2,1-3.13,1.49C497.46,303.64,497.06,301.6,498.63,299.65Z" transform="translate(0.11)" fill="#b2a68e"/>
            <path d="M498.71,334.87c13.54-8.06,27.08-16.2,40.7-24.26,2.12.86,2.27,4.54.32,6.1-1.1.86-2.35,1.65-3.53,2.43Q517.54,330.06,498.94,341C497.22,339,497.06,337,498.71,334.87Z" transform="translate(0.11)" fill="#b2a68e"/>
            <path d="M498.86,329.16c-.07-2-.07-4.07-.15-6,13.54-8.06,27.08-16.2,40.7-24.27,2.12.87,2.27,4.54.32,6.11-1.1.86-2.35,1.64-3.53,2.43-11.66,6.81-23.25,13.7-34.91,20.51C500.43,328.38,499.65,328.77,498.86,329.16Z" transform="translate(0.11)" fill="#b2a68e"/>
            <path d="M536.12,295.66q-18.66,10.92-37.26,21.83a4.39,4.39,0,0,1-.15-6.1c13.54-8.06,27.08-16.2,40.7-24.27,2.12.86,2.27,4.54.32,6.11C538.55,294.09,537.3,294.87,536.12,295.66Z" transform="translate(0.11)" fill="#b2a68e"/>
            <path d="M177.46,279.37l1-.78c.71-.47,1.33-.08,2,.16.47.23.94.39,1.49.62,14.24,7.91,28.1,16.68,42.27,24.74,1.72.55,3-.63,4.3-1.41,10.1-5.71,19.89-11.9,30-17.69,1.49-.86,2.82-2,4.7-1.57,1.57.71,3.6,1,3.44,3.45-2.5,3.36-6.41,4.69-9.78,6.73-9.32,5.56-18.71,11.12-28,16.6a9.87,9.87,0,0,1-3.21,1.4c-5.33-1.09-9.32-4.85-14-7.35-6.73-3.6-13.07-7.91-19.72-11.59a21.19,21.19,0,0,1-1.8-1.17,28.87,28.87,0,0,0-4-2.2,12.65,12.65,0,0,1-1.73-1.09,7.81,7.81,0,0,0-3.67-1.64c-.87-.24-1.41-1-2.12-1.57-1-1.25-3.6-1.72-2.35-4.23A12,12,0,0,0,177.46,279.37Z" transform="translate(0.11)" fill="#fbfbf9"/>
            <path d="M225.36,323.05Q202,309.31,178.63,295.42c-1.1-.63-2.43-1.1-2.43-2.74.94-.94,2.51-1.1,3.13-2.43l.47-.23a3.26,3.26,0,0,1,1.49.47c1.18.7,2.43,1.33,3.6,2.11a12.77,12.77,0,0,0,1.72,1c1.34.7,2.59,1.57,3.84,2.35a12.45,12.45,0,0,1,1.33.86c10,5.71,19.88,11.58,29.75,17.46,1.41.86,2.74,2.11,4.61,1.4,10.89-6.18,21.45-12.75,32.26-19,1.48-.86,2.81-1.95,4.69-1.56,1.57.7,3.6,1,3.45,3.44-2.82,3.6-7.05,5.17-10.81,7.36-8.76,5.24-17.53,10.49-26.45,15.66C228.1,322.43,226.93,323.29,225.36,323.05Z" transform="translate(0.11)" fill="#fbfbf9"/>
            <path d="M176.2,280.94c-.07,2.19,2.2,2.5,3.13,3.91.79.79-.23,1.57,0,2.35A7,7,0,0,1,180,289a1.76,1.76,0,0,1-.63,1.33h0C174.25,287.67,173.31,284.77,176.2,280.94Z" transform="translate(0.11)" fill="#e4ddc5"/>
            <path d="M223.87,127.28c.55,1.57,3.06,1.17,3.14,3.21-.24,1.33-1.34,1.88-2.27,2.5-12.22,7.28-24.35,14.49-36.64,21.61a4.82,4.82,0,0,1-1.8.62c-4.62-.86-8.14-4-12.05-6.26-11.51-6.65-22.86-13.46-34.29-20.27-1.49-.86-3.83-1.49-3-4.23,1-.62,2-1.17,3-1.8,2.19-1.17,3.76.47,5.32,1.41,12.37,7.44,24.9,14.72,37.26,22.15,1.33.79,2.59,1.88,4.31,1.33,10.88-6.1,21.45-12.83,32.33-18.94C220.67,127.75,222,126.34,223.87,127.28Z" transform="translate(0.11)" fill="#fbfbf9"/>
            <path d="M137.06,124.46c0,1.65,1.34,2.12,2.43,2.74q23.37,13.86,46.73,27.56c1.49,1.72.24,3.91,1.18,5.71-2.12,2.43-3.84.23-5.33-.7-10-6-20.19-11.75-30.13-17.93-3.92-2.43-8.22-4.38-11.74-7.44-1.8-1.88-4.54-3-4.7-6.1C136.52,127.28,135,125.09,137.06,124.46Z" transform="translate(0.11)" fill="#e6e2d5"/>
            <path d="M187.16,148.65c-2.11,1.17-3.36-.63-4.77-1.49-12.84-7.59-25.6-15.26-38.44-22.93a28.67,28.67,0,0,0-3.91-1.65c-2.58-2-4.93-4-4.23-7.82.16-.94.16-1.81,1.25-2.2,0,1.65,1.34,2.12,2.43,2.74q23.37,13.86,46.73,27.56C187.71,144.74,186.54,146.85,187.16,148.65Z" transform="translate(0.11)" fill="#e6e2d5"/>
            <path d="M352.17,199.37c1.33.79,3.21,1.1,3.21,3.21.31,1.18-.62,1.57-1.41,2-12.29,7.43-24.73,14.64-37,22a4.47,4.47,0,0,1-2.19.71c-1.49,0-2.67-.86-3.92-1.64-11.43-7-23.17-13.63-34.6-20.59-.62-.39-1.17-.78-1.8-1.18a34.68,34.68,0,0,0-4.07-2.27,14.12,14.12,0,0,1-1.8-1.09c-1.25-1.1-3.68-1.18-3.36-3.76,1.25-.78,2.5-1.57,3.75-2.27,2.27-1.1,3.68.7,5.25,1.64,12.21,7.21,24.42,14.49,36.71,21.69a14.88,14.88,0,0,0,3.84,1.88c6.81-3,12.75-7.36,19.17-11,4.86-2.66,9.55-5.72,14.33-8.54C349.51,199.69,350.61,198.43,352.17,199.37Z" transform="translate(0.11)" fill="#fbfbf9"/>
            <path d="M314.91,221.13c-14.48-8.53-29-17-43.44-25.51-.79-.47-1.65-.71-2.43-1.1-3.6-2.19-6-4.85-3.76-9.39,4.07,3.68,9.08,5.87,13.7,8.61,11.82,7.2,23.8,14.17,35.78,21.29C316.32,217.06,315.85,219.1,314.91,221.13Z" transform="translate(0.11)" fill="#e6e2d5"/>
            <path d="M265.28,196.87c.71,1.88,3.06,1.88,4.07,3.36a18.27,18.27,0,0,1,.16,5.48.81.81,0,0,1-1,0c-1.56-1-3.13-2-4.62-3.05C265.67,201.1,263.64,198.51,265.28,196.87Z" transform="translate(0.11)" fill="#e5e1d4"/>
            <path d="M50.33,84.15c-.08-2-.08-4.07-.15-6,13.54-8.06,27.08-16.2,40.7-24.26,2.11.86,2.27,4.54.31,6.1-1.09.86-2.34,1.64-3.52,2.43q-17.49,10.22-35,20.51C51.9,83.37,51.12,83.76,50.33,84.15Z" transform="translate(0.11)" fill="#b2a68e"/>
            <path d="M50.33,72.41c-.08-2-.08-4.07-.15-6,13.54-8.06,27.08-16.2,40.7-24.27,2.11.86,2.27,4.54.31,6.11-1.09.86-2.34,1.64-3.52,2.43q-17.49,10.22-35,20.5C51.9,71.62,51.12,72,50.33,72.41Z" transform="translate(0.11)" fill="#b2a68e"/>
            <path d="M268.49,205.71h.71a3.12,3.12,0,0,1,1.48.4c1.34.78,2.82,1.4,4.23,2.19a7.58,7.58,0,0,1,1.33.86c11.74,6.89,23.33,13.93,35.07,20.74a11.66,11.66,0,0,0,3.45,1.65c9.23-4.7,17.92-10.34,26.84-15.5,2.35-1.33,4.62-2.9,7-4.15,1.1-.55,2.11-1.65,3.52-.78s3.21,1.09,3.21,3.2c-13.54,8.07-27.08,16.21-40.7,24.27-1.65.63-2.74-.47-3.92-1.17-14.48-8.61-28.88-17.22-43.36-25.76-1-.62-2-1.17-2.43-2.42-.23-1.33.86-1.49,1.65-1.88A2.65,2.65,0,0,0,268.49,205.71Z" transform="translate(0.11)" fill="#fbfbf9"/>
            <path d="M352.17,211.12Q333.51,222,314.91,233a4.39,4.39,0,0,1-.15-6.1c13.54-8.06,27.08-16.2,40.7-24.27,2.11.86,2.27,4.54.31,6.11C354.6,209.55,353.35,210.33,352.17,211.12Z" transform="translate(0.11)" fill="#b2a68e"/>
            <path d="M314.91,221.13c-.08-2-.08-4.07-.15-6,13.54-8.07,27.08-16.21,40.7-24.27,2.11.86,2.27,4.54.31,6.11-1.09.86-2.35,1.64-3.52,2.42-11.66,6.81-23.25,13.7-34.91,20.51C316.48,220.35,315.69,220.74,314.91,221.13Z" transform="translate(0.11)" fill="#b2a68e"/>
            <path d="M140.12,134.48c7.43,2.9,13.7,7.75,20.51,11.66,7.75,4.39,15.34,9.16,23.09,13.63.94.54,2,2,3.44.7.39-1.72,2-2.35,3.29-3.13,9.78-5.64,19.41-11.59,29.2-17.22,1.33-.79,2.5-2,4.3-1.1.55,1.57,3.06,1.18,3.13,3.21-13.62,8.06-27.16,16.2-40.78,24.27-1.56.62-2.74-.32-4-1-14.17-8.38-28.34-16.83-42.51-25.21-1.4-.86-3-1.64-3.52-3.44C137.06,135.19,138.55,134.72,140.12,134.48Z" transform="translate(0.11)" fill="#fbfbf9"/>
            <path d="M187.16,148.65c-2.89-1.41-.39-3.76-.94-5.64,13.62-8.14,27.17-16.2,40.79-24.34,2.11,2.11,2.11,4.77,0,6.34-1,.78-2.43,1-3.14,2.19-9.78,4.93-18.86,11-28.33,16.44C192.72,145.28,190,147,187.16,148.65Z" transform="translate(0.11)" fill="#b2a68e"/>
            <path d="M223.87,139c-9.78,4.93-18.86,11-28.33,16.44-2.82,1.64-5.56,3.29-8.38,5-2.89-1.41-.39-3.76-.94-5.64,13.62-8.14,27.17-16.2,40.79-24.34,2.11,2.11,2.11,4.77,0,6.34C226,137.53,224.58,137.77,223.87,139Z" transform="translate(0.11)" fill="#b2a68e"/>
            <path d="M90.8,202.58c.79-.23,1.57-.54,1.57.79s0,2.58.08,3.91c-.16,2.58-2.27,3.05-4.07,3.84-6.66,2.42-12.14,6.81-18.24,10.25-6.66,3.76-13.23,7.75-19.81,11.66a4.39,4.39,0,0,1-.15-6.1Q70.49,214.72,90.8,202.58Z" transform="translate(0.11)" fill="#b2a68e"/>
            <path d="M50.18,226.85c.07,2,.07,4.07.15,6.1C37.18,225.21,24.11,217.53,11,209.78c.47-1.8-.31-3.75.63-5.55,10.64,6.26,21.21,12.44,31.85,18.71C45.71,224.19,47.91,225.52,50.18,226.85Z" transform="translate(0.11)" fill="#e6e1d5"/>
            <path d="M88.38,211.12c.78-1.88,3.28-1.88,4.07-3.84,6.73,0,13.54.08,20.27.08.23,1.25-.63,1.88-1.49,2.42-5.55,3.29-11.11,6.5-16.59,9.79a2,2,0,0,1-2.19.16c-.24-2,.62-4.23-.55-6.19C90.65,212.76,89.55,211.9,88.38,211.12Z" transform="translate(0.11)" fill="#108b91"/>
            <path d="M6.11,201.1c1.48.62,3.13,1,4.14,2.42-.47,1.8.87,3.6-.23,5.33a11.37,11.37,0,0,1-4.54-2.27C6.11,204.77,5.17,202.82,6.11,201.1Z" transform="translate(0.11)" fill="#e4e2d5"/>
            <path d="M6.11,201.1c.07,1.87,1.48,3.91-.63,5.48-.31-.32-.63-.55-.94-.87,0-1.8-1.72-3.67.16-5.4A8.39,8.39,0,0,1,6.11,201.1Z" transform="translate(0.11)" fill="#1db163"/>
            <path d="M10,208.85c.31-1.81-2.11-3.68.23-5.33l1.34.71c0,1.88,1.72,4-.63,5.55Z" transform="translate(0.11)" fill="#1eb162"/>
            <path d="M90.8,190.84c2.12.86,2.27,4.54.32,6.11-1.1.86-2.35,1.64-3.53,2.42-11.66,6.81-23.25,13.7-34.91,20.51-.78.47-1.56.86-2.35,1.33-.08-2-.08-4.07-.15-6Q70.49,203,90.8,190.84Z" transform="translate(0.11)" fill="#b2a68e"/>
            <path d="M266.14,298.79c0-2-2.58-1.65-3.13-3.21a1.8,1.8,0,0,1,1-2c2.9-1.57,3.13-3.84,2.11-6.58,0-2-2.58-1.64-3.13-3.2-.23-1.26.71-1.8,1.57-2.35,2.35-1.57,2.74-3.45,1.17-5.8-.7-1.4-2.74-1.72-3.13-3.44a3.16,3.16,0,0,1,1.72-2.43c2.51-1.48,2.82-3.44,1.65-5.87-1.25-2.74-4.31-2.89-6.42-4.38-1.64-1.17-3.68-1.8-5.32-3.05-.86-.71-2.51-1.26-1.33-3,3.36-2.58,6-1.33,9.23.86,17.54,11.9,35.23,23.56,52.92,35.31,4.46,3,4.38,2.89-.16,6-6.1,4.23-12.6,7.75-18.24,12.61-9.16,0-18.24,0-27.39.07-1.26,0-2.67-.54-3.68.63A3.87,3.87,0,0,1,263,307.4a1.8,1.8,0,0,1,1-2C266.93,303.8,267.16,301.53,266.14,298.79Z" transform="translate(0.11)" fill="#e3e1e0"/>
            <path d="M266.14,298.79c2.12,2.11,2.12,4.77,0,6.34-1,.78-2.42,1-3.13,2.19-9.78,4.93-18.86,11-28.33,16.44-2.82,1.64-5.56,3.28-8.38,5-2.9-1.41-.39-3.76-.94-5.64C239,315,252.52,306.85,266.14,298.79Z" transform="translate(0.11)" fill="#b2a68e"/>
            <path d="M225.36,334.79c.47,1.88-2,4.15.86,5.64-1.09,1.17-1.95.16-2.74-.31Q205,329.2,186.77,318.2c-.23-.16-.31-.39-.47-.55,2-1.8-1.88-3.68.08-5.48,11.51,6.73,23,13.47,34.6,20.2C222.39,333.15,223.87,333.93,225.36,334.79Z" transform="translate(0.11)" fill="#e6e2d5"/>
            <path d="M180.82,314.44c2-1.8,0-3.6-.08-5.32a5.75,5.75,0,0,1,4.07,2.58c-.15,1.72,1,3.45-.07,5.17C183.48,316.09,181.84,315.77,180.82,314.44Z" transform="translate(0.11)" fill="#dde1d1"/>
            <path d="M184.81,316.87c.71-1.72-2-3.45.08-5.17.47.16,1,.32,1.49.47-.16,1.8,2,3.68-.08,5.48A1.38,1.38,0,0,1,184.81,316.87Z" transform="translate(0.11)" fill="#22b163"/>
            <path d="M5.48,177.61c.08,1.8,1.72,3.6.08,5.4-.55.08-.79-.23-.94-.7C5.17,180.74,1.8,178.47,5.48,177.61Z" transform="translate(0.11)" fill="#1fb366"/>
            <path d="M15.73,189.2c.47-1.8-3.52-4.15.71-5.4.15,1.8,1.25,3.6,0,5.4l-.39.08Z" transform="translate(0.11)" fill="#19ad5b"/>
            <path d="M10,185.36c.47-1.56-2.58-3.83.94-4.77.08,1.8,1.56,3.68,0,5.48Z" transform="translate(0.11)" fill="#09a852"/>
            <path d="M498.63,299.65c-.08,2-.08,4-.16,6-13.15-7.75-26.22-15.42-39.37-23.17-1.41-.86-3-1.57-4.46-2.43-.86-1.33,1.64-2.58.15-4-.78-1-.47-1.57.71-1.72C470,282.82,484.3,291.19,498.63,299.65Z" transform="translate(0.11)" fill="#01a54a"/>
            <path d="M498.71,311.39c.08,2,.08,4.07.15,6.1C487.44,311,476,304.5,465,297.22a16.73,16.73,0,0,1-.47-4.85,1.53,1.53,0,0,1,.71-.71C476.4,298.24,487.51,304.81,498.71,311.39Z" transform="translate(0.11)" fill="#e6e2d5"/>
            <path d="M464.27,297.22l-4.78-3.13a33.63,33.63,0,0,1-.55-4.85,1.71,1.71,0,0,1,.71-.79c1.88,1.1,3.68,2.2,5.56,3.21l-.24.16C463,293.39,465.52,295.58,464.27,297.22Z" transform="translate(0.11)" fill="#d8e0ce"/>
            <path d="M458.55,293.39c-1.49-.79-3.05-1.65-4.54-2.43.16-1.8-.78-3.6-.08-5.4l.16-.24c1.88,1,3.68,2,5.56,3.06l-.16.23C457.85,289.94,460.27,292.13,458.55,293.39Z" transform="translate(0.11)" fill="#dbe1d0"/>
            <path d="M280.31,189.2c.47-1.8-3.52-4.15.71-5.4.15,1.8,1.25,3.6,0,5.4l-.39.08Z" transform="translate(0.11)" fill="#19ad5b"/>
            <path d="M270.06,177.61c.08,1.8,1.72,3.6.08,5.4-.55.08-.79-.23-.94-.7C269.75,180.74,266.38,178.47,270.06,177.61Z" transform="translate(0.11)" fill="#1fb366"/>
            <path d="M274.6,185.36c.47-1.56-2.58-3.83.94-4.77.08,1.8,1.56,3.68,0,5.48Z" transform="translate(0.11)" fill="#09a852"/>
            <path d="M464.27,297.22c.47-1.8-3.53-4.15.7-5.4.16,1.8,1.25,3.6,0,5.4l-.39.08Z" transform="translate(0.11)" fill="#19ad5b"/>
            <path d="M454,285.64c.08,1.8,1.72,3.6.08,5.4-.55.08-.78-.24-.94-.71C453.7,288.77,450.33,286.5,454,285.64Z" transform="translate(0.11)" fill="#1fb366"/>
            <path d="M458.55,293.39c.47-1.57-2.58-3.84.94-4.78.08,1.8,1.57,3.68,0,5.48Z" transform="translate(0.11)" fill="#09a852"/>
            <path d="M455.66,274.36a1.44,1.44,0,0,0-.71,1.73c-.78-.16-1.49-1.18-2.35-.16-.55-.31-1.17-.86-.23-1.25,1.48-.55.94-1.49.7-2.43C454.32,272.49,455,273.42,455.66,274.36Z" transform="translate(0.11)" fill="#bce7ce"/>
            <path d="M92.37,219.8c6.73-4.22,13.93-7.59,20.35-12.36l2.35-.24,45.4.24a12.83,12.83,0,0,0,4.23.23q47.9,0,95.81.08c1.41,0,3.21-.78,4.3.86.47,4.78,3.29,7.59,7.44,9.71,2.35,1.17,5,2.35,6.34,4.93-.63,1.41-1.8.86-2.74.86H89.24a4,4,0,0,1-2.66-.39C88.14,221.76,90.57,221.21,92.37,219.8Z" transform="translate(0.11)" fill="#008f99"/>
            <path d="M86.65,223.64q47,.12,93.86.16,46.5,0,93.07.07h5a34.36,34.36,0,0,0-8.77-5.63c-4.3-1.88-6.26-4.7-5.16-9.39.15-.4.39-.4.62-.16,4.07,3.68,9.16,5.79,13.7,8.61,11.82,7.2,23.8,14.17,35.7,21.29.08,2,.08,4.07.15,6.11-10.41-6.11-20.9-12.06-31.31-18.32a13.14,13.14,0,0,0-7-1.88H90.25c-1.72,0-3.36-.08-5.08-.08A9,9,0,0,0,86.65,223.64Z" transform="translate(0.11)" fill="#e6e2d5"/>
            <path d="M136.2,136.83c16.52,10.18,33.11,20.12,50,29.67-.23,1.95-.54,4,.86,5.71-2.19,1-3.68-.78-5.16-1.64-14-8.22-27.87-16.68-42-24.74C136.13,143.56,135.66,140.59,136.2,136.83Z" transform="translate(0.11)" fill="#e6e2d5"/>
            <path d="M57.06,122.66c-1.17-1.49-.62-3.21-.62-4.85-.08-8.38-.08-16.75-.16-25.21a4.67,4.67,0,0,1,.86-.39C57.06,102.39,57.06,112.56,57.06,122.66Z" transform="translate(0.11)" fill="#00868f"/>
            <path d="M498.71,334.87c.08,2,.08,4.07.15,6.11-13.15-7.75-26.22-15.42-39.37-23.17.47-1.8-.31-3.76.63-5.56C470.76,318.51,481.33,324.7,492,331,494.25,332.21,496.44,333.54,498.71,334.87Z" transform="translate(0.11)" fill="#e6e1d5"/>
            <path d="M454.64,309.12c1.48.63,3.13,1,4.15,2.43-.47,1.8.86,3.6-.24,5.32A11.37,11.37,0,0,1,454,314.6C454.64,312.8,453.7,310.84,454.64,309.12Z" transform="translate(0.11)" fill="#e4e2d5"/>
            <path d="M454.64,309.12c.08,1.88,1.48,3.91-.63,5.48a2.36,2.36,0,0,0-.62-.16c-.08-.39-.08-.78-.16-1.17-.55-1.65-1.72-3.37.08-5Z" transform="translate(0.11)" fill="#1db163"/>
            <path d="M458.55,316.87c.31-1.8-2.11-3.68.24-5.32.47.23.86.47,1.33.7,0,1.88,1.72,4-.63,5.56Z" transform="translate(0.11)" fill="#1eb162"/>
            <path d="M252.92,253.46c2.5,4.23,7.43,4.78,11,7.36.94.71,3.06.47,2.19,2.66-.47,1.73-1.95,2.35-3.28,3.13-11.35,6.74-22.78,13.47-34.13,20.2a8.06,8.06,0,0,1-4,1.49c-5.33-2-9.71-5.4-14.56-8.14-9.87-5.64-19.65-11.51-29.44-17.46-1.48-1.57-4.22-1.64-4.77-4.23.16-2.27,2.35-2,3.6-3,8.77-6.19,18.63-10.57,27.47-16.75,2.35-1.65,5.09-2.82,7.6-4.31,3.68-2.19,6.49,1,9.16,2.51,8.84,4.93,17.45,10.41,26.14,15.65C250.88,253,252,253.15,252.92,253.46Z" transform="translate(0.11)" fill="#f9f9f7"/>
            <path d="M263,272c.71,1.4,3.37.93,3.13,3.2-.47,1.88-2.19,2.51-3.6,3.29l-33.81,20a8,8,0,0,1-4,1.49c-5.33-2-9.71-5.4-14.56-8.14-9.87-5.64-19.73-11.51-29.44-17.46-1.48-1.56-4.22-1.64-4.77-4.22-.08-1.8,2-2,2.43-3.37.7-.47,1.33-.08,1.95.16.47.23.94.39,1.49.62,14.25,7.91,28.1,16.68,42.27,24.74,1.72.55,3-.63,4.3-1.41,10.1-5.71,19.89-11.9,30-17.61C259.8,272.56,261.13,271.15,263,272Z" transform="translate(0.11)" fill="#fbfbf9"/>
            <path d="M176.05,270.14c1.25,1.64,3.68,1.72,4.77,3.6v.55c-1.33,1.4,1,3.44-.78,4.77-.47-.16-1-.39-1.49-.55C174.4,275.46,173.78,273.27,176.05,270.14Z" transform="translate(0.11)" fill="#14ab57"/>
            <path d="M180,267.4c-.47-.16-1-.39-1.49-.55-4.07-3.13-4.69-5.32-2.42-8.38,1.25,1.65,3.68,1.73,4.77,3.6v.55C179.41,264,181.76,266,180,267.4Z" transform="translate(0.11)" fill="#15ac58"/>
            <path d="M459.57,303.17c1.56-.39,2.19.31,2.82,1.64C461.06,304.81,460.12,304.58,459.57,303.17Z" transform="translate(0.11)" fill="#ee3937"/>
            <path d="M455.66,301.53a5.28,5.28,0,0,1-1.26-1c-.31-.39.24-.78.55-.63a4.73,4.73,0,0,1,1.41,1C456.52,301.13,456.36,301.6,455.66,301.53Z" transform="translate(0.11)" fill="#ef2d2c"/>
            <path d="M466,305.83a18.83,18.83,0,0,1,1.49,1.33c.07.08-.47.71-.55.71a4.37,4.37,0,0,1-1.41-1C465.44,306.85,465.75,306.3,466,305.83Z" transform="translate(0.11)" fill="#ee3533"/>
            <path d="M265.36,208.77a1.57,1.57,0,0,0-.62.15c-1.26-1.41-2.9-.86-4.39-.86-31.78,0-63.48,0-95.26-.08-1.49,0-3.13.55-4.54-.62,25.75,0,51.5-.08,77.26-.08,9.63,0,19.25.08,28.88.08C266.22,207.83,265.75,208.3,265.36,208.77Z" transform="translate(0.11)" fill="#108b91"/>
            <path d="M180.82,273.82c2.74.7,4.86,2.42,7.2,3.83q18.43,10.92,36.79,22c1.1,2,1.73,4.07-.7,5.63-14.33-8.45-28.65-16.83-43-25.28a9.33,9.33,0,0,1-.31-6.18Z" transform="translate(0.11)" fill="#01a54a"/>
            <path d="M224.11,305.28c1.49-1.72.31-3.75.7-5.63q20.67-12.21,41.33-24.35c2.12,2.12,2.12,4.78,0,6.34-1,.79-2.42,1-3.13,2.2-9.86,4.93-19,11-28.57,16.59-2.58,1.49-5.09,3.05-7.75,4.46C226,305.28,225.21,306.46,224.11,305.28Z" transform="translate(0.11)" fill="#b2a68e"/>
            <path d="M266.14,287c2.12,2.12,2.12,4.78,0,6.35-1,.78-2.42,1-3.13,2.19-9.78,4.93-18.86,11-28.33,16.44-2.82,1.64-5.64,3.28-8.38,5-3.83-1.34-2.19-3.53-.86-5.64C239,303.17,252.52,295.11,266.14,287Z" transform="translate(0.11)" fill="#b2a68e"/>
            <path d="M225.36,311.31c.47,1.88-2,4.15.86,5.64-1.25,1.25-2.19,0-3.05-.55-10.72-6.34-21.45-12.76-32.17-19.1.39-1.8-.16-3.6.47-5.4,7.12,3.05,13.3,7.75,20.12,11.5C216.2,306,220.82,308.65,225.36,311.31Z" transform="translate(0.11)" fill="#e6e2d5"/>
            <path d="M184.74,293.39c-1.26-.87-3-1.1-3.92-2.51-.7-.7.08-1.41,0-2.11a6.49,6.49,0,0,1-.47-1.73,1.71,1.71,0,0,1,.47-.78c2.12-1.09,2.74.94,4,1.8C185.36,289.78,186,291.58,184.74,293.39Z" transform="translate(0.11)" fill="#e4e2d4"/>
            <path d="M190.06,296.52a7.81,7.81,0,0,1-3.84-2.51c1.57-1.8-1.56-3.52-.08-5.32,1.49.62,3.14,1,4.08,2.5C190.22,293,191.47,294.79,190.06,296.52Z" transform="translate(0.11)" fill="#e4e2d4"/>
            <path d="M190.06,296.52c.16-1.8-1-3.6.23-5.33a11.81,11.81,0,0,1,1.26.79c.39,1.8,1.4,3.75-.47,5.4C190.68,297.06,190.37,296.75,190.06,296.52Z" transform="translate(0.11)" fill="#36b56d"/>
            <path d="M186.22,288.69c-.08,1.8,1.73,3.52.08,5.32-.55-.23-1-.39-1.56-.62-.08-1.81-1-3.61.07-5.41Z" transform="translate(0.11)" fill="#2ab46a"/>
            <path d="M180.9,273.74c1,2,.47,4.15.23,6.18a13,13,0,0,1-1.09-.86c0-.63.31-1.64,0-1.88C177.77,275.3,179.88,274.68,180.9,273.74Z" transform="translate(0.11)" fill="#f3f9f5"/>
            <path d="M180.82,286.26c0,.32-.08.63-.08.86a1.77,1.77,0,0,1-2.34,0c-.32-1,1.33-1.25.86-2.27C180.35,284.77,180,286.11,180.82,286.26Z" transform="translate(0.11)" fill="#42bc7a"/>
            <path d="M181.76,288.61c.63,1.1-1.64,1.1-.94,2.27-.47-.23-1-.39-1.49-.63.08-.54.08-1.09.16-1.64A1.77,1.77,0,0,1,181.76,288.61Z" transform="translate(0.11)" fill="#25b46a"/>
            <path d="M181.76,288.61h-2.27c-.31-.47-.7-1-1-1.49h2.35A6.13,6.13,0,0,0,181.76,288.61Z" transform="translate(0.11)" fill="#02a850"/>
            <path d="M149.67,125.17c-1.8-.47-2.74-.71-3.21-2C148,122.66,148.57,123.6,149.67,125.17Z" transform="translate(0.11)" fill="#ee3937"/>
            <path d="M143.25,121c-.16.47-.39.62-.78.39s-1.34-.31-1.18-1.18c0-.15.71-.54.78-.39C142.54,120.16,143.33,120.23,143.25,121Z" transform="translate(0.11)" fill="#ef2d2c"/>
            <path d="M154.36,127.44c-.15.39-.31.7-.78.47s-1.09-.47-1.17-.87.47-.86,1-.62S154.44,126.73,154.36,127.44Z" transform="translate(0.11)" fill="#ee3533"/>
            <path d="M314.76,226.85c.07,2,.07,4.07.15,6.1-13.15-7.74-26.22-15.42-39.37-23.17.47-1.8-.32-3.75.62-5.55,10.65,6.26,21.22,12.44,31.86,18.71C310.29,224.19,312.49,225.52,314.76,226.85Z" transform="translate(0.11)" fill="#e6e1d5"/>
            <path d="M274.6,208.85a11.31,11.31,0,0,1-4.54-2.27c.62-1.81-.39-3.76.62-5.48,1.49.62,3.14,1,4.15,2.42C274.36,205.24,275.69,207.12,274.6,208.85Z" transform="translate(0.11)" fill="#e4e2d5"/>
            <path d="M270.68,201.1c.08,1.87,1.49,3.91-.62,5.48-.31-.32-.63-.55-.94-.87,0-1.8-1.72-3.67.16-5.4A7.92,7.92,0,0,1,270.68,201.1Z" transform="translate(0.11)" fill="#1db163"/>
            <path d="M274.6,208.85c.31-1.81-2.11-3.68.23-5.33.47.24.86.47,1.33.71,0,1.88,1.73,4-.62,5.55Z" transform="translate(0.11)" fill="#1eb162"/>
            <path d="M269.28,190.61,273,193C271,193.42,269.82,192.49,269.28,190.61Z" transform="translate(0.11)" fill="#f01918"/>
            <path d="M278,197.1c-1.17-.7-2.35-1.33-3.44-2,1.88-.63,2.89.31,4,1.09A7.14,7.14,0,0,0,278,197.1Z" transform="translate(0.11)" fill="#f01716"/>
            <path d="M279.69,198.12c2.5-.39,3.44.39,4.3,1.72C282.35,199.92,281.49,199,279.69,198.12Z" transform="translate(0.11)" fill="#f00100"/>
            <path d="M19.73,211.74a4.74,4.74,0,0,1,3.91,2.58C21.68,213.7,20.43,213.23,19.73,211.74Z" transform="translate(0.11)" fill="#f01716"/>
            <path d="M14.25,208.53a4.94,4.94,0,0,1,3.91,2.66C16.13,210.57,15,210,14.25,208.53Z" transform="translate(0.11)" fill="#f01716"/>
            <path d="M263,272c-9.86,5-19,11.11-28.57,16.59-2.58,1.49-5.09,3.05-7.75,4.54-.78.47-1.64,1.57-2.74.39-.31-2-.94-3.91.79-5.56l41.33-24.42c2.11,2.11,2.11,4.78,0,6.34C265.13,270.61,263.72,270.84,263,272Z" transform="translate(0.11)" fill="#b2a68e"/>
            <path d="M199.06,322.35c-3-.86-3-.86-4.93-2.82C196.32,319.61,197.57,320.47,199.06,322.35Z" transform="translate(0.11)" fill="#ef3431"/>
            <path d="M193.19,319.14c-1.8-.08-2.66-.94-3.76-2C191.31,316.63,192.25,317.42,193.19,319.14Z" transform="translate(0.11)" fill="#f02220"/>
            <path d="M468.26,319.69A4.78,4.78,0,0,1,472,322C470.06,322,468.88,321.25,468.26,319.69Z" transform="translate(0.11)" fill="#f01716"/>
            <path d="M462.23,315.93c2,.86,3.29,1.33,4.54,3.13C464.66,318.67,463.33,318.28,462.23,315.93Z" transform="translate(0.11)" fill="#f01716"/>
            <path d="M224.81,287.91c-.47,1.8.79,3.91-.78,5.55-14.32-8.45-28.57-16.83-42.9-25.28a8.84,8.84,0,0,1-.23-6.18h-.08c2.74.7,4.86,2.42,7.2,3.83C200.31,273.19,212.52,280.55,224.81,287.91Z" transform="translate(0.11)" fill="#01a54a"/>
            <path d="M217.93,240.86c-4.39,2.51-8.22,4.62-12,6.81-5.4,3.13-10.73,6.42-16.13,9.47-.86.47-2.19,1.8-3,.32-.63-1.18,1-1.57,1.88-2,8.22-4.77,16.44-9.55,24.66-14.25A3.88,3.88,0,0,1,217.93,240.86Z" transform="translate(0.11)" fill="#e5e5e4"/>
            <path d="M219.88,248.38c-8.45,4.77-16.83,9.62-25.28,14.4-.31-.47-.55-1-.86-1.49,8.37-4.85,16.67-10,25.36-14.32A12.37,12.37,0,0,1,219.88,248.38Z" transform="translate(0.11)" fill="#e5e5e4"/>
            <path d="M190.37,259.65c6.66-4.15,13-8.85,20.43-11.27C204.31,252.76,198,257.38,190.37,259.65Z" transform="translate(0.11)" fill="#e5e5e4"/>
            <path d="M202.82,266.77c-.32-.31-.71-.63-1-.94.08-2.11,2.11-2.27,3.29-3.21s3-.86,3.13-2.89c.63-.47,1.17-1,1.8-1.49,1.33,1.17,2.35.16,3.44-.47,1.33-.71,2.51-1.88,4.23-1.18.31.32.63.55.94.87-.23,2.89-3.76,2.42-4.77,4.54a7.88,7.88,0,0,0-.87.86c-2.19,0-3.68,1.64-5.55,2.42C205.87,265.91,204.62,267.32,202.82,266.77Z" transform="translate(0.11)" fill="#f0f5ef"/>
            <path d="M223.17,273.19c-.47-.47-1.1-1.1-.23-1.57,4.38-2.42,8.84-4.77,13.3-7.12a1.34,1.34,0,0,1,1.65.63c0,.15.15.31.07.39C233.58,269,229.28,272.88,223.17,273.19Z" transform="translate(0.11)" fill="#b0b0b0"/>
            <path d="M223.17,273.19c5.48-1.64,9.86-5.32,14.79-8,.55.31,1.1.54,1.65.86-.78,3.28-4.54,3.05-6.26,5.24-.08.71-.16,1.41-1,1.64-2.74-1.09-4.07,1.34-6,2.43C225.28,274.6,224.27,273.89,223.17,273.19Z" transform="translate(0.11)" fill="#f1f3f0"/>
            <path d="M224.66,262.86a12,12,0,0,1,2.66-1.26c1.09-.31,2-.15,1.33,1.41-2.66,3.29-6.34,4.86-10.25,6.11-.71,0-1.73.47-2-.55s1-1,1.33-1.72C219.33,264.27,222.07,263.64,224.66,262.86Z" transform="translate(0.11)" fill="#b1b1b1"/>
            <path d="M220.82,261.21c3.84-2.27,7.28-5.32,11.82-6.18a8.33,8.33,0,0,0,.47.86c-3.29,2-6.65,4.07-9.94,6.11C221.92,262.94,221.37,262.15,220.82,261.21Z" transform="translate(0.11)" fill="#b2b2b2"/>
            <path d="M233.35,271.23c-.79-2.27,1.56-1.88,2.42-2.66a41.55,41.55,0,0,1,3.84-2.58c1.64.08,2.74-2.74,5.24-.47C240.78,267.32,237.73,270.53,233.35,271.23Z" transform="translate(0.11)" fill="#b4b4b4"/>
            <path d="M213.78,262c-.94-1.41.31-1.65,1.09-2.12,1.26-.78,2.74-1.17,3.68-2.42,2.19-.4,3.84-2.51,6.42-2C221.6,258.08,218.16,260.82,213.78,262Z" transform="translate(0.11)" fill="#b1b1b1"/>
            <path d="M229.35,264.34c.55.4,1.73.87.71,1.57-2.9,1.88-5.87,3.6-8.85,5.24-1,.55-1.64-.31-2-1.17C222.23,267.32,225.36,265.05,229.35,264.34Z" transform="translate(0.11)" fill="#b0b0b0"/>
            <path d="M208.22,259.73c.47.62,2,1.09.08,2.11a68,68,0,0,0-6.5,4.07c-.94.16-2,.16-2.27-.94-.16-.78,1-.94,1.57-1.25C203.44,262.31,205.79,261.06,208.22,259.73Z" transform="translate(0.11)" fill="#66c470"/>
            <path d="M217.61,256.59c-1.56.87-3.05,1.73-4.69,2.51-1.18.55-2.67,1.57-3-.86,2.27-1.18,4.54-2.35,6.81-3.6.71-.39,1.65-.78,2.11-.08C219.49,255.66,218.32,256.05,217.61,256.59Z" transform="translate(0.11)" fill="#b4b4b4"/>
            <path d="M202.82,266.77c2.27-1.25,4.46-2.5,6.73-3.76,1.1-.62,2.19-1.41,3.44-.15-2.11,2-4.93,3-7.35,4.54C204.46,268.18,203.44,268.18,202.82,266.77Z" transform="translate(0.11)" fill="#65c46f"/>
            <path d="M229.35,264.34c-3.36,1.88-6.73,3.76-10.17,5.56l-.86-.86c3.44-2,6.89-4.07,10.25-6.1A11.46,11.46,0,0,1,229.35,264.34Z" transform="translate(0.11)" fill="#f1f1ef"/>
            <path d="M220.82,261.21a3.18,3.18,0,0,0,2.27.86,1.59,1.59,0,0,0,1.57.79,32.83,32.83,0,0,1-7,4,11.93,11.93,0,0,0-1.1-.94c.24-2.51,2.74-2.43,4.08-3.6A8.28,8.28,0,0,0,220.82,261.21Z" transform="translate(0.11)" fill="#f1edeb"/>
            <path d="M206.58,269.43c2.34-1.33,4-3.44,7-3C210.8,269.59,209.78,270,206.58,269.43Z" transform="translate(0.11)" fill="#3a91ca"/>
            <path d="M220.74,262.23c-.31,2.43-3.13,2-4.07,3.6a3.1,3.1,0,0,1-2.81-.39C215.89,263.8,217.69,261.76,220.74,262.23Z" transform="translate(0.11)" fill="#b23f42"/>
            <path d="M226.38,275.3c.47-3,3.13-3.21,5.32-3.83.79-.24.79.78.63,1.41C230.22,273.35,228.81,275.62,226.38,275.3Z" transform="translate(0.11)" fill="#63c36d"/>
            <path d="M223.56,279.61c2.82-1,4.39-3.6,8.06-2.51C228.81,278.43,227.24,281.1,223.56,279.61Z" transform="translate(0.11)" fill="#3b92ca"/>
            <path d="M180.9,262c1,2,.47,4.14.23,6.18a13,13,0,0,1-1.09-.86c0-.63.31-1.57,0-1.88C177.77,263.56,179.88,262.94,180.9,262Z" transform="translate(0.11)" fill="#f1f8f3"/>
            <path d="M287.67,213.78c-1.41-.24-2.9-.39-3.83-2.51A5.57,5.57,0,0,1,287.67,213.78Z" transform="translate(0.11)" fill="#f01716"/>
            <path d="M278.28,207.91c2,.86,3.29,1.33,4.54,3.13C280.7,210.65,279.37,210.25,278.28,207.91Z" transform="translate(0.11)" fill="#f01716"/>
        </g>
    </g>
    <g class="branching-sprite" id="med">
        <path d="M355.38,179.1c-.94-3.37-4.38-3.68-6.73-5.32s-5.32-2.66-7.36-4.86c2.82-1.88,5.17-1.33,8.06.39,15,9.16,30.3,18,45.95,27.32-7.28,4.31-13.93,8.38-20.82,12.29-5.87,3.37-11.27,7.36-17.45,10.1-1.65-1.09-.47-3.44-2-4.62-.86-1.25-2.5-1.88-3.05-3.52.23-1.33,1.33-1.8,2.19-2.5,1.88-1.65,2.5-3.53.86-5.72-.86-1.25-2.5-1.88-3.05-3.52.23-1.33,1.41-1.8,2.19-2.51,1.88-1.64,2.5-3.52.86-5.71-.86-1.25-2.5-1.88-3.05-3.44.15-1.18,1.09-1.73,1.95-2.27C356.16,183.56,356.63,181.53,355.38,179.1Z" transform="translate(0.11)" fill="#c1c1c1"/>
        <path d="M268.57,305.37v19.56h.7l-.7.39c-1.48.82-3,1.59-4.54,2.28-.94-.63-1-1.67-1.1-2.67A2.59,2.59,0,0,0,262,323c-.86-1.25-2.5-1.88-3.05-3.52.24-1.34,1.33-1.81,2.19-2.51,1.88-1.64,2.51-3.52.86-5.71-.86-1.26-2.5-1.88-3.05-3.53.22-1.22,1.23-1.72,2-2.34a1.56,1.56,0,0,0,.2-.16c1.88-1.65,2.51-3.52.86-5.72-.86-1.25-2.5-1.87-3.05-3.44.16-1.17,1.1-1.72,2-2.27,1.92-1.39,2.55-3.06,1.94-5a6.31,6.31,0,0,0-.45-1.11c-.94-3.36-4.39-3.67-6.74-5.32s-5.32-2.66-7.35-4.85a5.84,5.84,0,0,1,5.37-.87,12.87,12.87,0,0,1,2.69,1.26c15,9.16,30.29,18,45.95,27.32l-.27.16Z" transform="translate(0.11)" fill="#c1c1c1"/>
        <path d="M500.88,275.8c-.94-3.37-4.39-3.68-6.73-5.32s-5.33-2.66-7.36-4.86c2.82-1.87,5.16-1.33,8.06.4,15,9.15,30.29,18,45.95,27.31-7.28,4.31-13.93,8.38-20.82,12.29-5.87,3.37-11.27,7.36-17.46,10.1-1.64-1.09-.47-3.44-2-4.62-.87-1.25-2.51-1.87-3.06-3.52.24-1.33,1.33-1.8,2.19-2.5,1.88-1.65,2.51-3.53.87-5.72-.87-1.25-2.51-1.88-3.06-3.52.24-1.33,1.41-1.8,2.19-2.51,1.88-1.64,2.51-3.52.87-5.71-.87-1.25-2.51-1.88-3.06-3.44.16-1.18,1.1-1.73,2-2.27C501.66,280.26,502.13,278.23,500.88,275.8Z" transform="translate(0.11)" fill="#c1c1c1"/>
        <path d="M218.55,111.78c-.94-3.37-4.38-3.68-6.73-5.32s-5.32-2.66-7.36-4.86c2.82-1.87,5.17-1.33,8.06.4,15,9.15,30.3,18,46,27.31-7.28,4.31-13.93,8.38-20.82,12.29-5.87,3.37-11.27,7.36-17.45,10.1-1.65-1.09-.47-3.44-2-4.62-.86-1.25-2.5-1.87-3-3.52.23-1.33,1.33-1.8,2.19-2.5,1.88-1.65,2.5-3.53.86-5.72-.86-1.25-2.5-1.88-3-3.52.23-1.33,1.41-1.8,2.19-2.51,1.88-1.64,2.5-3.52.86-5.71-.86-1.25-2.5-1.88-3-3.44.15-1.18,1.09-1.73,1.95-2.27C219.33,116.24,219.8,114.21,218.55,111.78Z" transform="translate(0.11)" fill="#c1c1c1"/>
        <path d="M81.88,36.32C80.94,33,77.5,32.64,75.15,31s-5.33-2.66-7.36-4.86c2.82-1.87,5.16-1.33,8.06.4,15,9.15,30.29,18,46,27.32-7.28,4.3-13.93,8.37-20.82,12.28-5.87,3.37-11.27,7.36-17.46,10.1-1.64-1.09-.47-3.44-2-4.62-.86-1.25-2.51-1.87-3.06-3.52.24-1.33,1.34-1.8,2.2-2.5,1.87-1.65,2.5-3.53.86-5.72C80.63,58.63,79,58,78.43,56.36c.24-1.33,1.41-1.8,2.2-2.5,1.87-1.65,2.5-3.53.86-5.72-.86-1.25-2.51-1.88-3.06-3.44.16-1.18,1.1-1.73,2-2.27C82.66,40.78,83.13,38.75,81.88,36.32Z" transform="translate(0.11)" fill="#c1c1c1"/>
        <path d="M85,183.33c-.94-3.37-4.38-3.68-6.73-5.33s-5.33-2.66-7.36-4.85c2.82-1.88,5.17-1.33,8.06.39,15,9.16,30.3,18,46,27.32-7.28,4.31-13.93,8.38-20.82,12.29-5.87,3.37-11.27,7.36-17.46,10.1-1.64-1.1-.47-3.45-2-4.62-.86-1.25-2.51-1.88-3.05-3.52.23-1.33,1.33-1.8,2.19-2.51,1.88-1.64,2.5-3.52.86-5.71-.86-1.25-2.51-1.88-3.05-3.52.23-1.33,1.4-1.8,2.19-2.51,1.88-1.64,2.5-3.52.86-5.71-.86-1.26-2.51-1.88-3.05-3.45.15-1.17,1.09-1.72,2-2.27C85.79,187.79,86.26,185.75,85,183.33Z" transform="translate(0.11)" fill="#c1c1c1"/>
        <path d="M465.65,298.51,416.1,269.87v22.59l22.33,12.91H416.1v3.55l27.54,16h18.41l3.6-2.71,17.83-13.41ZM265,182.53,216.3,154.4,186.14,137l-49.55-28.64v22.58l49.55,28.64,10.71,6.19,65.93,38.1L103,213.84h0l-9.32.58-12,.75h0l-15.28,1L58.79,212V157.76L44.07,149l-4.85,2.84v71.61l12.05,6.7,9.47,5.27v.63l.94-.08L64,237.28,176.59,299.9l45,25h47V305.37h-42l-47-26.18L97.92,233.74,277,222.56l16.41-1,21.14,12.22,9.16,5.29,19.43-11.35-28.59-16.53Z" transform="translate(0.11)" fill="#008f99"/>
        <polygon points="443.75 324.93 268.68 324.93 268.68 305.37 416.21 305.37 416.21 308.92 443.75 324.93" fill="#f44d27"/>
        <polygon points="416.21 269.87 416.21 292.46 323.79 239.04 343.22 227.69 416.21 269.87" fill="#f44d27"/>
        <polygon points="136.7 108.33 136.7 130.91 62.93 88.28 82.37 76.94 136.7 108.33" fill="#cc9e00"/>
        <polygon points="58.9 90.63 58.9 157.76 44.18 149.04 39.33 151.88 39.33 89.46 50.13 95.74 58.9 90.63" fill="#cc9e00"/>
        <polygon points="92.56 29.35 50.13 53.85 0.58 24.89 43.01 0 92.56 29.35" fill="#f7f7f7"/>
        <polygon points="50.13 53.86 50.13 95.74 39.33 89.46 0.58 66.93 0.58 24.9 50.13 53.86" fill="#c1c1c1"/>
        <polygon points="82.37 76.94 83.6 76.22 92.55 71 92.55 29.36 86.47 32.87 81.73 35.61 50.13 53.86 50.13 95.74 58.9 90.63 82.37 76.94" fill="#919191"/>
        <polygon points="228.68 105.6 186.26 130.1 136.71 101.14 179.13 76.24 228.68 105.6" fill="#f7f7f7"/>
        <polygon points="186.25 130.1 186.25 171.98 136.7 143.17 136.7 101.14 186.25 130.1" fill="#c1c1c1"/>
        <polygon points="228.68 105.6 228.68 147.24 186.26 171.98 186.26 130.1 228.68 105.6" fill="#919191"/>
        <polygon points="356.98 178.08 314.63 202.5 265.08 173.54 307.51 148.73 356.98 178.08" fill="#f7f7f7"/>
        <polygon points="314.63 202.5 314.63 244.38 265.08 215.58 265.08 173.54 314.63 202.5" fill="#c1c1c1"/>
        <polygon points="356.98 178.09 356.98 219.65 343.22 227.69 323.79 239.04 314.63 244.39 314.63 202.51 355.45 178.97 356.98 178.09" fill="#919191"/>
        <polygon points="508.11 271.42 465.76 295.84 416.21 266.88 458.56 242.06 508.11 271.42" fill="#f7f7f7"/>
        <polygon points="465.76 295.84 465.76 337.72 443.75 324.93 416.21 308.92 416.21 266.88 465.76 295.84" fill="#c1c1c1"/>
        <polygon points="508.11 271.42 508.11 312.98 465.76 337.72 465.76 295.84 508.11 271.42" fill="#919191"/>
        <polygon points="268.68 285.48 226.26 309.9 176.71 280.94 219.13 256.05 268.68 285.48" fill="#f7f7f7"/>
        <polygon points="226.26 309.9 226.26 351.78 176.71 322.97 176.71 280.94 226.26 309.9" fill="#c1c1c1"/>
        <polygon points="268.68 285.48 268.68 327.05 226.25 351.78 226.25 309.91 234.14 305.37 262.95 288.78 268.68 285.48" fill="#919191"/>
        <polygon points="93.73 178.4 90.36 180.34 85.13 183.36 58.9 198.48 51.38 202.82 39.33 195.78 1.83 173.86 39.33 151.88 44.18 149.04 58.9 157.76 93.73 178.4" fill="#f7f7f7"/>
        <polygon points="51.38 202.82 51.38 244.7 1.83 215.89 1.83 173.85 51.38 202.82" fill="#c1c1c1"/>
        <polygon points="93.73 178.4 93.73 219.96 51.38 244.7 51.38 202.82 93.73 178.4" fill="#919191"/>
    </g>
    <g class="branching-sprite" id="min">
        <path d="M465.65,298.51,416.1,269.87v22.59l22.33,12.91H416.1v3.55l27.54,16h18.41l3.6-2.71,17.83-13.41ZM265,182.53,216.3,154.4,186.14,137l-49.55-28.64v22.58l49.55,28.64,10.71,6.19,65.93,38.1L103,213.84h0l-9.32.58-12,.75h0l-15.28,1L58.79,212V157.76L44.07,149l-4.85,2.84v71.61l12.05,6.7,9.47,5.27v.63l.94-.08L64,237.28,176.59,299.9l45,25h47V305.37h-42l-47-26.18L97.92,233.74,277,222.56l16.41-1,21.14,12.22,9.16,5.29,19.43-11.35-28.59-16.53Z" transform="translate(0.11)" fill="#008f99"/>
        <polygon points="443.75 324.93 268.68 324.93 268.68 305.37 416.21 305.37 416.21 308.92 443.75 324.93" fill="#f44d27"/>
        <polygon points="416.21 269.87 416.21 292.46 323.79 239.04 343.22 227.69 416.21 269.87" fill="#f44d27"/>
        <polygon points="136.7 108.33 136.7 130.91 62.93 88.28 82.37 76.94 136.7 108.33" fill="#cc9e00"/>
        <polygon points="58.9 90.63 58.9 157.76 44.18 149.04 39.33 151.88 39.33 89.46 50.13 95.74 58.9 90.63" fill="#cc9e00"/>
        <polygon points="92.56 29.35 50.13 53.85 0.58 24.89 43.01 0 92.56 29.35" fill="#f7f7f7"/>
        <polygon points="50.13 53.86 50.13 95.74 39.33 89.46 0.58 66.93 0.58 24.9 50.13 53.86" fill="#c1c1c1"/>
        <polygon points="82.37 76.94 83.6 76.22 92.55 71 92.55 29.36 86.47 32.87 81.73 35.61 50.13 53.86 50.13 95.74 58.9 90.63 82.37 76.94" fill="#919191"/>
        <polygon points="228.68 105.6 186.26 130.1 136.71 101.14 179.13 76.24 228.68 105.6" fill="#f7f7f7"/>
        <polygon points="186.25 130.1 186.25 171.98 136.7 143.17 136.7 101.14 186.25 130.1" fill="#c1c1c1"/>
        <polygon points="228.68 105.6 228.68 147.24 186.26 171.98 186.26 130.1 228.68 105.6" fill="#919191"/>
        <polygon points="356.98 178.08 314.63 202.5 265.08 173.54 307.51 148.73 356.98 178.08" fill="#f7f7f7"/>
        <polygon points="314.63 202.5 314.63 244.38 265.08 215.58 265.08 173.54 314.63 202.5" fill="#c1c1c1"/>
        <polygon points="356.98 178.09 356.98 219.65 343.22 227.69 323.79 239.04 314.63 244.39 314.63 202.51 355.45 178.97 356.98 178.09" fill="#919191"/>
        <polygon points="508.11 271.42 465.76 295.84 416.21 266.88 458.56 242.06 508.11 271.42" fill="#f7f7f7"/>
        <polygon points="465.76 295.84 465.76 337.72 443.75 324.93 416.21 308.92 416.21 266.88 465.76 295.84" fill="#c1c1c1"/>
        <polygon points="508.11 271.42 508.11 312.98 465.76 337.72 465.76 295.84 508.11 271.42" fill="#919191"/>
        <polygon points="268.68 285.48 226.26 309.9 176.71 280.94 219.13 256.05 268.68 285.48" fill="#f7f7f7"/>
        <polygon points="226.26 309.9 226.26 351.78 176.71 322.97 176.71 280.94 226.26 309.9" fill="#c1c1c1"/>
        <polygon points="268.68 285.48 268.68 327.05 226.25 351.78 226.25 309.91 234.14 305.37 262.95 288.78 268.68 285.48" fill="#919191"/>
        <polygon points="93.73 178.4 90.36 180.34 85.13 183.36 58.9 198.48 51.38 202.82 39.33 195.78 1.83 173.86 39.33 151.88 44.18 149.04 58.9 157.76 93.73 178.4" fill="#f7f7f7"/>
        <polygon points="51.38 202.82 51.38 244.7 1.83 215.89 1.83 173.85 51.38 202.82" fill="#c1c1c1"/>
        <polygon points="93.73 178.4 93.73 219.96 51.38 244.7 51.38 202.82 93.73 178.4" fill="#919191"/>
    </g>
</svg>