<?xml version="1.0" encoding="utf-8"?>
<!-- Generator: Adobe Illustrator 22.1.0, SVG Export Plug-In . SVG Version: 6.00 Build 0)  -->
<svg version="1.1" id="Layer_1" xmlns="http://www.w3.org/2000/svg" xmlns:xlink="http://www.w3.org/1999/xlink" x="0px" y="0px"
	 viewBox="0 0 269.2 112.5" enable-background="new 0 0 269.2 112.5" xml:space="preserve">
<g>
	<path fill="#403215" d="M161.4,38.3c-5.9,0-10.3,2.9-10.3,9.9c0,5.3,2.9,8.9,10,8.9c6,0,10.1-3.5,10.1-9.1
		C171.1,41.6,167.5,38.3,161.4,38.3L161.4,38.3z M149.5,87.5c-1.4,1.7-2.8,3.5-2.8,5.7c0,4.3,5.5,5.6,13,5.6
		c6.2,0,14.7-0.4,14.7-6.2c0-3.4-4.1-3.7-9.2-4L149.5,87.5L149.5,87.5z M181.3,38.6c1.9,2.5,4,5.9,4,10.8c0,11.9-9.3,18.9-22.9,18.9
		c-3.4,0-6.5-0.4-8.5-1l-3.5,5.7l10.5,0.6c18.6,1.2,29.5,1.7,29.5,16c0,12.3-10.8,19.3-29.5,19.3c-19.4,0-26.8-4.9-26.8-13.4
		c0-4.8,2.1-7.4,5.9-10.9c-3.5-1.5-4.7-4.2-4.7-7.1c0-2.4,1.2-4.5,3.1-6.5c1.9-2,4.1-4.1,6.7-6.4c-5.3-2.6-9.2-8.2-9.2-16.1
		c0-12.3,8.2-20.8,24.6-20.8c4.6,0,7.4,0.4,9.9,1.1h20.9v9.1L181.3,38.6"/>
	<path fill="#403215" d="M210.1,19.1c-6.1,0-9.7-3.5-9.7-9.7c0-6.1,3.5-9.4,9.7-9.4c6.2,0,9.8,3.3,9.8,9.4
		C219.8,15.6,216.3,19.1,210.1,19.1z M196.2,83.6v-8.5l5.5-0.7c1.5-0.2,1.7-0.5,1.7-2.2V40.7c0-1.2-0.3-1.9-1.4-2.3l-5.8-2l1.2-8.7
		h22.2v44.5c0,1.7,0.1,1.9,1.7,2.2l5.5,0.7v8.5L196.2,83.6"/>
	<path fill="#403215" d="M269.2,79.4c-4.6,2.3-11.4,4.3-17.5,4.3c-12.8,0-17.6-5.1-17.6-17.3V38.3c0-0.6,0-1.1-0.9-1.1h-7.5v-9.5
		c9.4-1.1,13.2-5.8,14.4-17.5h10.2v15.2c0,0.7,0,1.1,0.9,1.1h15.1v10.7h-16v25.6c0,6.3,1.5,8.8,7.3,8.8c3,0,6.1-0.7,8.7-1.7
		L269.2,79.4"/>
	<path fill="#F05333" d="M110.2,51.3L61.2,2.2c-2.8-2.8-7.4-2.8-10.2,0L40.8,12.4l12.9,12.9c3-1,6.4-0.3,8.8,2.1
		c2.4,2.4,3.1,5.9,2,8.9L77,48.7c3-1,6.5-0.4,8.9,2c3.4,3.4,3.4,8.8,0,12.2c-3.4,3.4-8.8,3.4-12.2,0c-2.5-2.5-3.2-6.2-1.9-9.4
		L60.2,42l0,30.6c0.8,0.4,1.6,0.9,2.3,1.6c3.4,3.4,3.4,8.8,0,12.2c-3.4,3.4-8.8,3.4-12.2,0c-3.4-3.4-3.4-8.8,0-12.2
		c0.8-0.8,1.8-1.5,2.8-1.9V41.4c-1-0.4-2-1-2.8-1.9c-2.5-2.5-3.2-6.3-1.9-9.4L35.8,17.4L2.1,51c-2.8,2.8-2.8,7.4,0,10.2l49.1,49.1
		c2.8,2.8,7.4,2.8,10.2,0l48.8-48.8C113.1,58.7,113.1,54.1,110.2,51.3"/>
</g>
</svg>
