<svg xmlns="http://www.w3.org/2000/svg" viewBox="0 0 59.09 18.23">
  <title>sprite-logos2</title>
<defs>
<style>
.iconos {
  display: none;
}
.iconos:target {
  display: inline;
}
</style>
</defs>

  <g class="iconos" id="xorg">
    <path d="M37.72,10.26c0-2-1.63-3.76-4-4.7l-.15.21c2.11.82,3.54,2.4,3.54,4.21a4.46,4.46,0,0,1-2.52,3.72L31,8.79l5-6.57H35l-6.2,8.08,3.13,4.34a9.39,9.39,0,0,1-6-.89l4.47-5.87L26.21,2.22H22.9l5.16,7.19-2.95,3.86A4.18,4.18,0,0,1,23.25,10a4.41,4.41,0,0,1,2.37-3.64l-.45-.68c-2.27,1-3.78,2.66-3.78,4.59a5,5,0,0,0,2.86,4.14L23.05,16h1.14l.88-1.16a11.34,11.34,0,0,0,4.49.89,11.9,11.9,0,0,0,2.85-.34l.44.61h3.31L35,14.32A4.92,4.92,0,0,0,37.72,10.26Z" fill="#989898"/>
    <path d="M29.38,5.47a.84.84,0,0,1,.77-.32,9.64,9.64,0,0,1,2.18.25l.16-.22a11.62,11.62,0,0,0-2.94-.34c-.4,0-.82,0-1.21.06l1.9,2.51C29.87,6.62,29.12,5.86,29.38,5.47Z" fill="#989898"/>
  </g>
  <g class="iconos" id="kde">
    <path d="M34.24,12.9,34,13a.08.08,0,0,1-.09,0l-1-1.44A4,4,0,1,1,27.72,6V5a4.91,4.91,0,0,0-.74.33L25.09,4H25a.09.09,0,0,0-.08,0l-1,1a.12.12,0,0,0,0,.16l1.16,1.91a5,5,0,0,0-.49,1.11l-2.14.45a.13.13,0,0,0-.1.12v1.4a.13.13,0,0,0,.1.13l2.07.51A4.76,4.76,0,0,0,25,12.12L23.83,14a.13.13,0,0,0,0,.16l1,1a.12.12,0,0,0,.16,0L26.87,14a4.62,4.62,0,0,0,1.19.5l.44,2.11a.14.14,0,0,0,.13.1H30a.14.14,0,0,0,.13-.1l.52-2.11A5.27,5.27,0,0,0,31.9,14l1.85,1.22a.12.12,0,0,0,.16,0l1-1a.12.12,0,0,0,0-.16Z" fill="#989898"/>
    <polygon points="36.74 2.21 34.05 1.59 30.71 6.06 30.74 1.48 28.21 1.72 28.21 12.14 30.71 11.76 30.71 7.32 34.08 12.25 36.71 11.41 33.27 6.68 36.74 2.21" fill="#989898"/>
  </g>
  <g class="iconos" id="eclipse-l">
    <path d="M13.08,10.7H4.26A5.35,5.35,0,0,0,5.67,13a5.37,5.37,0,0,0,3.95,1.64,6.58,6.58,0,0,0,.9-.06,5.32,5.32,0,0,0,3-1.58A5.28,5.28,0,0,0,15,10.7h-1.9Z" fill="#989898"/>
    <path d="M5.12,8.1h-1a5.05,5.05,0,0,0-.07.68H15.2a5.23,5.23,0,0,0-.07-.68Z" fill="#989898"/>
    <path d="M4.12,10.07h11a4.9,4.9,0,0,0,.07-.67H4.05A4.9,4.9,0,0,0,4.12,10.07Z" fill="#989898"/>
    <path d="M4.26,7.48H15a5.5,5.5,0,0,0-1.42-2.34,5.37,5.37,0,0,0-3-1.57,6.56,6.56,0,0,0-.9-.07,5.43,5.43,0,0,0-4,1.64A5.38,5.38,0,0,0,4.26,7.48Z" fill="#989898"/>
    <rect x="34.64" y="2.79" width="1.16" height="1.47" fill="#989898"/>
    <path d="M21.84,5.44a3.26,3.26,0,0,0-2.53,1,3.9,3.9,0,0,0-.94,2.76,3.57,3.57,0,0,0,1,2.66,3.62,3.62,0,0,0,2.68,1,6,6,0,0,0,1.34-.14,6.54,6.54,0,0,0,1.28-.4v-1.1a5.68,5.68,0,0,1-1.25.49,5.09,5.09,0,0,1-1.3.16,2.47,2.47,0,0,1-1.8-.63,2.68,2.68,0,0,1-.73-1.83h5.35V8.85a3.58,3.58,0,0,0-.83-2.5A2.91,2.91,0,0,0,21.84,5.44ZM19.62,8.52A2.3,2.3,0,0,1,20.29,7a2.21,2.21,0,0,1,1.56-.54A1.78,1.78,0,0,1,23.23,7a2.22,2.22,0,0,1,.54,1.53Z" fill="#989898"/>
    <path d="M28.92,5.44a3.47,3.47,0,0,0-2.61,1,3.79,3.79,0,0,0-.95,2.73,3.8,3.8,0,0,0,.94,2.71,3.34,3.34,0,0,0,2.55,1A5,5,0,0,0,30,12.76a4.54,4.54,0,0,0,1-.34V11.35a4.71,4.71,0,0,1-1,.41,3.76,3.76,0,0,1-1,.13,2.22,2.22,0,0,1-1.76-.72,3,3,0,0,1-.62-2,3,3,0,0,1,.62-2A2.22,2.22,0,0,1,29,6.43a3.76,3.76,0,0,1,1,.13A4.23,4.23,0,0,1,31,7V5.88a5,5,0,0,0-1-.33A4.57,4.57,0,0,0,28.92,5.44Z" fill="#989898"/>
    <rect x="32.02" y="2.85" width="1.16" height="9.84" fill="#989898"/>
    <rect x="34.64" y="5.61" width="1.16" height="7.08" fill="#989898"/>
    <path d="M40.66,5.44a2.82,2.82,0,0,0-1.34.3,2.54,2.54,0,0,0-.93.94V5.61H37.23v9.77h1.16V11.63a2.54,2.54,0,0,0,.93.94,2.79,2.79,0,0,0,1.34.3,2.56,2.56,0,0,0,2.1-1,4.28,4.28,0,0,0,.8-2.69,4.29,4.29,0,0,0-.8-2.7A2.56,2.56,0,0,0,40.66,5.44Zm1.17,5.73a1.82,1.82,0,0,1-2.91,0,3.41,3.41,0,0,1-.53-2,3.4,3.4,0,0,1,.53-2,1.69,1.69,0,0,1,1.45-.73,1.71,1.71,0,0,1,1.46.73,3.38,3.38,0,0,1,.52,2A3.41,3.41,0,0,1,41.83,11.17Z" fill="#989898"/>
    <path d="M47.13,8.63l-.39-.09a3.55,3.55,0,0,1-1.25-.44.73.73,0,0,1-.31-.63.87.87,0,0,1,.43-.8,2.53,2.53,0,0,1,1.3-.26,4.94,4.94,0,0,1,1.1.12,4.25,4.25,0,0,1,1,.38V5.81a5.37,5.37,0,0,0-1-.29,7.86,7.86,0,0,0-1.22-.09,3.27,3.27,0,0,0-2,.54,1.85,1.85,0,0,0-.71,1.54,1.75,1.75,0,0,0,.48,1.3,3.15,3.15,0,0,0,1.57.69l.4.1a4.19,4.19,0,0,1,1.4.48,1,1,0,0,1-.12,1.53,2.47,2.47,0,0,1-1.27.27,4.85,4.85,0,0,1-1.24-.16,6.31,6.31,0,0,1-1.27-.5v1.2a9.19,9.19,0,0,0,1.3.33,6.17,6.17,0,0,0,1.18.11,3.59,3.59,0,0,0,2.15-.57,1.85,1.85,0,0,0,.78-1.56,1.76,1.76,0,0,0-.52-1.35A3.77,3.77,0,0,0,47.13,8.63Z" fill="#989898"/>
    <path d="M56.35,8.86h0a3.59,3.59,0,0,0-.83-2.5,2.87,2.87,0,0,0-2.26-.92,3.26,3.26,0,0,0-2.53,1,3.9,3.9,0,0,0-.94,2.76,3.57,3.57,0,0,0,1,2.66,3.62,3.62,0,0,0,2.68,1,6,6,0,0,0,1.34-.14,6.54,6.54,0,0,0,1.28-.4v-1.1a5.68,5.68,0,0,1-1.25.49,5.09,5.09,0,0,1-1.3.16,2.47,2.47,0,0,1-1.8-.63A2.63,2.63,0,0,1,51,9.42h5.35ZM51,8.52A2.34,2.34,0,0,1,51.71,7a2.23,2.23,0,0,1,1.56-.54A1.79,1.79,0,0,1,54.66,7a2.27,2.27,0,0,1,.53,1.53Z" fill="#989898"/>
    <path d="M3.72,9.09A5.94,5.94,0,0,1,8.81,3.26H8.59a5.83,5.83,0,1,0,0,11.66h.22A5.93,5.93,0,0,1,3.72,9.09Z" fill="#989898"/>
  </g>
  <g class="iconos" id="eclipse-i">
    <path d="M34.8,11.14H23.51a6.92,6.92,0,0,0,1.81,3,6.86,6.86,0,0,0,5.06,2.1,8.77,8.77,0,0,0,1.15-.08,6.9,6.9,0,0,0,3.9-2,7,7,0,0,0,1.81-3H34.8Z" fill="#989898"/>
    <path d="M23.34,7.83a7.79,7.79,0,0,0-.1.86H37.52a6.11,6.11,0,0,0-.09-.86H23.34Z" fill="#989898"/>
    <path d="M23.34,10.35H37.43a6.1,6.1,0,0,0,.09-.87H23.24A8,8,0,0,0,23.34,10.35Z" fill="#989898"/>
    <path d="M23.52,7H37.25a7,7,0,0,0-1.82-3,6.89,6.89,0,0,0-3.89-2,8.65,8.65,0,0,0-1.15-.08A6.92,6.92,0,0,0,25.32,4,6.87,6.87,0,0,0,23.52,7Z" fill="#989898"/>
    <path d="M22.82,9.09a7.6,7.6,0,0,1,6.52-7.46h-.28a7.47,7.47,0,1,0,0,14.93h.28A7.61,7.61,0,0,1,22.82,9.09Z" fill="#989898"/>
  </g>
  <g class="iconos" id="gnome-l">
    <path d="M19.7,1.48c-3.17,0-3.76,4.51-2,4.51S22.86,1.48,19.7,1.48Z" fill="#989898"/>
    <path d="M14.44,5.43c.94.06,2-3.61.21-3.38S13.49,5.37,14.44,5.43Z" fill="#989898"/>
    <path d="M10.09,7.71c.68-.3.09-3.19-1.06-2.4S9.42,8,10.09,7.71Z" fill="#989898"/>
    <path d="M12,6.19c.8-.16.85-3.46-.58-2.86S11.19,6.36,12,6.19Z" fill="#989898"/>
    <path d="M16.19,13.57c.14,1.08-.8,1.62-1.72.92-2.94-2.23,4.85-3.35,4.34-6.39-.43-2.53-8.19-1.75-9.08,2.2-.6,2.68,2.46,6.4,5.66,6.4a4.12,4.12,0,0,0,3.72-3.22C19.37,12.1,16.07,12.66,16.19,13.57Z" fill="#989898"/>
    <path d="M36,6.81h-.1A2.44,2.44,0,0,0,34,7.67,3.57,3.57,0,0,0,33.25,10,3.56,3.56,0,0,0,34,12.4a2.49,2.49,0,0,0,2,.86,2.46,2.46,0,0,0,2-.86A3.56,3.56,0,0,0,38.67,10,3.57,3.57,0,0,0,38,7.67,2.43,2.43,0,0,0,36,6.81Zm1,4.75a1.07,1.07,0,0,1-1,.54,1.08,1.08,0,0,1-1-.54A2.83,2.83,0,0,1,34.66,10,2.84,2.84,0,0,1,35,8.51,1.07,1.07,0,0,1,35.92,8h0a1.07,1.07,0,0,1,1,.54A2.84,2.84,0,0,1,37.27,10,2.85,2.85,0,0,1,36.92,11.56Z" fill="#989898"/>
    <path d="M24.74,9.69v1.07h1.09v1.08a1.55,1.55,0,0,1-1,.26,1.46,1.46,0,0,1-1.2-.54A2.43,2.43,0,0,1,23.23,10a2.34,2.34,0,0,1,.43-1.53A1.54,1.54,0,0,1,24.92,8a2.64,2.64,0,0,1,.87.14,3.38,3.38,0,0,1,.51.24l.37-1.08a4.18,4.18,0,0,0-.91-.35,4.74,4.74,0,0,0-1-.11,2.72,2.72,0,0,0-2.14.86A3.38,3.38,0,0,0,21.83,10a3.41,3.41,0,0,0,.77,2.36,2.66,2.66,0,0,0,2.08.87,3.44,3.44,0,0,0,2.18-.59v-3Z" fill="#989898"/>
    <polygon points="31.35 10.65 28.64 6.92 27.79 6.92 27.79 13.14 28.94 13.14 28.94 9.4 31.65 13.14 32.5 13.14 32.5 6.92 31.35 6.92 31.35 10.65" fill="#989898"/>
    <polygon points="43.69 6.92 42.48 10.8 41.28 6.92 39.82 6.92 39.16 13.14 40.45 13.14 40.84 9.12 42.06 13.15 42.92 13.15 44.12 9.25 44.52 13.14 45.8 13.14 45.15 6.92 43.69 6.92" fill="#989898"/>
    <polygon points="48.09 11.93 48.09 10.5 49.86 10.5 49.86 9.42 48.09 9.42 48.09 8.13 50.39 8.13 50.39 6.92 46.73 6.92 46.73 13.14 50.47 13.14 50.47 11.93 48.09 11.93" fill="#989898"/>
  </g>
  <g class="iconos" id="gnome-i">
    <path d="M34,0c-2.86,0-3.4,4.08-1.79,4.08S36.83,0,34,0Z" fill="#989898"/>
    <path d="M29.21,3.61c.86.06,1.8-3.27.19-3.06S28.35,3.56,29.21,3.61Z" fill="#989898"/>
    <path d="M25.28,5.68c.6-.27.08-2.9-1-2.18S24.67,6,25.28,5.68Z" fill="#989898"/>
    <path d="M27,4.31c.72-.15.77-3.13-.53-2.6S26.27,4.45,27,4.31Z" fill="#989898"/>
    <path d="M33.16,6C32.78,3.73,25.75,4.44,25,8c-.54,2.43,2.23,5.79,5.12,5.79a3.72,3.72,0,0,0,3.37-2.91c.24-1.24-2.76-.74-2.65.08.13,1-.72,1.47-1.55.84C26.58,9.79,33.63,8.78,33.16,6Z" fill="#989898"/>
    <path d="M29.46,15.26h0a1.08,1.08,0,0,0-.84.39,1.59,1.59,0,0,0-.32,1,1.59,1.59,0,0,0,.32,1.05,1.22,1.22,0,0,0,1.77,0,1.59,1.59,0,0,0,.32-1.05,1.59,1.59,0,0,0-.32-1A1.1,1.1,0,0,0,29.46,15.26Zm.43,2.12a.47.47,0,0,1-.43.24.5.5,0,0,1-.43-.24A1.62,1.62,0,0,1,29,16a.47.47,0,0,1,.42-.24h0a.47.47,0,0,1,.43.24,1.52,1.52,0,0,1,0,1.36Z" fill="#989898"/>
    <path d="M24.47,17H25v.48a.77.77,0,0,1-1-.12,1.1,1.1,0,0,1-.18-.68A1.06,1.06,0,0,1,24,16a.68.68,0,0,1,.56-.24,1.26,1.26,0,0,1,.38.06l.23.11.16-.48a1.38,1.38,0,0,0-.4-.15,1.63,1.63,0,0,0-.45-.06,1.21,1.21,0,0,0-.95.39,1.47,1.47,0,0,0-.35,1,1.53,1.53,0,0,0,.34,1.05,1.17,1.17,0,0,0,.93.38,1.51,1.51,0,0,0,1-.25V16.54h-.94Z" fill="#989898"/>
    <polygon points="32.91 15.31 32.37 17.04 31.84 15.31 31.18 15.31 30.89 18.08 31.46 18.08 31.64 16.29 32.18 18.09 32.56 18.09 33.1 16.35 33.28 18.08 33.85 18.08 33.55 15.31 32.91 15.31" fill="#989898"/>
    <polygon points="34.87 17.54 34.87 16.91 35.66 16.91 35.66 16.43 34.87 16.43 34.87 15.85 35.89 15.85 35.89 15.31 34.26 15.31 34.26 18.08 35.93 18.08 35.93 17.54 34.87 17.54" fill="#989898"/>
    <polygon points="27.41 16.98 26.2 15.31 25.82 15.31 25.82 18.08 26.34 18.08 26.34 16.42 27.54 18.08 27.92 18.08 27.92 15.31 27.41 15.31 27.41 16.98" fill="#989898"/>
  </g>
  <g class="iconos" id="qt">
    <path d="M22.54,2c-.88.88-1.77,1.76-2.65,2.65V16.18H36.52l2.69-2.69V2Zm7.64,12.24-1.27.58L27.83,13a5.31,5.31,0,0,1-1.49,0,3,3,0,0,1-1.64-.64A2.65,2.65,0,0,1,24,11.25,7.56,7.56,0,0,1,23.65,9,8.11,8.11,0,0,1,24,6.53,2.77,2.77,0,0,1,25,5a3.81,3.81,0,0,1,2.16-.52,3.56,3.56,0,0,1,2,.55,2.61,2.61,0,0,1,.89,1.25,7.11,7.11,0,0,1,.4,2.47,7.54,7.54,0,0,1-.32,2.5,2.76,2.76,0,0,1-1,1.37Zm3.31-3.5a2.06,2.06,0,0,0,.12.78.53.53,0,0,0,.5.25c.35,0,.7,0,1,0,0,.35.05.7.07,1a4.47,4.47,0,0,1-2.12,0,1,1,0,0,1-.68-.57,4.11,4.11,0,0,1-.23-1.56V7.86h-.93V6.72h.93V5h1.33V6.72h1.7l0,1.14h-1.7Z" fill="#989898"/>
    <path d="M28.65,6.5a1.43,1.43,0,0,0-.76-.71,2.58,2.58,0,0,0-1.29-.13,1.63,1.63,0,0,0-.91.42,2.33,2.33,0,0,0-.51,1.06,8.07,8.07,0,0,0,0,3.06,3.44,3.44,0,0,0,.28.93,1.28,1.28,0,0,0,.56.57,2.51,2.51,0,0,0,1.33.21,1.72,1.72,0,0,0,1.16-.51A2.4,2.4,0,0,0,29,10.2,10.94,10.94,0,0,0,29,8.06,4.42,4.42,0,0,0,28.65,6.5Z" fill="#989898"/>
  </g>
  <g class="iconos" id="rails-i">
    <path d="M22.26,9.29a9.79,9.79,0,0,0-.44,1.87h5.72c0-.28-.08-.55-.1-.82,0-.46,0-.91,0-1.37a6.56,6.56,0,0,1,.43-2.19,4.84,4.84,0,0,1,2.36-2.69,5.25,5.25,0,0,1,3.5-.51,8.08,8.08,0,0,1,2.63,1c.4.23.78.49,1.17.75l.27-.22a.67.67,0,0,1-.14-.09A14.16,14.16,0,0,0,36,3.79a10.77,10.77,0,0,0-4.73-1.94,7,7,0,0,0-1.65,0A5.6,5.6,0,0,0,28,2.35a10.24,10.24,0,0,0-3.66,3A13,13,0,0,0,22.26,9.29Z" fill="#989898"/>
    <path d="M24.85,14.81a2,2,0,0,0,.08-1,1.41,1.41,0,0,0-1.37-1.2H21.32V17H22.5V16c.32.34.62.66.93,1a.25.25,0,0,0,.16.08h1.67l-1.39-1.36A1.23,1.23,0,0,0,24.85,14.81Zm-1.25-.23a.31.31,0,0,1-.29.15h-.72s-.07,0-.1-.06,0,0,0-.06v-.88c.32,0,.62,0,.92,0,.07,0,.14.08.19.14A.66.66,0,0,1,23.6,14.58Z" fill="#989898"/>
    <path d="M28.93,13.41a1.12,1.12,0,0,0-1.09-.74H26.72a1.15,1.15,0,0,0-1.2,1.19v3s0,.09,0,.14h1.06c.11,0,.14,0,.13-.13v-.63h1.11c0,.21,0,.42,0,.63s0,.14.13.13h1s0,0,0-.06c0-1,0-2.06,0-3.09A1.49,1.49,0,0,0,28.93,13.41ZM27.83,15h-1c-.07,0-.08,0-.08-.09V14a.23.23,0,0,1,.23-.25,5,5,0,0,1,.67,0,.23.23,0,0,1,.22.22Z" fill="#989898"/>
    <path d="M36.79,14.32c-.34,0-.68,0-1,0h-.14v-.51h2v-1.1H35.63a1.12,1.12,0,0,0-1.06,1,3.25,3.25,0,0,0,0,.54,1.11,1.11,0,0,0,.94,1.14,2.7,2.7,0,0,0,.57,0h.57v.55h-2V17h.06c.65,0,1.3,0,2,0a1.09,1.09,0,0,0,1.08-.9,3.16,3.16,0,0,0,0-.69A1.07,1.07,0,0,0,36.79,14.32Z" fill="#989898"/>
    <path d="M32.67,15.88c-.12,0-.15,0-.15-.15,0-1,0-1.93,0-2.9v-.16H31.3V17h2.89V15.88H32.67Z" fill="#989898"/>
    <path d="M29.55,17h1.22V12.67H29.55Z" fill="#989898"/>
    <path d="M22.51,7.67l-.83-.31-.37.87.84.3Z" fill="#989898"/>
    <path d="M27.85,10.58s0,.05,0,.06l.81.29c-.06-.31-.11-.59-.16-.88A.09.09,0,0,0,28.5,10l-.75-.27C27.79,10,27.82,10.3,27.85,10.58Z" fill="#989898"/>
    <path d="M24.69,4.42,24.22,4l-.57.51L24.2,5Z" fill="#989898"/>
    <path d="M28.6,7.53a.15.15,0,0,0,0-.08l-.48-.38c-.07.26-.13.5-.19.74a.08.08,0,0,0,0,.08c.17.15.35.29.54.43Z" fill="#989898"/>
    <path d="M29.37,5l-.45.49.35.52.43-.51Z" fill="#989898"/>
    <path d="M27.43,2.27l-.32-.5-.56.32.33.5Z" fill="#989898"/>
    <path d="M33.77,1.81a.1.1,0,0,0-.06-.08l-.63-.24,0,.49.7.26C33.76,2.08,33.77,1.94,33.77,1.81Z" fill="#989898"/>
    <path d="M31.36,3.94l-.63.24.16.49.63-.25Z" fill="#989898"/>
    <path d="M33.06,3.77l0,.45.71.09c0-.13,0-.25,0-.38a.12.12,0,0,0-.05-.07Z" fill="#989898"/>
    <path d="M29.79,1.53c.22,0,.43,0,.66,0,0-.13-.08-.24-.12-.35s0-.07-.07-.07l-.65,0c.05.14.08.27.13.39S29.77,1.54,29.79,1.53Z" fill="#989898"/>
  </g>
  <g class="iconos" id="rails-l">
    <path d="M33.48,9H31.37a2,2,0,0,0-2,2v5.65h2.11V15.27h2v1.35h2.05V11A2,2,0,0,0,33.48,9Zm-2,4.12V11.21s0-.42.65-.42h.73c.59,0,.59.42.59.42v1.87Z" fill="#989898"/>
    <path d="M28.35,11.58A2.59,2.59,0,0,0,26.06,8.9H21.93v7.72H24V14.75l1.8,1.87h3.07l-2.41-2.44S28.35,14,28.35,11.58Zm-2.69,1H24V10.84h1.67a.87.87,0,0,1,.46.88A.88.88,0,0,1,25.66,12.6Z" fill="#989898"/>
    <path d="M48.94,11.83H47.18v-.91h3.5V9H47.32a2.06,2.06,0,0,0-2,2v.68a2,2,0,0,0,2,2H49v1l-3.58,0v2h3.53a2,2,0,0,0,2-2v-.75A2,2,0,0,0,48.94,11.83Z" fill="#989898"/>
    <rect x="36.45" y="8.96" width="2.2" height="7.66" fill="#989898"/>
    <polygon points="41.73 8.96 39.55 8.96 39.55 14.63 39.55 16.61 41.73 16.61 44.68 16.61 44.68 14.63 41.73 14.63 41.73 8.96" fill="#989898"/>
    <path d="M26.74,2.58a4.68,4.68,0,0,0-1-.38l0,.71q.53.18,1.05.39Z" fill="#989898"/>
    <path d="M32.29,8c.19-.16.38-.29.38-.29s-5.62-5.61-11.89-5c-3.15.28-7,3.15-9.3,6.93a18.7,18.7,0,0,0-2.59,7h8.55S15.8,9.16,21.21,6.14C22.39,5.57,26.15,3.43,32.29,8Z" fill="#989898"/>
    <path d="M17.27,3.36l-.48-.75c-.27.14-.55.29-.84.46l.49.76C16.73,3.66,17,3.49,17.27,3.36Z" fill="#989898"/>
    <path d="M9.92,11.4,8.68,11c-.21.46-.43,1-.54,1.29l1.24.46C9.52,12.33,9.75,11.8,9.92,11.4Z" fill="#989898"/>
    <path d="M13.19,6.57l-.77-.67c-.28.27-.55.54-.8.81l.83.71C12.68,7.13,12.93,6.84,13.19,6.57Z" fill="#989898"/>
    <path d="M21.67,2.22h.11l-.22-.66a7.57,7.57,0,0,0-1,.07l.21.63C21,2.23,21.35,2.22,21.67,2.22Z" fill="#989898"/>
    <path d="M19.49,8.22,20,9a6.53,6.53,0,0,1,.64-.77l-.49-.73A7.43,7.43,0,0,0,19.49,8.22Z" fill="#989898"/>
    <path d="M26.7,6.4l0-.67a10.48,10.48,0,0,0-1.07-.14l0,.68A8,8,0,0,1,26.7,6.4Z" fill="#989898"/>
    <path d="M22.43,7a7.52,7.52,0,0,1,.95-.38l-.24-.71a6.44,6.44,0,0,0-.95.34Z" fill="#989898"/>
    <path d="M17.76,14.45c0,.57.08,1,.13,1.36l1.3.47c-.1-.42-.19-.9-.26-1.41Z" fill="#989898"/>
    <path d="M18.25,10.52a9.47,9.47,0,0,0-.32,1.18l.87.7A7.87,7.87,0,0,1,19,11.13Z" fill="#989898"/>
  </g>
  <g class="iconos" id="linux">
    <path d="M28.63,5.09h.05c.1-.1.16-.16.16-.21a.05.05,0,0,0-.06,0,.22.22,0,0,1-.15,0,.18.18,0,0,0-.06.16S28.57,5.09,28.63,5.09Z" fill="#989898"/>
    <path d="M29.21,5.09h.05a0,0,0,0,0,0,0,.28.28,0,0,0-.1-.16l-.11,0c-.05,0-.05,0-.05,0A.22.22,0,0,0,29.1,5S29.15,5.09,29.21,5.09Z" fill="#989898"/>
    <path d="M36.12,14.15a1.62,1.62,0,0,0-.37-.23,1.17,1.17,0,0,1-.36-.23.59.59,0,0,1-.26-.32L35.08,13a1.82,1.82,0,0,0-.16-.48.24.24,0,0,0-.21-.11,3.73,3.73,0,0,0,.16-1.06,4.4,4.4,0,0,0-.42-1.93A5.23,5.23,0,0,0,33.4,7.72c-.21-.31-.42-.58-.58-.84a4.13,4.13,0,0,1-.37-.63,2.33,2.33,0,0,1-.21-.58c-.05-.26-.05-.47-.1-.63s0-.37,0-.68S32,3.73,32,3.46a4.89,4.89,0,0,0-.26-1,2.45,2.45,0,0,0-.52-.68,2,2,0,0,0-.58-.36A1.7,1.7,0,0,0,30,1.21a1.51,1.51,0,0,0-.47-.05,3.61,3.61,0,0,0-1.1.15,1.46,1.46,0,0,0-.69.53,2,2,0,0,0-.36.73,3.31,3.31,0,0,0-.1.89c0,.48,0,1,.08,1.53s.08.84.08.94a1.67,1.67,0,0,1-.15.68,4,4,0,0,1-.55.79l-.39.47a2.57,2.57,0,0,0-.6,1.1,6.21,6.21,0,0,1-.29.95,7.54,7.54,0,0,1-.35.7l-.18.33a1.88,1.88,0,0,0-.28.81.53.53,0,0,0,0,.14.32.32,0,0,0,.06.2.42.42,0,0,0-.08.12l0,.09s0,.07,0,.13-.05.13-.09.22a.57.57,0,0,1-.23.09h-.6a.43.43,0,0,0-.34.2.76.76,0,0,0-.17.54,5,5,0,0,0,.06.52c0,.28.06.44.06.49a.78.78,0,0,1,0,.16.66.66,0,0,1-.05.15l-.08.15a.89.89,0,0,1-.09.16l-.1.17a.66.66,0,0,0-.06.27.31.31,0,0,0,.11.22,1.13,1.13,0,0,0,.31.16l.38.11.4.07.29.05c.42.1.91.24,1.46.43a4,4,0,0,0,1.21.3,1.18,1.18,0,0,0,1-.48v0a3.63,3.63,0,0,1,1.57-.27,15.9,15.9,0,0,1,1.94.15,1.2,1.2,0,0,0,.84.64l.37,0a1.2,1.2,0,0,0,.57-.14,3.05,3.05,0,0,0,.58-.44l.53-.45a5.41,5.41,0,0,1,.78-.56l.63-.31a.77.77,0,0,0,.37-.22.55.55,0,0,0,.16-.41A.53.53,0,0,0,36.12,14.15ZM32.5,8.59a1,1,0,0,1,.69.53,2,2,0,0,1,.31,1.2,4.12,4.12,0,0,1-.21,1.3l.21,0h.21a1.26,1.26,0,0,1,.74.3.6.6,0,0,1,.21.4c0,.05,0,.07-.06.07a.12.12,0,0,1-.05-.1l-.16-.22a.63.63,0,0,0-.36-.23,1.88,1.88,0,0,0-.69-.11.75.75,0,0,0-.41.14c-.11.09-.16.18-.26.27a.61.61,0,0,1-.11.13c-.05,0-.05,0-.05-.07a1.16,1.16,0,0,1,.58-.58,3.66,3.66,0,0,0,.26-1.29,2.49,2.49,0,0,0-.21-1,1.37,1.37,0,0,0-.68-.63S32.45,8.64,32.5,8.59ZM29.62,3.67a.89.89,0,0,1,.47-.15.68.68,0,0,1,.53.21,1.2,1.2,0,0,1,.15.68,5,5,0,0,1-.1.79c-.11-.06-.16-.11-.26-.11a.18.18,0,0,1-.11,0,.42.42,0,0,0,.32-.47,1.31,1.31,0,0,0-.11-.42.54.54,0,0,0-.36-.21.45.45,0,0,0-.32.16.73.73,0,0,0-.1.47c0,.1,0,.21.05.26s-.1,0-.16,0a1.52,1.52,0,0,1-.15-.69A.74.74,0,0,1,29.62,3.67Zm.58.58s-.05,0-.05-.1.1-.06.1-.06.1.06.16.11a.19.19,0,0,1,.05.16.18.18,0,0,0,.05.15h-.1C30.36,4.36,30.3,4.25,30.2,4.25ZM30,5c.52.15.79.31.84.42s.05,0,.05.1a.52.52,0,0,1-.21.37l-.47.31a2.46,2.46,0,0,1-1.31.58,1,1,0,0,1-.73-.32l-.32-.31a1.19,1.19,0,0,1-.15-.26,1.67,1.67,0,0,0,1.05.42,3,3,0,0,0,1.62-.69,0,0,0,0,0-.05,0v-.1a2.86,2.86,0,0,1-1.63.73,1.51,1.51,0,0,1-.94-.41.48.48,0,0,0-.11-.16c0-.21.21-.42.53-.63A1.94,1.94,0,0,1,29,4.72,3.06,3.06,0,0,1,30,5Zm-2-.79v-.1c.05,0,.05-.06.05-.06.16,0,.26.16.26.42h-.1c0-.1-.06-.15-.06-.26Zm-.32-.37a.41.41,0,0,1,.37-.26.49.49,0,0,1,.42.26.82.82,0,0,1,.1.47c0,.21,0,.32-.05.32v0h-.05v-.1a1.29,1.29,0,0,0-.11-.47C28.31,4,28.26,4,28.15,4a.28.28,0,0,0-.26.16.43.43,0,0,0-.1.36c0,.26.05.42.26.52-.05.06-.11.06-.16.11a.86.86,0,0,1-.28-.63A1.29,1.29,0,0,1,27.73,3.88Zm.05,12.44a1.14,1.14,0,0,1-.92.47,5.56,5.56,0,0,1-1.16-.35A8.75,8.75,0,0,0,24,16h0c-.63-.08-1-.22-1-.43a1.2,1.2,0,0,1,.2-.51,1.25,1.25,0,0,0,.19-.65,2.51,2.51,0,0,0-.06-.46,2.53,2.53,0,0,1-.06-.42.76.76,0,0,1,.2-.51,1.42,1.42,0,0,1,.57-.08h.28a1.16,1.16,0,0,0,.26-.08.31.31,0,0,0,.1-.23.59.59,0,0,1,.13-.32.72.72,0,0,1,.44-.22,1.24,1.24,0,0,1,.47.24,1.35,1.35,0,0,1,.32.37,3.7,3.7,0,0,1,.29.47,3.78,3.78,0,0,0,.28.45l.35.48a3.38,3.38,0,0,1,.9,1.88A1.06,1.06,0,0,1,27.78,16.32Zm1.16-1a1.62,1.62,0,0,1-1.33-.45c-.11-.2-.16-.31-.16-.31s0,0,0,0a.47.47,0,0,0,.36-.19A.42.42,0,0,0,28,14c0-.21-.31-.56-.91-1.08l-.55-.36a3.72,3.72,0,0,1-.84-.75,1.2,1.2,0,0,1-.16-.61,3.28,3.28,0,0,1,.33-1.23,4.56,4.56,0,0,1,.56-1l.05,0c.05,0,.07,0,.08.05A3.64,3.64,0,0,0,26,10a3.31,3.31,0,0,0-.28,1.24.78.78,0,0,0,.35.68,2.53,2.53,0,0,1,0-.38,4.53,4.53,0,0,1,.64-2.11l.39-.79a1,1,0,0,0,.05-.21,2.8,2.8,0,0,1,.24-.74L27.72,7a1.31,1.31,0,0,0,.16-.58l.31.26a.86.86,0,0,0,.74.27,2.33,2.33,0,0,0,1.31-.53l.47-.36c.11.21.21.47.32.73s.26.53.41.79a2.36,2.36,0,0,0,.11.63c.1.16.16.32.26.47l.31.47a2.53,2.53,0,0,1,.26.79,4.34,4.34,0,0,1,.11,1.24,8.41,8.41,0,0,1-.05,1.07.53.53,0,0,0-.32-.12.41.41,0,0,0-.36.25,1.41,1.41,0,0,0-.16.76v.2a1.07,1.07,0,0,1,0,.49A3.13,3.13,0,0,1,28.94,15.29Zm7-.44a1,1,0,0,1-.37.18c-.1.05-.31.14-.52.26a4.18,4.18,0,0,0-.68.44l-.89.77c-.06,0-.06.06-.16.09a1.67,1.67,0,0,1-.16.12.64.64,0,0,1-.26.1,1.12,1.12,0,0,1-.31.05,1.09,1.09,0,0,1-1-.6h0l.1-.58a1.66,1.66,0,0,1,.06-.56,1.75,1.75,0,0,1,0-.31V13.17c0-.56.1-.83.37-.83.1,0,.15.05.26.14a1.74,1.74,0,0,0,.21.58.82.82,0,0,0,.78.34.94.94,0,0,0,.42-.14c.11-.09.26-.18.31-.29l.32-.29a.28.28,0,0,1,.21-.13s0,0,0,0,.05.16.11.3l.05.31a1.51,1.51,0,0,0,.26.57,1.09,1.09,0,0,0,.37.26,1.45,1.45,0,0,1,.31.18.48.48,0,0,1,.21.35A.57.57,0,0,1,36,14.85Z" fill="#989898"/>
  </g>
  <g class="iconos" id="android-l">
    <path d="M25,9a2.12,2.12,0,0,0-1.75-.83,2.73,2.73,0,0,0-2.66,2.89,2.7,2.7,0,0,0,2.66,2.86A2.13,2.13,0,0,0,25,13.1v.35a.38.38,0,0,0,.36.36h.88V8.28H25ZM23.49,12.8A1.66,1.66,0,0,1,21.87,11a1.64,1.64,0,0,1,1.61-1.75,1.7,1.7,0,0,1,1.65,1.76A1.7,1.7,0,0,1,23.49,12.8Z" fill="#989898"/>
    <path d="M30.51,8.16A1.93,1.93,0,0,0,28.85,9V8.28H27.61v5.17a.34.34,0,0,0,.36.35h.88V10.88a1.49,1.49,0,0,1,1.38-1.59,1.17,1.17,0,0,1,1.15,1.25v2.89a.37.37,0,0,0,.37.37h.86V10.27A2.06,2.06,0,0,0,30.51,8.16Z" fill="#989898"/>
    <path d="M38,9a2.12,2.12,0,0,0-1.75-.83,2.73,2.73,0,0,0-2.66,2.89,2.7,2.7,0,0,0,2.66,2.86A2.13,2.13,0,0,0,38,13.1v.35a.38.38,0,0,0,.36.36h.88V5.53H38ZM36.43,12.8A1.66,1.66,0,0,1,34.81,11a1.64,1.64,0,0,1,1.62-1.75,1.69,1.69,0,0,1,1.64,1.76A1.7,1.7,0,0,1,36.43,12.8Z" fill="#989898"/>
    <path d="M41.79,9.21V8.28H40.55v5.17a.34.34,0,0,0,.36.35h.88V11a1.46,1.46,0,0,1,1.34-1.58,1.79,1.79,0,0,1,.58.1V8.27a2.15,2.15,0,0,0-.44,0A1.51,1.51,0,0,0,41.79,9.21Z" fill="#989898"/>
    <path d="M50.84,13.45a.35.35,0,0,0,.36.36h.87V8.28H50.84Z" fill="#989898"/>
    <path d="M57.45,5.53V9a2.15,2.15,0,0,0-1.76-.83A2.73,2.73,0,0,0,53,11.05a2.71,2.71,0,0,0,2.66,2.87,2.13,2.13,0,0,0,1.76-.82v.36a.37.37,0,0,0,.35.35h.88V5.53ZM55.91,12.8A1.67,1.67,0,0,1,54.29,11a1.65,1.65,0,0,1,1.62-1.75,1.69,1.69,0,0,1,1.64,1.76A1.7,1.7,0,0,1,55.91,12.8Z" fill="#989898"/>
    <path d="M51.45,5.47a.81.81,0,1,0,0,1.62.81.81,0,1,0,0-1.62Z" fill="#989898"/>
    <path d="M47,8.16A2.84,2.84,0,0,0,44.09,11,2.81,2.81,0,0,0,47,13.91a2.88,2.88,0,1,0,0-5.75Zm0,4.62a1.68,1.68,0,0,1-1.65-1.73,1.66,1.66,0,1,1,3.31,0A1.7,1.7,0,0,1,47,12.78Z" fill="#989898"/>
    <path d="M13.24,7.17l1.43-2.48a.28.28,0,0,0-.11-.39.27.27,0,0,0-.39.1L12.72,6.91A8.78,8.78,0,0,0,9,6.12a8.7,8.7,0,0,0-3.68.79L3.9,4.4a.28.28,0,0,0-.4-.1.28.28,0,0,0-.1.39L4.83,7.17A8.5,8.5,0,0,0,.42,13.92H17.65A8.55,8.55,0,0,0,13.24,7.17ZM5.08,11.5a.73.73,0,0,1-.73-.72.73.73,0,0,1,.73-.73.73.73,0,0,1,0,1.45Zm7.91,0a.73.73,0,0,1-.73-.72.73.73,0,0,1,.73-.73.73.73,0,0,1,0,1.45Z" fill="#989898"/>
  </g>
  <g class="iconos" id="android-i">
    <path d="M34.3,6.92l1.62-2.8a.33.33,0,1,0-.57-.33L33.72,6.62a10.32,10.32,0,0,0-8.34,0L23.74,3.79a.33.33,0,0,0-.45-.12.32.32,0,0,0-.12.44l1.62,2.8a9.66,9.66,0,0,0-5,7.64H39.29A9.64,9.64,0,0,0,34.3,6.92Zm-9.23,4.9a.82.82,0,1,1,.82-.82A.82.82,0,0,1,25.07,11.82Zm9,0a.82.82,0,1,1,0-1.64.81.81,0,0,1,.82.82A.82.82,0,0,1,34,11.82Z" fill="#989898"/>
  </g>
  <g class="iconos" id="postgresql-l">
    <path d="M47.64,8.29a8.93,8.93,0,0,0-2.21-.54,3.13,3.13,0,0,1-1.07-.35.78.78,0,0,1,.32-1.29,3.45,3.45,0,0,1,2.11,0,1.08,1.08,0,0,1,.64.91H48a1.34,1.34,0,0,0-.44-1,2.83,2.83,0,0,0-1.81-.44,3.1,3.1,0,0,0-1.68.26,1.18,1.18,0,0,0,.1,2.05,25.78,25.78,0,0,0,2.72.57.76.76,0,0,1,.54.38A.92.92,0,0,1,47,10.09,3.53,3.53,0,0,1,44.71,10,1.24,1.24,0,0,1,44,8.92a4,4,0,0,0-.6,0,1.66,1.66,0,0,0,.47,1.2,3.33,3.33,0,0,0,2,.54,3.43,3.43,0,0,0,1.87-.41A1.21,1.21,0,0,0,47.64,8.29Z" fill="#989898"/>
    <path d="M21.56,6a1.85,1.85,0,0,0-1.2-.38l-2.76,0V10.5h.48c0-.69,0-1.39,0-2.05h2.34a1.63,1.63,0,0,0,1.46-.85A1.54,1.54,0,0,0,21.56,6ZM21.3,7.5a1.11,1.11,0,0,1-1,.57c-.73,0-1.46,0-2.15,0v-2H20.2a1.24,1.24,0,0,1,1,.34A1.23,1.23,0,0,1,21.3,7.5Z" fill="#989898"/>
    <path d="M55.46,10.06V5.6a3.69,3.69,0,0,1-.57,0V10.5h4.2v-.41C57.89,10.06,56.69,10.09,55.46,10.06Z" fill="#989898"/>
    <path d="M54.35,8.89a2.57,2.57,0,0,0-.48-2.46,2.78,2.78,0,0,0-1.93-.89,4.2,4.2,0,0,0-2.24.35,2.36,2.36,0,0,0-1.2,1.49,2.72,2.72,0,0,0,.25,2.05,2.63,2.63,0,0,0,1.77,1.17,5,5,0,0,0,2,0,3.69,3.69,0,0,1,.7-.19c.28.16.57.38.85.57.13-.12.25-.22.38-.35-.28-.22-.57-.41-.85-.6A2.36,2.36,0,0,0,54.35,8.89Zm-.89.57a2.55,2.55,0,0,1-2.08.79,2.44,2.44,0,0,1-1.87-.76,2.29,2.29,0,0,1-.38-2.18A2.15,2.15,0,0,1,50.65,6a2.83,2.83,0,0,1,2.49.45A2.17,2.17,0,0,1,53.46,9.46Z" fill="#989898"/>
    <path d="M31.29,10.16c-.15-.1-.15-.29-.15-.45V7.66H32a1.38,1.38,0,0,1,0-.35h-.85v-1H30.6a6.64,6.64,0,0,0,.06,1.07H30v.32h.63V9.87a.51.51,0,0,0,.25.57,2.19,2.19,0,0,0,1.11.1v-.32A2,2,0,0,1,31.29,10.16Z" fill="#989898"/>
    <path d="M25.16,7.5a3,3,0,0,0-1.9-.25A1.63,1.63,0,0,0,22,8.13a2,2,0,0,0,0,1.62,1.72,1.72,0,0,0,1.45.85,2.51,2.51,0,0,0,2.09-.6A1.75,1.75,0,0,0,25.16,7.5Zm-.09,2.37a1.53,1.53,0,0,1-1.08.42,1.71,1.71,0,0,1-1.23-.35,1.52,1.52,0,0,1-.32-1.55,1.26,1.26,0,0,1,1.07-.82,2,2,0,0,1,1.37.22,1.13,1.13,0,0,1,.5.88A1.35,1.35,0,0,1,25.07,9.87Z" fill="#989898"/>
    <path d="M29,8.8c-.6-.13-1.24-.1-1.84-.25a.45.45,0,0,1-.41-.45c0-.34.35-.5.64-.53a2.28,2.28,0,0,1,1.39.09.72.72,0,0,1,.38.6h.53a1,1,0,0,0-.38-.76,2.5,2.5,0,0,0-1.58-.28,2.17,2.17,0,0,0-1.1.28c-.45.28-.45,1.11.06,1.26C27.38,9,28.2,9,29,9.18a.49.49,0,0,1,.06.88,3,3,0,0,1-1.64.13.76.76,0,0,1-.73-.73h-.53a1,1,0,0,0,.37.79,2.71,2.71,0,0,0,1.43.32,3,3,0,0,0,1.48-.28.79.79,0,0,0,.29-1.08A1.22,1.22,0,0,0,29,8.8Z" fill="#989898"/>
    <path d="M35.82,7.31c0,.16,0,.32,0,.5a2.79,2.79,0,0,0-.73-.5,2.93,2.93,0,0,0-1.58,0,1.54,1.54,0,0,0-1.14,1,1.85,1.85,0,0,0,.25,1.55,2,2,0,0,0,1.21.57,2.29,2.29,0,0,0,2-.54,2,2,0,0,1-.19,1.2,1.47,1.47,0,0,1-1.14.45,2.61,2.61,0,0,1-1.11-.16c-.22-.1-.31-.35-.41-.57h-.47a1.12,1.12,0,0,0,.5.79,3.16,3.16,0,0,0,1.42.25,2.23,2.23,0,0,0,1.55-.44,1.37,1.37,0,0,0,.38-1.14c0-1,0-2,0-2.94Zm-.35,2.37a1.79,1.79,0,0,1-1.55.41,1.29,1.29,0,0,1-1-.69A1.61,1.61,0,0,1,33,8.13a1.32,1.32,0,0,1,.92-.53,1.85,1.85,0,0,1,1.39.22A1.33,1.33,0,0,1,35.47,9.68Z" fill="#989898"/>
    <path d="M39,7.21a2.79,2.79,0,0,0-1.14.13,1.31,1.31,0,0,0-.48.51V7.31h-.5c0,1.07,0,2.12,0,3.19h.47V8.86a1.27,1.27,0,0,1,.45-1A1.9,1.9,0,0,1,39,7.63Z" fill="#989898"/>
    <path d="M42.49,7.75a2.24,2.24,0,0,0-1.77-.54,1.93,1.93,0,0,0-1.58.8,1.71,1.71,0,0,0,.35,2.18,2.85,2.85,0,0,0,2.21.31,1.55,1.55,0,0,0,1.17-1h-.54a1.14,1.14,0,0,1-.82.76,1.89,1.89,0,0,1-1.74-.32A1.32,1.32,0,0,1,39.4,9H43A1.79,1.79,0,0,0,42.49,7.75Zm-3,.95a1.28,1.28,0,0,1,.6-.95,1.8,1.8,0,0,1,2.18.32,1.1,1.1,0,0,1,.25.63Z" fill="#989898"/>
    <path d="M11.22,5.26a1.74,1.74,0,0,1,.19.75,14.73,14.73,0,0,0-.13,1.62,4.58,4.58,0,0,1,0,1.73,4,4,0,0,1-.22.57.41.41,0,0,1,0,.1c.07-.09.13-.19.19-.28a13.08,13.08,0,0,0,1.36-3.17A7.48,7.48,0,0,0,13,4.72,1.14,1.14,0,0,0,12.77,4,3.13,3.13,0,0,0,11.4,3,4.19,4.19,0,0,0,9,2.82a2.47,2.47,0,0,1,.54.38A4.84,4.84,0,0,1,11.22,5.26Z" fill="#989898"/>
    <path d="M10.49,9.74A11.07,11.07,0,0,1,9.32,7.09a1.22,1.22,0,0,1,.32-1.17A2,2,0,0,1,11,5.63a4.38,4.38,0,0,0-1.43-2,3.93,3.93,0,0,0-2.81-.76,2.59,2.59,0,0,0-1.55.88A4.46,4.46,0,0,0,4.45,6a2.34,2.34,0,0,1,1.61-.32,1,1,0,0,1,.7.76,5,5,0,0,1,.09,2.18c-.13.6-.47,1.11-.6,1.68a1,1,0,0,1,.44.09.82.82,0,0,1,.42.79c0,.79,0,1.59,0,2.38a5.58,5.58,0,0,0,.12,1,1.11,1.11,0,0,0,.79.85,2.31,2.31,0,0,0,1.3-.25,1.35,1.35,0,0,0,.63-1c.13-.85.22-1.7.32-2.55a2.78,2.78,0,0,1,.16-.92c.09-.19.25-.25.44-.35A2.22,2.22,0,0,1,10.49,9.74Z" fill="#989898"/>
    <path d="M4,8.41a7,7,0,0,0,.06-1.58,6.56,6.56,0,0,1,.29-2.21A3.51,3.51,0,0,1,5.18,3.2,5.74,5.74,0,0,0,2.55,3a2,2,0,0,0-1.36.95A3.6,3.6,0,0,0,.84,6.05a17.5,17.5,0,0,0,.64,2.84,9.32,9.32,0,0,0,1,2.28,1.35,1.35,0,0,0,.63.6c.25.06.44-.13.6-.32.35-.41.7-.79,1-1.2A2.16,2.16,0,0,1,4,8.41Z" fill="#989898"/>
    <path d="M9.92,6.2a1.05,1.05,0,0,0-.19.86,9.46,9.46,0,0,0,1.11,2.5,3.73,3.73,0,0,0,.06-2A8.68,8.68,0,0,1,11,6.05,1.65,1.65,0,0,0,9.92,6.2Zm.22.38c-.09,0-.19-.15-.09-.25a.71.71,0,0,1,.63-.06A.37.37,0,0,1,10.14,6.58Z" fill="#989898"/>
    <path d="M6.22,9.27a4,4,0,0,0,.13-2.72.57.57,0,0,0-.54-.44,2.44,2.44,0,0,0-1.36.44,10,10,0,0,1,0,1.33A4.36,4.36,0,0,0,4.39,9a1.56,1.56,0,0,0,1.46,1.26A5.8,5.8,0,0,1,6.22,9.27ZM5.46,6.49c0-.06.06-.1.13-.13a.62.62,0,0,1,.57.1c.09.09,0,.22-.1.28A.4.4,0,0,1,5.46,6.49Z" fill="#989898"/>
    <path d="M11.25,10.76c-.13-.1-.28,0-.38.06a.63.63,0,0,0-.13.47,1.78,1.78,0,0,0,.92.07,2.28,2.28,0,0,0,1.26-.54A2.78,2.78,0,0,1,11.25,10.76Z" fill="#989898"/>
    <path d="M6.35,10.76c-.29.19-.41.53-.7.69a6.22,6.22,0,0,1-1,.32,1.59,1.59,0,0,0,2-.38C6.89,11.17,6.63,10.73,6.35,10.76Z" fill="#989898"/>
    <path d="M13.11,10c-.34,0-.66.13-1,.13a13.66,13.66,0,0,0,1.61-4.24,4.16,4.16,0,0,0,0-1.89,2,2,0,0,0-.6-.89A4.17,4.17,0,0,0,11,2a6.24,6.24,0,0,0-2.65.16,6,6,0,0,0-1.9-.06,3.74,3.74,0,0,0-1,.37,6.51,6.51,0,0,0-3.1-.28A2.77,2.77,0,0,0,.53,3.46,4.26,4.26,0,0,0,0,6.11a18.64,18.64,0,0,0,.67,3,9.51,9.51,0,0,0,1,2.47,2.11,2.11,0,0,0,1.14,1A1.31,1.31,0,0,0,4,12.28a1.4,1.4,0,0,0,.57.35,2.57,2.57,0,0,0,1.87,0A9.05,9.05,0,0,0,6.72,15a1.71,1.71,0,0,0,.67,1,1.81,1.81,0,0,0,1.26.22,2.77,2.77,0,0,0,1.11-.38,2.21,2.21,0,0,0,.79-.92A7.87,7.87,0,0,0,11,12.21a3.59,3.59,0,0,0,2.49-.75.94.94,0,0,0,.38-.92A.72.72,0,0,0,13.11,10Zm.1,1a3,3,0,0,1-2.56.66c-.1.82-.19,1.61-.32,2.4a1.93,1.93,0,0,1-.56,1.2,3,3,0,0,1-1.17.48,1.59,1.59,0,0,1-1.24-.28,1.82,1.82,0,0,1-.6-1.24,21.4,21.4,0,0,1-.09-2.4,1.88,1.88,0,0,1-1.39.47,1.67,1.67,0,0,1-1-.34.34.34,0,0,1,0-.51c.29-.22.67-.19,1-.32s.34-.28.5-.47A2.6,2.6,0,0,1,5,10.41c-.38.41-.73.82-1.11,1.26a1,1,0,0,1-.85.42,1.47,1.47,0,0,1-.89-.64,8.57,8.57,0,0,1-.91-2A19.85,19.85,0,0,1,.44,6.05a4,4,0,0,1,.5-2.56,2.5,2.5,0,0,1,1.8-1,6.41,6.41,0,0,1,2.78.42,3.33,3.33,0,0,1,2.53-.38c.07,0,.16.06.23,0a7.05,7.05,0,0,1,2.91-.23,3.63,3.63,0,0,1,1.93,1.3,1.78,1.78,0,0,1,.25.91,7.23,7.23,0,0,1-.22,1.68,13.85,13.85,0,0,1-1.77,4.08,2.07,2.07,0,0,0,1.39,0c.19,0,.44-.06.57.1S13.34,10.85,13.21,11Z" fill="#989898"/>
  </g>
  <g class="iconos" id="postgresql-i">
    <path d="M34.29,4.84a2,2,0,0,1,.21.84,13.62,13.62,0,0,0-.14,1.79,5.44,5.44,0,0,1,0,1.93,5.5,5.5,0,0,1-.25.63.32.32,0,0,1,0,.11,2.92,2.92,0,0,1,.21-.32,14.34,14.34,0,0,0,1.5-3.51,8.25,8.25,0,0,0,.32-2.07A1.21,1.21,0,0,0,36,3.4a3.33,3.33,0,0,0-1.51-1.13,4.77,4.77,0,0,0-2.7-.14,2.49,2.49,0,0,1,.6.43A5.47,5.47,0,0,1,34.29,4.84Z" fill="#989898"/>
    <path d="M33.48,9.82a12.2,12.2,0,0,1-1.3-2.95,1.33,1.33,0,0,1,.35-1.29A2.29,2.29,0,0,1,34,5.26a4.76,4.76,0,0,0-1.58-2.21,4.32,4.32,0,0,0-3.12-.85,2.78,2.78,0,0,0-1.72,1,5,5,0,0,0-.85,2.52,2.7,2.7,0,0,1,1.79-.35,1.13,1.13,0,0,1,.78.84,5.66,5.66,0,0,1,.1,2.42c-.14.67-.53,1.23-.67,1.87a1.18,1.18,0,0,1,.5.1.93.93,0,0,1,.45.88c0,.87,0,1.75,0,2.63a5.83,5.83,0,0,0,.15,1.09,1.23,1.23,0,0,0,.87,1,2.62,2.62,0,0,0,1.44-.29,1.53,1.53,0,0,0,.71-1.15c.14-.95.24-1.9.35-2.85a3.34,3.34,0,0,1,.17-1,1,1,0,0,1,.49-.39A2.51,2.51,0,0,1,33.48,9.82Z" fill="#989898"/>
    <path d="M26.28,8.34a6.87,6.87,0,0,0,.07-1.75,7.21,7.21,0,0,1,.32-2.46,4,4,0,0,1,.91-1.58,6.4,6.4,0,0,0-2.91-.28,2.26,2.26,0,0,0-1.51,1,4,4,0,0,0-.39,2.39,18.34,18.34,0,0,0,.71,3.16,10.33,10.33,0,0,0,1.05,2.52,1.34,1.34,0,0,0,.7.67c.28.07.49-.14.67-.35.38-.46.77-.88,1.15-1.33A2.42,2.42,0,0,1,26.28,8.34Z" fill="#989898"/>
    <path d="M32.84,5.89a1.16,1.16,0,0,0-.21.94A10.24,10.24,0,0,0,33.86,9.6a4.1,4.1,0,0,0,.07-2.17,9.66,9.66,0,0,1,.14-1.72A1.88,1.88,0,0,0,32.84,5.89Zm.25.42c-.11,0-.21-.18-.11-.28A.85.85,0,0,1,33.69,6,.42.42,0,0,1,33.09,6.31Z" fill="#989898"/>
    <path d="M28.74,9.29a4.48,4.48,0,0,0,.14-3,.64.64,0,0,0-.6-.49,2.74,2.74,0,0,0-1.51.49,9.24,9.24,0,0,1,0,1.48A5.32,5.32,0,0,0,26.7,9a1.72,1.72,0,0,0,1.61,1.4A6.32,6.32,0,0,1,28.74,9.29ZM27.9,6.2c0-.07.07-.1.14-.14a.68.68,0,0,1,.63.11c.1.1,0,.24-.11.31A.43.43,0,0,1,27.9,6.2Z" fill="#989898"/>
    <path d="M37.24,10.69a.82.82,0,0,0-.85-.56,10.71,10.71,0,0,1-1.12.14,15.43,15.43,0,0,0,1.79-4.7,4.85,4.85,0,0,0,0-2.11,2.42,2.42,0,0,0-.67-1A4.61,4.61,0,0,0,34,1.26a6.78,6.78,0,0,0-2.94.17A7.38,7.38,0,0,0,29,1.36a4.24,4.24,0,0,0-1.09.42,7.16,7.16,0,0,0-3.44-.32,3.19,3.19,0,0,0-2,1.37,4.78,4.78,0,0,0-.56,3,20.47,20.47,0,0,0,.74,3.34,11.21,11.21,0,0,0,1.12,2.73A2.38,2.38,0,0,0,25,12.94a1.47,1.47,0,0,0,1.26-.31,1.5,1.5,0,0,0,.63.38A2.8,2.8,0,0,0,29,13a10.26,10.26,0,0,0,.35,2.7A1.94,1.94,0,0,0,30,16.73a2,2,0,0,0,1.4.25,3.21,3.21,0,0,0,1.23-.42,2.49,2.49,0,0,0,.88-1,8.65,8.65,0,0,0,.49-3,4,4,0,0,0,2.77-.84A1.09,1.09,0,0,0,37.24,10.69Zm-.75.51a3.36,3.36,0,0,1-2.85.74c-.1.91-.21,1.79-.35,2.66a2.13,2.13,0,0,1-.63,1.33,3.19,3.19,0,0,1-1.3.53A1.71,1.71,0,0,1,30,16.14a2,2,0,0,1-.66-1.37,21.52,21.52,0,0,1-.11-2.66,2.07,2.07,0,0,1-1.54.52,1.76,1.76,0,0,1-1.12-.38.36.36,0,0,1,0-.56c.32-.25.74-.21,1.09-.35s.39-.32.56-.53a3,3,0,0,1-.88-.25c-.42.46-.8.91-1.22,1.41a1.19,1.19,0,0,1-.95.45,1.48,1.48,0,0,1-1-.7,9.66,9.66,0,0,1-1-2.21,22.94,22.94,0,0,1-.88-3.79,4.54,4.54,0,0,1,.57-2.85,2.76,2.76,0,0,1,2-1.09A7.18,7.18,0,0,1,28,2.24a3.72,3.72,0,0,1,2.81-.42c.07,0,.18.07.25,0a7.54,7.54,0,0,1,3.22-.23,4,4,0,0,1,2.15,1.44,2.15,2.15,0,0,1,.28,1,8.26,8.26,0,0,1-.25,1.87,15.3,15.3,0,0,1-2,4.52,2.42,2.42,0,0,0,1.55,0c.21,0,.49-.08.63.1S36.63,11.05,36.49,11.2Z" fill="#989898"/>
    <path d="M34.32,10.94c-.14-.1-.32,0-.42.07a.72.72,0,0,0-.14.53,2.06,2.06,0,0,0,1,.07,2.5,2.5,0,0,0,1.4-.6A3,3,0,0,1,34.32,10.94Z" fill="#989898"/>
    <path d="M28.88,10.94c-.32.21-.46.6-.77.77a7,7,0,0,1-1.13.35,1.78,1.78,0,0,0,2.22-.42C29.48,11.4,29.2,10.91,28.88,10.94Z" fill="#989898"/>
  </g>
  <g class="iconos" id="perl-l">
    <path d="M37.6,8A2.48,2.48,0,0,0,36,7.37a2.74,2.74,0,0,0-2.17,1,3.66,3.66,0,0,0-.87,2.43,3.56,3.56,0,0,0,.8,2.41,2.6,2.6,0,0,0,2,.93,3.3,3.3,0,0,0,1.47-.33c.45-.23.67-.5.67-.82,0-.13,0-.19-.06-.19s-.09,0-.14.1a1.66,1.66,0,0,1-1.24.5,2.09,2.09,0,0,1-1.64-.73,3.3,3.3,0,0,1-.64-2.18,3,3,0,0,1,0-.57c0-.09.06-.14.19-.14h3.45q.48,0,.48-.24V9.52h0A1.86,1.86,0,0,0,37.6,8Zm-.8,1.29a1.77,1.77,0,0,1-1,.2H34.61c-.18,0-.26-.05-.26-.14h0a2,2,0,0,1,.45-1.05,1.35,1.35,0,0,1,1.07-.64,1.16,1.16,0,0,1,.9.33,1.12,1.12,0,0,1,.31.82A.6.6,0,0,1,36.8,9.27Z" fill="#989898"/>
    <path d="M47.15,13.61a.75.75,0,0,1-.83-.85V4.15c0-.13,0-.19-.12-.19a1.24,1.24,0,0,0-.48.24,3.4,3.4,0,0,1-1.08.38c-.14,0-.2.08-.2.18a.18.18,0,0,0,.15.21.59.59,0,0,1,.54.6v7.18h0a.74.74,0,0,1-.83.85.16.16,0,0,0-.18.18c0,.11.06.17.18.17l.7,0,.73,0c.24,0,.48,0,.71,0s.47,0,.71,0a.15.15,0,0,0,.17-.17A.16.16,0,0,0,47.15,13.61Z" fill="#989898"/>
    <path d="M29.84,4.94,28.13,5l-.88,0-.84,0c-.07,0-.11,0-.11.17s0,.18.09.18c.63,0,.94.25.94.74v6.71c0,.57-.3.85-.9.85q-.21,0-.21.18c0,.11.07.17.2.17L28,13.88l.79,0c.25,0,.51,0,.77,0s.2-.06.2-.18-.07-.17-.22-.17c-.59,0-.89-.28-.89-.85V9.9c0-.12.07-.18.2-.18a.43.43,0,0,1,.19,0,3.34,3.34,0,0,0,1.32.26,1.57,1.57,0,0,0,.79-.26,2.56,2.56,0,0,0,1.14-2.2,2.83,2.83,0,0,0-.61-1.83A2.11,2.11,0,0,0,29.84,4.94Zm.84,3.91c-.16.43-.54.63-1.15.63s-.89-.24-.89-.64V6c0-.48.25-.72.77-.72a1.31,1.31,0,0,1,1.05.58,2.52,2.52,0,0,1,.46,1.58A4.14,4.14,0,0,1,30.68,8.85Z" fill="#989898"/>
    <path d="M42.7,7.34a1.25,1.25,0,0,0-.83.33l-.77.74h0V7.56c0-.16-.05-.24-.13-.24a1.13,1.13,0,0,0-.47.29,2.86,2.86,0,0,1-1.09.47.21.21,0,0,0-.2.23c0,.14,0,.22.15.25q.54.11.54.87v3.49c0,.35-.11.55-.35.58s-.54.14-.54.27.06.18.19.18c.63-.06,1.06-.1,1.27-.1L42,14a.25.25,0,0,0,.26-.15c0-.11,0-.17-.11-.19a2.19,2.19,0,0,1-.81-.25.67.67,0,0,1-.22-.58V9.83a2.84,2.84,0,0,1,.18-1.15c.12-.27.27-.4.44-.4a.55.55,0,0,1,.37.21A1.42,1.42,0,0,0,43,9a.62.62,0,0,0,.48-.18.81.81,0,0,0,.2-.47,1,1,0,0,0-.24-.72A.86.86,0,0,0,42.7,7.34Z" fill="#989898"/>
    <path d="M23,8.27a1.61,1.61,0,0,0-.33-.74,3.06,3.06,0,0,1-.7-1.27,2.69,2.69,0,0,0-.55-1.06c-.17-.21-.23-.64-.33-.79s-.11-1-.81-1.38a2.88,2.88,0,0,0-2.35.32c-.37.26-.71,1-1.16,1.34s-.82.32-1.18.93A2.33,2.33,0,0,0,15.12,7s-.25,0-.29-.11A2.2,2.2,0,0,1,15,6.06a.17.17,0,0,1,.06.13s.22-.45.08-.72a.31.31,0,0,1,.11,0,4.24,4.24,0,0,0,.09-.69A.73.73,0,0,0,15,4.21a.29.29,0,0,0,0-.36,1.25,1.25,0,0,0-.25-.34.7.7,0,0,0-.49-.29l.07-.11a.4.4,0,0,0-.21.09A.25.25,0,0,1,14,3s-.14,0-.16.15a.35.35,0,0,0-.45.24.18.18,0,0,1,.07.05s-.05.11-.25.12a5.86,5.86,0,0,0-1,.07c-.18.06-.25.12-.25.19s-.09,0-.13.24c0,0-.14.06-.14.18s.08.09.08.09-.09.24.21.25c0,0,0,.12.29.12a.59.59,0,0,1,.54.2,1.45,1.45,0,0,1-.41.6h.14a1.17,1.17,0,0,0-.35.59s.09-.1.15-.09a2.75,2.75,0,0,0,.14,2,.49.49,0,0,1,.07-.11,1,1,0,0,0,.18.6s0-.15.1-.2a3.44,3.44,0,0,0,.63.82c.32.25.81.37.91.63,0,0,.18-.19.18-.31a.69.69,0,0,1,0,.24,1.84,1.84,0,0,0,.25-.14c.06-.06.33-.24.37.06a3.71,3.71,0,0,0,0,1.65.57.57,0,0,0-.1.32c0,.18.14.27.14.35s-.06.24-.06.39a2.33,2.33,0,0,1,0,1c-.14.57-.19.72-.27.81s-.37.27-.32.54c0,0-.7.09-.69.34s.36.32.78.32.53-.09.54-.25-.1-.18,0-.27.21-.19.19-.57a1.73,1.73,0,0,1,.17-.74,1.12,1.12,0,0,1,.08-.53A1.32,1.32,0,0,0,16,11.75l.12,0a1,1,0,0,1,.1-.73,4.61,4.61,0,0,0,.33-1.22,3.88,3.88,0,0,0,.7,0,4.36,4.36,0,0,0-.42,1.73.42.42,0,0,0-.12.25.6.6,0,0,0,.19.41,7.14,7.14,0,0,1,.72.61,5.6,5.6,0,0,1,.42.62.32.32,0,0,0-.14.34s-.2.06-.18.23a.84.84,0,0,0-.44.14c-.15.13-.23.31-.09.36a3.64,3.64,0,0,0,.82.06.45.45,0,0,0,.39-.22.88.88,0,0,0-.06-.31s.1,0,.14-.12.2.72.49.7a.06.06,0,0,0,.06-.06.24.24,0,0,0,.2,0c.07-.07.24-1-.35-1.06a.13.13,0,0,0-.07-.16c-.11-.07,1-1.44,1.09-1.55A4.17,4.17,0,0,1,20,9.94l.56-1a5.65,5.65,0,0,0,.66,2.31.46.46,0,0,0,.08.34,2.4,2.4,0,0,0-.1.52,4.47,4.47,0,0,1,0,1.54c0,.14-.36.54-.25.87,0,0-.27.17-.27.37s.12.25.21.25.14-.09.19-.09.12.13.34.13.41-.18.41-.28-.18-.28-.18-.28a.39.39,0,0,0,.12-.25c0-.13-.19-.36-.19-.65a3.64,3.64,0,0,1,.18-1.11c.22-.49.2-.88.07-1a4,4,0,0,0,.06-.65,6.35,6.35,0,0,1,0-2.12,2.18,2.18,0,0,0,.3-1,2.05,2.05,0,0,1,.12,1.6c-.35.66-.27.65-.28.85a1.46,1.46,0,0,0,.1.48l.31-.32a.6.6,0,0,1,.15-.38,1,1,0,0,0,.2-.72l.11.08a1,1,0,0,0,0-.51.29.29,0,0,1,.23,0,1.05,1.05,0,0,1-.24-.54C22.81,8.16,23,8.27,23,8.27Zm-4,3.84-.53.86a1.65,1.65,0,0,1-.55-.5,1.6,1.6,0,0,0-.3-.47,1.28,1.28,0,0,0,.21-.47s.08,0,.12.15a2,2,0,0,0,.46-1,.35.35,0,0,0,.12.09,1,1,0,0,1,.1-.43,1.87,1.87,0,0,0,.31-.76H19A6.12,6.12,0,0,0,19,11C19.07,11.67,19,11.9,18.91,12.11Z" fill="#989898"/>
  </g>
  <g class="iconos" id="perl-i">
    <path d="M36.82,9a1.43,1.43,0,0,1-.29-.69c0-.38.14-.25.14-.25a2.11,2.11,0,0,0-.43-.94,4.19,4.19,0,0,1-.91-1.64,3.37,3.37,0,0,0-.69-1.36,7.84,7.84,0,0,1-.43-1c-.13-.2-.15-1.28-1-1.77a3.67,3.67,0,0,0-3,.41c-.48.34-.92,1.32-1.5,1.72s-1.06.41-1.52,1.2a2.87,2.87,0,0,0-.53,1.71s-.34,0-.38-.14a2.58,2.58,0,0,1,.19-1s.09.08.08.16a1.31,1.31,0,0,0,.11-.92.27.27,0,0,1,.13.07,5.28,5.28,0,0,0,.12-.9.89.89,0,0,0-.37-.78.4.4,0,0,0,0-.48,1.72,1.72,0,0,0-.31-.43c-.23-.24-.4-.37-.63-.37a.8.8,0,0,1,.08-.14s-.2,0-.26.11a.29.29,0,0,1-.13-.21s-.19.05-.2.18a.47.47,0,0,0-.59.31.18.18,0,0,1,.08.08s-.06.13-.32.15A8.11,8.11,0,0,0,23,2.1c-.23.08-.32.16-.32.25a.42.42,0,0,0-.17.3s-.18.09-.18.24.1.12.1.12-.11.3.27.32c0,0,.06.16.38.16a.76.76,0,0,1,.69.25,1.77,1.77,0,0,1-.53.77h.19a1.5,1.5,0,0,0-.47.75s.13-.13.21-.12a3.44,3.44,0,0,0,.18,2.54,1.15,1.15,0,0,1,.08-.14,1.3,1.3,0,0,0,.24.77.37.37,0,0,1,.12-.26,4.37,4.37,0,0,0,.81,1.06c.41.32,1,.48,1.18.81,0,0,.22-.24.22-.4a.7.7,0,0,1,0,.31,2.24,2.24,0,0,0,.33-.19c.07-.07.42-.31.47.08a4.93,4.93,0,0,0,0,2.13.77.77,0,0,0-.12.41c0,.23.17.35.17.45s-.08.31-.08.51a2.72,2.72,0,0,1,0,1.26,2.92,2.92,0,0,1-.34,1.06c-.09.12-.48.34-.41.69,0,0-.89.12-.89.43s.47.41,1,.41.68-.11.7-.31-.13-.23,0-.35.25-.25.24-.74a2.08,2.08,0,0,1,.22-.94,1.32,1.32,0,0,1,.1-.68,1.72,1.72,0,0,0,.26-1.54.52.52,0,0,0,.16,0,1.24,1.24,0,0,1,.13-.94A6,6,0,0,0,28.39,10a5.24,5.24,0,0,0,.91,0,5.61,5.61,0,0,0-.55,2.22.57.57,0,0,0-.15.33.8.8,0,0,0,.24.53,10.76,10.76,0,0,1,.93.79,8.16,8.16,0,0,1,.54.79.43.43,0,0,0-.19.44s-.25.08-.23.3a1,1,0,0,0-.56.18c-.2.17-.3.39-.12.46a5.2,5.2,0,0,0,1.06.07c.22,0,.48-.17.5-.28a1.31,1.31,0,0,0-.08-.4.18.18,0,0,0,.19-.14s.24.93.63.9c0,0,0,0,.06-.09a.34.34,0,0,0,.27-.05c.09-.09.3-1.34-.46-1.36a.17.17,0,0,0-.09-.21c-.14-.09,1.25-1.85,1.41-2a5.18,5.18,0,0,1,.2-2.33l.71-1.27a7.32,7.32,0,0,0,.85,3,.67.67,0,0,0,.1.44,3.79,3.79,0,0,0-.13.67,5.89,5.89,0,0,1,0,2c0,.17-.47.69-.32,1.12,0,0-.36.2-.36.47s.16.32.28.32.18-.11.24-.11.15.17.44.17.53-.23.53-.37-.23-.36-.23-.36a.5.5,0,0,0,.15-.32c0-.18-.24-.47-.24-.84a4.69,4.69,0,0,1,.22-1.42c.29-.63.26-1.14.09-1.27a4.46,4.46,0,0,0,.09-.84,8.13,8.13,0,0,1,0-2.72,2.82,2.82,0,0,0,.4-1.24,2.65,2.65,0,0,1,.15,2.06c-.45.84-.36.83-.36,1.09a2.05,2.05,0,0,0,.12.62l.41-.42a.71.71,0,0,1,.19-.48,1.18,1.18,0,0,0,.25-.92l.14.11A1.26,1.26,0,0,0,36.52,9,.3.3,0,0,1,36.82,9Zm-5.35,4-.69,1.1a2,2,0,0,1-.7-.64,2.4,2.4,0,0,0-.39-.61,1.58,1.58,0,0,0,.27-.6s.1,0,.15.2a2.54,2.54,0,0,0,.59-1.32.77.77,0,0,0,.16.11,1.62,1.62,0,0,1,.12-.55,2.24,2.24,0,0,0,.4-1h.16a7.84,7.84,0,0,0,0,1.86C31.68,12.41,31.63,12.71,31.47,13Z" fill="#989898"/>
  </g>
  <g class="iconos" id="netflix-l">
    <path d="M11.36,15.55,18,15v-2.3c-1.41,0-2.81.16-4.22.25V9.43c.9,0,2.14,0,3.2,0V7c-.86,0-2.27,0-3.2,0V3.84H18V1.45H11.36Z" fill="#989898"/>
    <path d="M19.51,3.84H22v11c.77,0,1.58,0,2.39,0v-11h2.47V1.45H19.51Z" fill="#989898"/>
    <path d="M6.65,10.12,3.55,1.45H1.28V16.73c.8-.12,1.58-.24,2.43-.33V8.06l2.73,8c.9-.12,1.77-.16,2.62-.32V1.45H6.65Z" fill="#989898"/>
    <path d="M45,15.33c.76,0,1.57.09,2.34.17v-14H45Z" fill="#989898"/>
    <path d="M28.39,14.68h2.34V9.27H34V6.88H30.73s0-3,0-3h4.32V1.45H28.39Z" fill="#989898"/>
    <path d="M57.81,1.45H55.2l-1.67,4L52,1.45H49.4l2.77,7.18-3.07,7c.87.12,1.7.17,2.57.32l1.74-4.06,1.72,4.41c.89.15,1.79.32,2.68.44l-3-8Z" fill="#989898"/>
    <path d="M38.94,1.45H36.55v13.4c2.18,0,4.32.17,6.45.31V12.8c-1.33-.07-2.7-.18-4.06-.21Z" fill="#989898"/>
  </g>
  <g class="iconos" id="netflix-i">
    <polygon points="34.04 17.29 34.04 17.29 34.04 17.29 34.04 17.29" fill="#989898"/>
    <path d="M34.07,9.09V.9H30.85l0,7.25v.61L28.28.94l0-.06H25v8.2c0,4.51,0,8.21,0,8.21s.28,0,.62-.05l1-.11,1.54-.1s.05-7.37.05-7.37S30.73,17,30.74,17a3.77,3.77,0,0,0,.48,0c.79,0,1.77.12,2.51.22l.31,0h0S34.07,13.59,34.07,9.09Z" fill="#989898"/>
  </g>
  <g class="iconos" id="linkedin-l">
    <polygon points="3.97 4.41 1.77 4.41 1.77 14.06 7.87 14.06 7.87 12.05 3.97 12.05 3.97 4.41" fill="#989898"/>
    <rect x="8.75" y="7.41" width="2.21" height="6.65" fill="#989898"/>
    <path d="M9.87,4.21a1.15,1.15,0,1,0,0,2.29h0a1.15,1.15,0,1,0,0-2.29Z" fill="#989898"/>
    <path d="M16.19,7.26a2.18,2.18,0,0,0-2,1.09V7.41H12c0,.63,0,6.65,0,6.65H14.2V10.35a1.48,1.48,0,0,1,.07-.54A1.2,1.2,0,0,1,15.4,9c.8,0,1.12.61,1.12,1.5v3.56h2.21V10.25C18.73,8.21,17.64,7.26,16.19,7.26Z" fill="#989898"/>
    <path d="M26.48,7.13H23.82s-1.81,2.51-2,2.8V4.41h-2.2v9.65h2.2V11.9l.56-.69,1.72,2.85h2.72l-2.9-4.13Z" fill="#989898"/>
    <path d="M29.65,7a3.52,3.52,0,0,0-3.59,3.7c0,2.18,1.38,3.54,3.8,3.54a6.82,6.82,0,0,0,2.57-.44l-.29-1.46a6,6,0,0,1-2,.3c-1,0-1.93-.43-2-1.33h4.58a5.38,5.38,0,0,0,.07-.87C32.82,8.7,32,7,29.65,7ZM28.16,9.79a1.44,1.44,0,0,1,1.38-1.4,1.26,1.26,0,0,1,1.23,1.4Z" fill="#989898"/>
    <path d="M40.48,4.41H38.27V7.75h0A2.19,2.19,0,0,0,36.37,7c-1.7,0-3.2,1.36-3.18,3.68,0,2.16,1.35,3.56,3,3.56a2.52,2.52,0,0,0,2.23-1.16h0l.09,1h2c0-.46-.06-1.27-.06-2.07ZM38.27,11a2.39,2.39,0,0,1,0,.48,1.3,1.3,0,0,1-1.29,1c-.92,0-1.51-.74-1.51-1.9s.51-2,1.52-2a1.31,1.31,0,0,1,1.3,1,2.68,2.68,0,0,1,0,.4Z" fill="#989898"/>
    <path d="M56.25,1.73H43.78a1.07,1.07,0,0,0-1.08,1V15.39a1.08,1.08,0,0,0,1.08,1.06H56.25a1.07,1.07,0,0,0,1.08-1.06V2.78A1.07,1.07,0,0,0,56.25,1.73ZM47.14,14.05H44.93V7.4h2.21ZM46,6.49h0a1.15,1.15,0,1,1,1.26-1.14A1.14,1.14,0,0,1,46,6.49Zm6.86,7.56V10.5c0-.9-.32-1.51-1.12-1.51a1.22,1.22,0,0,0-1.13.81,1.48,1.48,0,0,0-.07.54v3.71H48.36s0-6,0-6.64h2.21v.94a2.18,2.18,0,0,1,2-1.1c1.45,0,2.54.95,2.54,3v3.81Z" fill="#989898"/>
  </g>
  <g class="iconos" id="linkedin-i">
    <path d="M35.78,1.73H23.32a1.06,1.06,0,0,0-1.08,1V15.39a1.07,1.07,0,0,0,1.08,1.06H35.78a1.06,1.06,0,0,0,1.08-1.06V2.78A1.06,1.06,0,0,0,35.78,1.73ZM26.67,14.05H24.46V7.4h2.21ZM25.56,6.49h0a1.15,1.15,0,1,1,1.26-1.14A1.14,1.14,0,0,1,25.55,6.49Zm6.86,7.56V10.5C32.42,9.6,32.1,9,31.3,9a1.22,1.22,0,0,0-1.13.81,1.48,1.48,0,0,0-.07.54v3.71H27.89s0-6,0-6.64H30.1v.94a2.18,2.18,0,0,1,2-1.1c1.45,0,2.54.95,2.54,3v3.81Z" fill="#989898"/>
  </g>
  <g class="iconos" id="twitter">
    <path d="M26.19,16.44A10.5,10.5,0,0,0,36.76,5.87c0-.16,0-.32,0-.48A7.68,7.68,0,0,0,38.6,3.47a7.56,7.56,0,0,1-2.14.59A3.76,3.76,0,0,0,38.1,2a7.44,7.44,0,0,1-2.36.9,3.72,3.72,0,0,0-6.33,3.39,10.54,10.54,0,0,1-7.66-3.88,3.72,3.72,0,0,0,1.15,5,3.85,3.85,0,0,1-1.69-.46V7a3.71,3.71,0,0,0,3,3.64,3.67,3.67,0,0,1-1.68.07A3.72,3.72,0,0,0,26,13.24a7.44,7.44,0,0,1-4.62,1.59,6.49,6.49,0,0,1-.88-.05,10.56,10.56,0,0,0,5.7,1.66" fill="#989898"/>
  </g>
  <g class="iconos" id="microsoft-l">
    <path d="M26.52,5.35a.74.74,0,0,0-.52.21.7.7,0,0,0,0,1,.73.73,0,0,0,.52.2.75.75,0,0,0,.51-.2.67.67,0,0,0,.22-.5.7.7,0,0,0-.22-.5A.68.68,0,0,0,26.52,5.35Z" fill="#989898"/>
    <rect x="25.9" y="7.54" width="1.21" height="5.17" fill="#989898"/>
    <path d="M21.18,10l-.34,1h0a5.73,5.73,0,0,0-.32-.93l-1.8-4.53H16.92v7.22h1.17V8.29c0-.28,0-.6,0-1,0-.2,0-.35,0-.46h0a4.91,4.91,0,0,0,.17.62l2.16,5.26h.83l2.14-5.31a4,4,0,0,0,.14-.57h0c0,.53-.05,1-.06,1.3v4.57h1.25V5.5H23Z" fill="#989898"/>
    <path d="M31.42,7.49a4,4,0,0,0-.68-.07,3,3,0,0,0-1.48.36,2.46,2.46,0,0,0-1,1A3.21,3.21,0,0,0,28,10.27a2.83,2.83,0,0,0,.33,1.34,2.26,2.26,0,0,0,.92.92,2.62,2.62,0,0,0,1.33.33A2.91,2.91,0,0,0,32,12.51h0V11.38l0,0a2.22,2.22,0,0,1-.59.31,1.9,1.9,0,0,1-.58.11,1.44,1.44,0,0,1-1.14-.45,1.71,1.71,0,0,1-.42-1.22,1.77,1.77,0,0,1,.43-1.26,1.51,1.51,0,0,1,1.14-.47,2,2,0,0,1,1.16.4l0,0V7.69h0A2.82,2.82,0,0,0,31.42,7.49Z" fill="#989898"/>
    <path d="M35.42,7.46a1.29,1.29,0,0,0-.82.28,2,2,0,0,0-.47.7h0v-.9H32.91v5.17h1.21V10.07A1.81,1.81,0,0,1,34.42,9a1,1,0,0,1,.79-.42,2.63,2.63,0,0,1,.36,0,1.2,1.2,0,0,1,.29.12l0,0V7.55h0A.88.88,0,0,0,35.42,7.46Z" fill="#989898"/>
    <path d="M48.59,7.43a2.66,2.66,0,0,0-2,.74,2.82,2.82,0,0,0-.72,2,2.65,2.65,0,0,0,.71,1.93,2.54,2.54,0,0,0,1.89.71,2.58,2.58,0,0,0,2-.76,2.73,2.73,0,0,0,.72-2,2.68,2.68,0,0,0-.68-1.95A2.44,2.44,0,0,0,48.59,7.43Zm1,4a1.2,1.2,0,0,1-1,.43,1.26,1.26,0,0,1-1-.45,1.82,1.82,0,0,1-.37-1.24,2,2,0,0,1,.37-1.27,1.31,1.31,0,0,1,1-.44,1.27,1.27,0,0,1,1,.43,1.89,1.89,0,0,1,.37,1.26A2,2,0,0,1,49.55,11.4Z" fill="#989898"/>
    <path d="M44,9.69a2.72,2.72,0,0,1-.74-.39.53.53,0,0,1-.14-.39.43.43,0,0,1,.2-.37.85.85,0,0,1,.53-.14,2.74,2.74,0,0,1,.63.09,1.79,1.79,0,0,1,.54.25l0,0V7.64h0a2.94,2.94,0,0,0-1.15-.21,2.15,2.15,0,0,0-1.43.45A1.38,1.38,0,0,0,41.91,9a1.56,1.56,0,0,0,.12.64,1.41,1.41,0,0,0,.37.48,2.93,2.93,0,0,0,.75.42c.28.13.5.22.63.29a1.43,1.43,0,0,1,.28.23.59.59,0,0,1,.07.29c0,.34-.26.51-.79.51a2.16,2.16,0,0,1-.67-.12,2.49,2.49,0,0,1-.69-.35l0,0v1.18h0a3.31,3.31,0,0,0,.65.21,4.85,4.85,0,0,0,.7.08,2.26,2.26,0,0,0,1.5-.45,1.44,1.44,0,0,0,.57-1.17,1.28,1.28,0,0,0-.3-.89A3.64,3.64,0,0,0,44,9.69Z" fill="#989898"/>
    <path d="M38.73,7.43a2.7,2.7,0,0,0-2,.74,2.78,2.78,0,0,0-.72,2,2.65,2.65,0,0,0,.71,1.93,2.57,2.57,0,0,0,1.9.71,2.54,2.54,0,0,0,2-.76,2.73,2.73,0,0,0,.72-2,2.68,2.68,0,0,0-.68-1.95A2.44,2.44,0,0,0,38.73,7.43Zm1,4a1.23,1.23,0,0,1-1,.43,1.29,1.29,0,0,1-1-.45,1.82,1.82,0,0,1-.37-1.24,2,2,0,0,1,.37-1.27,1.32,1.32,0,0,1,1-.44,1.24,1.24,0,0,1,1,.43,1.89,1.89,0,0,1,.37,1.26A2.17,2.17,0,0,1,39.7,11.4Z" fill="#989898"/>
    <path d="M57.65,8.54v-1H56.42V6h0l-1.16.34h0V7.54H53.37V6.89a1.05,1.05,0,0,1,.21-.69A.74.74,0,0,1,54.15,6a1.47,1.47,0,0,1,.54.12l0,0V5.07h0A2.1,2.1,0,0,0,54,5a2.2,2.2,0,0,0-1,.23,1.56,1.56,0,0,0-.66.66,1.9,1.9,0,0,0-.24,1v.72H51.3v1h.85v4.18h1.22V8.54H55.2V11.2c0,1.09.51,1.64,1.54,1.64a2.84,2.84,0,0,0,.51-.06,1.39,1.39,0,0,0,.39-.12h0v-1l0,0a.64.64,0,0,1-.25.11.85.85,0,0,1-.25,0,.64.64,0,0,1-.53-.19A1,1,0,0,1,56.4,11V8.54Z" fill="#989898"/>
    <rect x="1.28" y="3.1" width="5.72" height="5.72" fill="#989898"/>
    <rect x="7.6" y="3.1" width="5.72" height="5.72" fill="#989898"/>
    <rect x="1.28" y="9.42" width="5.72" height="5.72" fill="#989898"/>
    <rect x="7.6" y="9.42" width="5.72" height="5.72" fill="#989898"/>
  </g>
  <g class="iconos" id="microsoft-i">
    <rect x="22.05" y="1.59" width="7.13" height="7.13" fill="#989898"/>
    <rect x="29.92" y="1.59" width="7.13" height="7.13" fill="#989898"/>
    <rect x="22.05" y="9.46" width="7.13" height="7.13" fill="#989898"/>
    <rect x="29.92" y="9.46" width="7.13" height="7.13" fill="#989898"/>
  </g>
  <g class="iconos" id="facebook-l">
    <path d="M9.63,6H8.37a.17.17,0,0,0-.17.12,39.39,39.39,0,0,0-2.27,6c0,.07,0,.1.07.1h.93c.06,0,.09,0,.1-.07.14-.51.29-1.05.46-1.59h3c.18.54.33,1.08.46,1.59a.11.11,0,0,0,.11.07h1c.07,0,.1,0,.09-.1a41.9,41.9,0,0,0-2.27-6C9.76,6,9.72,6,9.63,6ZM7.82,9.59C8.15,8.7,8.51,7.8,8.88,7h.21c.36.82.72,1.72,1.05,2.61Z" fill="#989898"/>
    <path d="M16.63,6.91h.13a1.66,1.66,0,0,1,1.55.86c0,.08.09.08.15.05l.78-.39s.06-.06,0-.12a2.78,2.78,0,0,0-2.48-1.4h-.13a3,3,0,0,0-3.08,3.27,2.91,2.91,0,0,0,3,3.14h.15a2.88,2.88,0,0,0,2.46-1.16.11.11,0,0,0,0-.06.12.12,0,0,0-.05-.06l-.8-.39a.12.12,0,0,0-.15,0,1.8,1.8,0,0,1-1.51.65h-.13a2,2,0,0,1-1.93-2.2A2,2,0,0,1,16.63,6.91Z" fill="#989898"/>
    <path d="M39.5,5.89h-.13a3.05,3.05,0,0,0-3.2,3.23,3,3,0,0,0,3.2,3.22h.13a3,3,0,0,0,3.2-3.22A3,3,0,0,0,39.5,5.89Zm0,5.44h-.13a2,2,0,0,1-2.08-2.21,2,2,0,0,1,2.08-2.21h.13a2,2,0,0,1,2.08,2.21A2,2,0,0,1,39.5,11.33Z" fill="#989898"/>
    <path d="M.3,6a.08.08,0,0,0-.09.09v6a.08.08,0,0,0,.09.09h.88a.08.08,0,0,0,.09-.09V9.67h2.9a.08.08,0,0,0,.09-.09V8.76a.08.08,0,0,0-.09-.09H1.27V7H4.76a.08.08,0,0,0,.09-.09V6.1A.08.08,0,0,0,4.76,6Z" fill="#989898"/>
    <path d="M32.92,9a1.31,1.31,0,0,0,1-1.35c0-1-.78-1.61-2.21-1.61H29a.08.08,0,0,0-.09.09v6a.08.08,0,0,0,.09.09H32c1.46,0,2.29-.61,2.29-1.7A1.52,1.52,0,0,0,32.92,9Zm-3-2h1.79c.8,0,1.16.26,1.16.84s-.36.83-1.16.83H29.94ZM32,11.27H29.92V9.59H32c.84,0,1.22.26,1.22.84S32.88,11.25,32,11.27Z" fill="#989898"/>
    <path d="M26.21,11.24H22.52V9.61h2.93c.06,0,.08,0,.08-.09V8.71c0-.06,0-.09-.08-.09H22.52V7h3.61a.08.08,0,0,0,.09-.09V6.1A.08.08,0,0,0,26.13,6H21.57a.08.08,0,0,0-.09.09v6a.08.08,0,0,0,.09.09h4.65a.08.08,0,0,0,.09-.09v-.82A.07.07,0,0,0,26.21,11.24Z" fill="#989898"/>
    <path d="M47.81,5.89h-.13a3,3,0,0,0-3.19,3.23,3,3,0,0,0,3.19,3.22h.13A3,3,0,0,0,51,9.12,3,3,0,0,0,47.81,5.89Zm0,5.44h-.14a2,2,0,0,1-2.07-2.21,2,2,0,0,1,2.07-2.21h.14a2,2,0,0,1,2.07,2.21A2,2,0,0,1,47.8,11.33Z" fill="#989898"/>
    <path d="M58.69,12.12A25.05,25.05,0,0,0,55.6,9a22.06,22.06,0,0,0,2.76-2.88.11.11,0,0,0,0-.06s0-.06-.07-.06H57.24c-.06,0-.09,0-.13.06A21.11,21.11,0,0,1,54.8,8.55h-.53V6.1A.08.08,0,0,0,54.18,6H53.3a.08.08,0,0,0-.09.09v6a.08.08,0,0,0,.09.09h.88a.08.08,0,0,0,.09-.09V9.56h.51a26.14,26.14,0,0,1,2.55,2.59.16.16,0,0,0,.15.07h1.15C58.71,12.22,58.74,12.16,58.69,12.12Z" fill="#989898"/>
  </g>
  <g class="iconos" id="facebook-i">
    <path id="logosvg.com" d="M27.93,4.35v1.3a.13.13,0,0,1-.14.14H22.26V8.41h4.58a.12.12,0,0,1,.14.14v1.3a.12.12,0,0,1-.14.14H22.26v3.89c0,.1,0,.15-.14.15H20.73c-.1,0-.14,0-.14-.15V4.35c0-.1,0-.14.14-.14h7.06a.12.12,0,0,1,.14.14m8.68,6.84c0-.92-.61-1.32-1.93-1.32H31.37v2.65h3.31c1.37,0,1.93-.41,1.93-1.33M34.23,5.74H31.4V8.38h2.83c1.27,0,1.84-.42,1.84-1.32s-.57-1.32-1.84-1.32m4.11,5.6C38.34,13.06,37,14,34.7,14H29.89a.13.13,0,0,1-.15-.15V4.35c0-.1.05-.14.15-.14h4.39c2.26,0,3.49.89,3.49,2.55a2,2,0,0,1-1.65,2.12,2.42,2.42,0,0,1,2.22,2.46" fill="#989898"/>
  </g>
  <g class="iconos" id="google-l">
    <path d="M20.9,5A4.49,4.49,0,0,0,16.33,9.6a4.57,4.57,0,0,0,9.14,0A4.49,4.49,0,0,0,20.9,5Zm0,7.32A2.64,2.64,0,0,1,18.33,9.6a2.58,2.58,0,1,1,5.14,0A2.64,2.64,0,0,1,20.9,12.36Z" fill="#989898"/>
    <path d="M30.76,5A4.49,4.49,0,0,0,26.19,9.6a4.57,4.57,0,0,0,9.14,0A4.49,4.49,0,0,0,30.76,5Zm0,7.32A2.64,2.64,0,0,1,28.19,9.6a2.58,2.58,0,1,1,5.14,0A2.64,2.64,0,0,1,30.76,12.36Z" fill="#989898"/>
    <path d="M42.88,6.06h-.07a3.14,3.14,0,0,0-2.4-1,4.56,4.56,0,0,0,0,9.11,3.08,3.08,0,0,0,2.4-1h.07v.66c0,1.74-.93,2.67-2.43,2.67a2.52,2.52,0,0,1-2.3-1.62l-1.74.73a4.33,4.33,0,0,0,4,2.68c2.35,0,4.33-1.37,4.33-4.74V5.32h-1.9Zm-2.29,6.3a2.62,2.62,0,0,1-2.54-2.75,2.64,2.64,0,0,1,2.54-2.78A2.57,2.57,0,0,1,43,9.61,2.55,2.55,0,0,1,40.59,12.36Z" fill="#989898"/>
    <rect x="45.96" y="0.52" width="1.95" height="13.35" fill="#989898"/>
    <path d="M53.27,12.36A2.31,2.31,0,0,1,51.07,11l6.09-2.53L57,7.94A4.23,4.23,0,0,0,53.05,5a4.32,4.32,0,0,0-4.3,4.55,4.46,4.46,0,0,0,4.52,4.56,4.54,4.54,0,0,0,3.8-2l-1.55-1A2.62,2.62,0,0,1,53.27,12.36ZM53.12,6.8a1.77,1.77,0,0,1,1.69,1l-4.07,1.7A2.5,2.5,0,0,1,53.12,6.8Z" fill="#989898"/>
    <path d="M8.94,6.48V8.41h4.62a4,4,0,0,1-1,2.39,4.77,4.77,0,0,1-3.58,1.42A5.08,5.08,0,0,1,3.87,7.07,5.08,5.08,0,0,1,8.94,1.93a5,5,0,0,1,3.49,1.38L13.79,2A6.75,6.75,0,0,0,8.94,0,7.18,7.18,0,0,0,1.77,7.07a7.18,7.18,0,0,0,7.17,7.08,6.45,6.45,0,0,0,4.94-2,6.35,6.35,0,0,0,1.67-4.52,6.67,6.67,0,0,0-.09-1.16Z" fill="#989898"/>
  </g>
  <g class="iconos" id="google-i">
    <path d="M37.3,9.3a9.74,9.74,0,0,0-.13-1.62H29.62v3.08h4.32a3.69,3.69,0,0,1-1.6,2.43h0a4.86,4.86,0,0,1-7.21-2.54h0a4.72,4.72,0,0,1,0-3.06,4.78,4.78,0,0,1,4.49-3.31,4.38,4.38,0,0,1,3.07,1.2L35,3.2a7.63,7.63,0,0,0-5.35-2.08,8,8,0,1,0,0,16,7.65,7.65,0,0,0,5.3-1.93h0A7.81,7.81,0,0,0,37.3,9.3Z" fill="#989898"/>
  </g>
</svg>