<?xml version="1.0" encoding="utf-8"?>
<!-- Generator: Adobe Illustrator 22.1.0, SVG Export Plug-In . SVG Version: 6.00 Build 0)  -->
<svg version="1.1" xmlns="http://www.w3.org/2000/svg" xmlns:xlink="http://www.w3.org/1999/xlink" x="0px" y="0px"
	 viewBox="0 0 59 59" enable-background="new 0 0 59 59" xml:space="preserve">
<g id="community">
	<circle fill="#CCCCCC" cx="29.5" cy="29.5" r="29"/>
	<path fill="#333333" d="M19.3,20.5h21.6v16.2h-20l-1.6,1.6V20.5 M19.3,17.8c-1.5,0-2.7,1.2-2.7,2.7l0,24.3l5.4-5.4h18.9
		c1.5,0,2.7-1.2,2.7-2.7V20.5c0-1.5-1.2-2.7-2.7-2.7H19.3z M22,31.3h10.8V34H22V31.3z M22,27.3h16.2V30H22V27.3z M22,23.2h16.2v2.7
		H22V23.2z"/>
</g>
<g id="downloads">
	<circle fill="#CCCCCC" cx="29.5" cy="29.5" r="29"/>
	<path fill="#333333" d="M39,28.9v9.5H20.1v-9.5h-2.7v9.5c0,1.5,1.2,2.7,2.7,2.7H39c1.5,0,2.7-1.2,2.7-2.7v-9.5H39z M30.9,29.8
		l3.5-3.5l1.9,1.9L29.5,35l-6.8-6.8l1.9-1.9l3.5,3.5V16.7h2.7V29.8z"/>
</g>
<g id="documentation">
	<circle fill="#CCCCCC" cx="29.5" cy="29.5" r="29"/>
	<path fill="#333333" d="M18.7,21.4H16v18.9c0,1.5,1.2,2.7,2.7,2.7h18.9v-2.7H18.7V21.4z M40.3,16H24.1c-1.5,0-2.7,1.2-2.7,2.7v16.2
		c0,1.5,1.2,2.7,2.7,2.7h16.2c1.5,0,2.7-1.2,2.7-2.7V18.7C43,17.2,41.8,16,40.3,16z M40.3,34.9H24.1V18.7h16.2V34.9z M26.8,25.4
		h10.8v2.7H26.8V25.4z M26.8,29.5h5.4v2.7h-5.4V29.5z M26.8,21.4h10.8v2.7H26.8V21.4z"/>
</g>
<g id="about">
	<circle fill="#CCCCCC" cx="29.5" cy="29.5" r="29"/>
	<path fill="#333333" d="M39.5,30.8c0.1-0.4,0.1-0.9,0.1-1.3s0-0.9-0.1-1.3l2.8-2.2c0.3-0.2,0.3-0.6,0.2-0.9l-2.7-4.7
		c-0.1-0.2-0.4-0.3-0.6-0.3c-0.1,0-0.2,0-0.2,0l-3.4,1.4c-0.7-0.5-1.5-1-2.3-1.3l-0.5-3.6c0-0.3-0.3-0.6-0.7-0.6h-5.4
		c-0.3,0-0.6,0.2-0.7,0.6l-0.5,3.6c-0.8,0.3-1.6,0.8-2.3,1.3L20,20.1c-0.1,0-0.2,0-0.2,0c-0.2,0-0.5,0.1-0.6,0.3l-2.7,4.7
		c-0.2,0.3-0.1,0.7,0.2,0.9l2.8,2.2c-0.1,0.4-0.1,0.9-0.1,1.3c0,0.4,0,0.9,0.1,1.3l-2.8,2.2c-0.3,0.2-0.3,0.6-0.2,0.9l2.7,4.7
		c0.1,0.2,0.4,0.3,0.6,0.3c0.1,0,0.2,0,0.2,0l3.4-1.3c0.7,0.5,1.5,1,2.3,1.3l0.5,3.6c0,0.3,0.3,0.6,0.7,0.6h5.4
		c0.3,0,0.6-0.2,0.7-0.6l0.5-3.6c0.8-0.3,1.6-0.8,2.3-1.3l3.4,1.3c0.1,0,0.2,0,0.2,0c0.2,0,0.5-0.1,0.6-0.3l2.7-4.7
		c0.2-0.3,0.1-0.7-0.2-0.9L39.5,30.8z M36.9,28.5c0.1,0.4,0.1,0.7,0.1,1s0,0.6-0.1,1L36.7,32l1.2,0.9l1.5,1.1l-0.9,1.6L36.7,35
		l-1.4-0.6L34,35.4c-0.6,0.4-1.1,0.8-1.7,1L30.9,37l-0.2,1.5l-0.3,1.8h-1.9l-0.3-1.8L28.1,37l-1.4-0.6c-0.6-0.2-1.1-0.6-1.7-1
		l-1.2-0.9L22.3,35l-1.7,0.7l-0.9-1.6l1.5-1.1l1.2-0.9l-0.2-1.5c0-0.4-0.1-0.7-0.1-1c0-0.3,0-0.6,0.1-1l0.2-1.5L21.1,26l-1.5-1.1
		l0.9-1.6l1.7,0.7l1.4,0.6l1.2-0.9c0.6-0.4,1.1-0.8,1.7-1l1.4-0.6l0.2-1.5l0.3-1.8h1.9l0.3,1.8l0.2,1.5l1.4,0.6
		c0.6,0.2,1.1,0.6,1.7,1l1.2,0.9l1.4-0.6l1.7-0.7l0.9,1.6L37.9,26L36.7,27C36.7,27,36.9,28.5,36.9,28.5z M29.5,24.1
		c-3,0-5.4,2.4-5.4,5.4s2.4,5.4,5.4,5.4s5.4-2.4,5.4-5.4S32.5,24.1,29.5,24.1z M29.5,32.2c-1.5,0-2.7-1.2-2.7-2.7s1.2-2.7,2.7-2.7
		s2.7,1.2,2.7,2.7S31,32.2,29.5,32.2z"/>
</g>
</svg>
