<?xml version="1.0" encoding="utf-8"?>
<svg version="1.1" id="Capa_1" xmlns="http://www.w3.org/2000/svg" xmlns:xlink="http://www.w3.org/1999/xlink" x="0px" y="0px"
	viewBox="0 0 540 540" style="enable-background:new 0 0 512 512;" xml:space="preserve">
	<defs>
		<style type="text/css">
			.social{display:none;}
			.social:target{display:inline}
		</style>
	</defs>
	<g id="icono-twitter" class="social">
		<title>twitter</title>
		<path id="icono-twitter" d="M512,97c-19.17,8.5-40.18,13.54-61,16a104.9,104.9,0,0,0,46-58c-20.62,12.23-42.33,21.36-65.86,26A103.2,103.2,0,0,0,356,48c-27,0-52.8,9.1-73.48,28.56A105.54,105.54,0,0,0,249,153a105.94,105.94,0,0,0,3.13,23.92A297.65,297.65,0,0,1,36,67c-9.67,16.64-15,35-15,53a104.86,104.86,0,0,0,47,87c-16.72-.5-33.39-3.86-48-12v1.91c0,50,36,91.19,85,101.09a119.42,119.42,0,0,1-28.91,4H76a112,112,0,0,1-21-2c13.76,42.79,56.06,74.16,101,75-37.2,29.23-95,43-131,43a215.11,215.11,0,0,1-25-1,297.36,297.36,0,0,0,160.61,47h.4V464c192,0,299-160.12,299-298.93,0-4.55-.69-9.65-1-14.15C479.56,136.09,497.89,118.05,512,97ZM402.86,256.26a270.06,270.06,0,0,1-50.32,83.87,244.9,244.9,0,0,1-80.65,60.44C240.4,415.18,205.63,423,168.43,424h-7.82q-3.24,0-6.48-.08a197.29,197.29,0,0,0,26.58-17.47C201.36,387.23,210.58,362.93,214,336A317.1,317.1,0,0,1,178,338c-14.85-.1-31.1-1.32-42-7,27.18-12.22,41.46-32.48,47.27-58C160,275,106,263,86.63,247.53,108,240,128,224,136,211c0,0-38-18-64.82-56.59a337.37,337.37,0,0,0,179,62.46L303,219,292.06,172l-2-9.31a54.62,54.62,0,0,1-1-9.69,65.62,65.62,0,0,1,20.92-47.37C322.41,93.91,337.91,88,356,88a62.72,62.72,0,0,1,37.51,12.8C411,116,420,136,420,165.11,420,195,414.07,226.54,402.86,256.26Z" transform="translate(0 0.02)" fill="#69f"/>
	</g>
	<g id="icono-twitter-over" class="social">
		<title>twitter-over</title>
		<path id="icono-twitter-over" d="M256,0C114.64,0,0,114.62,0,256S114.64,512,256,512,512,397.36,512,256,397.38,0,256,0ZM372.9,199.59q.17,3.78.17,7.59c0,77.65-59.1,167.19-167.19,167.19h0A166.29,166.29,0,0,1,115.81,348a120.24,120.24,0,0,0,14,.81,117.93,117.93,0,0,0,73-25.15,58.85,58.85,0,0,1-54.9-40.82A58.31,58.31,0,0,0,159,283.89a59.08,59.08,0,0,0,15.49-2.07,58.78,58.78,0,0,1-47.14-57.6c0-.27,0-.51,0-.75a58.29,58.29,0,0,0,26.61,7.34,58.81,58.81,0,0,1-18.19-78.45,166.83,166.83,0,0,0,121.12,61.4A58.79,58.79,0,0,1,357,160.17a117.9,117.9,0,0,0,37.32-14.26,59,59,0,0,1-25.84,32.5,117.18,117.18,0,0,0,33.74-9.25A119.44,119.44,0,0,1,372.9,199.59Z" transform="translate(0 0.02)" style="fill:#69f"/>
	</g>
	<g id="icono-facebook" class="social">
		<title>facebook</title>
		<path id="icono-facebook" d="M452,0H60A60.06,60.06,0,0,0,0,60V452a60.06,60.06,0,0,0,60,60H452a60.06,60.06,0,0,0,60-60V60A60.06,60.06,0,0,0,452,0Zm20,452a20,20,0,0,1-20,20H334V326h64l7.46-62H334V197c0-17.1,12.9-30,30-30h45V109c-11.84-1.67-34.69-4-45-4-23.32,0-46.7,9.84-64.14,27-18,17.67-27.86,40.82-27.86,65.19V264H207v62h65V472H60a20,20,0,0,1-20-20V60A20,20,0,0,1,60,40H452a20,20,0,0,1,20,20Z" transform="translate(0 0.02)" fill="#339"/>
	</g>
	<g id="icono-facebook-over" class="social">
		<title>facebook-over</title>
		<path id="icono-facebook-over" d="M512,256C512,114.64,397.36,0,256,0S0,114.64,0,256,114.64,512,256,512c1.5,0,3,0,4.5-.06V312.66h-55v-64.1h55V201.39c0-54.7,33.39-84.48,82.19-84.48A454.76,454.76,0,0,1,392,119.43v57.18H358.35c-26.55,0-31.69,12.61-31.69,31.12v40.83h63.48l-8.27,64.1H326.66V502.11C433.67,471.43,512,372.85,512,256Z" transform="translate(0 0.02)" fill="#339"/>
	</g>
	<g id="icono-youtube" class="social">
		<title>youtube</title>
		<g id="icono-youtube">
			<path d="M256,441.1h-.14c-15.44-.1-152-1.35-190.68-11.81A79.11,79.11,0,0,1,9.56,373.66c-10.13-38-9.48-111.17-9.41-117s-.72-79.59,9.38-117.9l0-.11c7.2-26.73,29-48.71,55.6-56l.2-.06c38.25-10,175.07-11.28,190.54-11.38h.28c15.49.1,152.4,1.35,190.73,11.83a79.1,79.1,0,0,1,55.6,55.54c10.5,38.34,9.53,112.28,9.42,118.52.07,6.14.69,78.66-9.38,116.85,0,0,0,.07,0,.11a79.11,79.11,0,0,1-55.7,55.63l-.11,0c-38.25,10-175.07,11.27-190.54,11.38ZM48.18,149c-8.89,33.82-8,106.65-8,107.39v.53c-.27,20.19.67,78.69,8,106.39a39,39,0,0,0,27.45,27.37c28.54,7.72,139.75,10.15,180.4,10.43,40.75-.28,152.13-2.64,180.46-10.06a39,39,0,0,0,27.4-27.35c7.38-28.12,8.31-86.32,8-106.39v-.64c.37-20.44-.35-79.62-8-107.54a.19.19,0,0,0,0-.08,39,39,0,0,0-27.47-27.43c-28.26-7.73-139.66-10.15-180.4-10.43-40.73.28-152,2.64-180.41,10A40.1,40.1,0,0,0,48.18,149Zm435,219.85h0ZM205.07,337.13v-162l140,81Z" transform="translate(0 0.02)" fill="#dc472e"/>
		</g>
	</g>
	<g id="icono-youtube-over" class="social">
		<title>youtube-1</title>
		<g id="icono-youtube-over">
			<path d="M224.11,304l83.28-48-83.28-48Z" transform="translate(0 0.02)" fill="#dc472e"/>
			<path d="M256,0C114.64,0,0,114.64,0,256S114.64,512,256,512,512,397.36,512,256,397.36,0,256,0ZM416,256.26s0,51.92-6.58,76.95a40.1,40.1,0,0,1-28.2,28.2C356.14,368,256,368,256,368s-99.88,0-125.18-6.85A40.09,40.09,0,0,1,102.63,333C96,308.18,96,256,96,256s0-51.91,6.59-76.95a40.88,40.88,0,0,1,28.19-28.46C155.86,144,256,144,256,144s100.14,0,125.18,6.85a40.12,40.12,0,0,1,28.2,28.2C416.23,204.09,416,256.26,416,256.26Z" transform="translate(0 0.02)" fill="#dc472e"/>
		</g>
	</g>
	<g id="icono-instagram" class="social">
		<title>instagram</title>
		<path id="icono-instagram" d="M261,512h-5.1c-40.13.1-77.21-.92-113.28-3.12-33.06-2-63.24-13.43-87.28-33-23.19-18.92-39-44.49-47.08-76C1.3,372.39.93,345.46.58,319.41.32,300.72.05,278.57,0,256.05s.32-44.77.58-63.46c.35-26.05.72-53,7.72-80.42,8.05-31.52,23.89-57.09,47.08-76,24-19.6,54.22-31,87.29-33C178.73.93,215.82-.09,256,0c40.14-.09,77.21.92,113.28,3.11,33.06,2,63.24,13.44,87.28,33,23.2,18.92,39,44.49,47.08,76,7,27.43,7.37,54.37,7.72,80.42.26,18.69.53,40.84.58,63.36v.1c-.05,22.52-.32,44.67-.58,63.36-.35,26-.72,53-7.72,80.42-8.05,31.52-23.88,57.09-47.08,76-24,19.6-54.22,31-87.28,33C334.78,511,299.31,512,261,512Zm-5.1-40c39.48.1,75.73-.9,111-3,25-1.52,46.67-9.63,64.43-24.11,16.42-13.39,27.72-31.86,33.6-54.9,5.83-22.84,6.16-47.36,6.49-71.08.25-18.56.52-40.56.57-62.86s-.32-44.3-.57-62.86c-.33-23.72-.66-48.24-6.49-71.09-5.88-23-17.18-41.5-33.6-54.89-17.76-14.48-39.43-22.59-64.43-24.11C331.67,40.9,295.42,39.92,256,40c-39.48-.09-75.73.9-111,3-25,1.52-46.67,9.63-64.43,24.11C64.25,80.55,52.94,99,47.06,122.05c-5.83,22.85-6.16,47.37-6.49,71.09-.25,18.58-.52,40.58-.57,62.91s.32,44.23.57,62.81c.33,23.72.66,48.24,6.49,71.08,5.88,23,17.19,41.51,33.6,54.9,17.76,14.47,39.43,22.59,64.43,24.11C180.31,471.09,216.57,472.09,255.94,472ZM255,381A125,125,0,1,1,380,256,125.14,125.14,0,0,1,255,381Zm0-210a85,85,0,1,0,85,85A85.1,85.1,0,0,0,255,171ZM394,91a30,30,0,1,0,30,30A30,30,0,0,0,394,91Z" transform="translate(0 0.02)" fill="#c36"/>
	</g>
	<g id="icono-instagram-over" class="social">
		<title>instagram-over</title>
		<path d="M305,256a49,49,0,1,1-49-49A49,49,0,0,1,305,256Z" transform="translate(0 0.02)" fill="#c36"/>
		<path d="M370.59,169.3a48.62,48.62,0,0,0-27.89-27.89c-5.18-2-13-4.41-27.3-5.06-15.5-.71-20.15-.86-59.4-.86s-43.9.15-59.4.85c-14.33.66-22.12,3-27.3,5.07a48.68,48.68,0,0,0-27.9,27.89c-2,5.18-4.4,13-5.06,27.3-.7,15.5-.86,20.15-.86,59.4s.16,43.9.86,59.41c.66,14.33,3,22.11,5.06,27.29a48.73,48.73,0,0,0,27.9,27.9c5.18,2,13,4.41,27.3,5.06,15.5.71,20.14.86,59.4.86s43.9-.15,59.4-.86c14.33-.65,22.12-3.05,27.3-5.06a48.67,48.67,0,0,0,27.89-27.9c2-5.18,4.41-13,5.07-27.29.7-15.51.85-20.16.85-59.41s-.15-43.9-.85-59.4C375,182.27,372.61,174.48,370.59,169.3ZM256,331.48A75.48,75.48,0,1,1,331.48,256,75.48,75.48,0,0,1,256,331.48Zm78.47-136.31a17.64,17.64,0,1,1,17.64-17.64A17.64,17.64,0,0,1,334.47,195.17Z" transform="translate(0 0.02)" fill="#c36"/>
		<path d="M256,0C114.64,0,0,114.64,0,256S114.64,512,256,512,512,397.36,512,256,397.36,0,256,0ZM402.11,316.61c-.71,15.64-3.2,26.33-6.83,35.68a75.15,75.15,0,0,1-43,43c-9.35,3.63-20,6.12-35.68,6.83S295.93,403,256,403s-44.93-.17-60.61-.89-26.33-3.2-35.68-6.83a75.25,75.25,0,0,1-43-43c-3.63-9.35-6.12-20-6.83-35.68S109,295.92,109,256s.17-44.93.89-60.61,3.19-26.33,6.82-35.68a75.3,75.3,0,0,1,43-43c9.35-3.63,20-6.12,35.68-6.83S216.08,109,256,109s44.93.17,60.61.89,26.33,3.2,35.68,6.82a75.23,75.23,0,0,1,43,43c3.64,9.35,6.12,20,6.84,35.68S403,216.08,403,256,402.83,300.93,402.11,316.61Z" transform="translate(0 0.02)" fill="#c36"/>
	</g>
</svg>
