<?xml version="1.0" encoding="utf-8"?>
<svg version="1.1" id="Capa_1" data-name="Capa 1" xmlns="http://www.w3.org/2000/svg" xmlns:xlink="http://www.w3.org/1999/xlink" x="0px" y="0px"
	viewBox="0 0 540 540" style="enable-background:new 0 0 72.26 74;" xml:space="preserve">
    <title>ilustraciones5</title>
    <g id="Layer_1" data-name="Layer 1">
        <path d="M46,19.82H26.09a1.76,1.76,0,0,1-1.75-1.76h0V10.49H47.77v7.57A1.75,1.75,0,0,1,46,19.82Z" transform="translate(0)" fill="#55525b"/>
        <path d="M24.34,10.49v4.67h10A1.63,1.63,0,0,1,36,16.74v0h0v3H46A1.75,1.75,0,0,0,47.77,18v0h0V10.49Z" transform="translate(0)" fill="#353744"/>
        <path d="M53,10.49H16.89a1.75,1.75,0,0,1-1.74-1.74V7.59a1.76,1.76,0,0,1,1.74-1.73H53a1.75,1.75,0,0,1,1.75,1.75h0V8.78A1.75,1.75,0,0,1,53,10.49Z" transform="translate(0)" fill="#353744"/>
        <path d="M34.37,10.49H16.89a1.75,1.75,0,0,1-1.74-1.74V7.59a1.76,1.76,0,0,1,1.74-1.73H34.37A1.74,1.74,0,0,1,36.11,7.6h0V8.78A1.74,1.74,0,0,1,34.37,10.49Z" transform="translate(0)" fill="#55525b"/>
        <path d="M52.43,5.86H34.37V5.25A1.74,1.74,0,0,1,36.1,3.5H50.67a1.75,1.75,0,0,1,1.76,1.74h0Z" transform="translate(0)" fill="#fbbe18"/>
        <path d="M50.09,5.86h2.34v14H50.09Z" transform="translate(0)" fill="#f68820"/>
        <path d="M52.43,19.82H50.09a1.16,1.16,0,0,1-1.16-1.16v-3.5a2.34,2.34,0,0,1,4.66-.37,2.29,2.29,0,0,1,0,.37v3.5A1.16,1.16,0,0,1,52.43,19.82Z" transform="translate(0)" fill="#fbbe18"/>
        <path d="M21,30.89H51.24V61.18H21Z" transform="translate(0)" fill="#6fa4d8"/>
        <path d="M65.24,21.56a2.34,2.34,0,0,0-2.32,2.33,2.36,2.36,0,0,1-2.34,2.34H58.26a2.34,2.34,0,0,1-2.34-2.34h0a2.33,2.33,0,1,0-4.65-.37h0a2.29,2.29,0,0,0,0,.37v2.34H21V23.89a2.33,2.33,0,1,0-4.65-.37,2.29,2.29,0,0,0,0,.37A2.34,2.34,0,0,1,14,26.23H11.65a2.36,2.36,0,0,1-2.34-2.34,2.33,2.33,0,1,0-4.65-.37h0a2.29,2.29,0,0,0,0,.37V68.17a2.33,2.33,0,0,0,4.65.37h0a2.29,2.29,0,0,0,0-.37,2.36,2.36,0,0,1,2.34-2.34H14a2.34,2.34,0,0,1,2.34,2.34,2.34,2.34,0,0,0,4.66.37,2.29,2.29,0,0,0,0-.37V65.83H51.2v2.34a2.33,2.33,0,0,0,4.65.37,2.29,2.29,0,0,0,0-.37,2.34,2.34,0,0,1,2.34-2.34h2.32a2.36,2.36,0,0,1,2.34,2.34,2.33,2.33,0,0,0,4.65.37,2.29,2.29,0,0,0,0-.37V23.89A2.32,2.32,0,0,0,65.24,21.56ZM14,61.18H11.65a2.34,2.34,0,0,1-2.34-2.33V56.52a2.36,2.36,0,0,1,2.34-2.34H14a2.34,2.34,0,0,1,2.34,2.34h0v2.33A2.32,2.32,0,0,1,14,61.18h0Zm0-11.65H11.65a2.34,2.34,0,0,1-2.34-2.34h0V44.87a2.36,2.36,0,0,1,2.34-2.34H14a2.34,2.34,0,0,1,2.34,2.34h0v2.32A2.34,2.34,0,0,1,14,49.53Zm0-11.65H11.65a2.35,2.35,0,0,1-2.34-2.26v-2.4a2.33,2.33,0,0,1,2.33-2.33H14a2.33,2.33,0,0,1,2.34,2.32h0v2.4A2.33,2.33,0,0,1,14,37.88Zm37.2,23.3H21V30.89H51.24Zm9.31,0H58.26a2.34,2.34,0,0,1-2.34-2.31V56.52a2.34,2.34,0,0,1,2.34-2.34h2.32a2.36,2.36,0,0,1,2.34,2.34v2.33a2.35,2.35,0,0,1-2.34,2.33Zm0-11.65H58.26a2.34,2.34,0,0,1-2.34-2.34h0V44.87a2.34,2.34,0,0,1,2.34-2.34h2.32a2.36,2.36,0,0,1,2.34,2.34v2.32a2.34,2.34,0,0,1-2.34,2.34h-.07Zm0-11.65H58.26a2.34,2.34,0,0,1-2.34-2.26v-2.4a2.33,2.33,0,0,1,2.33-2.33h2.33a2.33,2.33,0,0,1,2.34,2.32h0v2.4a2.35,2.35,0,0,1-2.34,2.26Z" transform="translate(0)" fill="#55525b"/>
        <circle cx="36.12" cy="45.44" r="11.65" fill="#5c76b2"/>
        <path d="M31.45,40.48v10a2.35,2.35,0,0,0,2.35,2.33,2.32,2.32,0,0,0,1.28-.39l7.44-5a2.32,2.32,0,0,0,.65-3.22h0a2.24,2.24,0,0,0-.65-.65l-7.44-5a2.33,2.33,0,0,0-3.63,1.94Z" transform="translate(0)" fill="#f68820"/>
    </g>
    <g id="Layer_2" data-name="Layer 2">
        <g id="Layer_2-2" data-name="Layer 2-2">
            <path d="M59.06,11.66h-21a4.69,4.69,0,0,0-4.72,4.62v14A4.68,4.68,0,0,0,38,34.94H56.74l2.67,2.68a1.16,1.16,0,0,0,.77.32h2.38a1.17,1.17,0,0,0,1.17-1.17h0V16.28A4.67,4.67,0,0,0,59.06,11.66Z" transform="translate(0)" fill="#f68820"/>
            <path d="M56.74,11.66H38.1a4.69,4.69,0,0,0-4.72,4.62v14a4.68,4.68,0,0,0,4.68,4.66H56.74l2.67,2.68a1.18,1.18,0,0,0,2-.84V16.28A4.66,4.66,0,0,0,56.74,11.66Z" transform="translate(0)" fill="#fbbe18"/>
            <circle cx="40.44" cy="23.3" r="2.34" fill="#f68820"/>
            <circle cx="47.43" cy="23.3" r="2.34" fill="#f68820"/>
            <circle cx="54.41" cy="23.3" r="2.34" fill="#f68820"/>
            <path d="M35.77,2.34h-21A4.65,4.65,0,0,0,10.13,7V27.5a1.17,1.17,0,0,0,1.19,1.15h0a1.14,1.14,0,0,0,.8-.33l2.66-2.68h21A4.65,4.65,0,0,0,40.42,21V7a4.65,4.65,0,0,0-4.64-4.66Z" transform="translate(0)" fill="#5c76b2"/>
            <path d="M33.38,2.34H14.79A4.66,4.66,0,0,0,10.13,7h0V27.5a1.17,1.17,0,0,0,1.19,1.15h0a1.14,1.14,0,0,0,.8-.33l2.66-2.68H33.38A4.67,4.67,0,0,0,38.06,21V7a4.67,4.67,0,0,0-4.68-4.66Z" transform="translate(0)" fill="#6fa4d8"/>
            <path d="M19.46,44.29a7,7,0,0,0-7,7h0v14H20V62.93h4.07a2.34,2.34,0,0,0,2.32-2.33V51.27A7,7,0,0,0,19.46,44.29Z" transform="translate(0)" fill="#eec78e"/>
            <path d="M25,58.26a1.49,1.49,0,0,1-1.48-1.49V53.6a3,3,0,0,1,2.9,3v.28A1.51,1.51,0,0,1,25,58.26Z" transform="translate(0)" fill="#db9e68"/>
            <circle cx="21.8" cy="53.01" r="0.58" fill="#55525b"/>
            <circle cx="25.29" cy="53.01" r="0.58" fill="#55525b"/>
            <path d="M20,65.25H12.47a2.32,2.32,0,0,1,2.32-2.32H20Z" transform="translate(0)" fill="#db9e68"/>
            <path d="M25.28,59.42h-3.5a1.16,1.16,0,0,0,1.16,1.16h1.18A1.16,1.16,0,0,0,25.28,59.42Z" transform="translate(0)" fill="#55525b"/>
            <path d="M25.28,42H17.12a7,7,0,0,0-7,7v9.4a2.34,2.34,0,0,0,2.34,2.34h2.32a2.33,2.33,0,0,0,2.33-2.33h0V54.76h.58a1.74,1.74,0,0,0,1.77-1.71V50.69A1.74,1.74,0,0,1,21.2,49h4.08a3.5,3.5,0,0,0,0-7Z" transform="translate(0)" fill="#f68820"/>
            <path d="M17.12,53.6a2.34,2.34,0,0,0-.37,4.66,2.29,2.29,0,0,0,.37,0Z" transform="translate(0)" fill="#db9e68"/>
            <path d="M23,65.25H12.56a3.5,3.5,0,0,0-3.5,3.5v3.49H26.44V68.75A3.5,3.5,0,0,0,23,65.25Z" transform="translate(0)" fill="#5c76b2"/>
            <path d="M12.47,65.25A3.5,3.5,0,0,0,9,68.75v3.49h7V68.75a3.5,3.5,0,0,0-3.49-3.5Z" transform="translate(0)" fill="#6fa4d8"/>
            <path d="M54.41,44.29a7,7,0,0,0-7,7h0V60.6a2.33,2.33,0,0,0,2.33,2.33h4.09v2.32H61.4v-14a7,7,0,0,0-7-7Z" transform="translate(0)" fill="#eec78e"/>
            <path d="M48.87,58.26a1.49,1.49,0,0,0,1.49-1.49h0V53.6a3,3,0,0,0-3,3v.28A1.49,1.49,0,0,0,48.87,58.26Z" transform="translate(0)" fill="#db9e68"/>
            <circle cx="52.09" cy="53.01" r="0.58" fill="#55525b"/>
            <circle cx="48.59" cy="53.01" r="0.58" fill="#55525b"/>
            <path d="M53.83,65.25H61.4a2.32,2.32,0,0,0-2.32-2.32H53.83Z" transform="translate(0)" fill="#db9e68"/>
            <path d="M48.57,59.42h3.5a1.16,1.16,0,0,1-1.16,1.16H49.75A1.18,1.18,0,0,1,48.57,59.42Z" transform="translate(0)" fill="#55525b"/>
            <path d="M56.74,42H53.25a7,7,0,0,0-7,7h6.48a1.74,1.74,0,0,1,1.74,1.74h0v1.17a1.74,1.74,0,0,0,1.74,1.74h.59V63a2.32,2.32,0,0,1-2.32,2.32h7A2.32,2.32,0,0,0,63.79,63V49a7,7,0,0,0-6.93-7Z" transform="translate(0)" fill="#55525b"/>
            <path d="M56.74,53.6a2.34,2.34,0,0,1,0,4.66Z" transform="translate(0)" fill="#db9e68"/>
            <path d="M61.4,65.25H51a3.5,3.5,0,0,0-3.49,3.5v3.49H64.9V68.75A3.5,3.5,0,0,0,61.4,65.25Z" transform="translate(0)" fill="#fbbe18"/>
            <path d="M61.4,65.25a3.5,3.5,0,0,1,3.5,3.5v3.49h-7V68.75A3.5,3.5,0,0,1,61.4,65.25Z" transform="translate(0)" fill="#f68820"/>
            <path d="M43.5,49.69l-2.08-2.08a.57.57,0,0,0-.82,0,.58.58,0,0,0-.18.43v1H32.85a.58.58,0,0,0-.58.58h0v1.16a.58.58,0,0,0,.58.58h7.57v.93a.58.58,0,0,0,.58.58h0a.59.59,0,0,0,.42-.17l2.1-2.18A.59.59,0,0,0,43.5,49.69Z" transform="translate(0)" fill="#f68820"/>
            <path d="M41,57.1H33.38v-.92a.58.58,0,0,0-.52-.62.59.59,0,0,0-.48.2l-2,2.17a.57.57,0,0,0,0,.81h0l2.08,2.08a.57.57,0,0,0,.82,0,.6.6,0,0,0,.18-.42v-1H41a.6.6,0,0,0,.6-.58V57.66A.59.59,0,0,0,41,57.1Z" transform="translate(0)" fill="#f68820"/>
            <circle cx="17.12" cy="13.98" r="2.34" fill="#5c76b2"/>
            <circle cx="24.12" cy="13.98" r="2.34" fill="#5c76b2"/>
            <circle cx="31.11" cy="13.98" r="2.34" fill="#5c76b2"/>
        </g>
    </g>
    <g id="Layer_3" data-name="Layer 3">
        <g id="Layer_3-2" data-name="Layer 3-2">
            <path d="M46.54,61.18H34.31V48.37H48.26V59.42a1.74,1.74,0,0,1-1.72,1.76Z" transform="translate(0)" fill="#db9e68"/>
            <path d="M34.31,61.18a3.5,3.5,0,0,1-3.5-3.5V47.27A1.16,1.16,0,0,1,32,46.1h0a2.34,2.34,0,0,1,2.34,2.34h0Z" transform="translate(0)" fill="#eec78e"/>
            <path d="M37.85,48.37H34.31V35a1.75,1.75,0,0,1,3.49,0Z" transform="translate(0)" fill="#eec78e"/>
            <path d="M39.56,51.86a1.75,1.75,0,0,1-1.71-1.75V44.29A1.75,1.75,0,1,1,41.34,44a1.71,1.71,0,0,1,0,.32v5.82a1.75,1.75,0,0,1-1.75,1.75Z" transform="translate(0)" fill="#eec78e"/>
            <path d="M43,53a1.76,1.76,0,0,1-1.74-1.75V46a1.76,1.76,0,0,1,3.5,0v5.24A1.75,1.75,0,0,1,43,53Z" transform="translate(0)" fill="#eec78e"/>
            <path d="M46.54,54.18a1.74,1.74,0,0,1-1.74-1.74h0V47.79a1.75,1.75,0,1,1,3.49-.33h0a1.82,1.82,0,0,1,0,.33v4.65a1.74,1.74,0,0,1-1.74,1.74h0Z" transform="translate(0)" fill="#eec78e"/>
            <path d="M34.31,54.18v7h7A7,7,0,0,0,34.31,54.18Z" transform="translate(0)" fill="#eec78e"/>
            <path d="M34.31,61.18h7v3.49h-7Z" transform="translate(0)" fill="#eec78e"/>
            <path d="M41.3,61.18h5.24v3.49H41.3Z" transform="translate(0)" fill="#db9e68"/>
            <circle cx="39.56" cy="50.11" r="1.16" fill="#db9e68"/>
            <circle cx="43.06" cy="51.27" r="1.16" fill="#db9e68"/>
            <circle cx="46.55" cy="52.43" r="1.16" fill="#db9e68"/>
            <path d="M30.81,47.19v2.34h2.34A2.34,2.34,0,0,0,30.81,47.19Z" transform="translate(0)" fill="#db9e68"/>
            <path d="M34.31,64.67h7V67h-7Z" transform="translate(0)" fill="#dbdee3"/>
            <path d="M41.3,74H32.57V68.17A1.16,1.16,0,0,1,33.72,67H41.3Z" transform="translate(0)" fill="#6fa4d8"/>
            <path d="M48.26,74h-7V67H47.1a1.16,1.16,0,0,1,1.16,1.16h0Z" transform="translate(0)" fill="#5c76b2"/>
            <path d="M41.3,64.67h5.24V67H41.3Z" transform="translate(0)" fill="#b3b4b6"/>
            <circle cx="45.39" cy="70.49" r="1.16" fill="#fbbe18"/>
            <path d="M36.06,39a4.08,4.08,0,1,1,4.08-4.08V35h0A4.09,4.09,0,0,1,36.06,39Zm0-7A3,3,0,1,0,39,35.1V35h0a3,3,0,0,0-2.9-3Z" transform="translate(0)" fill="#6fa4d8"/>
            <circle cx="15.09" cy="43.69" r="13.98" fill="#5f7abc"/>
            <path d="M22.05,42.53a40.1,40.1,0,0,0-.37-4.65h6.1a12.33,12.33,0,0,0-1.36-2.26H21.26a17.77,17.77,0,0,0-1.85-5.14,13.88,13.88,0,0,0-4.32-.81c1.56,0,3,2.29,3.77,5.81H11.31c.84-3.46,2.21-5.81,3.78-5.81a13.64,13.64,0,0,0-4.35.68,18.53,18.53,0,0,0-1.83,5.27H3.75A14.41,14.41,0,0,0,2.38,38h6.1a44,44,0,0,0-.39,4.58H1.16v2.34H8.09a42.83,42.83,0,0,0,.38,4.66H2.38a14.57,14.57,0,0,0,1.35,2.33H8.91A18.45,18.45,0,0,0,10.74,57a14.27,14.27,0,0,0,4.35.68c-1.49,0-3-2.31-3.78-5.82h7.55c-.84,3.51-2.21,5.82-3.77,5.82A14.08,14.08,0,0,0,19.41,57a17.77,17.77,0,0,0,1.85-5.14h5.16a13.9,13.9,0,0,0,1.36-2.33h-6.1a38.19,38.19,0,0,0,.38-4.66h7V42.53Zm-11.2-4.65h8.46a36.19,36.19,0,0,1,.42,4.65H10.44A36.18,36.18,0,0,1,10.85,37.88Zm8.46,11.65H10.85a36.33,36.33,0,0,1-.41-4.66h9.29A36.35,36.35,0,0,1,19.31,49.53Z" transform="translate(0)" fill="#6fa4d8"/>
            <circle cx="30.83" cy="37.86" r="0.58" fill="#6fa4d8"/>
            <circle cx="36.06" cy="29.13" r="0.58" fill="#6fa4d8"/>
            <circle cx="41.89" cy="34.96" r="0.58" fill="#6fa4d8"/>
            <circle cx="45.39" cy="34.96" r="0.58" fill="#6fa4d8"/>
            <circle cx="36.06" cy="25.63" r="0.58" fill="#6fa4d8"/>
            <circle cx="59.36" cy="34.96" r="11.65" fill="#6fa4d8"/>
            <path d="M59.29,35H51.13a1.17,1.17,0,0,1,0-2.33h8.16Z" transform="translate(0)" fill="#55525b"/>
            <path d="M67.44,35H59.29V32.64h8.15A1.19,1.19,0,0,1,67.7,35Z" transform="translate(0)" fill="#353744"/>
            <path d="M54.63,35v2.59a1.17,1.17,0,0,0,.88,1.13l3.78.94,3.85-.94A1.17,1.17,0,0,0,64,37.55V35Z" transform="translate(0)" fill="#55525b"/>
            <path d="M54.63,35v2.3h4.66v2.32l3.85-.94A1.17,1.17,0,0,0,64,37.55V35Z" transform="translate(0)" fill="#353744"/>
            <path d="M66.28,42a.58.58,0,0,0,.58-.58h0V32.64a.58.58,0,0,0-.58-.58h0a.59.59,0,0,0-.58.58v8.75a.58.58,0,0,0,.55.61Z" transform="translate(0)" fill="#f68820"/>
            <path d="M65.7,42h1.16a.58.58,0,0,0,.58-.58h0v-.58a1.16,1.16,0,1,0-2.32,0h0v.58a.58.58,0,0,0,.58.58Z" transform="translate(0)" fill="#fbbe18"/>
            <circle cx="36.14" cy="11.65" r="11.65" fill="#55525b"/>
            <path d="M41.37,10.49A5.25,5.25,0,0,0,31,9.51a5.17,5.17,0,0,0,1.49,4.67,4.47,4.47,0,0,1,1.38,3.09v.21h4.66v-.21a4.33,4.33,0,0,1,1.38-3.09,5.25,5.25,0,0,0,1.49-3.69Z" transform="translate(0)" fill="#fbbe18"/>
            <path d="M35,20.4h2.3a1.16,1.16,0,0,0,1.16-1.16h0V17.48H33.8v1.77A1.16,1.16,0,0,0,35,20.41h0Z" transform="translate(0)" fill="#dbdee3"/>
            <path d="M36.12,17.48h2.34v1.77a1.16,1.16,0,0,1-1.16,1.16H36.12Z" transform="translate(0)" fill="#b3b4b6"/>
            <path d="M36.12,7.87a2.6,2.6,0,0,0-1.49-2.38A5.18,5.18,0,0,0,31.17,9a2.62,2.62,0,0,0,5-1.09Z" transform="translate(0)" fill="#fbd301"/>
            <path d="M36.06,4.09a.58.58,0,0,1-.59-.59h0V2.89a.59.59,0,0,1,.66-.51.58.58,0,0,1,.51.51v.58a.59.59,0,0,1-.56.62h0Z" transform="translate(0)" fill="#fbbe18"/>
            <path d="M30,7.59a.53.53,0,0,1-.3-.09l-.51-.28a.59.59,0,0,1-.21-.8h0a.56.56,0,0,1,.76-.22h0l.51.29a.59.59,0,0,1,.2.81h0A.59.59,0,0,1,30,7.59Z" transform="translate(0)" fill="#fbbe18"/>
            <path d="M29.5,14.86a.53.53,0,0,1-.5-.3.56.56,0,0,1,.16-.76h0l.51-.3a.58.58,0,0,1,.79.22.57.57,0,0,1-.19.78h0l-.51.3A.68.68,0,0,1,29.5,14.86Z" transform="translate(0)" fill="#fbbe18"/>
            <path d="M42.61,14.86a.63.63,0,0,1-.3-.07l-.5-.3a.55.55,0,0,1-.24-.74l0,0h0a.57.57,0,0,1,.77-.23h0l.5.3a.57.57,0,0,1,.22.77h0A.56.56,0,0,1,42.61,14.86Z" transform="translate(0)" fill="#fbbe18"/>
            <path d="M42.1,7.59a.6.6,0,0,1-.29-1.1h0l.49-.29a.58.58,0,0,1,.78.19h0a.58.58,0,0,1-.19.8h0l-.5.28A.7.7,0,0,1,42.1,7.59Z" transform="translate(0)" fill="#fbbe18"/>
            <circle cx="36.06" cy="34.96" r="1.74" fill="#db9e68"/>
        </g>
    </g>
    <g id="Layer_4" data-name="Layer 4">
        <g id="Layer_4-2" data-name="Layer 4-2">
            <path d="M56.77,54.76H15.53L36.11,18.63Zm-37.3-2.32H52.73L36.11,23.33Z" transform="translate(0)" fill="#55525b"/>
            <circle cx="16.9" cy="53.6" r="16.9" fill="#55525b"/>
            <circle cx="36.12" cy="20.4" r="16.9" fill="#55525b"/>
            <circle cx="55.34" cy="53.6" r="16.9" fill="#55525b"/>
            <path d="M44.05,19.25a50,50,0,0,0-.5-6.11h7.79A15.91,15.91,0,0,0,50,10.8H43.11a20.41,20.41,0,0,0-2.49-6.66,16.93,16.93,0,0,0-4.47-.63c1.92,0,3.62,2.89,4.64,7.29H31.48c1-4.46,2.71-7.29,4.63-7.29a16.93,16.93,0,0,0-4.47.63,20.66,20.66,0,0,0-2.5,6.66H22.23a15.91,15.91,0,0,0-1.34,2.34h7.79a50,50,0,0,0-.5,6.11H19.25v2.32h8.93a50.32,50.32,0,0,0,.5,6.13H20.89A16,16,0,0,0,22.23,30h6.89a20.46,20.46,0,0,0,2.49,6.67,17.34,17.34,0,0,0,4.47.62c-1.92,0-3.6-2.88-4.63-7.29h9.37c-1,4.47-2.72,7.29-4.64,7.29a17.2,17.2,0,0,0,4.46-.62A20.26,20.26,0,0,0,43.14,30H50a15.71,15.71,0,0,0,1.34-2.32H43.55a50.32,50.32,0,0,0,.5-6.13h9v-2.3ZM31,13.12H41.2a46.66,46.66,0,0,1,.53,6.13H30.5a47.94,47.94,0,0,1,.5-6.11ZM41.2,27.69H31a48.44,48.44,0,0,1-.53-6.13H41.73A48.44,48.44,0,0,1,41.2,27.69Z" transform="translate(0)" fill="#6fa4d8"/>
            <path d="M17.47,44.29a7,7,0,0,0-7,7h0v14h7.59V62.93h4.08a2.32,2.32,0,0,0,2.32-2.32h0V51.27a7,7,0,0,0-7-7Z" transform="translate(0)" fill="#eec78e"/>
            <path d="M23,58.26a1.49,1.49,0,0,1-1.49-1.49h0V53.6a3,3,0,0,1,3,3v.28A1.49,1.49,0,0,1,23,58.26Z" transform="translate(0)" fill="#db9e68"/>
            <circle cx="19.8" cy="53.01" r="0.58" fill="#55525b"/>
            <circle cx="23.3" cy="53.01" r="0.58" fill="#55525b"/>
            <path d="M18.06,65.25H10.47a2.36,2.36,0,0,1,2.34-2.32h5.25Z" transform="translate(0)" fill="#db9e68"/>
            <path d="M23.3,59.42H19.8A1.16,1.16,0,0,0,21,60.58h1.22A1.16,1.16,0,0,0,23.3,59.42Z" transform="translate(0)" fill="#55525b"/>
            <path d="M23.3,42H15.15a7,7,0,0,0-7.06,6.91v9.46a2.34,2.34,0,0,0,2.37,2.28h2.35a2.34,2.34,0,0,0,2.34-2.34h0v-3.5h.58a1.74,1.74,0,0,0,1.74-1.74V50.69A1.73,1.73,0,0,1,19.22,49H23.3a3.5,3.5,0,0,0,0-7Z" transform="translate(0)" fill="#fbbe18"/>
            <path d="M15.15,53.6a2.34,2.34,0,0,0-.38,4.66,2.41,2.41,0,0,0,.38,0Z" transform="translate(0)" fill="#db9e68"/>
            <path d="M10.47,69.24a17,17,0,0,0,6.42,1.26,16.75,16.75,0,0,0,7.57-1.81A3.5,3.5,0,0,0,21,65.25H10.55Z" transform="translate(0)" fill="#f68820"/>
            <path d="M10.47,65.25a3.53,3.53,0,0,0-3.24,2.2A17.08,17.08,0,0,0,14,70.24V68.75a3.5,3.5,0,0,0-3.49-3.5Z" transform="translate(0)" fill="#fbbe18"/>
            <path d="M61.16,53a5.83,5.83,0,1,0-10.07,4A7.27,7.27,0,0,1,53,62v.41h4.65V62a7.68,7.68,0,0,1,2-5.07A5.7,5.7,0,0,0,61.14,53Z" transform="translate(0)" fill="#fbbe18"/>
            <path d="M55.92,65.83H54.76A1.72,1.72,0,0,1,53,64.13V62.4h4.65v1.75A1.74,1.74,0,0,1,55.92,65.83Z" transform="translate(0)" fill="#b3b4b6"/>
            <path d="M53.62,47.52a6,6,0,0,0-3.87,3.79A2.86,2.86,0,0,0,52.43,53a3,3,0,0,0,1.19-5.5Z" transform="translate(0)" fill="#fbd301"/>
            <path d="M55.34,62.4H53v1.75a1.74,1.74,0,0,0,1.74,1.74h.59Z" transform="translate(0)" fill="#dbdee3"/>
            <path d="M55.34,45.45a1.14,1.14,0,0,1-1.17-1.13v0h0V42a1.17,1.17,0,0,1,2.33,0v2.34A1.16,1.16,0,0,1,55.34,45.45Z" transform="translate(0)" fill="#fbbe18"/>
            <path d="M47.27,50.11a1.19,1.19,0,0,1-.58-.15l-2-1.18a1.16,1.16,0,0,1-.41-1.59h0a1.17,1.17,0,0,1,1.59-.42l2,1.16a1.17,1.17,0,0,1,.42,1.59h0A1.19,1.19,0,0,1,47.27,50.11Z" transform="translate(0)" fill="#fbbe18"/>
            <path d="M45.29,60.6a1.17,1.17,0,0,1-.6-2.17h0l2-1.16a1.17,1.17,0,0,1,1.59.41h0a1.15,1.15,0,0,1-.4,1.57h0l-2,1.18A1.34,1.34,0,0,1,45.29,60.6Z" transform="translate(0)" fill="#fbbe18"/>
            <path d="M65.43,60.6a1.19,1.19,0,0,1-.58-.15l-2-1.18a1.16,1.16,0,0,1,1.09-2.05H64l2,1.16A1.17,1.17,0,0,1,66.47,60l0,0h0A1.22,1.22,0,0,1,65.43,60.6Z" transform="translate(0)" fill="#fbbe18"/>
            <path d="M63.41,50.11a1.17,1.17,0,0,1-.58-2.18l2-1.16a1.18,1.18,0,0,1,1.6.38,1.15,1.15,0,0,1-.36,1.59H66L64,50A1.2,1.2,0,0,1,63.41,50.11Z" transform="translate(0)" fill="#fbbe18"/>
        </g>
    </g>
    <g id="Layer_5" data-name="Layer 5">
        <g id="Layer_5-2" data-name="Layer 5-2">
            <path d="M42.31,20.74H31.48a.58.58,0,0,0-.58.58.59.59,0,0,0,.16.4l1.33,1.34-4.67,4.67-3.84-3.84a1.15,1.15,0,0,0-.82-.34H18.39a1.15,1.15,0,0,0-.82.34L3.5,37.91a1.16,1.16,0,0,0,0,1.64h0L5.92,42a1.2,1.2,0,0,0,.82.35h4.67a1.1,1.1,0,0,0,.82-.35l8.49-8.49,3.84,3.84a1.15,1.15,0,0,0,.82.34h4.67a1.15,1.15,0,0,0,.82-.34l8.73-8.74h3.28a.56.56,0,0,0,.59-.53h0V21.84A1.16,1.16,0,0,0,42.31,20.74Z" transform="translate(0)" fill="#6fa4d8"/>
            <path d="M64.42,30H45.78a4.66,4.66,0,0,0-4.66,4.66v39h28v-39A4.66,4.66,0,0,0,64.46,30h0Z" transform="translate(0)" fill="#5c76b2"/>
            <path d="M50.43,30H45.78a4.66,4.66,0,0,0-4.66,4.66v39h14v-39A4.68,4.68,0,0,0,50.43,30Z" transform="translate(0)" fill="#6fa4d8"/>
            <path d="M50.43,45.72H31.79a4.67,4.67,0,0,0-4.65,4.67v23.3h28V50.39a4.69,4.69,0,0,0-4.71-4.67Z" transform="translate(0)" fill="#353744"/>
            <path d="M36.45,45.72H31.79a4.67,4.67,0,0,0-4.65,4.67v23.3h14V50.39a4.69,4.69,0,0,0-4.69-4.67Z" transform="translate(0)" fill="#55525b"/>
            <path d="M36.45,61.46H17.81a4.66,4.66,0,0,0-4.66,4.65h0v7.58h28V66.11a4.67,4.67,0,0,0-4.69-4.65Z" transform="translate(0)" fill="#5c76b2"/>
            <path d="M22.48,61.46H17.81a4.66,4.66,0,0,0-4.66,4.65h0v7.58h14V66.11a4.66,4.66,0,0,0-4.67-4.65Z" transform="translate(0)" fill="#6fa4d8"/>
            <path d="M56.15,7.69l1.56,3.17a1.15,1.15,0,0,0,.88.64l3.48.51a1.15,1.15,0,0,1,1,1.3v0a1.13,1.13,0,0,1-.33.66l-2.56,2.45a1.19,1.19,0,0,0-.34,1l.6,3.48a1.17,1.17,0,0,1-.94,1.35,1.12,1.12,0,0,1-.74-.11l-3-1.65a1.17,1.17,0,0,0-1.09,0L51.49,22.2a1.17,1.17,0,0,1-1.6-.43,1.2,1.2,0,0,1-.14-.77l.59-3.48a1.15,1.15,0,0,0-.32-1L47.49,14a1.15,1.15,0,0,1,.64-2l3.49-.51a1.15,1.15,0,0,0,.88-.64L54,7.69a1.18,1.18,0,0,1,1.58-.52,1.3,1.3,0,0,1,.52.52Z" transform="translate(0)" fill="#f68820"/>
            <path d="M55.11,5.4A1.14,1.14,0,0,1,54,4.28h0V1.4a1.15,1.15,0,0,1,2.28,0V4.23A1.14,1.14,0,0,1,55.17,5.4h-.06Z" transform="translate(0)" fill="#fbbe18"/>
            <path d="M44.48,13.12a1.93,1.93,0,0,1-.34,0l-2.69-.88a1.13,1.13,0,0,1,.7-2.15h0l2.69.87a1.13,1.13,0,0,1,.76,1.41v.08A1.12,1.12,0,0,1,44.48,13.12Z" transform="translate(0)" fill="#fbbe18"/>
            <path d="M46.88,27.88a1.14,1.14,0,0,1-1.13-1.15,1.1,1.1,0,0,1,.21-.65l1.66-2.29a1.13,1.13,0,0,1,1.83,1.32L47.8,27.4A1.12,1.12,0,0,1,46.88,27.88Z" transform="translate(0)" fill="#fbbe18"/>
            <path d="M63.32,27.88a1.12,1.12,0,0,1-.92-.48l-1.66-2.29A1.12,1.12,0,0,1,61,23.55h0a1.14,1.14,0,0,1,1.59.25l1.66,2.29A1.12,1.12,0,0,1,64,27.64h0A1.19,1.19,0,0,1,63.32,27.88Z" transform="translate(0)" fill="#fbbe18"/>
            <path d="M65.7,13.12a1.13,1.13,0,0,1-.34-2.21L68.05,10a1.13,1.13,0,0,1,.7,2.15h0L66.11,13A1.43,1.43,0,0,1,65.7,13.12Z" transform="translate(0)" fill="#fbbe18"/>
            <path d="M49.75,20.74a15.29,15.29,0,0,0,10.41-9l-1.6-.22a1.15,1.15,0,0,1-.88-.64L56.15,7.69a1.18,1.18,0,0,0-1.59-.51,1.14,1.14,0,0,0-.51.51l-1.49,3.17a1.15,1.15,0,0,1-.88.64L48.2,12a1.15,1.15,0,0,0-1,1.3v0a1.13,1.13,0,0,0,.33.66l2.53,2.45a1.19,1.19,0,0,1,.34,1Z" transform="translate(0)" fill="#fbbe18"/>
            <path d="M55.11,27.05A1.14,1.14,0,0,1,54,25.93h0V24.76a1.15,1.15,0,0,1,2.28,0v1.16a1.14,1.14,0,0,1-1.15,1.13Z" transform="translate(0)" fill="#fbbe18"/>
            <path d="M65.07,19.8a1,1,0,0,1-.35,0l-1.1-.36a1.13,1.13,0,0,1,.69-2.15l1.11.37a1.13,1.13,0,0,1-.35,2.2Z" transform="translate(0)" fill="#fbbe18"/>
            <path d="M60.58,9a1.13,1.13,0,0,1-.67-.18,1.14,1.14,0,0,1-.25-1.58l.68-1a1.13,1.13,0,0,1,1.83,1.32l-.68,1A1.16,1.16,0,0,1,60.58,9Z" transform="translate(0)" fill="#fbbe18"/>
            <path d="M49.62,9a1.16,1.16,0,0,1-.91-.47L48,7.6A1.12,1.12,0,0,1,48.2,6l0,0h0a1.15,1.15,0,0,1,1.59.25l.69,1a1.13,1.13,0,0,1-.22,1.58h0A1.08,1.08,0,0,1,49.62,9Z" transform="translate(0)" fill="#fbbe18"/>
            <path d="M45.12,19.8a1.13,1.13,0,0,1-.34-2.2l1.1-.37a1.11,1.11,0,0,1,1.42.7v0a1.14,1.14,0,0,1-.73,1.43l-1.1.35A1.13,1.13,0,0,1,45.12,19.8Z" transform="translate(0)" fill="#fbbe18"/>
            <path d="M64.48,41.06h.86a.58.58,0,0,0,.59-.55v0a.61.61,0,0,0-.17-.43l-2.84-2.84a1.21,1.21,0,0,0-1.66,0l-2.84,2.86a.58.58,0,0,0,0,.82.55.55,0,0,0,.44.18h.92v5.83a1.16,1.16,0,0,0,1.16,1.16H63.3a1.18,1.18,0,0,0,1.18-1.16Z" transform="translate(0)" fill="#fbbe18"/>
            <path d="M42.31,20.74H36.14a.58.58,0,0,0-.58.58h0a.59.59,0,0,0,.16.4L37,23.06l-6.17,6.17a1.18,1.18,0,0,1-1.65,0l-5.34-5.34a1.16,1.16,0,0,0-1.64,0h0l-14.14,14a1.16,1.16,0,0,0,0,1.64h0L10.52,42a1.16,1.16,0,0,0,1.64,0h0l10-10a1.16,1.16,0,0,1,1.64,0h0l5.34,5.34a1.16,1.16,0,0,0,1.64,0h0L41.06,27.08l1.36,1.34a.58.58,0,0,0,1-.43V21.84A1.15,1.15,0,0,0,42.31,20.74Z" transform="translate(0)" fill="#5c76b2"/>
        </g>
    </g>
    <g id="Layer_6" data-name="Layer 6">
        <g id="Layer_6-2" data-name="Layer 6-2">
            <path d="M65.24,65H4.66A4.67,4.67,0,0,1,0,60.32V13.7A4.67,4.67,0,0,1,4.64,9h60.6a4.69,4.69,0,0,1,4.67,4.67V60.3A4.68,4.68,0,0,1,65.24,65Z" transform="translate(0)" fill="#1c1d28"/>
            <path d="M60.58,65H4.66A4.67,4.67,0,0,1,0,60.32V13.7A4.67,4.67,0,0,1,4.64,9H60.58a4.69,4.69,0,0,1,4.66,4.67V60.3A4.69,4.69,0,0,1,60.58,65Z" transform="translate(0)" fill="#353744"/>
            <path d="M0,18.36H65.24V55.64H0Z" transform="translate(0)" fill="#55525b"/>
            <path d="M65.24,18.36h4.67V55.64H65.24Z" transform="translate(0)" fill="#353744"/>
            <path d="M5.82,62.63a1.16,1.16,0,0,1-1.16-1.16V59.14a1.16,1.16,0,0,1,1.11-1.21h.05A1.18,1.18,0,0,1,7,59.09v2.34a1.16,1.16,0,0,1-1.12,1.2H5.82Z" transform="translate(0)" fill="#dbdee3"/>
            <path d="M10.47,62.63a1.16,1.16,0,0,1-1.16-1.16V59.14a1.18,1.18,0,0,1,1.3-1,1.17,1.17,0,0,1,1,1v2.33a1.16,1.16,0,0,1-1.16,1.16Z" transform="translate(0)" fill="#dbdee3"/>
            <path d="M14,60.3a1.16,1.16,0,0,1,1.16-1.16h46a1.17,1.17,0,0,1,.26,2.33H15.15A1.18,1.18,0,0,1,14,60.3Z" transform="translate(0)" fill="#dbdee3"/>
            <path d="M51.24,57.4a3,3,0,0,0-2.68,1.74H15.15a1.17,1.17,0,1,0-.27,2.33H48.59a3,3,0,1,0,2.65-4.07Z" transform="translate(0)" fill="#6fa4d8"/>
            <circle cx="60" cy="13.69" r="2.34" fill="#dbdee3"/>
            <circle cx="53.6" cy="13.69" r="2.34" fill="#dbdee3"/>
            <circle cx="47.19" cy="13.69" r="2.34" fill="#dbdee3"/>
            <path d="M67.6,23H62.92a4.66,4.66,0,0,1,4.68,4.64h0V46.33A4.65,4.65,0,0,1,63,51h4.6a4.66,4.66,0,0,0,4.66-4.65h0V27.69A4.66,4.66,0,0,0,67.63,23Z" transform="translate(0)" fill="#f68820"/>
            <path d="M62.92,23H25.29a.57.57,0,0,0-.59.55h0a.63.63,0,0,0,.17.43l5.42,5.42v16.9A4.66,4.66,0,0,0,34.92,51H63a4.64,4.64,0,0,0,4.68-4.6V27.69A4.67,4.67,0,0,0,63,23h-.11Z" transform="translate(0)" fill="#fbbe18"/>
            <path d="M35,39.34a1.15,1.15,0,0,1,1.12-1.18h25a1.18,1.18,0,0,1,.26,2.34H36.11A1.16,1.16,0,0,1,35,39.34Z" transform="translate(0)" fill="#dbdee3"/>
            <path d="M39.6,28.85a1.18,1.18,0,0,1,1.18-1.16H61.16a1.16,1.16,0,1,1,0,2.32H40.82a1.18,1.18,0,0,1-1.22-1.13Z" transform="translate(0)" fill="#dbdee3"/>
            <path d="M35,34.13A1.17,1.17,0,0,1,36.11,33h25a1.17,1.17,0,0,1,.26,2.33,1.13,1.13,0,0,1-.26,0h-25A1.16,1.16,0,0,1,35,34.14Z" transform="translate(0)" fill="#dbdee3"/>
            <path d="M35,44.54a1.16,1.16,0,0,1,1.16-1.16h25a1.16,1.16,0,1,1,0,2.32h-25A1.16,1.16,0,0,1,35,44.54Z" transform="translate(0)" fill="#dbdee3"/>
            <path d="M13.39,27.69a7,7,0,0,0-7,7h0v14H14V46.33h4a2.32,2.32,0,0,0,2.38-2.26V34.66a7,7,0,0,0-7-7Z" transform="translate(0)" fill="#eec78e"/>
            <path d="M11.65,32.34H7a2.32,2.32,0,0,0-2.33,2.31h0v7A2.33,2.33,0,0,0,7,44H9.31a2.33,2.33,0,0,0,2.34-2.32h0v-3.5h.58A1.73,1.73,0,0,0,14,36.5V34.66a2.32,2.32,0,0,0-2.32-2.32Z" transform="translate(0)" fill="#dbdee3"/>
            <path d="M11.65,37a2.34,2.34,0,1,0-.59,4.64l.22,0a2.29,2.29,0,0,0,.37,0Z" transform="translate(0)" fill="#db9e68"/>
            <path d="M18.92,41.66a1.49,1.49,0,0,1-1.48-1.49V37a3,3,0,0,1,3,3v.28A1.5,1.5,0,0,1,18.92,41.66Z" transform="translate(0)" fill="#db9e68"/>
            <circle cx="15.73" cy="36.4" r="0.58" fill="#55525b"/>
            <circle cx="19.22" cy="36.4" r="0.58" fill="#55525b"/>
            <path d="M14,48.65H6.4a2.32,2.32,0,0,1,2.32-2.32H14Z" transform="translate(0)" fill="#db9e68"/>
            <path d="M18.64,42.83H16.31a.56.56,0,0,0-.58.54h0a.58.58,0,0,0,.58.58h2.33a.59.59,0,0,0,.58-.58A.58.58,0,0,0,18.64,42.83Z" transform="translate(0)" fill="#55525b"/>
            <path d="M20.38,55.64H2.9V52.15a3.5,3.5,0,0,1,3.5-3.5H16.89a3.49,3.49,0,0,1,3.49,3.49h0Z" transform="translate(0)" fill="#f68820"/>
            <path d="M6.4,48.65a3.5,3.5,0,0,0-3.5,3.5v3.49h7V52.15a3.49,3.49,0,0,0-3.48-3.5h0Z" transform="translate(0)" fill="#fbbe18"/>
            <path d="M25,55.64H23.3V47.19a.88.88,0,0,1,1-.76h0a.89.89,0,0,1,.76.76Z" transform="translate(0)" fill="#eec78e"/>
            <path d="M29.41,54.48a.87.87,0,0,1-.88-.88h0a.88.88,0,0,1-.74,1h0a.88.88,0,0,1-1-.74,1.13,1.13,0,0,1,0-.26.86.86,0,0,1-.84.88h0a.87.87,0,0,1-.94-.8V53.6h0v2h4.67V54.42A1.1,1.1,0,0,1,29.41,54.48Z" transform="translate(0)" fill="#db9e68"/>
            <path d="M26,54.48a.87.87,0,0,1-.88-.86v0h0V51.86A.88.88,0,0,1,26,51h0a.87.87,0,0,1,.87.85V53.6a.86.86,0,0,1-.84.88h0Z" transform="translate(0)" fill="#eec78e"/>
            <path d="M27.67,54.48a.86.86,0,0,1-.88-.85V51.86a.88.88,0,0,1,.74-1,.87.87,0,0,1,1,.74,1.13,1.13,0,0,1,0,.26V53.6a.86.86,0,0,1-.84.88h0Z" transform="translate(0)" fill="#eec78e"/>
            <path d="M29.41,54.48a.87.87,0,0,1-.88-.88h0v-.87a.89.89,0,0,1,.88-.87.86.86,0,0,1,.88.84h0v.89a.86.86,0,0,1-.84.88h0Z" transform="translate(0)" fill="#eec78e"/>
        </g>
    </g>
</svg>