<?xml version="1.0" encoding="utf-8"?>
<svg version="1.1" id="Capa_1" xmlns="http://www.w3.org/2000/svg" xmlns:xlink="http://www.w3.org/1999/xlink" x="0px" y="0px"
	viewBox="0 0 24 24" style="enable-background:new 0 0 512 512;" xml:space="preserve">
<defs></defs><title>fonticons</title>
    <g id="Layer_1" data-name="Layer 1">
        <path d="M20,2H4A2,2,0,0,0,2,4V22l4-4H20a2,2,0,0,0,2-2V4A2,2,0,0,0,20,2ZM5,14,8.5,9.5l2.5,3L14.5,8,19,14Z"/>
    </g>
    <g id="Layer_2" data-name="Layer 2">
        <path d="M22.73,19l-9.1-9.1A6.42,6.42,0,0,0,12.13,3a6.61,6.61,0,0,0-7.4-1.3L9,6,6,9l-4.4-4.3a6.44,6.44,0,0,0,1.3,7.4,6.42,6.42,0,0,0,6.9,1.5l9.1,9.1a1,1,0,0,0,1.4,0l2.3-2.3A.9.9,0,0,0,22.73,19Z"/>
    </g>
    <g id="Layer_3" data-name="Layer 3">
        <path d="M21.41,11.58l-9-9A2,2,0,0,0,11,2H4A2,2,0,0,0,2,4v7a2,2,0,0,0,.59,1.42l9,9A2,2,0,0,0,13,22a2,2,0,0,0,1.41-.59l7-7A2,2,0,0,0,22,13,2,2,0,0,0,21.41,11.58ZM5.5,7A1.5,1.5,0,1,1,7,5.5,1.5,1.5,0,0,1,5.5,7Z"/>
    </g>
    <g id="Layer_4" data-name="Layer 4">
        <path d="M10,19.5v-6h4v6h5v-8h3l-10-9-10,9H5v8Z"/>
    </g>
</svg>