<?xml version="1.0" encoding="utf-8"?>
<!-- Generator: Adobe Illustrator 22.1.0, SVG Export Plug-In . SVG Version: 6.00 Build 0)  -->
<svg version="1.1" id="Layer_1" xmlns="http://www.w3.org/2000/svg" xmlns:xlink="http://www.w3.org/1999/xlink" x="0px" y="0px"
	 viewBox="0 0 2411.4 68.3" enable-background="new 0 0 2411.4 68.3" xml:space="preserve">
<g id="layer1">
	<path d="M51.4,111.3c-1.3-0.2-2.7-0.4-4-0.4c-0.7,0-1.3-0.1-2-0.2c-1.8-0.4-3.6-0.8-5.4-0.6c-0.3,0-0.6,0-0.9,0
		c-2.3-0.2-4.6-0.8-6.8-1.3c-0.8-0.2-1.7-0.5-2.5-0.2c-1.8,0.6-3.7,1.3-5.5,1.9c-1.7,0.6-3.4,1.3-5.1,2.1c-0.8,0.3-0.9,0.2-1.1-0.5
		c-0.2-0.5-0.6-0.7-1-0.4c-0.2,0.1-0.2,0.3-0.2,0.5c-0.1,0.7-0.2,1.3-0.3,2c0,0.2,0,0.4,0.2,0.4c0.2,0.1,0.4-0.1,0.4-0.2
		c0.2-0.5,0.6-0.7,1.1-0.8c3.2-1.1,6.4-2.3,9.5-3.5c1.5-0.6,2.9-0.7,4.4-0.4c2.7,0.6,5.5,1.1,8.3,1.3c0.2,0,0.4,0,0.5,0.2
		c0.2,0.2,0.4,0.2,0.6-0.1c0.2-0.2,0.3-0.2,0.4,0c0.1,0.2,0.4,0.3,0.6,0.1c0.3-0.3,0.4-0.2,0.6,0.1c0.1,0.2,0.3,0.3,0.4,0.1
		c0.4-0.4,0.8-0.3,1.2-0.1c0.8,0.3,1.6,0.6,2.5,0.3c0.2-0.1,0.5,0,0.8,0c0.3,0,0.6,0.1,0.8,0.4c0.3,0.5,0.7,0.7,1.2,0.7
		c0.3,0,0.5,0.1,0.8,0.1c0.1,0,0.3,0,0.3,0.1c0,0.1-0.1,0.2-0.2,0.2c-0.4,0.2-0.9,0.2-1.3,0.2c-0.8-0.1-1.6-0.1-2.5-0.2
		c-0.4-0.1-0.7-0.1-1.1,0c-1,0.3-2,0.2-3-0.1c-0.4-0.1-0.8-0.1-1.1,0c-1,0.3-2,0.3-3-0.1c-0.5-0.2-0.9-0.2-1.4,0
		c-1.6,0.6-3.3,0.6-5,0.2c-0.8-0.2-0.8-0.2-1,0.6c0,0.1-0.1,0.1-0.1,0.2c-0.2,0.4-0.4,0.5-0.8,0.3c-0.3-0.1-0.5-0.4-0.8-0.6
		c-0.4-0.3-0.4-0.3-0.5,0.2c0,0.3-0.1,0.6-0.1,0.9c-0.2,0.9-0.7,1.1-1.5,0.8c-0.6-0.2-1.1-0.5-1.7-0.7c-0.2-0.1-0.5-0.2-0.6,0.2
		c-0.1,0.3,0.2,0.4,0.4,0.5c0.7,0.4,1.5,0.7,2.1,1.3c1.4,1.6,3.3,2,5.3,2.4c0.1,0,0.3,0,0.4,0c0.7-0.2,1.5-0.3,2.2-0.1
		c1.2,0.2,2.4,0.6,3.4,1.4c0.1,0.1,0.2,0.1,0.2,0.3c-0.1,0.2-0.2,0.1-0.3,0c-0.6-0.1-1.2,0-1.7,0.1c-0.6,0.1-1,0.6-1,1.3
		c0,0.3,0,0.7,0.2,1c0,0.1,0.1,0.2,0,0.3c0,0-0.1,0-0.2,0c-0.7-0.5-1.5-0.6-2.2-1c-1.3-0.6-2.7-0.5-4-0.5c-1.2,0-2.2-0.1-3.2-0.8
		c-0.3-0.2-0.4-0.1-0.5,0.1c-0.1,0.2-0.2,0.3-0.2,0.5c-0.1,0.5-0.5,0.7-0.9,0.8c-0.7,0.1-1.5,0.2-2.2,0.1c-1.3-0.1-2.5-0.4-3.8-0.6
		c-0.7-0.1-1.2-0.5-1.3-1.2c-0.1-0.2-0.1-0.4-0.2-0.5c-0.3-1.1-0.5-2.1-0.6-3.2c0-0.3-0.1-0.6-0.4-0.7c-0.3,0-0.3,0.3-0.4,0.6
		c-0.4,1.5-0.3,3.1-0.4,4.6c0,0.9,0,1.8,0.1,2.8c0.1,0.9,0.2,1.8,0.5,2.7c0.1,0.2,0.1,0.4,0.3,0.4c0.2,0,0.4-0.1,0.5-0.3
		c0.1-0.2,0.1-0.3,0.1-0.5c0.1-0.4,0.1-0.9,0.1-1.3c0-0.5,0.2-0.6,0.6-0.4c0.6,0.3,1.1,0.7,1.7,1c1.2,0.8,2.5,1.1,3.9,0.9
		c1.2-0.2,2.2-0.8,3.2-1.6c0.2-0.2,0.3-0.2,0.5,0c0.5,0.9,1.2,1.1,2.1,0.9c0.3-0.1,0.4,0,0.5,0.3c0.5,1.3,1,1.4,2.1,0.7
		c0.2-0.1,0.3-0.2,0.5-0.3c0.5-0.4,1-0.6,1.6-0.7c0.6-0.1,1-0.4,1.4-0.8c0.7-0.8,1.6-1.1,2.6-1c0.4,0.1,0.9,0.1,1.3-0.1
		c1-0.3,1.4-1,1.3-2c-0.1-0.7-0.3-1.3-0.6-1.9c-0.2-0.5-0.5-0.9-0.5-1.4c-0.1-0.5-0.3-0.9-0.6-1.3c-0.4-0.5-0.8-1.1-1.2-1.6
		c-0.1-0.2-0.2-0.3,0.1-0.4c1.6-0.2,3.2-0.6,4.8-0.5c0.8,0,1.7,0.2,2.5,0.1c1-0.1,1.9-0.1,2.9,0c1.1,0.1,2.1-0.2,3-0.6
		c0.5-0.2,0.8-0.6,1-1C52.7,112.3,52.5,111.5,51.4,111.3z M40.4,122.2c0,0.7-0.6,1.4-1.5,1.5c-0.8,0.1-1.8-0.6-1.9-1.4
		c-0.1-0.5,0.3-1,0.9-1.2c0.3-0.1,0.6-0.1,0.9-0.1C39.7,121,40.3,121.5,40.4,122.2z M51.4,112.2c-0.6,0.2-1.1,0-1.6-0.1
		c-0.2-0.1-0.1-0.3,0.1-0.3c0.2-0.1,0.4,0,0.8,0c0.2,0,0.5,0.1,0.8,0.1c0.1,0,0.2,0.1,0.2,0.2C51.6,112.1,51.5,112.2,51.4,112.2z"/>
	<path d="M15.7,127.1c-0.7,0.1-1.3,0.2-2,0.3c-0.5,0-0.8-0.1-0.9-0.7c0-0.2-0.1-0.3-0.1-0.5c-0.1-1.6-0.3-3.1-0.2-4.3
		c0-2.4,0.2-4.4,0.4-6.4c0.1-0.8,0.2-1.7,0.3-2.5c0.1-0.8,0.6-1.1,1.4-1c0.3,0,0.7,0.1,1,0.2c0.2,0,0.5,0,0.7,0
		c0.2,0,0.4-0.2,0.4-0.4c0-0.3-0.2-0.3-0.4-0.3c-0.3,0-0.6,0-1-0.1c-0.2,0-0.4-0.1-0.6-0.3c-0.8-1-2-1.2-3.1-0.5
		c-0.4,0.2-0.7,0.3-1.2,0.2c-0.4-0.1-0.8-0.2-1.1,0c-0.7,0.2-1.4,0.2-2.1,0c-0.3-0.1-0.7-0.1-1-0.2c-0.8-0.1-1.1,0.2-1,1
		c0,1.4-0.1,2.7,0.1,4.1c0.1,1-0.1,2-0.1,3c-0.1,2.1-0.2,4.1-0.1,6.2c0.1,0.8,0.1,1.5,0,2.3c-0.1,1.2-0.4,2.4-0.4,3.6
		c0,0.6,0.2,0.8,0.8,0.8c1.5,0,3-0.4,4.5-0.6c0.7-0.1,1.4-0.1,2.1,0.2c1,0.5,1.7,0.1,1.8-1c0.1-0.5,0.1-1,0.1-1.5
		c0-0.5,0.2-0.7,0.7-0.7c0.4,0,0.7-0.1,1.1-0.1c0.3,0,0.5-0.2,0.4-0.5C16.2,127.1,16,127.1,15.7,127.1z"/>
	<path d="M38,121.9c0-0.1,0.1-0.4-0.2-0.4c-0.2,0-0.3,0.1-0.4,0.3c-0.2,0.3-0.1,0.6,0,0.8c0.3,0.5,0.8,0.7,1.4,0.7
		c0.2,0,0.4,0,0.6-0.2c0.1-0.1,0.3-0.1,0.3-0.3c0-0.2-0.2-0.1-0.3-0.2c-0.3-0.1-0.5-0.1-0.8-0.1C38.3,122.5,38.1,122.3,38,121.9z"/>

	<path d="M27,1.4c3.4-0.1,6.8-0.2,10.2-0.3c2.5,0,5,0,7.5,0c3-0.1,6-0.3,9-0.7c-0.5,0-1-0.1-1.5-0.1C50.1,0.2,48,0.1,45.9,0
		c-0.2,0-0.4,0-0.5,0c-0.6,0.1-1.1,0.2-1.7,0.2c-3.3,0.1-6.5,0.2-9.8,0.3c-1.7,0-3.3,0-5,0c-2,0.1-4.1,0.3-6.1,0.7
		c1,0.1,2,0.1,3,0.2C26.1,1.5,26.6,1.4,27,1.4z"/>
	<path d="M10.7,2.3c1.3-0.2,2.7-0.1,4-0.2c1.6-0.1,3.1-0.4,4.7-0.5c0-0.1,0-0.2-0.1-0.4C13.5,0.7,8,2.1,2.5,3.5
		c0,0.2,0.1,0.3,0.1,0.5C5.3,3.4,8,2.8,10.7,2.3z"/>
	<path d="M58.9,29.9c0-0.2,0.6-0.4,0.7-0.5c-1-1.3-2.1-2.6-3.2-4c-0.1,0-0.1,0-0.2,0c0.4,1.1,0.8,2.3,1.2,3.4
		c-0.1,0-0.2,0.1-0.4,0.1c-0.7-0.9-1.4-1.9-2.1-2.8c-0.1,0-0.1,0.1-0.2,0.1c0.6,1.3,1.2,2.6,1.9,3.9c0.3,0.1,0.7,0.2,1,0.3
		C58.2,30.7,58.9,31.1,58.9,29.9z"/>
	<path d="M36.5,39.3c0.7-0.7,0.7-0.7-0.2-1.8c0.3-0.2,0.6-0.3,1-0.5c0.2,0.9,0.3,1.7,0.4,2.5c0.1,0,0.2,0,0.3,0
		c0.1-1.1,0.2-2.2,0.2-3.4c-0.7,0.1-1.2,0.2-1.9,0.3c0-0.7,0-1.3,0-1.9C35.5,36,35.6,38.1,36.5,39.3z"/>
	<path d="M56.7,30.2C56.7,30.2,56.7,30.2,56.7,30.2C56.7,30.2,56.7,30.2,56.7,30.2C56.7,30.2,56.7,30.2,56.7,30.2L56.7,30.2
		C56.7,30.2,56.6,30.2,56.7,30.2C56.7,30.2,56.7,30.2,56.7,30.2C56.7,30.2,56.7,30.2,56.7,30.2L56.7,30.2z"/>
	<path d="M57.8,31.6c-0.4-0.5-0.8-1-1.2-1.4c-0.9-0.8-1.8-1.6-2.6-2.4C54.2,29.6,55.8,31.3,57.8,31.6z"/>
	<path d="M53,38.8c-0.1,0.4-0.1,0.8-0.2,1.3c-0.5-0.3-0.9-0.5-1.6-0.8c0.5,0.8,0.7,1.3,1.1,1.7c0.3,0.3,0.7,0.3,1.1,0.5
		c-0.1-0.4-0.1-0.7-0.2-1.3c0.1-0.2,0.4-0.5,0.7-0.9C53.5,39.1,53.3,39,53,38.8z"/>
	<path d="M47.4,14.7c-1.5,0.3-3,0.7-4.4,1c0,0.2,0.1,0.4,0.1,0.6c1.5-0.4,3-0.8,4.4-1.2C47.5,15,47.5,14.8,47.4,14.7z"/>
	<path d="M35.9,17.2c-1.4,1.1-2.8,2.3-4.2,3.4c0.1,0.1,0.2,0.2,0.3,0.3c1.4-1.1,2.8-2.3,4.2-3.4C36,17.4,35.9,17.3,35.9,17.2z"/>
	<path d="M69.8,43.9c-1-0.4-2-0.9-3.1-1.4C67.5,44,68.7,44.5,69.8,43.9z"/>
	<path d="M17.6,9.7c0.2,0,0.3,0,0.5-0.1c-0.2-1-0.5-2.1-0.7-3.1C17.1,7.6,17,8.7,17.6,9.7z"/>
	<path d="M53.3,31c0.1-0.1,0.3-0.2,0.4-0.4c-0.8-0.6-1.6-1.1-2.2-1.6C51.7,29.9,52.1,30.8,53.3,31z"/>
	<path d="M82.4,25.8c-1.3,0.4-2.5,0.8-4.1,1.2c2.1,1,9.6-3.4,10.6-6.2c-2.2,1.5-4.1,2.9-6,4.3c-0.1-0.1-0.2-0.2-0.3-0.4
		c0.6-1.5,2.3-1.8,3.3-2.9c1-1.1,2.1-2.1,3.2-3.2c-0.1-0.1-0.2-0.2-0.3-0.3c-1.2,1-2.5,2-3.7,3.1c-0.9,0.7-1.6,1.5-2.5,2.2
		c-0.5,0.4-1.3,0.8-1.7-0.3c-0.1-0.1-0.5-0.3-0.7-0.2c-1.3,0.5-2.6,1-3.7,1.5c0.4,0.7,0.7,1.3,1.1,1.7c0.2,0.2,0.6,0.2,0.9,0.1
		c0.6-0.1,1.1-0.3,1.7-0.8c-0.5-0.2-1-0.4-1.4-0.6C79.6,24.4,81,24.7,82.4,25.8z"/>
	<path d="M89.7,27.1c-1.8,1-3.8,1.7-5.8,2.5c-0.7,0.3-1.5,0.4-2.2,0.5c0.3,0.9,0.8,1,1.6,0.8c2.8-0.9,5.5-1.8,7.8-3.8
		c1.1-0.9,2.4-1.6,3.5-2.4c0.5-0.4,0.9-1,1.3-1.4c0.9-0.9,1.8-1.8,2.7-2.7c-0.1-0.1-0.2-0.3-0.2-0.4c-0.4,0.2-0.9,0.4-1.3,0.7
		c-0.6,0.5-1.2,1.1-1.9,1.6c-0.8,0.7-1.8,1.2-2.6,1.9C91.6,25.4,90.8,26.5,89.7,27.1z"/>
	<path d="M84.5,17.9c-2.6,1.2-4.3,4.1-7.3,4.7c1.5-1.2,3-2.5,4.6-3.7c-0.1-0.1-0.1-0.2-0.2-0.3c-2.1,1.1-4.2,2.3-6.4,3.6
		c0.4,0.5,0.9,1.1,1.6,1.8C80,23.1,82.5,20.8,84.5,17.9z"/>
	<path d="M83.4,29.3c4.8-1.5,8.2-4.9,11.5-8.5c-4.6,3.1-8.8,7-14.8,8.4C81.5,30.4,82.5,29.6,83.4,29.3z"/>
	<path d="M87.6,24.8c-0.5,0-1-0.1-1.4,0c-0.8,0.4-1.5,0.9-2.3,1.3c-1.4,0.7-2.8,1.3-4.2,2C82.9,28.6,85.2,26.6,87.6,24.8z"/>
	<path d="M81.4,23c0.1,0.1,0.3,0.2,0.4,0.4c1.5-1.4,3-2.7,4.6-4.3C84.6,19,81.3,21.7,81.4,23z"/>
	<path d="M99.3,27.6c0.8-0.8,1.7-1.6,2.5-2.5c0.1-0.1,0.2-0.4,0.3-0.6c-0.1-0.1-0.2-0.2-0.3-0.4c-1.5,1.2-3,2.4-4.7,3.7
		C98,28.4,98.7,28.2,99.3,27.6z"/>
	<path d="M98.5,29.8c2.2-0.3,2.9-2.5,4.5-3.6c-0.1-0.2-0.3-0.3-0.4-0.5c-1.4,1.3-2.9,2.5-4.3,3.8C98.4,29.6,98.4,29.7,98.5,29.8z"/>
	<path d="M91.9,21.6c-0.1-0.2-0.2-0.4-0.3-0.6c-1.4,1-2.9,1.9-4.3,2.9C89.6,24.5,90.4,22.4,91.9,21.6z"/>
	<path d="M108.2,24.8c-1.1,1.1-2.2,2.1-3.3,3.2C105.7,28.7,107.8,26.9,108.2,24.8z"/>
	<path d="M110.8,24.7c-0.1-0.1-0.3-0.3-0.4-0.4c-0.9,1.2-1.8,2.4-2.9,3.9C109.9,27.8,109.5,25.5,110.8,24.7z"/>
	<path d="M105.2,30.2c0.1,0.2,0.2,0.3,0.3,0.5c1.3,0.2,1.7-1.2,2.4-1.8c-0.1-0.1-0.2-0.3-0.3-0.4C106.8,29,106,29.6,105.2,30.2z"/>
	<path d="M93.6,26.4c0.1,0.2,0.2,0.3,0.3,0.5c0.7-0.4,1.4-0.8,2.1-1.3c-0.2-0.2-0.3-0.4-0.5-0.6C95,25.4,94.3,25.9,93.6,26.4z"/>
	<path d="M97.2,26.5c0.7-0.4,1.4-0.9,2-1.3c-0.1-0.2-0.3-0.3-0.4-0.5c-0.7,0.4-1.3,0.9-2,1.3C96.9,26.2,97,26.4,97.2,26.5z"/>
	<path d="M119.8,56.8c-0.8,0-2.1-0.1-2.5,1.2c-0.3,1.1-0.8,2.1-1.2,3.2c0.2,1.3,0.4,2.3,1.8,2.9c1.3,0.5,2.1,0,2.9-0.8
		c0.3-0.3,0.4-1,0.5-1.5c0-0.1,0-0.3,0-0.3c1.5-0.9,0.4-2.1,0.3-3.1C121.6,57.8,120.5,56.8,119.8,56.8z M121,61.6
		c-0.8-1-1.3-1.7-1.9-2.6c1-0.4,1.6,0.2,2,0.9C121.3,60.2,121.1,60.8,121,61.6z"/>
	<path d="M124.4,46.8c0.1,0,0.2,0,0.3,0c0.1-2.1,0.2-4.2,0.4-6.3c-0.2,0-0.4,0-0.6,0C124.4,42.6,124.4,44.7,124.4,46.8z"/>
	<path d="M122.2,23.3c0.5,2.9,0.9,5.4,1.4,7.9C124.1,30.4,123.3,25.4,122.2,23.3z"/>
	<path d="M124.8,39.9c-0.1-1.8-0.3-3.5-0.4-5.3c-0.1,0-0.3,0-0.4,0c0.1,1.8,0.2,3.5,0.3,5.3C124.5,39.9,124.7,39.9,124.8,39.9z"/>
	<path d="M123.6,51.6c0.2,0,0.4,0,0.6,0.1c0.2-1.2,0.3-2.5,0.5-3.7c-0.2,0-0.4-0.1-0.7-0.1C123.9,49.1,123.7,50.3,123.6,51.6z"/>
	<path d="M2411.4,5.1H134.3c-15.3,0-23,2.8-25.6,5.8c-0.2,0.2,0,0.8,0,1.2c-1.6-0.7-0.9,1.6-1.5,1.7c-2.9-1.4-5.5-2.7-8.1-3.9
		C95,8,90.9,6.2,86.7,4.5C85.9,4.2,85,4.2,84.2,4c-0.2-0.2-0.5-0.6-0.9-0.7c-1.4-0.5-2.8-0.8-4.1-1.2c-1.8-0.6-3.6-1.4-5.5-2.1
		c-3.1,0-6.3,0-9.4,0c-1.6,0.1-3.2,0.3-4.8,0.4c0,0.1,0,0.3,0,0.4c2,0.1,4.1,0.4,6.1,0.2C67,0.9,67,0.6,67.4,1.3
		c-0.3,0.2-0.9,0.3-1,0.6c-0.4,1.2-1,2.3-2.6,2.2c-0.1-0.2-0.2-0.6-0.3-1c-2.4-0.3-1.9,2.1-3,3c0.1-0.6,0.3-1.3,0.4-1.9
		C60.8,4.1,60.6,4,60.5,4c-0.3,0.5-0.5,1-0.8,1.5c-0.2-0.3-0.4-0.6-0.8-1.1c-0.2,0.5-0.4,0.8-0.5,1.1c-0.1-0.1-0.1-0.2-0.2-0.3
		c-0.4,0.2-1,0.2-1.1,0.5c-0.2,0.5,0,1,0,1.5c-0.8-0.3-1.5-0.6-2.4-0.9c0,0.8,0,1.5,0,2.1c-0.1,0-0.2,0-0.2,0
		c-0.2-0.4-0.4-0.8-0.7-1.5c-0.3,0.5-0.6,0.9-1,1.5c-0.2-0.6-0.4-1-0.8-1.8c-0.1,0.9-0.2,1.6-0.3,2.3c-0.4-0.2-0.7-0.4-1.1-0.6
		c-0.2,0.4-0.3,0.7-0.5,1.3c-0.2-0.9-0.4-1.6-0.7-2.3c-0.1,0-0.2,0-0.3,0c0,1,0,2,0,3c-0.1,0-0.1,0-0.2,0c-0.3-0.7-0.6-1.4-0.8-2.1
		c-0.1,0-0.2,0-0.3,0.1c0,0.6,0.1,1.1,0.1,1.7c-0.2,0-0.3,0.1-0.5,0.1c-0.3-0.9-0.6-1.8-1-3c-0.1,1.1-0.1,2-0.2,3.1
		c-0.3-0.5-0.6-0.8-1-1.3c-0.1,0.6-0.1,1.1-0.2,1.8c-0.4-0.5-0.6-0.8-0.8-1.1c-0.7,0.7-0.7,0.7,0.2,1.6c-0.6,0.2-0.6,0.2-2.2-2.6
		c0.2,1.1,0.5,2.1,0.7,3.2c-0.2,0-0.3,0.1-0.5,0.1c-0.3-0.8-0.6-1.7-1-2.5c-0.1,0-0.2,0-0.2,0c0,0.6,0,1.2,0,2.2
		c-0.6-1.2-0.9-2-1.3-2.8c-0.1,0-0.2,0-0.3,0.1c0.1,0.6,0.1,1.3,0.2,1.9c-0.1,0-0.1,0-0.2,0.1c-0.3-0.5-0.7-1.1-1-1.6
		c-0.1,0-0.2,0-0.3,0.1c0.1,0.7,0.2,1.4,0.3,2.1c-0.1,0-0.2,0.1-0.3,0.1c-0.4-0.8-0.7-1.7-1.1-2.5c-0.1,0-0.2,0-0.3,0
		c0,0.5-0.1,1-0.1,1.7c-0.5-0.7-0.8-1.2-1.2-1.7c-0.1,0-0.1,0.1-0.2,0.1c0.1,0.5,0.1,1,0.3,1.8c-0.5-0.4-0.8-0.6-1.1-0.8
		c0,0.3,0,0.7,0,1c-0.1,0-0.2,0.1-0.2,0.1c-0.5-1.2-1-2.3-1.5-3.5c-0.1,0-0.1,0-0.2,0c0.1,1,0.3,2,0.4,3c-0.9,0.5-0.3-2.4-1.8-0.6
		c-0.4-0.9-0.8-1.8-1.1-2.6c-0.1,0-0.2,0-0.4,0c-0.1,0.6-0.2,1.2-0.2,1.7c-0.8,0.4-1.4,0.8-2.2,1.2c-0.2-0.3-0.4-0.6-0.6-0.9
		c-0.6,0.3-1.1,0.5-1.6,0.8c0.3,0.4,0.7,0.8,1,1.2c-0.6,0.3-0.6,0.3-1.2-0.5c-0.3-0.5-0.7-1-1-1.5c-0.1,0-0.2,0.1-0.4,0.1
		c0.2,0.6,0.3,1.1,0.5,1.7c-0.8,0.2-0.9-2.2-2-0.5c-0.3-0.4-0.5-0.7-0.8-1.1c-0.3,0.2-0.6,0.3-0.9,0.5c-0.3-0.4-0.6-0.7-0.9-1.1
		c-0.3,0.4-0.5,0.9-0.9,1c-0.8,0.3-1.5,0.1-1.7-0.9c-0.2-1-0.4-1.9-0.6-3.2c-1.1,1.2-0.1,2.5-1,4c-0.2-0.7-0.3-1.3-0.5-1.8
		c-0.2,0.2-0.4,0.3-0.5,0.5c0.1,0.6,0.2,1.2,0.4,2.1c-0.6-0.6-0.9-0.9-1.3-1.3c-0.3,0.3-0.5,0.5-0.9,0.8c-0.2-0.5-0.3-0.8-0.6-1.5
		c-0.3,0.9-0.6,1.5-0.8,2c-0.1,0-0.2-0.1-0.3-0.1c-0.1-0.5-0.2-1.1-0.3-1.6c-0.2,0-0.3,0-0.5,0c0,0.3-0.1,0.7-0.1,1.3
		C9.3,10,8.9,9.5,8.4,8.6c-0.1,0.7-0.1,1.1-0.1,1.6c-0.3-0.2-0.6-0.4-1-0.6C7.1,10,7,10.4,6.9,10.8c-0.9-1-2.6-0.8-2.9-2.4
		c0-0.1-0.4-0.1-0.7-0.2c0,0.3,0,0.6,0,0.8C2.4,8.8,1.4,9,0.8,7.7c-0.6-1.3,0.4-2,0.6-3C0.1,5-0.2,5.6,0.1,7.2
		c0.4,2.1,0.6,2.4,2.1,2.3c0,1.4,0.6,1.7,2.1,1.9c0.8,0.1,1.6,0.8,2.4,1c1.9,0.4,3.8,0.6,5.7,0.9c0.2,0,0.5,0,0.7,0
		c2.7-0.9,5.4-0.1,8.1,0.3c0.3,0,0.6,0,0.9,0.1c2.4,0.1,4.8,0.2,7.2,0.2c0.6,0,1.1-0.4,1.5-0.6c2.8,0.5,5.1,2.3,8.1,1.7
		c-0.7,0.5-1.5,1.1-2.2,1.6c0.1,0.1,0.1,0.2,0.2,0.3c1-0.6,1.9-1.1,2.9-1.8c0.9-0.6,1.6-0.4,2,0.8c1.1-0.6,2.2-1.4,3.3-1.7
		c1.2-0.2,2.5-0.1,3.7,0.2c0.6,0.2,1.2,0.8,1.6,1.4c0.4,0.7,0.4,1.5-0.6,1.6c-2,0.4-4.1,0.7-6.2,0.9c-0.5,0-1.1-0.6-2-1.1
		c0.3,1.2,0.6,2.3,0.8,3.2c-2.2,0.1-3.8,1.7-5.9,2.1c0,0.2,0.1,0.3,0.1,0.5c2.1-0.5,4.2-0.9,6.5-1.5c1.5,1.5,3.7,2,6,2.1
		c1.3,0.1,1.8,0.6,1.4,1.9c0.7-2.2,2.7-1.3,4.1-2.2c0,0.7-0.1,1.2-0.1,1.9c0.4-0.8,0.8-1.4,1.2-2.1c0.3,0.6,0.5,1,0.7,1.4
		c0.1-2,1.8-1.7,3.2-2.6c-0.9,2.3-0.6,4,0.9,5.6c-1.5-1-2.4-2.3-2.4-4.1c-1.5,1.5-0.1,4.2,2.9,5.6c-1.1,1-2,2.1-3.2,2.9
		c-0.3,0.2-1.3,0-1.7-0.4c-1-0.8-1.8-1.7-2.9-2.5c0.4,0.7,0.8,1.4,1.2,2.1c-0.4,0.2-0.7,0.4-1.3,0.7c-0.4-0.4-0.9-1.1-1.5-1.7
		c-0.2-0.2-0.7-0.3-1-0.4c0.1,0.4,0,0.8,0.2,1c0.3,0.5,0.7,0.9,1.1,1.3c-0.1,0.1-0.2,0.2-0.2,0.3c-0.8-0.7-1.6-1.5-2.4-2.2
		c-0.1,0-0.1,0.1-0.2,0.1c0.2,0.5,0.5,1,0.7,1.6c-0.1,0.1-0.2,0.2-0.3,0.3c-0.5-0.8-1-1.6-1.5-2.5c-0.2,0.2-0.5,0.4-0.7,0.6
		c0.4,0.7,0.8,1.5,1.2,2.2c-0.1,0.1-0.2,0.2-0.4,0.3c-0.6-0.6-1.2-1.2-1.9-1.9c0.1,0.3,0.1,0.7,0.2,1.1c-0.2,0.1-0.2,0.1-1.7-1.6
		c-0.1,0-0.2,0.1-0.3,0.1c0.4,0.7,0.7,1.5,1.1,2.2c0,0.1-0.1,0.1-0.1,0.2c-0.6-0.6-1.2-1.2-2-2c0.1,0.7,0.1,1.1,0.2,1.8
		c-0.8-0.9-1.4-1.5-1.9-2.2c-0.1,0-0.2,0.1-0.3,0.1c0.2,0.5,0.3,1.1,0.5,1.8c-1-0.2-1,0.3-0.6,1.1c-0.5,0-0.8,0-1.1,0.1
		c-0.2-1.4-0.3-2.7-2.3-2.6c-0.4-0.6-1-1.2-1.7-2.2c0.1,0.7,0.2,1,0.2,1.4c-0.1,0-0.2,0.1-0.3,0.1c-0.7-0.9-1.4-1.9-2.2-2.9
		c0.1,0-0.2,0.1-0.5,0.3c-0.1-0.3-0.3-0.6-0.6-1.1c0,0.7,0,1,0,1.5c-1.2-1-1.4-2.2-1.5-3.5c0-0.5,0.1-1.4-1.3-1
		c0.6,1.7,1.3,3.3,1.9,4.9c0.1,0.2,0.2,0.5,0.3,0.7c0.4,1.6,1.5,2.7,2.9,3.3c1.9,0.9,3.9,1.7,5.9,2.2c1.7,0.4,3.5,0.3,5.2,0.4
		c0.3,0,0.5-0.3,0.5-0.3c1.7,0,3.1,0,4.5,0c0.5,0,0.9,0.2,1.4,0.3c0.4,0,0.9,0,1.4,0c0.5,0.9,1,1.9,1.7,3.2c-0.6-0.3-1-0.4-1.5-0.6
		c0.8,2,2.1,3.3,4.1,3.9c-0.1,0.1-0.2,0.3-0.3,0.4c-1.4-0.8-2.7-1.5-4-2.3c-0.1,0.2-0.2,0.4-0.3,0.6c1.2,0.8,2.3,1.6,3.5,2.4
		c0,0.1-0.1,0.1-0.1,0.2c-1.1-0.5-2.2-0.9-3.3-1.4c-0.1,0.1-0.1,0.3-0.2,0.4c0.5,0.4,1,0.7,1.5,1.1c-0.1,0.1-0.1,0.2-0.2,0.3
		c-0.9-0.5-1.8-1.1-2.7-1.6c-0.1,0.3-0.3,0.6-0.4,0.9c-1.2-0.7-2.3-1.5-3.5-2.2c-0.1,0.1-0.1,0.1-0.2,0.2c0.8,0.8,1.5,1.6,2.3,2.4
		c-0.1,0.1-0.2,0.2-0.2,0.3c-1.1-0.7-2.3-1.4-3.4-2.1c-0.1,0.1-0.2,0.2-0.3,0.3c0.5,0.3,1.1,0.6,1.6,0.9c-0.1,0.2-0.3,0.3-0.4,0.5
		c-1-0.5-2-0.9-3.1-1.5c0.2,0.5,0.4,0.8,0.5,1.2c-0.1,0.1-0.1,0.2-0.2,0.2c-1-0.7-1.9-1.4-2.9-2c-0.1,0.1-0.2,0.2-0.2,0.3
		c1.1,1,2.3,1.9,3.5,3c-2-0.3-3.2-1.8-4.7-2.8c-0.2,1.5,2.2,1.6,1.6,3.4c-1.4-2.3-3.5-3.5-5.5-4.8c-0.1,0.3-0.2,0.4-0.2,0.4
		c0.8,0.8,2,1.5,2.3,2.4c0.4,1.3,1.1,1.9,2.1,2.3c1.6,0.5,3.3,1,5,1.3C49,47,52,45.9,55,44.9c0.9-0.3,2.1-0.4,2.9-1.2
		c0.4-0.5,1.1-0.7,1.8-1c0.2,0.4,0.4,0.8,0.6,1.1c-0.9-1.8,0.5-2.3,1.6-3.1c0.7-0.5,1.4-1.1,2.2-1.7c0.2,0.3,0.3,0.6,0.7,1.1
		c0-0.6,0.1-0.8,0.1-1c0-0.3,0-0.7,0-1c0.3,0.3,0.6,0.5,0.8,0.8c0.2,0.3,0.3,0.6,0.5,1c0.2-0.1,0.4-0.2,0.5-0.2
		c-0.3-0.7-0.6-1.5-1-2.4c0.3-0.2,0.6-0.5,1-0.9c0.1,0.7,0,1.1,0.2,1.5c0.1,0.3,0.5,0.5,0.7,0.7c0.1,0.1,0.4,0.2,0.4,0.3
		c-0.5,1.8,1.4,2.2,2.2,3.6c-1.7-0.2-2.2-1.5-3.1-2.6c-0.2,0.5-0.5,0.9-0.4,1c0.8,0.8,1.6,1.8,2.7,2.3c1.2,0.5,1.7-0.8,2-1.5
		c0.2-0.5,0.6-1.5-0.4-2c0.4-0.9,0.8-1.7,1.3-2.6c-0.1-0.1-0.2-0.1-0.2-0.2c-0.6,0.7-1.1,1.3-1.9,2.3c0.2-0.7,0.3-1.2,0.5-1.7
		c-1.4,0.9-1.4,0.9-0.9,2.8c-0.2-0.6-0.6-1.1-0.6-1.7c0-0.6,0.2-1.3,0.5-1.9c0.7-1.8,1.3-2.1,2.6-1.4c1.5,0.8,1.9,2.4,1.2,3.7
		c-0.5,0.8-1.6,1.6-0.6,2.9c0.1,0.2-0.5,0.9-0.8,1.3C70.8,44,70,45,69.1,46.1c-0.6-0.1-1.3-0.2-1.9-0.3c0-0.1,0-0.2,0-0.3
		c0.6,0,1.2,0,1.9,0c0-0.1,0.1-0.2,0.1-0.3c-0.9-0.6-1.9-1.1-3-1.8c0.1,0.7,0.1,1,0.2,1.7c-1-0.6-2-1.2-3.1-1.9
		c1,1.9,3.5,3.6,5.4,3.5c-0.2,0.3-0.4,0.6-0.6,0.9c-1.6-0.8-3.1-1.6-4.6-2.3c-0.1,0.1-0.2,0.3-0.3,0.4c0.6,0.5,1.2,1.1,1.8,1.6
		c-1.1-0.5-2.2-1-3.1-1.4c0.3,1.1,1.5,2,3.1,2.1c0,0.3,0,0.6,0,1.3c-1.4-0.8-2.7-1.6-3.9-2.3C61,46.9,60.9,47,60.8,47
		c0.5,0.6,1,1.2,1.6,1.7c0.6,0.5,1.3,0.8,1.9,1.1c-0.1,0.1-0.1,0.2-0.2,0.4c-0.8-0.3-1.7-0.6-2.4-1c-0.7-0.4-1.3-1-1.9-1.4
		c-0.1,0.1-0.2,0.2-0.3,0.4c1,0.8,1.9,1.7,2.9,2.5c-0.2,0.1-0.5,0.2-0.8,0.3c0.1-0.1,0.1-0.2,0.2-0.3c-1-0.6-2-1.3-2.5-1.7
		c0.4,0.4,1,1.2,1.7,2c-0.1,0.1-0.2,0.3-0.3,0.4c-1-0.6-2.1-1.3-3.1-1.9c-0.1,0.1-0.2,0.3-0.3,0.4c1.1,0.8,2.1,1.6,3.2,2.4
		c0,0.1,0,0.2,0,0.3c-1.2-0.5-2.3-1-3.5-1.5c-0.1,0.2-0.2,0.3-0.3,0.5c0.7,0.5,1.4,1.1,2.2,1.6c0,0.1-0.1,0.1-0.1,0.2
		c-1-0.6-2.1-1.1-3.1-1.7c-0.1,0.2-0.2,0.3-0.3,0.5c1,0.7,1.9,1.4,2.9,2.1c0,0.1-0.1,0.2-0.1,0.3c-1.4-0.7-2.8-1.5-4.4-2.3
		c0.3,0.7,0.6,1.3,0.9,1.8c-0.9-0.6-1.8-1.2-2.7-1.9c0.6,1.2,1.6,2,3,2.3c-0.4,0-1,0.2-1.3,0c-1-0.5-2-1.1-3.1-1.5
		c0.8,0.8,1.6,1.5,2.6,2.4c-1.2,0.1-1.9-2-3.3-0.5c-1.3-1.5-2.5-2.9-3.8-4.3c0.1-0.5,0.3-1.2,0.5-2.1c-0.6,0.3-0.8,0.4-1.2,0.6
		c0.1-0.5,0.2-0.7,0.3-1.1c-0.4,0-0.7,0-1.1,0c0,0.1-0.1,0.2-0.1,0.3c0.3,2.5,1.2,4.7,2.4,6.8c1,1.6,2.5,2.2,4.2,2.6
		c3.1,0.7,6,0.1,8.9-1c2.2-0.8,4.4-1.7,6.6-2.2c1.1-0.2,2.4,0.3,3.6,0.6c1.1,0.2,2.2,0.6,3.2,0.8c0.5,0.1,1-0.2,1.5-0.2
		c0.3,0,0.9-0.4,0.5,0.5c0,0,0.3,0.3,0.5,0.3c1.9,0.6,3.8,1.4,5.7,1.9c2.2,0.6,4.4,1,6.6,1.3c0.5,0.1,1.4,0.4,1.4-0.8
		c0-0.2,0.4-0.3,0.8-0.3c-0.2,0.2-0.3,0.5-0.7,1c3.2,0.8,6.3,0.6,9.3,0.9c3.2,0.3,6.2-0.8,9.2-0.8c0.8,1.6-0.1,4.2,2.3,4.8
		c0.1,0.6,0,1.2,0.3,1.6c1.6,1.7,3.5,2.8,6,2.6c2.7-0.2,15.3-0.1,15.4-0.1h2279V5.1z M57.4,33.5c0.6,0.5,1.1,1.1,0.6,2.3
		c-0.5-0.8-0.9-1.4-1.3-2C57,33.7,57.4,33.5,57.4,33.5z M58.2,37c-0.5,0.6-1,1.2-1.5,1.7c-0.1,0-0.1-0.1-0.2-0.1
		c0.3-0.5,0.6-1,0.9-1.6c-0.3-0.4-0.6-0.7-0.9-1.1c0.1-0.1,0.2-0.2,0.2-0.2C57.2,36.2,57.7,36.6,58.2,37z M55.9,35.5
		c-0.2-0.4-0.4-0.8-0.5-1.2c-0.1,0-0.3,0.1-0.4,0.1c0.2,0.8,0.5,1.6,0.7,2.4c-0.1,0.1-0.1,0.1-0.2,0.2c-0.5-0.8-1.1-1.5-1.8-2.5
		c1-0.3,1.8-0.5,2.9-0.8c-0.2,0.9-0.3,1.4-0.4,1.9C56.2,35.6,56,35.6,55.9,35.5z M59,41.6c-1-0.3-1.8-0.9-2.6-1.5
		c0.1-0.1,0.1-0.2,0.2-0.3c0.9,0.5,1.8,0.9,2.7,1.4C59.2,41.3,59.1,41.4,59,41.6z M65.7,49.2c0.3-0.3,0.7-0.5,1-0.8
		c-0.6-0.4-1.1-0.8-1.6-1.1c0.8,0.2,1.5,0.4,2.4,0.6C67,48.4,66.8,49.4,65.7,49.2z M111.3,15.7c0.5,0.6,0.9,1.3,1.5,1.9
		c0.5,0.6,1.1,1.1,1.7,1.6c-0.1,0.1-0.3,0.4-0.6,0.8c-0.9-1.3-1.9-2.7-2.9-4.1C111.1,15.8,111.2,15.8,111.3,15.7z M117.1,34.8
		c-0.1,0-0.2,0-0.2,0c-0.3-2.5-0.5-5.1-0.9-7.6c-0.1-0.5,0.4-2-1.2-1.6c-0.1,0-0.3-0.7-0.7-1.5c0.6,0.4,0.9,0.6,1.2,0.9
		c0.1-0.5,0.2-0.9,0.3-1.3c0.5,1.9,0.8,3.9,1.2,5.8c0.1,0.4,0.5,0.8,0.6,1c-0.1,0.8-0.2,1.5-0.3,2.1C117,33.3,117.1,34,117.1,34.8z
		 M115.7,33.4c-0.1,0-0.3,0-0.4,0c-0.1-1.7-0.3-3.4-0.4-5.1c0-0.7-0.1-1.4-0.1-2c0.1,0,0.3,0,0.4,0C115.4,28.6,115.5,31,115.7,33.4z
		 M104.3,38.7c2-0.9,3.4-2.5,5.1-3.8c1.8-1.3,3.2-3.1,4.8-4.7C114.3,31.7,107.6,37.7,104.3,38.7z M108.2,40.6
		c-3,4.3-16.3,12.7-19.5,12.4c0.3-0.4,0.6-0.7,0.8-1c0.6,0,1,0,1.4-0.1c1-0.4,1.9-0.9,2.8-1.4c2.2-1.2,4.3-2.9,6.3-4.5
		C102.7,44,105,41.6,108.2,40.6z M113.9,33.8c-0.6,0.5-1.2,1-1.8,1.5c-0.6,0.5-1.2,1.1-1.8,1.6c1.3-1.4,2.6-2.9,3.9-4.3
		c0.1,0.1,0.2,0.1,0.3,0.2C114.3,33.1,114.2,33.5,113.9,33.8z M114.3,35.8c-1.4,1.1-2.7,2.1-4,3c-0.1-0.1-0.1-0.2-0.2-0.2
		c1.2-1.3,2.5-2.6,4-4.1C114.2,35.3,114.3,35.7,114.3,35.8z M116.2,19.2c-0.9-1.2-1.7-2.4-2.6-3.6c0.1-0.1,0.2-0.2,0.3-0.3
		c0.8,1.2,1.7,2.4,2.5,3.7C116.4,19.1,116.3,19.1,116.2,19.2z M68.5,2.1c0.2-0.3,0.4-0.7,0.6-1c0.2,0.1,0.3,0.2,0.5,0.3
		c-0.6,1-1.1,2-1.8,3.2c-0.2-0.7-0.3-1.1-0.4-1.4C68.4,3.6,68.2,2.5,68.5,2.1z M67.4,1.3c0,0.6,0,1.2-0.1,1.8c0,0,0,0,0,0
		C67,3.6,66.7,4,66.4,4.4c-0.1,0-0.2-0.1-0.3-0.1C66.5,3.3,66.9,2.3,67.4,1.3z M51,22.1c-0.9-0.9-1.8-1.9-2.7-2.9
		c0.4-0.2,0.7-0.4,1-0.5c0.7,1.2,1.3,2.2,2,3.2C51.2,22,51.1,22.1,51,22.1z M60,24.2c1-0.2,1.7-0.9,2.5-2.5
		c-0.1-0.1-0.3-0.3-0.4-0.4c-0.4,0.7-0.9,1.3-1.3,2c-0.1-0.1-0.1-0.1-0.2-0.2c0.4-0.5,0.7-1.1,1.1-1.7c-0.5,0.1-0.8,0.1-1.2,0.2
		c0-0.1,0-0.1-0.1-0.2c0.8-0.4,1.6-0.8,2.4-1.2c0.2,0.2,0.4,0.6,0.6,0.5c1.4-0.3,1.8,0.6,2.3,1.7c1,1.9,0,3.8-2.3,4.2
		c0.7-0.8,1.2-1.5,1.8-2.3c-0.1-0.1-0.1-0.1-0.2-0.2c-0.8,0.7-1.5,1.4-2.3,2.1c-0.1-0.1-0.2-0.2-0.2-0.3c0.8-1,1.6-2.1,2.5-3.1
		c-0.8,0.4-1.4,1-2,1.7c-0.6,0.6-1.2,1.3-1.8,2C60.5,26,59.7,25.5,60,24.2z M62.1,30c0,1.2,0,2.2,0,3.1c-0.1,0-0.2,0-0.4,0
		C61.7,32.1,60.6,31.2,62.1,30z M60.5,31.8c0.3,1.2,0.6,2.3,1,3.4C59.9,34,59.5,32.2,60.5,31.8z M62.3,39c-0.3-0.1-0.6-0.1-0.8-0.2
		c1.5-0.5,0.7-0.9,0.5-1.1c0.6-0.4,1.1-0.8,1.6-1.1c0.1,0.1,0.2,0.3,0.3,0.4C63.3,37.7,62.8,38.4,62.3,39z M65.9,33.6
		c0-0.2-0.1-0.5-0.1-0.8c-0.2,0.1-0.4,0.2-1,0.5c0.8-1.1,1.3-2,1.9-2.8c-0.1-0.1-0.1-0.1-0.2-0.2c-0.7,0.6-1.3,1.2-2,1.7
		c-0.1-0.1-0.1-0.1-0.2-0.2c0.4-0.6,0.7-1.3,1.1-1.9c-0.8,0.4-1.6,1-1.7,1.7c-0.1,0.6,0.4,1.4,0.6,2.1c-1.7-0.6-1.9-0.8-1.2-2.5
		c0.4-0.9,0.8-1.7,1.3-2.5c0.3-0.6,0.8-0.9,1.6-0.5c0.9,0.5,2.1,2.4,2,3.3C67.9,32.6,66.8,33.8,65.9,33.6z M73.6,20.8
		c-0.1-0.1,0-0.3,0-0.1c0.9,0.1,2,0.5,2.6,0.2c1.5-0.8,2.9-1.9,4.2-3c0.7-0.6,1.1-1.5,1.6-2.2c-0.1-0.1-0.2-0.2-0.3-0.3
		c-2,1-2.8,3.6-5,4.1c1.2-1.5,2.4-3,3.6-4.5c-0.1-0.1-0.2-0.2-0.3-0.3c-1.2,1.1-2.3,2.3-3.5,3.4c-0.1-0.1-0.1-0.2-0.2-0.2
		c0.9-1.2,1.8-2.4,2.6-3.6c-0.2-0.1-0.3-0.3-0.5-0.4c-1.1,1.2-2.2,2.3-3.3,3.5c-0.1-0.1-0.2-0.1-0.3-0.2c0.6-0.7,1.1-1.5,1.7-2.2
		c-0.1-0.1-0.2-0.2-0.3-0.2c-0.4,0.4-0.9,0.7-1.3,1.1c0-0.6,0.3-1,0.4-1.5c0.1-0.2-0.1-0.5-0.1-0.8c-0.2,0.1-0.6,0.2-0.7,0.4
		c-0.2,0.4-0.3,0.9-0.5,1.3c0,0.1-0.2,0.1-0.3,0.2c-0.1-0.4-0.2-0.7-0.3-1.4c-0.3,0.6-0.4,0.9-0.5,1.3c-0.7-0.7-1.3-0.9-1.5,0.5
		c-1-1.5-1-0.2-1.2,0.4c-0.5-0.6-0.9-1-1.4-1.5c-0.1,0.1-0.2,0.2-0.3,0.2c0.4,0.7,0.7,1.4,1.1,2.2c-0.1,0.1-0.2,0.1-0.3,0.2
		c-0.5-0.6-1-1.2-1.3-1.9c-0.8-1.4-0.8-1.4-1.6-0.9c0.3,0.6,0.6,1.1,0.8,1.7c-0.1,0.1-0.2,0.1-0.3,0.2c-0.8-1.2-1.6-2.4-2.3-3.6
		c-0.1,0.1-0.2,0.1-0.4,0.2c0.3,0.8,0.6,1.5,0.8,2.3c-0.1,0-0.2,0.1-0.3,0.1c-0.5-0.7-1-1.5-1.2-1.9c-0.9-0.2-1.6-0.3-2.2-0.4
		c-0.1,0.1-0.2,0.2-0.2,0.3c0.4,0.3,0.8,0.6,1.3,1c-0.1,0.3-0.2,0.9-0.3,1.5c-0.6-0.5-1.3-0.9-1.9-1.4c-0.1,0.1-0.1,0.2-0.2,0.3
		c0.5,0.8,1,1.6,1.6,2.6c-1.1-0.8-2-1.4-2.9-2.1c-0.1,0.1-0.2,0.2-0.3,0.3c0.6,0.8,1.1,1.6,1.9,2.8c-1.1-0.7-1.9-1.2-2.7-1.8
		c-0.1,0.1-0.2,0.3-0.3,0.4c0.7,0.8,1.4,1.7,2,2.5c0,0-0.1,0.1-0.1,0.1c-1-0.7-1.9-1.4-2.9-2.1c-0.1,0.1-0.2,0.2-0.3,0.3
		c0.6,0.8,1.1,1.5,1.7,2.3c-0.1,0.1-0.1,0.1-0.2,0.2c-0.8-0.6-1.6-1.2-2.4-1.8c-0.1,0.1-0.2,0.2-0.3,0.4c0.5,0.7,1,1.4,1.7,2.5
		c-1.2-0.9-2.1-1.6-3.1-2.3c-0.1,0.1-0.2,0.2-0.3,0.3c0.5,0.6,0.9,1.3,1.4,1.9c-0.1,0-0.1,0.1-0.2,0.1c-1-0.8-2-1.6-3-2.4
		c-0.1,0.1-0.2,0.2-0.4,0.3c0.9,1,1.7,2,2.6,3c-0.3-0.1-0.8-0.2-1-0.4c-0.7-0.6-1.3-1.3-2-1.8c-0.9-0.6-0.5-1.3,0.1-1.6
		c1-0.4,0.9-1,0.6-1.7c-0.2-0.6-0.4-1.2-0.7-1.7c-0.6-1-0.3-1.5,0.6-2.1c2.5-1.6,4.9-3.2,7.3-4.8c0.2-0.1,0.3-0.3,0.4-0.4
		c-0.8-0.4-0.1-0.6,0.2-0.6c1.4-0.2,2.9-0.2,4.3-0.4c2-0.3,4-0.7,5.9-1.3c4.9-1.4,9.8-1.8,14.6,0.5c2.7,1.3,5.3,2.7,8,4
		c0.6,0.3,1.4,0.4,2,0.6c1.1,1.7,2.9,2,4.7,2.5c-0.2,0-0.4,0-1,0.1c2.5,1.6,4.8,3,7,4.3c0.1-0.1,0.2-0.3,0.3-0.4
		c-0.9-0.7-1.8-1.4-2.7-2.2c0.1-0.1,0.1-0.2,0.2-0.3c2.2,1.4,4.4,2.8,6.6,4.2c0.1-0.2,0.2-0.3,0.3-0.5c-2.7-2-5.5-4-8.2-6
		c1.5,0.7,2.8,1.6,4.2,2.5c1.4,0.8,2.7,1.7,4.1,2.5c1.4,0.7,2.8,2.5,2,4.7c1.1-0.1,1.6,0.4,1.2,1.4c-0.4,1.1-1,2.1-1.6,3.1
		c-0.8,1.3-1.8,2.5-2.8,3.8c2.1,0,4.2-3,3.9-5.2c1.4,0.2,1.5,0.3,0.9,1.5c-0.4,0.7-0.8,1.3-1.2,1.9c-0.2,0.3-0.4,0.7-0.5,1.1
		c0.1,0.1,0.3,0.2,0.4,0.3c0.7-0.7,1.3-1.4,2.1-2.2c0.2,0.8,0.3,1.3,0.4,1.8c-0.4,0.1-0.8,0.1-1.1,0.3c-1.2,1.2-2.3,2.3-3.4,3.6
		c-0.7,0.8-1.2,1.1-1.7,0.8c1.3-1.3,2.5-2.5,3.8-3.8c-0.1-0.1-0.3-0.3-0.4-0.4c-2.7,1.3-4.2,4.5-7.3,5.3c1.4-1.3,2.9-2.5,4.3-3.8
		c-0.1-0.2-0.2-0.3-0.3-0.5c-0.5,0.2-1,0.2-1.4,0.5c-0.9,0.6-1.3,1.8-2.5,2.2c-0.2,0.1-0.2,0.5-0.2,0.5c-1,0.5-1.9,1-2.8,1.5
		c-1.5,1-2.9,2.3-5,1.9c-0.8-0.2-1.7-0.1-2.5-0.3c-0.9-0.2-1.7-0.5-2.9-0.8c1.2-0.2,2-0.3,2.9-0.4c-0.1,0.2-0.2,0.4-0.4,0.9
		c1.2-0.2,2.2-0.4,3.2-0.7c-0.1,0.2-0.1,0.5-0.2,0.8c2.1,0.4,8.4-3.8,8.9-6c-2.8,1.4-4.5,4.2-7.7,4.5c2.5-1.8,5.2-3.5,7-6.1
		c-3.2,1.7-5.6,4.7-9.1,5.9c0.4-0.4,0.8-0.7,1.2-1c1.9-1.6,3.8-3.2,5.6-4.9c0.9-0.9,1.7-1.7,2.6-2.6c-0.2-0.2-0.3-0.3-0.5-0.5
		c-0.8,0.8-1.6,1.5-2.4,2.2c0.1,0.3,0.1,0.5,0.2,0.8c-0.3,0-0.6,0-0.8,0.1c-1.4,1-2.8,2.1-4.3,3c-1.8,1.1-3.7,2-5.5,3
		c-0.5,0.3-0.8,0.6-1.5,1.2c-0.8-0.4-1.9-1-3-1.5c0-0.1,0.1-0.2,0.1-0.4c0.4,0.1,0.8,0.3,1.2,0.4c0.4,0.1,1,0.5,1.3,0.4
		c1.9-0.8,3.8-1.6,5.6-2.6c1.1-0.6,2.1-1.5,3.1-2.3c-0.1-0.2-0.3-0.4-0.4-0.5c-1.2,0.8-2.3,1.6-3.5,2.3c-1.3,0.7-2.7,1.2-4,1.8
		c-0.1-0.2-0.1-0.4-0.2-0.6c0.8-0.3,1.7-0.5,2.5-1c0.7-0.4,2-0.4,1.7-1.6c1.2-0.6,2.3-1.3,3.5-1.9c-0.1-0.2-0.2-0.4-0.2-0.5
		c-0.6,0.2-1.4,0.3-1.9,0.7c-2,1.2-4,2.4-6.1,3.6c-0.3,0.2-0.8,0.2-1.2,0.3c3.1-1.7,5.9-3.9,8.4-6.2c-3,0.5-4.5,3.5-7.6,3.9
		c1.6-1.1,3.1-2.3,4.7-3.4c-1.8-0.5-2.7,0.6-3.9,1.4c-0.7,0.5-1.4,0.9-2.2,1.2c-1.6,0.6-3.2,1.1-4.9,1.7c0,0.1,0,0.3,0.1,0.4
		c2,0.9,3.7-1,5.6-0.8c-1.4,0.5-2.7,1-4.3,1.6c1.9,0.5,1.9,0.5,2.3,1.8c-1.4-0.7-2.7-1.3-3.8-2.1c-1.1-0.8-1.9-2.1-3-3
		C77.1,27.3,75.6,23.9,73.6,20.8z M101.2,41.4c-5.4,4.6-11.3,8.4-18.4,9.8c0.5-0.3,1-0.5,1.5-0.7c2.9-1.3,5.9-2.5,8.6-4
		c2.2-1.3,4.2-3,6.3-4.5c0.5-0.4,1.2-0.5,1.8-0.8C101.1,41.2,101.1,41.3,101.2,41.4z M85.7,40.6c-0.8,1.3-6.2,3.4-7.8,3.2
		C80.5,42.6,83,41.6,85.7,40.6z M78.6,41.7c1.2-0.4,2.3-0.9,3.5-1.3c0.1,0.2,0.1,0.3,0.2,0.5c-1.2,0.4-2.4,0.8-3.5,1.1
		C78.7,41.9,78.6,41.8,78.6,41.7z M79.3,44.9c2.2-0.9,4.5-1.7,6.7-2.6c0.5-0.2,0.9-0.8,1.3-1.2c0.1-0.3,0.4-0.3,0.6-0.3
		c0.3,0,0.6,0,0.9,0.1c0,0.1,0.1,0.3,0.1,0.4c-3.2,2.2-6.9,3.4-10.5,4.5c-0.1-0.1-0.1-0.3-0.2-0.4C78.6,45.1,78.9,45,79.3,44.9z
		 M74.8,47.9c6-1.3,11.5-3.7,16.8-6.8C86.6,44.9,80.9,47,74.8,47.9z M94.4,41.1c-4.9,4.8-11,6.8-17.6,7.9
		C83.2,47.5,89.2,45.2,94.4,41.1z M78.4,50.2c0.8-0.2,1.2-0.3,1.6-0.4c2.8-0.6,5.7-1.2,8.1-2.9c0.7-0.5,1.4-0.9,2.1-1.3
		c1.7-1.1,3.5-2.1,5.1-3.4c0.8-0.6,1.5-1.2,2.5-0.9C93.9,45.6,82.5,51,78.4,50.2z M85,51.7c1.2-0.4,2.6-0.5,3.8-1
		c3.3-1.6,6.7-2.9,9.4-5.6c1.2-1.3,2.8-2.2,4.3-3.2c0.3-0.2,1-0.1,1.5-0.1c-6,5.9-13,9.6-21.4,11.5C83.6,52.6,84.2,52,85,51.7z
		 M89.7,54.7c-1.4,0.4-2.7,0.7-4.1,1c0-0.1,0-0.2-0.1-0.4c0.2-0.1,0.3-0.2,0.5-0.2c3.3-0.6,6.4-1.8,9.3-3.4c5-2.8,9.3-6.3,13.7-9.9
		c0.9-0.7,1.9-1.3,2.9-2c-1.2,1.4-2.5,2.7-3.9,3.8c-2.3,1.9-4.6,3.8-7.1,5.4C97.4,51.3,93.8,53.5,89.7,54.7z M98.3,52.1
		c2.6-1.7,5.4-3.2,7.8-5.1c2.4-1.8,4.6-4,6.8-6.1c0.3-0.2,0.6-0.3,1-0.5c-5.1,5.5-10.4,10.5-17.4,13.2c-0.1-0.1-0.2-0.2-0.3-0.4
		C96.9,52.9,97.6,52.5,98.3,52.1z M114,43c-0.8,0.7-1.6,1.5-2.2,2C112.3,43.8,113.3,42.9,114,43z M96.4,55.3
		c2.5-1.5,5.1-2.8,7.5-4.4c2.5-1.6,4.8-3.4,7.3-5.1C109.2,48.8,98.1,55.9,96.4,55.3z M97.3,57.3c2.8-1.8,5.7-3.4,8.4-5.4
		c2.7-1.9,5.1-4.1,7.6-6.2C109.2,51.3,103.4,54.5,97.3,57.3z M111,52.1c-0.6,0.2-1.1,0.4-1.7,0.7c-1.1,0.6-2.1,1.3-3.2,2
		c0-0.1-0.1-0.1-0.1-0.2c2.3-1.9,4.6-3.8,6.9-5.8c0.1,1.7-1.8,1.8-2.5,2.9C110.6,51.8,110.8,52,111,52.1z M99.2,58.1
		c1.8-0.9,3.8-2,5.7-3c0.1,0.1,0.1,0.2,0.2,0.3C103.2,56.5,101.4,58,99.2,58.1z M107.4,58.2c0.7-2,3.5-2.2,3.8-4.5
		c-1.7,1.1-3.4,2.2-5.1,3.3c-0.1-0.1-0.1-0.2-0.2-0.3c0.5-0.4,1.1-0.8,1.6-1.2c1.2-1.1,2.3-2.3,3.5-3.4c0,0,0,0,0,0
		c0.4,0,0.7-0.1,1.1-0.1c-0.3,1.2-0.5,2.3-0.8,3.4c-0.1,0.4-0.3,0.8-0.6,1C109.6,57.1,108.4,57.6,107.4,58.2z M122.2,65.7
		c0.8-1.3,1.4-2.4,2-3.5C123.8,63.4,123.9,65.1,122.2,65.7z M126.3,43.8c-0.1,2.9-0.4,5.7-0.7,8.6c-0.3,2.6-0.7,5.3-1.3,7.8
		c-0.5,2-1.4,3.9-3.6,4.7c-0.9,0.3-1.9,0.4-2.9,0.7c0.5,0.2,1,0.3,1.6,0.5c-0.7,0.4-1.3,0.7-1.9,1c0-0.1,0.1-0.3,0.1-0.4
		c-0.6-0.3-1.3-0.7-2-0.9c-0.2-0.1-0.6,0.1-1.2,0.2c-1.2-1.8-2.5-3.9-3.8-6c-0.1,0.1-0.3,0.2-0.4,0.3c0.8,1.4,1.7,2.8,2.5,4.2
		c-1.2-1.2-2.5-2.3-2.9-4c-0.1-0.4,0.1-1.2,0.3-1.3c1.3-0.6,2.5-1.4,4-1c-0.9,5.2,0.5,6,3.2,7.1c-0.6-0.7-1.1-1.3-1.4-1.9
		c-0.4-0.6-0.9-1.4-0.9-2.1c0-1.8,0.3-3.7,0.5-5.5c0-0.1,0.1-0.1,0.2-0.2c0.1,0.2,0.3,0.4,0.6,0.8c0.5-2.1,1-3.9,1.4-5.7
		c0.6-2.9,1.3-5.7,1.5-8.6c0.3-3.5,0.3-7.1,0.4-10.6c0.1-2.7,0.2-5.4-0.8-8c-0.2-0.5-0.6-0.9-0.9-1.3c-0.1-0.2-0.3-0.3-0.5-0.4
		c0.2-0.1,0.5-0.2,1-0.4c-1.9-2.9-3.8-5.7-5.7-8.6c0.4,0,1-0.3,1.5-0.1c1,0.3,2,0.6,2.8,1.2c1.1,0.6,2.3,1.3,2.9,2.3
		c1.3,2.1,2.3,4.3,3.4,6.5c0.6,1.3,1.1,2.7,1.3,4.2c0.3,1.4,0.2,3,0.4,4.4c0,0.3,0.4,0.5,0.7,0.8c-0.1,0.4-0.5,0.9-0.4,1.2
		c0.9,1.7,0.3,3.6,0.5,5.4C126.2,40.3,126.4,42.1,126.3,43.8z"/>
</g>
</svg>
