<?xml version="1.0" encoding="utf-8"?>
<!-- Generator: Adobe Illustrator 22.1.0, SVG Export Plug-In . SVG Version: 6.00 Build 0)  -->
<svg version="1.1" id="Layer_1" xmlns="http://www.w3.org/2000/svg" xmlns:xlink="http://www.w3.org/1999/xlink" x="0px" y="0px"
	viewBox="0 0 345.1 174.7" enable-background="new 0 0 345.1 174.7" xml:space="preserve">
	<g>
		<path d="M341.6,12c0.5,2.5,2.9,4.2,1.4,7.6c-1.4,3.3-3.9,2.9-6.2,3.8c0-0.7,0-1.4,0-2.1c-0.6,0.1-1.7,0.2-1.7,0.4
		c-0.8,4.1-5.2,3.5-7.5,6.1c-0.4-1.2-0.7-2-1.1-3.2c-1,0.7-1.7,1.1-2.4,1.7c-0.1-1.3-0.2-2.4-0.3-4.2c-1.5,2.1-2.4,3.6-3.7,5.5
		c-0.2-1.7-0.2-2.5-0.3-3.4c-0.4,0-0.8,0-1.2,0c-0.2,1.4-0.5,2.8-0.7,4.1c-0.3,0.1-0.6,0.2-0.9,0.3c-0.6-1.5-1.1-2.9-2-5.2
		c-0.7,1.8-1.1,2.7-1.6,3.8c-0.9-0.9-1.6-1.5-2.3-2.2c-1,1-1.8,1.9-3.2,3.4c0.5-2.4,0.7-4,1-5.5c-0.5-0.4-0.9-0.8-1.4-1.2
		c-0.4,1.4-0.8,2.8-1.3,4.6c-2.3-3.9,0.5-7.2-2.4-10.3c-0.6,3.3-1.1,5.7-1.5,8.2c-0.5,2.5-2.1,3.1-4.2,2.3c-0.9-0.4-1.4-1.6-2.3-2.7
		c-0.8,0.9-1.5,1.8-2.3,2.8c-0.7-0.4-1.5-0.7-2.4-1.2c-0.7,1-1.4,1.9-2.1,2.8c-3-4.4-3.2,1.6-5.1,1.2c0.4-1.5,0.8-2.9,1.2-4.3
		c-0.3-0.1-0.6-0.2-0.9-0.3c-0.8,1.3-1.7,2.5-2.5,3.8c-1.6,2.2-1.6,2.2-3.1,1.3c0.8-1,1.7-2.1,2.5-3.1c-1.4-0.7-2.8-1.3-4.2-2
		c-0.6,0.8-1.1,1.5-1.6,2.3c-1.9-1-3.6-2-5.5-3.1c-0.2-1.1-0.4-2.7-0.6-4.3c-0.3,0-0.6,0-0.9,0c-1,2.2-1.9,4.4-2.9,6.7
		c-3.9-4.4-2.3,3-4.6,1.7c0.4-2.5,0.7-5.1,1.1-7.6c-0.2,0-0.4-0.1-0.6-0.1c-1.3,2.9-2.6,5.9-3.8,8.8c-0.2-0.1-0.4-0.1-0.6-0.2
		c0-0.9,0-1.8,0-2.6c-0.8,0.6-1.5,1.1-2.8,2.1c0.3-2.1,0.5-3.4,0.7-4.7c-0.2-0.1-0.3-0.2-0.5-0.3c-0.9,1.4-1.9,2.7-3,4.4
		c-0.2-1.8-0.3-3-0.4-4.3c-0.2,0-0.5,0-0.7,0c-0.9,2.2-1.9,4.3-2.8,6.5c-0.2-0.1-0.4-0.2-0.7-0.3c0.2-1.8,0.5-3.6,0.7-5.5
		c-0.3-0.1-0.5-0.1-0.8-0.2c-0.9,1.4-1.7,2.7-2.6,4.1c-0.2-0.1-0.3-0.1-0.5-0.2c0.2-1.6,0.3-3.3,0.5-4.9c-0.2-0.1-0.5-0.1-0.7-0.2
		c-1,2.1-2,4.2-3.4,7.3c0-2.6,0-4.1,0-5.7c-0.2,0-0.4-0.1-0.6-0.1c-0.8,2.1-1.6,4.3-2.5,6.4c-0.4-0.1-0.9-0.2-1.3-0.4
		c0.6-2.7,1.3-5.5,1.9-8.2c-4.1,7-4.1,7-5.5,6.6c2.4-2.3,2.4-2.3,0.5-4.1c-0.6,0.8-1.1,1.5-2.1,2.8c-0.2-1.7-0.3-2.8-0.5-4.5
		c-0.9,1.3-1.6,2.2-2.4,3.4c-0.2-2.7-0.4-5-0.6-7.9c-1,3-1.7,5.4-2.5,7.7c-0.4-0.1-0.8-0.2-1.2-0.3c0.1-1.5,0.2-2.9,0.2-4.4
		c-0.3-0.1-0.5-0.1-0.8-0.2c-0.7,1.8-1.4,3.6-2.1,5.4c-0.1,0-0.3-0.1-0.4-0.1c0-2.6,0-5.2,0-7.7c-0.3,0-0.5,0-0.8,0
		c-0.5,1.8-1,3.7-1.7,5.9c-0.6-1.4-1-2.3-1.4-3.3c-1.1,0.6-1.9,1-2.9,1.5c-0.2-1.9-0.4-3.4-0.7-5.9c-0.9,2.1-1.4,3.2-2,4.7
		c-1-1.5-1.6-2.4-2.5-3.7c-0.7,1.6-1.2,2.6-1.7,3.7c-0.2,0-0.4-0.1-0.6-0.1c0-1.7,0-3.3,0-5.4c-2.2,0.8-4,1.4-6.1,2.2
		c0-1.1,0.3-2.6-0.1-3.7c-0.3-0.7-1.8-0.9-2.8-1.3c-0.2,0.2-0.3,0.4-0.5,0.7c-0.4-0.9-0.8-1.7-1.3-2.9c-0.8,1.1-1.4,1.9-1.9,2.7
		c-0.7-1.4-1.4-2.6-2.1-3.9c-0.4,0.1-0.7,0.3-1.1,0.4c0.4,1.6,0.7,3.2,1.1,4.8c-2.9-2.3-1.8-8.4-7.8-7.7c-0.3,1-0.6,2-0.8,2.6
		c-4,0.1-5.5-2.5-6.6-5.7c-0.2-0.7-1.6-1-2.5-1.4c0.9-1.6,0.8-0.8,4.6-0.5c5.2,0.5,10.4-0.3,15.7-0.5c0-0.4,0-0.7-0.1-1.1
		c-4.1-0.4-8.2-0.8-12.3-1.1c-8.1,0-16.1,0-24.2,0c-4.7,1.8-9.3,3.7-14,5.4c-3.4,1.2-7.1,2-10.5,3.1c-0.9,0.3-1.6,1.3-2.2,1.8
		c-2.2,0.4-4.5,0.4-6.4,1.2c-10.6,4.4-21.2,9-31.8,13.7c-6.7,3-13.3,6.3-20.7,9.9c-1.5-0.3,0.4-6-3.8-4.3c0-0.9,0.5-2.3-0.1-2.9
		c-6.7-7.6-15.4-11.1-25.3-12.2c-7.7-0.9-15.3-1.8-23-2.6c-5.1-0.5-10.2-0.9-15.2-1.2c-1.2-0.1-2.4,0.4-3.7,0.6c0,0.5,0,0.9,0,1.4
		c1.7,1.4,3.4,2.8,5.2,4.3c-0.5,0.8-1.2,2.2-2.3,4c1.9,0,3.2,0,4.5,0c0,0.3,0.1,0.6,0.1,0.9c-1.3,0.2-2.7,0.4-4.1,0.7
		C1.8,28,2.1,32.4,3,36.9c0.6,3.3,0.6,6.8-1.2,10c-0.3,0.5,0.5,1.4,0.4,2.1c-0.1,0.6-0.7,1.2-0.6,2.5c4.3-2.8,8.6-5.7,12.8-8.5
		c0.2,0.3,0.5,0.7,0.7,1C10,47.8,5,51.5,0,55.2c0,0.5,0,0.9,0,1.4c3.4-2.2,6.8-4.3,10.1-6.6c3.6-2.5,7.1-5,10.7-7.6
		c0.3,0.4,0.6,0.9,0.9,1.3c-6.3,4.6-12.6,9.1-19.1,13.8c2.4,2,4,1,5.7-0.1c2.5-1.7,5.2-3.2,7.7-4.9c3-2.1,5.9-4.3,8.9-6.4
		c0.7-0.5,1.6-0.7,2.4-1c0.2,0.3,0.4,0.7,0.6,1c-7.5,5.7-15,11.3-22.5,17c0.2,0.3,0.4,0.5,0.5,0.8c7-4.9,14-9.8,21.8-15.3
		c-1.1,2.5-1.8,4.2-2.6,6l0-0.1c0,0,0,0.1,0,0.1c0,0,0,0,0,0c-0.7,2.5-0.8,5.4-2.3,7.2c-2.2,2.5-5.5,4-8.2,6
		c-4.1,3.1-8,6.3-11.7,10.2c0.9-0.2,1.8-0.4,2.5-0.5c0.3,1,0.7,2,1.1,3.2c-0.8-0.3-1.6-0.7-3.2-1.4c0.1,2.2,0.2,3.9,0.4,6.6
		c2.5-2,4-3.5,5.8-4.6c1.2-0.7,2.6-1,4-1.4c-3,2.4-6,4.7-9.1,7.2c0.6,0.8,1.2,1.4,1.9,2.3c4-3.4,7.9-6.8,11.8-10.2
		c0.3,0.3,0.5,0.6,0.8,0.9c-4.1,3.7-8.2,7.4-12.4,11.3c0.5,0.2,1.3,0.6,2,0.9c0,0.3,0,0.5,0,0.8c-1.6,0.1-3.3-0.3-4.6,0.4
		c-1.9,0.9-2.4,2.6-0.3,4.6c5.2-2.4,9.2-6.4,13.2-10.4c0.9-0.9,2-1.5,3.4-1.6C13.4,91.7,7.8,98.5,0,102.8c0,0.5,0,0.9,0,1.4
		c5-3.7,10-7.4,15-11.1c0.3-0.3,0.5-0.7,0.8-1c0.3,0.2,0.6,0.3,1,0.5c-0.6,1.1-1,2.4-1.9,3.2c-3.7,3.2-7.8,5.9-11.2,9.4
		c-1.2,1.2-0.5,4.2-0.7,6.4c0.4,0.2,0.9,0.3,1.3,0.5c3.7-3.6,7.4-7.2,11.1-10.8c0.2,0.2,0.4,0.4,0.7,0.6
		c-2.6,6.2-10.3,8.3-13.4,14.1c0.4,0.4,0.9,0.9,1.3,1.3c3.8-3.4,7.6-6.8,11.4-10.1c0.2,0.2,0.5,0.4,0.7,0.6c-1.1,1.3-2,2.7-3.3,3.8
		c-3,2.6-6.3,5-9.4,7.6c-2.9,2.5-3.3,6.1-1.4,8.6c-0.7,0.9-1.4,1.8-2,2.7c0,0.5,0,0.9,0,1.4c3.3,3.1,3.8,6.7,3.3,11.2
		c-0.4,4.1-4.1,8-0.3,12.8c1.6,2,0.3,6.5-0.2,9.8c-0.7,4.6,1.2,8.8,4.6,8.8c6.1,0,12.1-0.3,18.2-0.2c6.8,0,13.7-0.1,20.4,0.4
		c6.5,0.5,11.3-2.3,15.5-6.7c0.8-0.8,0.5-2.5,0.8-4c6.2-1.5,3.8-8.2,6-12.2c7.9,0.1,15.4,2.9,23.6,2.1c7.8-0.8,15.8-0.3,23.8-2.3
		c-0.9-1.4-1.3-2-1.8-2.6c1,0,2.1,0.4,2.1,0.9c0,3.1,2.4,2.2,3.7,2c5.6-0.9,11.3-1.9,16.8-3.4c5-1.3,9.8-3.2,14.6-4.8
		c0.5-0.2,1.3-0.8,1.3-0.9c-0.9-2.1,0.7-1.2,1.4-1.2c1.3,0.1,2.6,0.8,3.8,0.5c2.8-0.5,5.5-1.5,8.3-2.1c3.1-0.7,6.4-2.1,9.3-1.5
		c5.8,1.2,11.4,3.4,16.9,5.5c7.4,2.9,15,4.3,22.9,2.6c4.3-0.9,8.4-2.4,10.8-6.5c3.2-5.4,5.5-11,6.2-17.3c0-0.2-0.1-0.4-0.2-0.7
		c-0.8,0-1.7,0.1-2.7,0.1c0.2,0.9,0.4,1.6,0.7,2.8c-1-0.5-1.6-0.8-3.1-1.6c0.5,2.4,0.9,4.2,1.2,5.5c-3.2,3.7-6.3,7.2-9.7,11.1
		c-3.5-4-5.2,1.4-8.4,1.2c2.4-2.2,4.5-4.2,6.6-6.1c-2.9,1-5.4,2.7-8,3.9c-0.9,0.4-2.2,0-3.3,0c3.3-0.9,5.9-2.8,7.5-5.9
		c-2.3,1.6-4.7,3.2-7,4.7c0.7-1.5,1.4-2.9,2.3-4.7c-4,2.1-7.6,4-11.2,5.9c-0.1-0.2-0.2-0.4-0.3-0.6c2.5-1.8,4.9-3.6,7.4-5.3
		c-0.3-0.4-0.5-0.8-0.8-1.2c-2.7,1.4-5.4,2.9-8,4.3c-0.1-0.2-0.2-0.4-0.2-0.5c1.8-1.3,3.7-2.7,5.5-4c-0.2-0.4-0.4-0.8-0.6-1.2
		c-2.9,1.3-5.9,2.6-8.8,3.9c0-0.2-0.1-0.4-0.1-0.7c2.7-2.1,5.5-4.1,8.2-6.2c-0.3-0.4-0.5-0.7-0.8-1.1c-2.6,1.6-5.3,3.3-7.9,4.9
		c-0.3-0.4-0.6-0.7-0.9-1.1c1.6-1.9,3.3-3.9,4.2-5c-1.4,1-4,2.6-6.5,4.3c0.2,0.3,0.3,0.5,0.5,0.8c-0.8-0.3-1.5-0.6-2.1-0.9
		c2.5-2.2,5-4.4,7.4-6.5c-0.3-0.3-0.5-0.6-0.8-0.9c-1.6,1.2-3.1,2.7-4.8,3.7c-1.9,1.1-4.1,1.8-6.2,2.6c-0.2-0.3-0.3-0.6-0.5-0.9
		c1.7-1,3.5-1.7,5-2.9c1.5-1.2,2.7-2.8,4-4.3c-0.2-0.1-0.4-0.3-0.6-0.4c-3.2,1.9-6.4,3.7-10,5.8c0-1.7,0-2.5,0-3.3
		c4-0.3,7.1-2.6,7.9-5.3c-2.3,1.1-5.1,2.4-7.9,3.7c1.6-1.4,3.2-2.8,4.7-4.1c-0.2-0.4-0.5-0.7-0.7-1.1c-3.9,2-7.7,3.9-11.7,6
		c-0.5-0.7-0.9-1.4-1.5-2.2c4.7,0.2,11.2-4.1,13.7-9c-2.8,1.7-5.2,3.2-7.9,4.9c0.2-1.6,0.3-2.6,0.5-4.3c-3,1.8-5.4,3.2-7.8,4.7
		c0.1,0.3,0.1,0.6,0.2,0.9c1.6,0,3.2,0,4.8,0c0,0.3,0,0.5,0,0.8c-1.6,0.3-3.2,0.6-4.9,0.8c-2.2-2.8-4.3-5.5-6.4-8.2
		c-0.8-1.1-2.3-2.9-2.1-3.3c2.3-3.2-0.5-5.1-1.7-7.3c-1.9-3.4-0.7-7.5,3.1-9.5c3.4-1.7,4.8-1,6.6,3.7c0.6,1.6,1.2,3.3,1.2,4.9
		c-0.1,1.5-1.1,2.9-1.6,4.4c1.2-4.9,1.2-4.9-2.3-7.1c0.4,1.3,0.7,2.4,1.2,4.3c-2-2.3-3.4-4.1-4.9-5.8c-0.2,0.2-0.4,0.3-0.6,0.5
		c1.1,2.2,2.1,4.4,3.2,6.6c-2.7,1.2-1.7,3.6-1.1,5c0.9,2,2.2,5.3,5.2,3.9c2.6-1.2,4.7-3.7,6.8-5.8c0.2-0.2-0.5-1.4-0.9-2.6
		c-2.4,2.9-3.7,6.2-8,6.7c2-3.5,6.7-4.4,5.5-9.1c0-0.1,0.6-0.5,0.9-0.7c0.6-0.6,1.5-1.1,1.8-1.8c0.4-1,0.3-2.2,0.5-3.9
		c1.2,1,2,1.7,2.6,2.2c-1,2.3-1.8,4.2-2.6,6c0.5,0.2,0.9,0.4,1.4,0.6c0.4-0.8,0.7-1.7,1.2-2.5c0.5-0.7,1.3-1.3,1.9-1.9
		c0,0.8,0,1.7,0.1,2.5c0,0.6,0.1,1.1,0.2,2.6c0.9-1.4,1.3-2.1,1.7-2.9c2,1.6,3.7,3.2,5.5,4.5c2.8,2,6.4,3.4,4.2,8
		c0.5-1,1.1-1.9,1.6-2.9c1.6,0.9,3.4,1.5,4.5,2.7c2.1,2.1,5,2.3,7.4,3.2c7.5,2.8,15.2,5.4,23.4,3.9c4.3-0.8,8.6-1.9,12.7-3.3
		c2.6-0.9,4.4-2.6,5.4-5.8c0.7-2.4,3.9-4.2,5.9-6.2c0.1-0.1-0.2-0.4-0.5-1.1c-5.2,3.3-10.5,6.3-14.1,12.2c-1.5-4.7,4.6-4.9,4.1-8.7
		c-3.9,2.5-6.9,6.5-12.1,7.2c3.2-2.7,6.1-5.1,9-7.6c-0.2-0.2-0.4-0.4-0.6-0.7c-2.4,1.7-4.9,3.5-7.3,5.2c-0.1-0.2-0.3-0.4-0.4-0.6
		c0.4-0.9,0.8-1.9,1.3-3.1c-3,1.4-5.5,2.6-8,3.7c-0.4-0.4-0.7-0.9-1.1-1.3c1.4-0.7,2.8-1.5,4.2-2.2c-0.2-0.3-0.5-0.5-0.7-0.8
		c-2.9,1.8-5.8,3.6-8.8,5.4c-0.2-0.2-0.4-0.5-0.6-0.7c1.9-2,3.9-4.1,5.8-6.1c-0.1-0.2-0.3-0.3-0.4-0.5c-3,1.9-5.9,3.7-8.9,5.6
		c-0.5-1-0.8-1.7-1.1-2.4c-2.4,1.5-4.7,2.8-6.9,4.2c-0.1-0.2-0.3-0.4-0.4-0.6c1.3-0.9,2.6-1.9,4-2.8c-0.2-0.3-0.3-0.7-0.5-1
		c-2.8,1.2-5.6,2.4-8.4,3.6c-0.1-0.2-0.2-0.3-0.2-0.5c3-2,6-4,9-6c-0.3-0.5-0.5-1-0.8-1.4c-3.5,1.9-6.9,3.9-10.4,5.8
		c-0.2-0.4-0.4-0.8-0.7-1.1c5.1-1.6,8.6-4.9,10.6-9.9c-1,0.4-2.1,0.9-3.7,1.5c1.7-3.3,3.1-5.8,4.3-8.1c1.4,0,2.5,0.1,3.5,0
		c1.2-0.1,2.3-0.7,3.5-0.7c3.7-0.1,7.3,0,11.6,0c-0.1,0,0.6,0.9,1.3,0.8c4.5-0.2,9,0,13.3-1.1c5.2-1.3,10.2-3.4,15.1-5.6
		c3.6-1.6,6.4-4.5,7.5-8.6c0.2-0.6,0.4-1.2,0.7-1.8c1.6-4.2,3.2-8.4,4.9-12.6c-3.7-1.1-3.3,1.1-3.4,2.5c-0.1,3.3-0.8,6.3-3.8,8.9
		c0-1.3,0-2.1,0-3.8c-0.8,1.5-1.2,2.2-1.6,2.9c-0.9-0.5-1.5-0.9-1.4-0.8c-2.1,2.8-3.9,5.1-5.7,7.5c-0.2-0.1-0.5-0.2-0.7-0.4
		c0.2-0.9,0.3-1.8,0.6-3.6c-1.9,2.4-3.3,4.2-4.4,5.6c-5.1-0.2-5.5,3.1-5.9,6.6c-0.8,0-1.7-0.1-2.8-0.2c1-1.9,1-3.3-1.6-2.8
		c0.5-1.8,0.9-3.1,1.3-4.5c-0.3-0.1-0.6-0.2-0.8-0.3c-1.5,1.7-3,3.4-5,5.6c0.2-1.9,0.3-2.9,0.4-4.7c-2,2.1-3.5,3.7-5,5.2
		c-0.1-0.2-0.2-0.3-0.4-0.5c0.9-1.9,1.9-3.8,2.8-5.7c-0.3-0.1-0.5-0.3-0.8-0.4c-3.8,4.2-3.8,4.2-4.4,4c0.2-1,0.4-2.1,0.6-2.9
		c-1.7,1.7-3.3,3.3-4.9,4.8c-0.3-0.3-0.6-0.5-0.9-0.8c1-1.9,2.1-3.7,3.1-5.6c-0.6-0.5-1.2-1-1.8-1.5c-1.3,2.1-2.6,4.2-4,6.3
		c-0.2-0.2-0.5-0.4-0.7-0.7c0.6-1.3,1.2-2.7,1.8-4c-0.1-0.1-0.3-0.1-0.4-0.2c-2,1.9-4.1,3.7-6.1,5.6c-0.2-0.2-0.4-0.4-0.6-0.7
		c1-1.1,2-2.2,2.8-3.4c0.4-0.7,0.4-1.8,0.5-2.7c-0.9,0.4-1.9,0.5-2.6,1.1c-1.5,1.5-2.8,3.1-3.8,4.2c-1.4-0.7-2.3-1.2-3.3-1.7
		c1-1.8,2-3.6,3-5.5c-2.7,2-4.9,4.4-7.4,6.3c-1.1,0.9-3.6,1.6-4.5,1c-2.9-2.1-5.4-4.9-8.1-7.5c7.7-3.6,11.3-10.6,7.4-14.4
		c-0.2,4.8-2.4,8.1-6.2,10.6c3.8-4,4.6-8.5,2.2-14.3c3.5,2.2,8,1.6,8.2,6.7c0.5-1,0.9-1.9,1.7-3.5c1.1,1.9,1.9,3.3,3,5.3
		c-0.1-1.8-0.2-2.9-0.3-4.8c3.6,2.3,8.6,0.1,10.5,5.6c-0.9-3.5,0.3-4.8,3.6-5c5.9-0.3,11.5-1.4,15.4-5.4c5.9,1.3,11.2,2.5,16.6,3.8
		c0.1-0.4,0.2-0.8,0.3-1.3c-5.3-1-9.5-5.2-15.1-5.4c0.5-2.1,1.2-4.9,2-8.1c-2.2,1.3-3.7,2.9-5,2.8c-5.3-0.4-10.6-1.3-15.8-2.2
		c-2.5-0.4-2.6-2.5-1.5-4.2c1-1.5,2.6-3.3,4.2-3.7c3-0.7,6.5-1.2,9.5-0.6c3,0.6,5.6,2.8,8.5,4.3c0.9-3.1,2.7-3.6,5-2
		c2.3,1.6,4.9,3,7.3,4.5c0.2-0.3,0.4-0.6,0.5-0.8c-1.9-1.4-3.8-2.7-5.6-4.1c7.7,1.6,13.6-2.9,20.7-4.3c0.8,0.4,2.3,1.5,3.7,1.5
		c6.1,0,12.3-0.3,18.4-0.5c0.8,0,1.6,0,2.4-0.1c6.9-1.1,13.7-3,20.7-0.8c0.5,0.2,1.2,0.2,1.7,0.1c4.8-0.7,9.7-1.3,14.5-2.3
		c2.2-0.4,4.1-2.3,6.2-2.5c4.1-0.5,5.4-1.3,5.5-4.8c3.8,0.3,4.5-0.5,5.4-5.8C345.6,14.4,344.9,12.9,341.6,12z M178.5,120.9
		c-1.2,0.9-2.5,1.7-4,2.8c0.9,0.6,1.7,1.3,2.6,2c-2.8,0.6-3.2-1.9-4.7-3.3C174.6,121.8,176.6,121.3,178.5,120.9z M207.8,88.3
		c-1.8,2.6-3.2,4.5-4.5,6.4c-0.2-0.1-0.4-0.3-0.6-0.4c0.6-2,1.3-4.1,1.9-6.1c-0.3-0.1-0.6-0.2-1-0.4c-0.5,1-0.9,2-1.4,3
		c-0.3,0.1-0.6,0.1-1,0.2c-0.2-1.2-0.5-2.5-0.9-4.8C203.3,87.1,205.2,87.6,207.8,88.3z M200.7,91.9c-0.7,0.9-1.5,1.8-2.2,2.7
		c0.8,1.4,1.5,2.7,2.3,4c-0.1,0.1-0.3,0.2-0.4,0.3c-1.3-1.4-2.5-2.8-3.9-4.4c1.1-1.1,2.4-2.2,3.7-3.4
		C200.3,91.5,200.5,91.7,200.7,91.9z M198.3,85.7c0.2-0.2,1.1,0.5,1.6,0.7c-1,1.6-2,3.2-3.3,5.2C195.4,88.5,196.7,87,198.3,85.7z
		 M200.6,101.6c0.2,0.3,0.3,0.6,0.5,0.8c-2.1,1.5-4.2,3.2-6.7,4c-0.2-0.4-0.4-0.8-0.6-1.2C196,104,198.3,102.8,200.6,101.6z
		 M176.2,11c-0.3,0.1-0.6,0.2-0.8,0.3c-0.7-1.1-1.5-2.2-2.2-3.3c0,0,0,0,0,0c-0.1-1.5-0.1-3.1-0.2-4.6C174,5.9,175.1,8.5,176.2,11z
		 M168.7,2.6c0.5,0.9,0.9,1.8,1.4,2.6c0.8,1.1,0.1,3.9,2.9,2.8c-0.2,0.9-0.5,1.9-1,3.6c-1.7-3.1-3.1-5.7-4.6-8.3
		C167.9,3.1,168.3,2.9,168.7,2.6z M61.2,40.7c-2.5,3.6-5,7.1-7.3,10.5c-0.7-0.9-1.3-1.7-1.5-2c1.4-1.4,3-2.7,4.3-4.2
		c1.4-1.5,2.5-3.2,3.7-4.9C60.8,40.3,61,40.5,61.2,40.7z M53.4,77.3c3.9,3.9,7.6,8.6,12.2,11.9c4.4,3.1,7.9,7.4,13,9.6
		C70.1,96.4,52.9,81.1,53.4,77.3z M89.2,117.4c5.3,4,10.4,8.3,16.2,11.4c2.3,1.3,4.7,2.7,7.2,3.7c0.9,0.4,2,0.2,3.5,0.2
		c0.6,0.7,1.4,1.6,2.2,2.6c-8,0.9-42-20.6-49.8-31.6C76.8,106.3,82.6,112.4,89.2,117.4z M63.2,94.4c-1.5-1.4-3-2.8-4.5-4.1
		c-1.5-1.4-3.2-2.5-4.6-3.9c-0.7-0.7-1-1.7-1.5-2.6c0.3-0.2,0.6-0.3,0.8-0.5C56.6,87,59.9,90.7,63.2,94.4z M63.5,98.6
		c-0.1,0.2-0.3,0.4-0.4,0.6c-3.2-2.5-6.4-4.9-10.1-7.8c0-0.2,0.1-1.2,0.4-3.3C57.1,92.1,60.3,95.4,63.5,98.6z M48.7,69.3
		c-1,6.5-1.5,13-2.2,19.5c-0.2,0-0.4,0-0.6,0c0-1.9,0.1-3.7,0-5.6c-0.1-1.8-0.4-3.5-0.7-5.5c0.3-0.5,1.3-1.5,1.5-2.7
		c0.9-4.9,1.6-9.9,3-14.8c0.2,1,0.5,2,0.8,3.3c0.9-0.6,1.6-1.1,3.2-2.2c-0.8,1.9-1.5,3.8-1.7,3.8C47.6,64.2,48.9,68,48.7,69.3z
		 M51.6,67c-0.1,1.7-0.1,3.5-0.3,5.2c-0.3,4.4-0.6,8.7-1,13.1c-0.3,0-0.6,0-1-0.1c0.4-6.1,0.8-12.2,1.2-18.3
		C50.9,67,51.3,67,51.6,67z M47.4,48.6c2.2-3.1,4.3-6.3,6.5-9.4c0.3,0.2,0.5,0.5,0.8,0.7C52.4,42.9,50.2,46,48,49
		C47.8,48.9,47.6,48.7,47.4,48.6z M17.5,33.6c-0.2-0.3-0.4-0.6-0.6-1c2.7-2.2,7.3-2,8.8-6.3c0.9,0,2.1,0,3.4,0
		c0.1,0.2,0.2,0.4,0.3,0.6C25.3,29.1,21.4,31.3,17.5,33.6z M22.7,40.7c3.3-1.8,6.4-3.5,9.5-5.2c0.2,0.3,0.5,0.5,0.7,0.8
		c-0.4,0.8-1.2,2.5-1.3,2.4C28.2,37.3,26.1,41.7,22.7,40.7z M8.3,75.7C8.1,75.4,8,75.2,7.8,75c2.5-1.9,5.1-3.9,7.6-5.8
		c0.2,0.4,0.4,0.8,0.7,1.2C13.5,72.1,10.9,73.9,8.3,75.7z M17.8,75.9c-1.4,1.3-2.8,2.5-4.3,3.7c0.1-1.5,0.2-2.9,0.2-3.9
		c2-1.2,3.9-2.4,5.8-3.5c0.3,0.2,0.5,0.4,0.8,0.7C19.5,74,18.8,75,17.8,75.9z M16,69.1c2.5-2.3,4.4-3.9,6.8-6.1
		c-0.4,2-0.7,3.2-0.9,4.1C20.1,67.7,18.5,68.2,16,69.1z M27.6,158.9c1.6,2.8,3.3,5.7,5.2,9C28.3,166.3,28.6,162.2,27.6,158.9z
		 M64.5,154.4c-1.1,4.4-4.4,7.3-7.5,10.3c2.1-3.6,4.3-7.2,6.4-10.8c-0.4-0.2-0.7-0.4-1.1-0.6c-3.4,5.3-6.7,10.6-9.7,15.2
		c-1.6-0.2-2.4-0.6-3.1-0.4c-1.7,0.6-3.3,1.5-5,2.3c0.1,0.3,0.2,0.7,0.3,1c-1.5-0.8-3-1.6-4.9-2.6c1.5-0.4,2.7-0.8,4-1.2
		c-2.6-0.6-5-0.9-7.3-1.7c-5.6-2-7.8-7-9.1-12.1c-1.7-6.5-2.6-13.3-3.4-20c-0.9-7.3-1.6-14.6-1.9-21.9c-0.2-4.4,0.3-8.9,0.9-13.2
		c0.7-4.5-1-9.3,1.3-13.7c0.4-0.7-0.6-2.1-0.9-3.1c0.6-0.7,1.6-1.3,1.7-2c0.4-3.8,0.3-7.6,1-11.3c0.7-3.6,1.9-7.3,3.4-10.6
		c2.6-5.7,5.2-11.4,8.6-16.7c1.6-2.5,4.7-4.3,7.4-5.9c2.2-1.4,4.8-2.3,7.3-3c1.3-0.4,2.8,0.2,3.8,0.3c-4.9,7.4-9.7,14.6-14.6,22.1
		c1.5,0.6,2.1,0.8,2.7,1c-0.4,0.4-0.8,0.7-1.2,1.1c-0.8,1.1-1.9,2.1-2.4,3.4c-2.6,6.6-2.3,13.5-2.2,20.4c0.2,9,0.1,18.1,1,27.1
		c0.7,7.4,2.5,14.7,4,22c0.9,4.6,2.2,9.2,3.5,14.5c0.9-1.2,1.3-1.7,1.6-2.1c0.3,0.2,0.6,0.3,0.6,0.4c0.5,4.7,1.1,9.3,1.2,14
		c0,1.8-1.2,3.6-2.2,5.3c-0.9,1.6-2.2,3-3.6,4.9c6.9-2.8,10.4-4.9,8.1-18.3c3.9-1.2,7.1,1,10.3,2.5
		C64.4,151.4,64.8,153.4,64.5,154.4z M56.4,124.7c6.1,5.1,11.9,9.9,17.8,14.8c-0.1,0.2-0.2,0.4-0.4,0.6c-2.7-1.7-5.4-3.5-8.2-5.1
		c-1.3-0.8-2.8-1.2-4.2-1.8c0.4-0.3,0.8-0.7,1.3-1C61,129.4,56.2,129,56.4,124.7z M73.9,145.9c-4.3-2.8-8.6-5.7-12.9-8.6
		c0.7,5.9,7.9,6.4,9.7,11.4c-2.7-1.5-5.6-2.9-8.3-4.6c-0.8-0.5-1.3-1.6-1.6-2.6c-0.8-2.7-1.4-5.4-2.1-8.6c0.9,0.1,1.8,0.1,2.8,0.2
		c0,0,0,0,0,0c3,2.9,5.9,5.9,8.9,8.7c1.2,1.2,2.7,2.1,4.1,3.1C74.2,145.4,74.1,145.6,73.9,145.9z M76.4,141.7
		c0.2-0.3,0.3-0.6,0.5-0.8c5,2.6,9.9,5.2,14.6,7.6C85.8,148.2,81.4,144.4,76.4,141.7z M55.3,117.1c6.5,5.3,12.6,11,19.4,15.8
		c6.9,4.9,14.5,9,21.6,13.7C80.7,139.4,66.1,131,55.3,117.1z M53.8,109.9c1.6-0.3,4.1,2.1,5.7,5.2C57.9,113.6,55.8,111.7,53.8,109.9
		z M60.7,117c6.4,4.5,12.4,9,18.7,13.1c6.3,4,12.8,7.6,19.3,11.3C94.4,142.8,66,124.7,60.7,117z M98.4,137.1
		c-17.8-7-31.5-19.8-44.4-33.8c0.8,0.4,1.8,0.7,2.5,1.2c5.8,5.2,11.3,10.8,17.5,15.5c6.3,4.8,13.3,8.8,20,13.1
		c1.7,1.1,3.4,2,5.1,3.1C98.8,136.4,98.6,136.8,98.4,137.1z M126.3,142.4c-3.5-0.8-7.1-1.6-10.5-2.6c-10.4-3-19.6-8.6-28.5-14.5
		c-6.3-4.2-12.2-9.1-18.1-13.9c-3.6-2.9-6.9-6.1-10-9.7c2.5,1.7,5.1,3.3,7.4,5.2c11.2,9.1,22.4,18.3,35,25.4
		c7.4,4.1,15.3,7.1,23.7,8.8c0.4,0.1,0.8,0.3,1.2,0.5C126.5,141.7,126.4,142.1,126.3,142.4z M79.5,106.6c1.4,0.1,3-0.3,3.9,0.3
		c3.8,2.6,7.8,5,10.9,8.3c6.7,7.1,15.5,10.4,23.9,14.4c3,1.4,6.5,1.5,9.7,2.6c2,0.7,3.7,2.2,6.3,3.8
		C112.8,131.1,94.9,121.6,79.5,106.6z M86.4,105.8c0.1-0.3,0.3-0.6,0.4-0.9c1.5,0.7,3.3,1.1,4.6,2.1c5.4,3.8,10.4,8.4,16.1,11.6
		c7,4,14.6,6.9,22,10.3c1.3,0.6,2.7,1,3.8,1.9C115.2,127.3,100.3,117.5,86.4,105.8z M94.8,105.5c2.6-0.6,4.4,0.8,6.5,2.4
		c4.1,3.2,8.7,5.8,13.1,8.7c1.8,1.1,3.7,2.1,5.4,3.3c6.3,4.3,13.5,5.9,20.8,7.4c1.1,0.2,2.1,0.5,4.1,1
		C134.2,130.4,105.1,116.7,94.8,105.5z M103.9,105c13.3,10.5,28.6,16.4,45,20.1C132.1,122.5,116.3,117.4,103.9,105z M111.1,105
		c13.4,7.9,27.6,14,42.8,17.4C138.3,120.1,123.7,114.9,111.1,105z M146,111.7c-4.2,0.7-17.9-4.8-19.9-8.1
		C132.9,106.4,139.3,109,146,111.7z M134.9,104.5c0.1-0.4,0.3-0.9,0.4-1.3c3,1.1,5.9,2.2,8.9,3.3c-0.1,0.3-0.2,0.6-0.3,0.9
		C140.9,106.5,137.9,105.5,134.9,104.5z M142.3,114.7c1,0.4,2,0.7,3,1.1c-0.2,0.4-0.3,0.7-0.5,1.1c-9.4-2.8-18.8-5.8-27-11.5
		c0.1-0.4,0.2-0.7,0.3-1.1c0.7-0.1,1.5-0.1,2.2-0.1c0.7,0,1.4,0.1,1.6,0.8c1.1,1,2,2.4,3.4,3C130.9,110.3,136.7,112.5,142.3,114.7z
		 M180.8,85.9c0.6-1.7,2-3.7,1.6-5.3c-0.4-1.7-2.5-3.1-4.4-4.3c1,1.6,1.9,3.3,2.9,4.9c-0.2,0.2-0.3,0.4-0.5,0.6
		c-1.7-1.5-3.4-2.9-5.1-4.4c-0.2,0.2-0.4,0.3-0.5,0.5c1.4,2.1,2.8,4.2,4.7,7.1c-1.4-0.6-1.9-0.9-2.5-1.2c-0.1,0.7-0.3,1.4-0.4,2
		c-2.2,0.6-5-2.4-5.3-5.4c-0.2-2.5,2.9-7.3,5.1-8.6c2-1.1,3.1-0.2,4,1.3c1.2,2,2.4,4.1,3.3,6.3C185.6,83.8,185.2,84.5,180.8,85.9z
		 M186,99.8c-1.4-1.7-2.8-3.4-4.1-5.1c0.2-0.3,0.5-0.6,0.7-1c1.3,0.9,2.6,1.8,4.1,2.8c-0.4,0.6-2.4,1.5,1.4,2.8
		C187.4,99.5,186.7,99.6,186,99.8z M186.5,84.6c0-2.4,0-4.7,0-7.9c3.8,3.2,0.8,5.5,1,7.9C187.1,84.6,186.8,84.6,186.5,84.6z
		 M190.5,81.3c2.6,0.8,1.6,5.7-2.4,8.8C188.9,87.2,189.7,84.3,190.5,81.3z M188.2,67.4c-1.7-1.8-3.1-3.5-4.6-5.1
		c-1.4-1.6-2.9-3.2-5-4.2c2.1,2.7,4.2,5.4,6.3,8c-0.2,0.2-0.4,0.5-0.6,0.7c-1.9-1.8-3.9-3.6-5.8-5.5c-0.2,0.2-0.4,0.3-0.6,0.5
		c1.5,1.9,3,3.7,4.6,5.8c-6.1-1-8.4-5.8-5.9-10.6c1.3-2.6,2.3-5.1,6-4.2c0.4,0.1,1.1-0.9,1.5-1.3c2.2,1.1,4.2,2.1,6.2,3
		c-0.1,0.1-0.1,0.3-0.2,0.4c-0.8-0.1-1.7-0.3-2.9-0.5c1.1,1.7,2,3.1,2.9,4.4c-0.1,0.2-0.3,0.3-0.4,0.5c-1.1-1.7-2.2-3.4-3.3-5.1
		c-0.3,0.3-0.7,0.7-1,1c1.8,4.1,3.6,6,6.3,6.4C192.6,65.1,190.5,66.4,188.2,67.4z M219,47.8c0.7,0.4,1.5,0.8,2.6,1.4
		c-2.5,2.6-4.7,5-7,7.4c-0.2-0.2-0.4-0.4-0.7-0.5C215.6,53.5,217.2,50.9,219,47.8z M215.7,38c-0.8,1.3-1.3,2.9-1.9,4.4
		c-0.7,1.9-0.9,3.3,1.6,4.4c1.5,0.6,2.5,2.4,0.2,4c-1.9,1.3-3.4,3.1-5.2,4.5c-0.7,0.6-1.8,0.7-2.7,1.1c2.4-2.7,4.6-5.2,6.8-7.8
		c-0.3-0.3-0.6-0.6-1-0.9c-2.5,2.1-5.1,4.2-7.6,6.2c-0.1-0.1-0.3-0.2-0.4-0.3c1.2-1.6,2.3-3.3,3.5-4.9c-0.2-0.3-0.5-0.6-0.7-0.9
		c-2.3,1.7-4.7,3.5-7.8,5.8c1.8-2.6,3.1-4.4,4.4-6.3c-0.3-0.3-0.5-0.6-0.8-0.9c-2,1.5-4.1,3-6.1,4.6c-0.2-0.2-0.3-0.3-0.5-0.5
		c1.5-1.9,2.9-3.8,4.4-5.8c-0.2-0.3-0.5-0.6-0.7-0.9c-2.5,1.8-4.9,3.5-7.4,5.3c-0.1-0.1-0.2-0.2-0.3-0.2c1.7-2.2,3.5-4.3,5.2-6.5
		c-0.3-0.4-0.6-0.7-0.9-1.1c-2,1.3-4.1,2.7-6.9,4.5c1.9-2.9,3.3-5,4.8-7.1c-0.2-0.3-0.4-0.5-0.7-0.8c-2.4,1.7-4.7,3.4-7.5,5.4
		c1.6-2.4,2.9-4.5,4.2-6.6c-0.2-0.2-0.3-0.4-0.5-0.6c-1.7,1.2-3.3,2.4-5,3.6c-0.3-1.5-0.6-3.1-0.7-3.8c1.3-1.1,2.3-1.8,3.3-2.6
		c-0.2-0.2-0.4-0.4-0.6-0.7c-1.6,0.3-3.2,0.7-5.6,1.1c-0.7,1.1-1.9,3-3.2,4.9c-0.2-0.1-0.4-0.2-0.7-0.3c0.7-1.9,1.4-3.9,2.2-5.8
		c-0.3-0.2-0.6-0.4-0.9-0.5c-2,3.1-4,6.1-6,9.2c-0.3-0.1-0.5-0.3-0.8-0.4c0.7-1.4,1.4-2.8,2.1-4.3c-2-1.2-2-1.1-4,2.3
		c-1,1.7-2.3,3.2-3.5,4.8c-0.2-0.2-0.5-0.3-0.7-0.5c0.9-1.9,1.8-3.7,2.7-5.6c-0.2-0.2-0.5-0.4-0.7-0.6c-1.1,1.2-2.2,2.5-3.5,3.9
		c-0.6-1.6-0.7-4.8-3.2-1c-0.3-3.7-1.9-3.1-3.7-1.4c-0.4-0.9-0.7-1.7-1.3-3.3c-0.4,1.7-0.6,2.6-0.9,3.6c-0.3-0.2-0.8-0.3-0.9-0.5
		c-0.5-1.1-0.8-2.4-1.4-3.4c-0.3-0.5-1.1-0.7-1.7-1c-0.1,0.7-0.6,1.4-0.4,2c0.4,1.2,1.1,2.2,1.1,3.7c-1.1-0.9-2.2-1.9-3.3-2.8
		c-0.2,0.2-0.4,0.4-0.6,0.6c1.5,1.9,2.9,3.8,4.4,5.7c-0.2,0.2-0.4,0.3-0.6,0.5c-2.8-3-5.6-6-8.3-9c-0.4,0.4-0.8,0.7-1.2,1.1
		c2.2,3.1,4.5,6.1,6.7,9.2c-0.2,0.2-0.4,0.4-0.5,0.6c-3-2.9-5.9-5.8-8.9-8.6c-0.3,0.3-0.6,0.5-0.9,0.8c3,3.9,6.1,7.7,9.1,11.5
		c-5.6-1.4-7.8-8-12.8-10.5c-0.2,0.3-0.5,0.5-0.7,0.8c1.4,1.9,2.5,4.2,4.2,5.7c3.3,2.9,6.9,5.7,10.7,7.8c1.6,0.9,4.3-0.2,6.6-0.4
		c0-0.5,0.1,0,0,0.3c-5,7.9-8.9,16.5-16.3,22.7c-2.7,2.3-4.8,5.5-7.7,7.6c-2.8,2.1-6.1,3.4-9.6,5.3c0.9-3.3,0.9-3.3,5.8-4.6
		c-4-1.5-7.5-2.9-11.1-4.2c5-0.5,9.3,4.4,14.3,2c0.1-0.4,0.1-0.7,0.2-1.1c-4.1-1.4-8.3-2.8-12.4-4.4c-2-0.8-3.8-1.9-5.5-3.1
		c-2.9-2.1-5.4-5-9.9-3.6c4,2.9,8,5.8,12,8.7c-7.7-1-11.7-8.9-19.4-10.1c6.6,6.1,13.6,11.5,21.6,16c-1-0.3-2.2-0.3-3-0.8
		c-5.2-3.1-10.3-6.3-15.5-9.3c-1.5-0.9-3.3-1.2-4.9-1.7c-0.2,0.5-0.4,0.9-0.6,1.4c2.9,1.6,5.9,3.2,8.9,4.8c-0.8,3.1,2.6,2.9,4.3,4
		c1.9,1.2,4.2,1.7,6.3,2.5c-0.2,0.5-0.4,1-0.5,1.4c-3.5-1.5-7-2.8-10.3-4.6c-3.2-1.7-6.1-3.9-9.1-5.8c-0.3,0.5-0.7,0.9-1,1.4
		c2.6,2,5.1,4.4,7.9,5.9c4.6,2.5,9.4,4.6,14.2,6.6c0.8,0.3,2.2-0.7,3.4-1c1-0.3,2-0.7,3.1-1c0.1,0.3,0.2,0.6,0.3,0.9
		c-2.8,1.4-5.5,2.7-7.7,3.8c-1.7-1.3-2.7-2.3-3.9-3c-4.7-2.6-9.6-5-14.2-7.8c-3.8-2.3-7.2-5.2-10.9-7.7c-0.5-0.3-1.3-0.2-2-0.2l0,0
		c0.1-0.7,0.3-1.3,0.4-2.1c-1.9-1.7-4-3.7-6-5.6c-0.4,0.4-0.8,0.9-1.2,1.3c2.2,2.2,4.4,4.4,6.7,6.6c4.8,4.1,9.6,8.3,14.4,12.4
		c1,0.9,2.2,1.5,3.1,2.6c-9.1-2.9-15.2-10.5-23.4-15c4.7,6.7,11.5,10.9,17.9,15.6c-8.1-0.8-12.6-8-19.8-11.6
		c1.4,5.8,17.6,16.4,22.9,15.4c-0.2-0.8-0.4-1.5-0.5-2.1c2.6,0.5,5.1,1,8.1,1.7c-0.6-1.3-0.8-1.7-1-2.2c2.1,0.3,4.2,0.6,7.3,1.1
		c-3.1,0.9-5.3,1.7-7.5,2.2c-2.1,0.4-4.3,0.3-6.4,0.7c-5.3,1-8.8-2.4-12.8-4.8c-2.2-1.4-4.6-2.5-7-3.9c0,0-0.1-1.3-0.5-1.4
		c-3-0.9-4.1-3.9-6.4-5.5c-1-0.7-2.3-0.9-3.5-1.3c-0.2,0.4-0.4,0.8-0.6,1.2c3.7,3.2,7.3,6.4,11,9.7c-7.9-2.1-11.6-10.3-18.6-13.7
		c-0.3,0.4-0.6,0.7-1,1.1c3.3,3.3,6.6,6.6,9.8,9.8c-1.4,0.8-2.6,0.1-4.4-2c-2.8-3.2-5.7-6.2-8.7-9.2c-0.6-0.6-1.7-0.5-2.7-0.8
		c0.3-1.3,0.6-2.6,1.1-4.6c2,2,3.7,3.8,5.4,5.5c0.4-0.3,0.8-0.6,1.1-0.9c-0.5-0.9-0.9-1.8-1.4-2.7c-1-1.6-2.2-3.2-3.1-4.9
		c-1.6-3-1.3-3.4,2.2-3.8c-0.9,5.8,4.7,13.3,10,13.3c-2.4-3.3-4.9-6.4-7-9.7c-1.6-2.5-3-5.1-4.1-7.8c-0.9-2.4,0.2-3.7,3.1-3.5
		c-2-5.6,1.6-10.1,5.2-12c3.6-2,7-4.3,10.6-6.4c3.5-2.1,6.9-4.6,10.7-6.3c-7,5.1-14,10.3-21,15.4c0.3,0.4,0.5,0.8,0.8,1.2
		c5.6-3.6,11.2-7.1,16.8-10.7c0.2,0.2,0.3,0.4,0.5,0.7c-2.3,1.8-4.6,3.7-6.9,5.5c0.3,0.4,0.5,0.7,0.8,1.1C83.5,40.6,89.2,37,95.7,33
		c-1.4-0.1-2-0.2-2.5-0.2c4.5-1.3,9.3-2.1,12-6.4c1.6-0.4,3.5-0.6,5.2-1.4c6.9-3.4,13.7-7,20.6-10.3c12.2-5.9,24.6-5,37.3-1.3
		c4.9,1.4,10,2.4,15,3.3c3.6,0.6,7.3,0.7,10.9,1.1c0.6,0.1,2.5,0.5,0.4,1.6c0.4,0.4,0.7,0.8,1.1,1.1c6.2,4.1,12.3,8.4,18.6,12.3
		C216.5,34.2,217.2,35.6,215.7,38z"/>
		<path d="M250.1,2.8c8.7,0.2,17.4,0.5,26,0.8c1.1,0,2.3,0.2,3.4,0.1c2.5-0.1,5.1-0.3,7.6-0.5c-5.3-1.1-10.5-1.6-15.7-1.8
		c-4.3-0.2-8.6,0-12.8-0.1c-8.4-0.2-16.7-0.4-25.1-0.7c-1.5-0.1-2.9-0.4-4.3-0.6c-0.5,0-0.9,0-1.4,0c-5.4,0.2-10.7,0.5-16.1,0.7
		c-1.2,0.1-2.5,0.2-3.7,0.2c7.7,1,15.3,1.5,23,1.8C237.3,2.9,243.7,2.7,250.1,2.8z"/>
		<path d="M317.9,6c6.9,1.2,13.8,2.8,20.6,4.2c0.1-0.4,0.1-0.8,0.2-1.2c-14.1-3.5-28.1-7.2-42.9-5.9c0,0.3-0.1,0.6-0.1,0.9
		c4,0.5,8,1,12,1.4C311.1,5.7,314.5,5.4,317.9,6z"/>
		<path d="M204.4,67c-1.8,2.4-3.5,4.8-5.3,7.2c-0.3-0.1-0.6-0.2-0.9-0.4c1-2.9,2.1-5.9,3.1-8.8c-0.2,0-0.3,0-0.5,0
		c-2.8,3.4-5.5,6.9-8.1,10.1c0.3,0.2,1.7,0.7,1.8,1.3c0.1,3,1.8,1.9,3.3,1.5c0.8-0.3,1.7-0.5,2.5-0.8c1.6-3.3,3.2-6.6,4.7-9.9
		C204.8,67.2,204.6,67.1,204.4,67z"/>
		<path d="M251.8,100.6c2.4-3.1,2.5-8.4,0.4-12.1c0,1.5,0,3.1,0,4.7c-1.8-0.2-3.2-0.4-4.9-0.6c0.2,3.1,0.4,5.8,0.6,8.6
		c0.3,0,0.6,0,0.8,0c0.3-2.1,0.7-4.2,1.1-6.5c1,0.5,1.7,0.9,2.5,1.3C250,98.9,250,98.9,251.8,100.6z"/>
		<path d="M200.3,77.2L200.3,77.2C200.3,77.1,200.3,77.1,200.3,77.2C200.2,77.2,200.2,77.2,200.3,77.2
		C200.2,77.2,200.2,77.2,200.3,77.2L200.3,77.2C200.2,77.2,200.2,77.2,200.3,77.2C200.3,77.2,200.3,77.1,200.3,77.2
		C200.3,77.1,200.3,77.1,200.3,77.2z"/>
		<path d="M206.9,71.1c-2.1,1.9-4.4,4-6.6,6.1c-0.9,1.1-1.9,2.2-3,3.5C202.5,80,206.5,75.7,206.9,71.1z"/>
		<path d="M211.5,104.7c1-1,1.6-2.4,2.8-4.3c-1.8,1-2.8,1.5-4.1,2.1c-0.2-1.3-0.3-2.2-0.5-3.3c-0.8,0.5-1.4,0.8-2.1,1.1
		c0.8,1,1.4,1.8,1.7,2.3c-0.3,1.5-0.4,2.4-0.6,3.4C209.7,105.6,210.9,105.4,211.5,104.7z"/>
		<path d="M223.5,38.6c3.8,1,7.5,2.1,11.3,3.1c0.1-0.5,0.2-1,0.4-1.4c-3.8-0.9-7.6-1.7-11.3-2.6C223.8,37.9,223.6,38.3,223.5,38.6z"
			/>
		<path d="M263.6,53.4c0.2-0.3,0.4-0.6,0.7-0.9c-3.6-2.9-7.2-5.8-10.8-8.7c-0.2,0.2-0.4,0.5-0.6,0.7C256.4,47.6,260,50.5,263.6,53.4z
		"/>
		<path d="M174.6,108.6c-2.9,1.3-5.4,2.5-7.9,3.6C169.5,113.7,172.7,112.4,174.6,108.6z"/>
		<path d="M300.1,24.7c1.5-2.5,1.4-5.3,0.6-8.1c-0.6,2.6-1.2,5.3-1.8,7.9C299.3,24.6,299.7,24.6,300.1,24.7z"/>
		<path d="M209,79.4c3-0.5,3.9-3,4.6-4.9c-1.6,1.1-3.6,2.6-5.5,4C208.3,78.7,208.7,79,209,79.4z"/>
		<path d="M22.5,54.7c-4.8,3.3-9.6,6.6-14.4,10c-3.6,2.5-3.9,3.4-3.2,8.4c6.2-4,7.8-6,6.6-8.1c3.4,0.6,10.7-5.1,13.4-10.5
		C24.1,54.6,23.1,54.3,22.5,54.7z"/>
		<path d="M138.1,59.6c-1.1,2.9-3,1.7-4.3,0.7c-2.3-1.6-4.3-3.8-6.5-5.6c-3.1-2.7-6.3-5.2-9.5-7.9c-0.3,0.3-0.5,0.5-0.8,0.8
		c2.8,2.7,5.7,5.2,8.2,8.1c2.4,2.9,7,3.5,8.4,7.4c-0.2,0.3-0.5,0.6-0.7,0.9c-4.8-3.5-9.7-6.9-15.2-10.9c2.5,7,21.8,18.4,27.1,15.8
		c-3.9-1.2-7.2-2.1-10.4-3.1c3.6-2.8,7.2-3.6,9.2-2.1c-1.2,0.5-2.4,1-3.6,1.5c1.5,1.3,2.9,1.9,4.3,2.2c0.8,0.2,2,0.1,2.4-0.3
		c1-1.1,1.7-2.6,2.7-4.4c-3-1.2-6.3-2.5-9.6-3.7C139.4,58.9,138.3,59.3,138.1,59.6z"/>
		<path d="M115.9,69.4c-2.9-1.6-5-4.6-7.6-6.8c-2.1-1.8-4.5-3.2-6.6-4.9c-1.6-1.3-3.1-2.8-4.8-4.1c-1-0.8-2.2-1.3-3.2-1.9
		c-0.2,0.4-0.4,0.7-0.6,1.1c2.3,2.3,4.7,4.6,7,6.9c1.2,1.2,2.1,2.7,3.4,3.7c2.9,2.2,6.3,3.8,9,6.2c5.8,5,12.7,7.5,19.8,9.8
		c2,0.6,3.3,0.3,4.1-2.1c-2-0.5-4-0.7-5.7-1.4C125.7,73.9,120.6,72,115.9,69.4z"/>
		<path d="M149.3,61.2c1.6-1.8,2.9-3.4,4-4.7c-5.8-3.2-11.2-6.2-16.5-9.1c-0.2,0.2-0.3,0.5-0.5,0.7c3.9,3.2,7.8,6.3,11.7,9.5
		c-7.9-1.5-12-8.8-18.8-11.9C134.2,53.2,140.5,59,149.3,61.2z"/>
		<path d="M131.9,75c2.3,0.7,4.9,2.6,8.3-0.3c-15.3-3.5-26-13.4-37.8-21.4C110.9,62.4,119.7,71.1,131.9,75z"/>
		<path d="M124.8,63.5c-1-0.5-2.4-0.1-3.6-0.1c6.2,4.6,12,9.8,20.1,8.6c-3.6-1.7-7.1-3.3-10.6-5.1C128.7,65.9,126.9,64.4,124.8,63.5z
		"/>
		<path d="M137.1,58.7c0.2-3.2-8.2-10.1-12.9-10c4.2,3.9,8,7.4,11.9,10.9C136.5,59.3,136.8,59,137.1,58.7z"/>
		<path d="M84.2,62.7c0.2,0.5,0.4,1.1,0.8,1.5c2.1,2.1,4.2,4.2,6.3,6.3c1.6,1.5,3.3,2.2,5.7,0.7c-4.2-3.3-8.1-6.3-12-9.4
		C84.7,62.1,84.5,62.4,84.2,62.7z"/>
		<path d="M81.9,67.1c4,2.8,5.7,8.4,11.4,9.1c0.2-0.3,0.4-0.5,0.6-0.8c-3.7-3.2-7.3-6.4-11-9.6C82.6,66.2,82.3,66.7,81.9,67.1z"/>
		<path d="M122,61.1c-3.7-2.5-7.3-4.9-11-7.4c-0.3,0.5-0.6,1-0.9,1.5C114.1,57.3,116,62.6,122,61.1z"/>
		<path d="M77,71.6c-3-2.9-5.8-5.6-8.5-8.3C69.6,68.9,74.8,73.4,77,71.6z"/>
		<path d="M62.9,62c-0.4,0.3-0.8,0.7-1.1,1c3.3,2.2,2.5,7.9,8.4,8.9C67.5,68.3,65.2,65.2,62.9,62z"/>
		<path d="M69.3,73.7c2,1.7,2.9,5.2,6.2,4.7c0.3-0.4,0.5-0.8,0.8-1.2c-2.1-1.5-4.2-3.1-6.3-4.6C69.7,73,69.5,73.3,69.3,73.7z"/>
		<path d="M99.5,65.5c1.8,1.1,3.6,2.2,5.5,3.2c0.3-0.4,0.5-0.9,0.8-1.3c-1.7-1.2-3.4-2.4-5.1-3.6C100.3,64.4,99.9,64.9,99.5,65.5z"/>
		<path d="M91.5,64.4c1.7,1.1,3.5,2.3,5.2,3.4c0.3-0.5,0.6-0.9,0.9-1.4c-1.7-1.1-3.4-2.2-5.2-3.3C92.2,63.6,91.8,64,91.5,64.4z"/>
		<path d="M48.3,156.5c-1.1-2.7-2.3-5.4-3.2-8.2c-1-3.4-4.3-3.1-6.3-3.1c-1.6,0-4.4,2.5-4.6,4.2c-0.3,2.5-3.2,5.7,0.7,8
		c0.1,0.1,0,0.5,0.1,0.8c0.4,1.3,0.5,3,1.3,3.8c2,1.9,4.2,3.3,7.4,2C47.2,162.5,47.7,159.9,48.3,156.5z M35.7,157.4
		c-0.1-2-0.7-3.5-0.2-4.4c1-1.7,2.5-3.2,5.1-2.2C39,152.9,37.7,154.7,35.7,157.4z"/>
		<path d="M27.1,103.4c-0.5,0-1.1,0.1-1.6,0.1c0.3,5.4,0.6,10.8,0.9,16.2c0.2,0,0.5,0,0.7,0C27.1,114.2,27.1,108.8,27.1,103.4z"/>
		<path d="M29.2,79.7c1.1-6.4,2.2-12.8,3.5-20.2C29.9,65,27.9,77.7,29.2,79.7z"/>
		<path d="M28.1,88.5c-0.3,0-0.7,0-1,0c-0.4,4.5-0.7,9-1.1,13.5c0.4,0,0.9,0.1,1.3,0.1C27.5,97.5,27.8,93,28.1,88.5z"/>
		<path d="M26.5,122.5c0.4,3.2,0.8,6.3,1.3,9.5c0.5-0.1,1-0.1,1.4-0.2c-0.3-3.2-0.7-6.4-1-9.6C27.6,122.3,27,122.4,26.5,122.5z"/>
	</g>
	<g>
		<path d="M331,234c-9.2-1.4-18.5-2.6-27.8-2.9c-4.6-0.2-9.2-0.5-13.7-1.6c-12.4-3.1-24.8-5.5-37.7-4.4c-2.1,0.2-4.3,0-6.4-0.2
		c-16.2-1.6-31.9-5.7-47.7-9.3c-5.8-1.3-11.7-3.1-17.6-1.2c-12.9,4.3-25.6,9.1-38.5,13.6c-12,4.2-23.7,9.1-35.3,14.4
		c-5.3,2.4-6.3,1.7-7.9-3.6c-1.1-3.7-4.3-4.8-6.9-2.5c-1.1,1-1.5,2.3-1.7,3.6c-0.7,4.6-1.2,9.1-1.8,13.7c-0.2,1.4,0.3,2.5,1.7,2.9
		c1.5,0.5,2.5-0.4,3-1.5c1.6-3.2,4.2-4.7,7.4-5.9c22.2-8,44.5-15.7,66.6-24.2c10.3-4,20.1-5,30.9-2.8c19.1,4,38.4,7.4,58,8.8
		c1.3,0.1,2.5,0.3,3.5,1.1c1.5,1.2,2.8,1.1,4.1-0.4c1.1-1.3,2.1-1.5,3.1,0.2c1,1.7,2.4,2,3.9,0.5c1.8-1.8,3.1-1.3,4.1,0.8
		c0.7,1.4,1.8,1.9,2.9,0.6c2.6-3,5.5-2.3,8.6-1c5.6,2.2,11.2,3.9,17.4,2.4c1.7-0.4,3.6-0.3,5.4-0.2c2.3,0.1,4.2,0.9,5.4,2.9
		c1.9,3.4,5,4.7,8.6,5.1c1.9,0.2,3.8,0.4,5.7,0.5c0.8,0.1,1.8,0,1.9,0.9c0.2,1-0.8,1.2-1.5,1.5c-3,1.2-6,1.7-9.2,1.5
		c-5.7-0.4-11.5-0.6-17.2-1.4c-2.6-0.4-5.2-0.7-7.7,0c-7,1.9-13.8,1.2-20.6-0.9c-2.7-0.8-5.2-0.8-7.9,0c-7.1,2.2-14.2,2.3-21.2-0.4
		c-3.3-1.3-6.2-1.1-9.5,0.1c-11.4,4-22.9,4.1-34.6,1.2c-5.4-1.4-5.4-1.4-7.3,3.9c-0.2,0.5-0.4,1-0.6,1.6c-1.1,2.7-3,3.3-5.7,2.2
		c-2.2-0.9-3.7-2.5-5.4-4c-2.4-2.1-2.9-1.9-3.4,1.2c-0.3,2-0.5,4-0.9,6c-1.3,6.3-4.6,8-10.5,5.4c-3.9-1.7-7.7-3.8-11.9-4.7
		c-1.7-0.4-3.6-1.1-4.3,1.1c-0.7,2.1,1.4,2.5,2.7,3.2c5,2.8,10.8,4.6,14.7,8.8c10,10.9,23.3,14.2,37,16.6c0.8,0.2,1.8,0,2.7-0.3
		c5.1-1.5,10.2-1.8,15.4-0.9c8.6,1.5,16.9,3.9,23.5,10.1c0.6,0.5,1.5,1,1.2,1.9c-0.5,1.2-1.5,0.4-2.3,0.3c-4.1-0.8-8.1-0.3-12,0.7
		c-4.2,1-6.8,4.5-6.9,8.9c-0.1,2.4,0.1,4.7,1.2,6.9c0.3,0.6,0.5,1.3-0.1,1.9c-0.2,0.2-0.9,0.1-1.2-0.2c-4.6-3.4-10.2-4.5-15.3-6.7
		c-9.2-4.1-18.8-3.8-28.2-3.7c-8.1,0.1-15.4-0.9-22.1-5.5c-1.9-1.3-2.8-0.6-3.7,1c-0.5,1.1-1.1,2.2-1.5,3.4c-1,3.3-3.3,4.9-6.6,5.5
		c-5.1,1-10.2,1.3-15.4,0.8c-9-1-17.7-3-26.6-4.4c-5.1-0.8-8-3.5-9.4-8.3c-0.4-1.3-0.9-2.5-1.3-3.8c-2.2-7.3-3.7-14.8-4.1-22.5
		c-0.1-2.1-0.6-4.5-3-4.6c-2.4-0.1-2.1,2.4-2.5,4.1c-2.5,10.6-2.3,21.4-2.8,32.2c-0.3,6.4-0.1,12.8,0.4,19.2
		c0.5,6.3,1.4,12.5,3.3,18.6c0.4,1.2,0.9,2.5,2.4,2.5c1.4,0,2.6-0.8,3.2-2.1c0.5-1.1,0.9-2.3,1-3.5c0.4-3.1,1-6.2,0.9-9.4
		c-0.1-3.6,1.3-4.3,4.3-2.6c4,2.3,8,4.6,11.9,7.1c8.3,5.3,17.1,7.9,26.9,6.3c8.5-1.4,15.6-5.6,22.1-11c1.4-1.2,2.2-1.7,3.3,0.3
		c3.2,6,8.5,7.7,14.8,6.5c2-0.4,2.8,0.1,3.5,1.9c3.3,8.8,6.7,9.8,14.7,4.9c1.1-0.7,2.3-1.4,3.4-2.2c3.3-2.5,7-4,11.1-4.8
		c4-0.8,7.3-2.7,10-5.8c4.9-5.6,11.1-7.9,18.5-6.8c3.1,0.5,6.1,0.4,9-0.4c6.6-1.8,10-6.8,9.2-13.6c-0.6-4.7-2.2-9.2-4.3-13.4
		c-1.6-3.2-3.3-6.4-3.7-10.1c-0.4-3.5-2-6.4-4.1-9.1c-2.9-3.7-5.7-7.5-8.5-11.3c-0.9-1.2-1.3-2.2,0.7-2.5
		c11.1-1.7,22.1-4.4,33.5-3.8c5.8,0.3,11.7,1.3,17.5,0.6c6.7-0.8,13.4-0.8,20.2-0.2c7.5,0.6,14.5-1.2,21.2-4.5
		c3.2-1.6,5.9-3.9,7.3-7.2C340.5,240.9,338.8,235.2,331,234z M254.1,309.7c0.3,4.7-4.5,9.6-10.2,10.4c-5.7,0.9-12.3-3.9-13.3-9.5
		c-0.6-3.3,2.2-7.2,6.1-8.2c1.9-0.5,4-0.6,6-0.9C249.4,301.6,253.8,304.8,254.1,309.7z M331.1,240.2c-3.9,1.2-7.8,0.3-11.5-1
		c-1.5-0.6-0.8-1.8,0.5-2.3c1.5-0.6,3.1-0.1,5.4-0.1c1.3,0.2,3.3,0.4,5.3,0.7c0.8,0.1,1.6,0.4,1.6,1.4
		C332.4,239.6,331.7,240,331.1,240.2z"/>
		<path d="M81.9,344.5c-4.6,0.7-9.1,1.4-13.7,1.8c-3.8,0.3-5.3-1-6.1-4.8c-0.3-1.2-0.5-2.4-0.6-3.7c-0.9-10.9-1.9-21.7-1.7-30.3
		c0-16.5,1.3-30.5,2.7-44.4c0.6-5.9,1.1-11.9,2-17.8c0.9-5.7,3.9-7.9,9.7-7.3c2.3,0.2,4.7,0.8,7,1.1c1.7,0.2,3.4,0.3,5,0.2
		c1.5-0.1,2.7-1.1,2.7-2.6c0.1-1.8-1.5-2-2.9-2.1c-2.2-0.2-4.5-0.3-6.7-0.4c-1.7-0.1-3-0.7-4.1-2c-5.6-6.7-14.3-8.2-21.8-3.8
		c-2.6,1.5-5.2,2.1-8.1,1.5c-2.7-0.6-5.4-1.2-8-0.3c-5,1.7-9.9,1.2-15,0.1c-2.4-0.5-4.9-0.9-7.3-1.1c-5.7-0.4-7.5,1.2-7.3,6.8
		c0.3,9.5-0.4,19,0.6,28.6c0.7,7-0.4,14.1-0.7,21.2c-0.4,14.4-1.5,28.8-0.4,43.2c0.4,5.4,0.5,10.8,0,16.2
		c-0.8,8.5-3.1,16.8-2.7,25.4c0.2,4.2,1.5,5.6,5.7,5.6c10.7,0.1,21.1-2.7,31.7-3.9c5.2-0.6,9.8-0.9,14.6,1.6
		c6.9,3.5,11.6,0.8,12.7-6.9c0.5-3.6,0.7-7.2,0.9-10.8c0.2-3.3,1.5-4.9,5-4.8c2.5,0.1,4.9-0.4,7.4-0.5c2.4-0.1,3.5-1.2,3.1-3.6
		C85.5,344.3,83.9,344.2,81.9,344.5z"/>
		<path d="M237.8,308c-0.1-1,0.4-2.5-1.2-2.7c-1.3-0.1-2.3,0.9-3,1.9c-1.2,1.9-1,3.9,0,5.7c2,3.7,5.4,5.1,9.9,5.2
		c1.3,0.1,2.9-0.2,4.4-1.2c0.8-0.5,2.1-0.9,2-2c-0.1-1.4-1.6-0.9-2.4-1.1c-1.7-0.4-3.6-0.5-5.3-1C239.8,312.2,238.2,310.7,237.8,308
		z"/>
	</g>
</svg>
