<?xml version="1.0" encoding="utf-8"?>
<!-- Generator: Adobe Illustrator 22.1.0, SVG Export Plug-In . SVG Version: 6.00 Build 0)  -->
<svg version="1.1" id="Layer_1" xmlns="http://www.w3.org/2000/svg" xmlns:xlink="http://www.w3.org/1999/xlink" x="0px" y="0px"
	 viewBox="0 0 135 68.3" enable-background="new 0 0 135 68.3" xml:space="preserve">
<g id="layer1">
	<path d="M133.6,4.7c0.2,1,1.1,1.6,0.6,3c-0.6,1.3-1.5,1.1-2.4,1.5c0-0.3,0-0.6,0-0.8c-0.2,0-0.7,0.1-0.7,0.2
		c-0.3,1.6-2,1.4-2.9,2.4c-0.2-0.5-0.3-0.8-0.4-1.2c-0.4,0.3-0.7,0.4-1,0.6c0-0.5-0.1-1-0.1-1.6c-0.6,0.8-1,1.4-1.5,2.1
		c-0.1-0.6-0.1-1-0.1-1.3c-0.2,0-0.3,0-0.5,0c-0.1,0.5-0.2,1.1-0.3,1.6c-0.1,0-0.2,0.1-0.3,0.1c-0.2-0.6-0.4-1.2-0.8-2
		c-0.3,0.7-0.4,1-0.6,1.5c-0.4-0.3-0.6-0.6-0.9-0.8c-0.4,0.4-0.7,0.7-1.3,1.3c0.2-1,0.3-1.5,0.4-2.1c-0.2-0.2-0.4-0.3-0.5-0.5
		c-0.1,0.5-0.3,1.1-0.5,1.8c-0.9-1.5,0.2-2.8-1-4c-0.2,1.3-0.4,2.2-0.6,3.2c-0.2,1-0.8,1.2-1.7,0.9c-0.3-0.1-0.6-0.6-0.9-1
		c-0.3,0.4-0.6,0.7-0.9,1.1c-0.3-0.1-0.6-0.3-0.9-0.5c-0.3,0.4-0.5,0.7-0.8,1.1c-1.2-1.7-1.3,0.6-2,0.5c0.2-0.6,0.3-1.1,0.5-1.7
		c-0.1,0-0.2-0.1-0.4-0.1c-0.3,0.5-0.7,1-1,1.5c-0.6,0.9-0.6,0.9-1.2,0.5c0.3-0.4,0.7-0.8,1-1.2c-0.5-0.3-1.1-0.5-1.6-0.8
		c-0.2,0.3-0.4,0.6-0.6,0.9c-0.7-0.4-1.4-0.8-2.2-1.2c-0.1-0.4-0.2-1.1-0.2-1.7c-0.1,0-0.2,0-0.4,0c-0.4,0.9-0.7,1.7-1.1,2.6
		c-1.5-1.7-0.9,1.2-1.8,0.6c0.1-1,0.3-2,0.4-3c-0.1,0-0.1,0-0.2,0c-0.5,1.2-1,2.3-1.5,3.5c-0.1,0-0.2-0.1-0.2-0.1c0-0.4,0-0.7,0-1
		c-0.3,0.2-0.6,0.4-1.1,0.8c0.1-0.8,0.2-1.3,0.3-1.8c-0.1,0-0.1-0.1-0.2-0.1c-0.4,0.5-0.7,1.1-1.2,1.7C98.1,10.2,98,9.7,98,9.2
		c-0.1,0-0.2,0-0.3,0c-0.4,0.8-0.7,1.7-1.1,2.5c-0.1,0-0.2-0.1-0.3-0.1c0.1-0.7,0.2-1.4,0.3-2.1c-0.1,0-0.2,0-0.3-0.1
		c-0.3,0.5-0.7,1.1-1,1.6c-0.1,0-0.1,0-0.2-0.1c0.1-0.6,0.1-1.3,0.2-1.9C95.2,9,95.1,9,95,9c-0.4,0.8-0.8,1.6-1.3,2.8
		c0-1,0-1.6,0-2.2c-0.1,0-0.2,0-0.2,0c-0.3,0.8-0.6,1.7-1,2.5c-0.2,0-0.3-0.1-0.5-0.1c0.2-1.1,0.5-2.1,0.7-3.2
		c-1.6,2.8-1.6,2.8-2.2,2.6c0.9-0.9,0.9-0.9,0.2-1.6c-0.2,0.3-0.4,0.6-0.8,1.1c-0.1-0.7-0.1-1.1-0.2-1.8c-0.4,0.5-0.6,0.8-1,1.3
		c-0.1-1.1-0.1-2-0.2-3.1c-0.4,1.2-0.7,2.1-1,3c-0.2,0-0.3-0.1-0.5-0.1c0-0.6,0.1-1.1,0.1-1.7c-0.1,0-0.2,0-0.3-0.1
		c-0.3,0.7-0.6,1.4-0.8,2.1c-0.1,0-0.1,0-0.2,0c0-1,0-2,0-3c-0.1,0-0.2,0-0.3,0c-0.2,0.7-0.4,1.4-0.7,2.3c-0.2-0.6-0.4-0.9-0.5-1.3
		C84,8.6,83.7,8.8,83.3,9c-0.1-0.7-0.2-1.3-0.3-2.3c-0.4,0.8-0.5,1.3-0.8,1.8c-0.4-0.6-0.6-1-1-1.5c-0.3,0.6-0.5,1-0.7,1.5
		c-0.1,0-0.2,0-0.2,0c0-0.7,0-1.3,0-2.1C79.5,6.7,78.8,7,78,7.3c0-0.4,0.1-1,0-1.5c-0.1-0.3-0.7-0.3-1.1-0.5
		c-0.1,0.1-0.1,0.2-0.2,0.3c-0.2-0.3-0.3-0.7-0.5-1.1c-0.3,0.4-0.5,0.7-0.8,1.1c-0.3-0.5-0.6-1-0.8-1.5c-0.1,0.1-0.3,0.1-0.4,0.2
		c0.1,0.6,0.3,1.3,0.4,1.9c-1.1-0.9-0.7-3.3-3-3c-0.1,0.4-0.2,0.8-0.3,1c-1.6,0-2.2-1-2.6-2.2c-0.1-0.3-0.6-0.4-1-0.6
		C68,0.6,68,0.9,69.4,1.1c2,0.2,4.1-0.1,6.1-0.2c0-0.1,0-0.3,0-0.4c-1.6-0.1-3.2-0.3-4.8-0.4c-3.1,0-6.3,0-9.4,0
		c-1.8,0.7-3.6,1.5-5.5,2.1c-1.3,0.5-2.8,0.8-4.1,1.2c-0.4,0.1-0.6,0.5-0.9,0.7c-0.9,0.1-1.8,0.1-2.5,0.5C44.2,6.2,40,8,35.9,9.9
		c-2.6,1.2-5.2,2.5-8.1,3.9c-0.6-0.1,0.1-2.3-1.5-1.7c0-0.4,0.2-0.9,0-1.2c-2.6-3-6-4.3-9.9-4.8c-3-0.3-6-0.7-9-1
		c-2-0.2-4-0.4-6-0.5C1,4.6,0.5,4.8,0,4.9C0,5,0,5.2,0,5.4c0.7,0.5,1.3,1.1,2.1,1.7C1.9,7.4,1.6,7.9,1.1,8.6c0.7,0,1.2,0,1.7,0
		c0,0.1,0,0.2,0,0.4c-0.5,0.1-1,0.2-1.6,0.3c-0.6,1.7-0.5,3.4-0.2,5.2c0.2,1.3,0.2,2.7-0.5,3.9c-0.1,0.2,0.2,0.6,0.2,0.8
		c0,0.2-0.3,0.5-0.3,1c1.7-1.1,3.3-2.2,5-3.3c0.1,0.1,0.2,0.3,0.3,0.4c-2,1.5-3.9,2.9-5.9,4.4c0,0.2,0,0.4,0,0.5
		c1.3-0.9,2.6-1.7,3.9-2.6c1.4-1,2.8-2,4.2-3c0.1,0.2,0.2,0.3,0.4,0.5C6,18.9,3.5,20.7,1,22.5c0.9,0.8,1.6,0.4,2.2,0
		c1-0.7,2-1.3,3-1.9c1.2-0.8,2.3-1.7,3.5-2.5c0.3-0.2,0.6-0.3,0.9-0.4c0.1,0.1,0.1,0.3,0.2,0.4c-2.9,2.2-5.9,4.4-8.8,6.6
		c0.1,0.1,0.1,0.2,0.2,0.3c2.7-1.9,5.5-3.9,8.5-6c-0.4,1-0.7,1.7-1,2.3l0,0c0,0,0,0,0,0c0,0,0,0,0,0c-0.3,1-0.3,2.1-0.9,2.8
		c-0.8,1-2.1,1.5-3.2,2.4c-1.6,1.2-3.1,2.5-4.6,4c0.4-0.1,0.7-0.2,1-0.2c0.1,0.4,0.3,0.8,0.4,1.3c-0.3-0.1-0.6-0.3-1.3-0.6
		c0,0.9,0.1,1.5,0.2,2.6c1-0.8,1.6-1.4,2.2-1.8c0.5-0.3,1-0.4,1.6-0.6c-1.2,0.9-2.3,1.9-3.6,2.8c0.3,0.3,0.5,0.5,0.7,0.9
		c1.5-1.3,3.1-2.7,4.6-4c0.1,0.1,0.2,0.2,0.3,0.4c-1.6,1.5-3.2,2.9-4.9,4.4c0.2,0.1,0.5,0.2,0.8,0.3c0,0.1,0,0.2,0,0.3
		c-0.6,0-1.3-0.1-1.8,0.1c-0.7,0.4-1,1-0.1,1.8c2-1,3.6-2.5,5.2-4.1c0.3-0.3,0.8-0.6,1.3-0.6c-2.5,2.3-4.7,5-7.8,6.7
		c0,0.2,0,0.4,0,0.5c2-1.5,3.9-2.9,5.9-4.4C6,36.3,6.1,36.1,6.2,36c0.1,0.1,0.2,0.1,0.4,0.2c-0.2,0.4-0.4,1-0.8,1.3
		c-1.4,1.2-3.1,2.3-4.4,3.7c-0.5,0.5-0.2,1.7-0.3,2.5c0.2,0.1,0.3,0.1,0.5,0.2C3.1,42.4,4.5,41,6,39.6c0.1,0.1,0.2,0.2,0.3,0.2
		c-1,2.4-4,3.2-5.2,5.5c0.2,0.2,0.3,0.3,0.5,0.5c1.5-1.3,3-2.6,4.5-4c0.1,0.1,0.2,0.2,0.3,0.2c-0.4,0.5-0.8,1.1-1.3,1.5
		c-1.2,1-2.5,1.9-3.7,3C0.2,47.6,0,49,0.8,50c-0.3,0.4-0.5,0.7-0.8,1c0,0.2,0,0.4,0,0.5c1.3,1.2,1.5,2.6,1.3,4.4
		c-0.2,1.6-1.6,3.1-0.1,5c0.6,0.8,0.1,2.5-0.1,3.8c-0.3,1.8,0.5,3.5,1.8,3.5c2.4,0,4.7-0.1,7.1-0.1c2.7,0,5.3-0.1,8,0.2
		c2.6,0.2,4.4-0.9,6-2.6c0.3-0.3,0.2-1,0.3-1.6c2.4-0.6,1.5-3.2,2.3-4.8c3.1,0,6,1.1,9.2,0.8c3.1-0.3,6.2-0.1,9.3-0.9
		c-0.4-0.5-0.5-0.8-0.7-1c0.4,0,0.8,0.2,0.8,0.3c0,1.2,0.9,0.8,1.4,0.8c2.2-0.4,4.4-0.8,6.6-1.3c1.9-0.5,3.8-1.2,5.7-1.9
		c0.2-0.1,0.5-0.3,0.5-0.3c-0.4-0.8,0.3-0.5,0.5-0.5c0.5,0,1,0.3,1.5,0.2c1.1-0.2,2.2-0.6,3.2-0.8c1.2-0.3,2.5-0.8,3.6-0.6
		c2.3,0.5,4.5,1.3,6.6,2.2c2.9,1.1,5.9,1.7,8.9,1c1.7-0.4,3.3-0.9,4.2-2.6c1.3-2.1,2.2-4.3,2.4-6.8c0-0.1,0-0.2-0.1-0.3
		c-0.3,0-0.7,0-1.1,0c0.1,0.4,0.2,0.6,0.3,1.1c-0.4-0.2-0.6-0.3-1.2-0.6c0.2,0.9,0.4,1.6,0.5,2.1c-1.3,1.4-2.5,2.8-3.8,4.3
		c-1.4-1.6-2,0.6-3.3,0.5c0.9-0.9,1.7-1.6,2.6-2.4c-1.1,0.4-2.1,1-3.1,1.5c-0.4,0.2-0.9,0-1.3,0c1.3-0.3,2.3-1.1,3-2.3
		c-0.9,0.6-1.8,1.2-2.7,1.9c0.3-0.6,0.6-1.1,0.9-1.8c-1.6,0.8-3,1.6-4.4,2.3c0-0.1-0.1-0.2-0.1-0.3c1-0.7,1.9-1.4,2.9-2.1
		c-0.1-0.2-0.2-0.3-0.3-0.5c-1,0.6-2.1,1.1-3.1,1.7c0-0.1-0.1-0.1-0.1-0.2c0.7-0.5,1.4-1.1,2.2-1.6c-0.1-0.2-0.2-0.3-0.3-0.5
		c-1.2,0.5-2.3,1-3.5,1.5c0-0.1,0-0.2,0-0.3c1.1-0.8,2.1-1.6,3.2-2.4c-0.1-0.1-0.2-0.3-0.3-0.4c-1,0.6-2.1,1.3-3.1,1.9
		c-0.1-0.1-0.2-0.3-0.3-0.4c0.6-0.8,1.3-1.5,1.7-2c-0.6,0.4-1.5,1-2.5,1.7c0.1,0.1,0.1,0.2,0.2,0.3c-0.3-0.1-0.6-0.2-0.8-0.3
		c1-0.9,1.9-1.7,2.9-2.5c-0.1-0.1-0.2-0.2-0.3-0.4c-0.6,0.5-1.2,1.1-1.9,1.4c-0.8,0.4-1.6,0.7-2.4,1c-0.1-0.1-0.1-0.2-0.2-0.4
		c0.7-0.4,1.4-0.7,1.9-1.1c0.6-0.5,1.1-1.1,1.6-1.7C74.1,47,74,46.9,74,46.8c-1.2,0.7-2.5,1.5-3.9,2.3c0-0.7,0-1,0-1.3
		c1.6-0.1,2.8-1,3.1-2.1c-0.9,0.4-2,0.9-3.1,1.4c0.6-0.5,1.2-1.1,1.8-1.6c-0.1-0.1-0.2-0.3-0.3-0.4c-1.5,0.8-3,1.5-4.6,2.3
		c-0.2-0.3-0.4-0.5-0.6-0.9c1.8,0.1,4.4-1.6,5.4-3.5c-1.1,0.7-2,1.3-3.1,1.9c0.1-0.6,0.1-1,0.2-1.7c-1.2,0.7-2.1,1.3-3,1.8
		c0,0.1,0.1,0.2,0.1,0.3c0.6,0,1.2,0,1.9,0c0,0.1,0,0.2,0,0.3c-0.6,0.1-1.3,0.2-1.9,0.3C65,45,64.2,44,63.4,42.9
		c-0.3-0.4-0.9-1.1-0.8-1.3c0.9-1.3-0.2-2-0.6-2.9c-0.7-1.3-0.3-2.9,1.2-3.7c1.3-0.7,1.9-0.4,2.6,1.4c0.2,0.6,0.5,1.3,0.5,1.9
		c0,0.6-0.4,1.1-0.6,1.7c0.5-1.9,0.5-1.9-0.9-2.8c0.1,0.5,0.3,1,0.5,1.7c-0.8-0.9-1.3-1.6-1.9-2.3c-0.1,0.1-0.2,0.1-0.2,0.2
		c0.4,0.9,0.8,1.7,1.3,2.6c-1,0.5-0.7,1.4-0.4,2c0.4,0.8,0.9,2.1,2,1.5c1-0.5,1.8-1.5,2.7-2.3c0.1-0.1-0.2-0.6-0.4-1
		c-0.9,1.1-1.5,2.4-3.1,2.6c0.8-1.4,2.6-1.7,2.2-3.6c0-0.1,0.2-0.2,0.4-0.3c0.2-0.2,0.6-0.4,0.7-0.7c0.1-0.4,0.1-0.9,0.2-1.5
		c0.5,0.4,0.8,0.6,1,0.9c-0.4,0.9-0.7,1.6-1,2.4c0.2,0.1,0.4,0.2,0.5,0.2c0.2-0.3,0.3-0.7,0.5-1c0.2-0.3,0.5-0.5,0.8-0.8
		c0,0.3,0,0.7,0,1c0,0.2,0,0.4,0.1,1c0.3-0.6,0.5-0.8,0.7-1.1c0.8,0.6,1.4,1.2,2.2,1.7c1.1,0.8,2.5,1.3,1.6,3.1
		c0.2-0.4,0.4-0.8,0.6-1.1c0.6,0.4,1.3,0.6,1.8,1c0.8,0.8,2,0.9,2.9,1.2c2.9,1.1,5.9,2.1,9.2,1.5c1.7-0.3,3.3-0.7,5-1.3
		c1-0.3,1.7-1,2.1-2.3c0.3-1,1.5-1.6,2.3-2.4c0,0-0.1-0.2-0.2-0.4c-2.1,1.3-4.1,2.5-5.5,4.8c-0.6-1.8,1.8-1.9,1.6-3.4
		c-1.5,1-2.7,2.5-4.7,2.8c1.3-1.1,2.4-2,3.5-3c-0.1-0.1-0.2-0.2-0.2-0.3c-1,0.7-1.9,1.4-2.9,2c-0.1-0.1-0.1-0.2-0.2-0.2
		c0.2-0.4,0.3-0.7,0.5-1.2c-1.2,0.5-2.1,1-3.1,1.5c-0.1-0.2-0.3-0.3-0.4-0.5c0.5-0.3,1.1-0.6,1.6-0.9c-0.1-0.1-0.2-0.2-0.3-0.3
		c-1.1,0.7-2.3,1.4-3.4,2.1c-0.1-0.1-0.2-0.2-0.2-0.3c0.8-0.8,1.5-1.6,2.3-2.4c-0.1-0.1-0.1-0.1-0.2-0.2c-1.2,0.7-2.3,1.5-3.5,2.2
		c-0.2-0.4-0.3-0.6-0.4-0.9c-0.9,0.6-1.8,1.1-2.7,1.6c-0.1-0.1-0.1-0.2-0.2-0.3c0.5-0.4,1-0.7,1.5-1.1c-0.1-0.1-0.1-0.3-0.2-0.4
		c-1.1,0.5-2.2,0.9-3.3,1.4c0-0.1-0.1-0.1-0.1-0.2c1.2-0.8,2.3-1.6,3.5-2.4c-0.1-0.2-0.2-0.4-0.3-0.6c-1.3,0.8-2.7,1.5-4.1,2.3
		c-0.1-0.1-0.2-0.3-0.3-0.4c2-0.6,3.4-1.9,4.1-3.9c-0.4,0.2-0.8,0.3-1.5,0.6c0.7-1.3,1.2-2.3,1.7-3.2c0.5,0,1,0,1.4,0
		c0.5-0.1,0.9-0.3,1.4-0.3c1.4,0,2.9,0,4.5,0c0,0,0.3,0.3,0.5,0.3c1.7-0.1,3.5,0,5.2-0.4c2-0.5,4-1.3,5.9-2.2
		c1.4-0.6,2.5-1.8,2.9-3.3c0.1-0.2,0.2-0.5,0.3-0.7c0.6-1.6,1.3-3.3,1.9-4.9c-1.4-0.4-1.3,0.4-1.3,1c-0.1,1.3-0.3,2.5-1.5,3.5
		c0-0.5,0-0.8,0-1.5c-0.3,0.6-0.5,0.9-0.6,1.1c-0.3-0.2-0.6-0.3-0.5-0.3c-0.8,1.1-1.5,2-2.2,2.9c-0.1,0-0.2-0.1-0.3-0.1
		c0.1-0.4,0.1-0.7,0.2-1.4c-0.7,0.9-1.3,1.6-1.7,2.2c-2-0.1-2.1,1.2-2.3,2.6c-0.3,0-0.6,0-1.1-0.1c0.4-0.8,0.4-1.3-0.6-1.1
		c0.2-0.7,0.4-1.2,0.5-1.8c-0.1,0-0.2-0.1-0.3-0.1c-0.6,0.7-1.2,1.3-1.9,2.2c0.1-0.7,0.1-1.1,0.2-1.8c-0.8,0.8-1.4,1.4-2,2
		c0-0.1-0.1-0.1-0.1-0.2c0.4-0.7,0.7-1.5,1.1-2.2c-0.1,0-0.2-0.1-0.3-0.1c-1.5,1.6-1.5,1.6-1.7,1.6c0.1-0.4,0.2-0.8,0.2-1.1
		c-0.7,0.7-1.3,1.3-1.9,1.9c-0.1-0.1-0.2-0.2-0.4-0.3c0.4-0.7,0.8-1.5,1.2-2.2c-0.2-0.2-0.5-0.4-0.7-0.6c-0.5,0.8-1,1.6-1.5,2.5
		c-0.1-0.1-0.2-0.2-0.3-0.3c0.2-0.5,0.5-1,0.7-1.6c-0.1,0-0.1-0.1-0.2-0.1c-0.8,0.7-1.6,1.5-2.4,2.2c-0.1-0.1-0.2-0.2-0.2-0.3
		c0.4-0.4,0.8-0.9,1.1-1.3c0.2-0.3,0.1-0.7,0.2-1c-0.3,0.1-0.8,0.2-1,0.4c-0.6,0.6-1.1,1.2-1.5,1.7c-0.5-0.3-0.9-0.5-1.3-0.7
		c0.4-0.7,0.8-1.4,1.2-2.1c-1.1,0.8-1.9,1.7-2.9,2.5c-0.4,0.3-1.4,0.6-1.7,0.4c-1.1-0.8-2.1-1.9-3.2-2.9c3-1.4,4.4-4.2,2.9-5.6
		c-0.1,1.9-1,3.2-2.4,4.1c1.5-1.6,1.8-3.3,0.9-5.6c1.4,0.9,3.1,0.6,3.2,2.6c0.2-0.4,0.4-0.8,0.7-1.4c0.4,0.7,0.7,1.3,1.2,2.1
		c0-0.7-0.1-1.1-0.1-1.9c1.4,0.9,3.4,0,4.1,2.2c-0.3-1.4,0.1-1.9,1.4-1.9c2.3-0.1,4.5-0.6,6-2.1c2.3,0.5,4.4,1,6.5,1.5
		c0-0.2,0.1-0.3,0.1-0.5c-2.1-0.4-3.7-2-5.9-2.1c0.2-0.8,0.5-1.9,0.8-3.2c-0.8,0.5-1.4,1.1-2,1.1c-2.1-0.2-4.1-0.5-6.2-0.9
		c-1-0.2-1-1-0.6-1.6c0.4-0.6,1-1.3,1.6-1.4c1.2-0.3,2.5-0.5,3.7-0.2c1.2,0.2,2.2,1.1,3.3,1.7c0.4-1.2,1.1-1.4,2-0.8
		c0.9,0.6,1.9,1.2,2.9,1.8c0.1-0.1,0.1-0.2,0.2-0.3c-0.7-0.5-1.5-1.1-2.2-1.6c3,0.6,5.3-1.2,8.1-1.7c0.3,0.1,0.9,0.6,1.5,0.6
		c2.4,0,4.8-0.1,7.2-0.2c0.3,0,0.6,0,0.9-0.1c2.7-0.4,5.4-1.2,8.1-0.3c0.2,0.1,0.5,0.1,0.7,0c1.9-0.3,3.8-0.5,5.7-0.9
		c0.8-0.2,1.6-0.9,2.4-1c1.6-0.2,2.1-0.5,2.1-1.9c1.5,0.1,1.8-0.2,2.1-2.3C135.2,5.6,134.9,5,133.6,4.7z M69.8,47.3
		c-0.5,0.3-1,0.7-1.6,1.1c0.3,0.3,0.7,0.5,1,0.8c-1.1,0.2-1.2-0.7-1.8-1.3C68.3,47.7,69.1,47.5,69.8,47.3z M81.3,34.6
		c-0.7,1-1.2,1.8-1.8,2.5c-0.1-0.1-0.1-0.1-0.2-0.2c0.2-0.8,0.5-1.6,0.7-2.4c-0.1,0-0.3-0.1-0.4-0.1c-0.2,0.4-0.4,0.8-0.5,1.2
		c-0.1,0-0.3,0-0.4,0.1c-0.1-0.5-0.2-1-0.4-1.9C79.5,34.1,80.3,34.3,81.3,34.6z M78.5,36c-0.3,0.3-0.6,0.7-0.9,1.1
		c0.3,0.5,0.6,1.1,0.9,1.6c-0.1,0-0.1,0.1-0.2,0.1c-0.5-0.5-1-1.1-1.5-1.7c0.4-0.4,0.9-0.9,1.4-1.3C78.3,35.8,78.4,35.9,78.5,36z
		 M77.6,33.5c0.1-0.1,0.4,0.2,0.6,0.3c-0.4,0.6-0.8,1.2-1.3,2C76.4,34.6,76.9,34,77.6,33.5z M78.5,39.7c0.1,0.1,0.1,0.2,0.2,0.3
		c-0.8,0.6-1.6,1.3-2.6,1.5c-0.1-0.2-0.2-0.3-0.3-0.5C76.7,40.7,77.6,40.2,78.5,39.7z M68.9,4.3c-0.1,0-0.2,0.1-0.3,0.1
		C68.3,4,68,3.6,67.7,3.1c0,0,0,0,0,0c0-0.6,0-1.2-0.1-1.8C68.1,2.3,68.5,3.3,68.9,4.3z M66,1c0.2,0.3,0.3,0.7,0.6,1
		c0.3,0.4,0,1.5,1.1,1.1c-0.1,0.4-0.2,0.7-0.4,1.4c-0.7-1.2-1.2-2.2-1.8-3.2C65.7,1.2,65.8,1.1,66,1z M24,15.9
		c-1,1.4-1.9,2.8-2.9,4.1c-0.3-0.4-0.5-0.7-0.6-0.8c0.6-0.5,1.2-1.1,1.7-1.6c0.5-0.6,1-1.3,1.5-1.9C23.8,15.8,23.9,15.8,24,15.9z
		 M20.9,30.2c1.5,1.5,3,3.4,4.8,4.7c1.7,1.2,3.1,2.9,5.1,3.8C27.4,37.7,20.7,31.7,20.9,30.2z M34.9,45.9c2.1,1.6,4.1,3.2,6.3,4.5
		c0.9,0.5,1.8,1,2.8,1.4c0.4,0.1,0.8,0.1,1.4,0.1c0.2,0.3,0.5,0.6,0.8,1c-3.1,0.4-16.4-8-19.5-12.4C30,41.6,32.3,44,34.9,45.9z
		 M24.7,36.9c-0.6-0.5-1.2-1.1-1.8-1.6c-0.6-0.5-1.2-1-1.8-1.5c-0.3-0.3-0.4-0.7-0.6-1c0.1-0.1,0.2-0.1,0.3-0.2
		C22.1,34,23.4,35.5,24.7,36.9z M24.8,38.6c-0.1,0.1-0.1,0.2-0.2,0.2c-1.3-1-2.5-1.9-4-3c0-0.1,0.1-0.5,0.2-1.3
		C22.3,36,23.6,37.3,24.8,38.6z M19,27.1c-0.4,2.5-0.6,5.1-0.9,7.6c-0.1,0-0.2,0-0.2,0c0-0.7,0-1.5,0-2.2c0-0.7-0.2-1.4-0.3-2.1
		c0.1-0.2,0.5-0.6,0.6-1c0.4-1.9,0.6-3.9,1.2-5.8c0.1,0.4,0.2,0.8,0.3,1.3c0.4-0.2,0.6-0.4,1.2-0.9c-0.3,0.7-0.6,1.5-0.7,1.5
		C18.6,25.1,19.1,26.6,19,27.1z M20.2,26.2c0,0.7-0.1,1.4-0.1,2c-0.1,1.7-0.3,3.4-0.4,5.1c-0.1,0-0.3,0-0.4,0
		c0.2-2.4,0.3-4.8,0.5-7.2C19.9,26.2,20.1,26.2,20.2,26.2z M18.5,19c0.8-1.2,1.7-2.4,2.5-3.7c0.1,0.1,0.2,0.2,0.3,0.3
		c-0.9,1.2-1.7,2.4-2.6,3.6C18.7,19.1,18.6,19.1,18.5,19z M6.8,13.1c-0.1-0.1-0.2-0.3-0.2-0.4c1.1-0.9,2.9-0.8,3.4-2.5
		c0.4,0,0.8,0,1.3,0c0,0.1,0.1,0.2,0.1,0.2C9.9,11.4,8.4,12.3,6.8,13.1z M8.9,15.9c1.3-0.7,2.5-1.4,3.7-2c0.1,0.1,0.2,0.2,0.3,0.3
		c-0.2,0.3-0.5,1-0.5,1C11,14.6,10.2,16.3,8.9,15.9z M3.2,29.6c-0.1-0.1-0.1-0.2-0.2-0.3c1-0.8,2-1.5,3-2.3c0.1,0.2,0.2,0.3,0.3,0.5
		C5.3,28.2,4.3,28.9,3.2,29.6z M7,29.7c-0.5,0.5-1.1,1-1.7,1.5c0-0.6,0.1-1.1,0.1-1.5c0.8-0.5,1.5-0.9,2.3-1.4
		c0.1,0.1,0.2,0.2,0.3,0.3C7.6,28.9,7.3,29.4,7,29.7z M6.2,27c1-0.9,1.7-1.5,2.7-2.4c-0.2,0.8-0.3,1.2-0.4,1.6
		C7.9,26.5,7.3,26.7,6.2,27z M10.8,62.1c0.6,1.1,1.3,2.2,2,3.5C11.1,65.1,11.2,63.4,10.8,62.1z M25.2,60.4c-0.4,1.7-1.7,2.8-2.9,4
		c0.8-1.4,1.7-2.8,2.5-4.2c-0.1-0.1-0.3-0.2-0.4-0.3c-1.3,2.1-2.6,4.1-3.8,6c-0.6-0.1-1-0.2-1.2-0.2c-0.7,0.2-1.3,0.6-2,0.9
		c0,0.1,0.1,0.3,0.1,0.4c-0.6-0.3-1.2-0.6-1.9-1c0.6-0.2,1.1-0.3,1.6-0.5c-1-0.2-2-0.4-2.9-0.7c-2.2-0.8-3.1-2.7-3.6-4.7
		c-0.6-2.6-1-5.2-1.3-7.8c-0.4-2.8-0.6-5.7-0.7-8.6c-0.1-1.7,0.1-3.5,0.4-5.2c0.3-1.8-0.4-3.6,0.5-5.4c0.1-0.3-0.2-0.8-0.4-1.2
		c0.2-0.3,0.6-0.5,0.7-0.8c0.2-1.5,0.1-3,0.4-4.4c0.3-1.4,0.7-2.8,1.3-4.2c1-2.2,2-4.5,3.4-6.5c0.6-1,1.9-1.7,2.9-2.3
		c0.9-0.5,1.9-0.9,2.8-1.2c0.5-0.1,1.1,0.1,1.5,0.1c-1.9,2.9-3.8,5.7-5.7,8.6c0.6,0.2,0.8,0.3,1,0.4c-0.2,0.1-0.3,0.3-0.5,0.4
		c-0.3,0.4-0.7,0.8-0.9,1.3c-1,2.6-0.9,5.3-0.8,8c0.1,3.5,0,7.1,0.4,10.6c0.3,2.9,1,5.7,1.5,8.6c0.4,1.8,0.9,3.6,1.4,5.7
		c0.4-0.5,0.5-0.7,0.6-0.8c0.1,0.1,0.2,0.1,0.2,0.2c0.2,1.8,0.4,3.7,0.5,5.5c0,0.7-0.5,1.4-0.9,2.1c-0.4,0.6-0.9,1.2-1.4,1.9
		c2.7-1.1,4.1-1.9,3.2-7.1c1.5-0.5,2.8,0.4,4,1C25.2,59.2,25.3,60,25.2,60.4z M22.1,48.8c2.4,2,4.7,3.9,6.9,5.8
		c0,0.1-0.1,0.1-0.1,0.2c-1.1-0.7-2.1-1.4-3.2-2c-0.5-0.3-1.1-0.5-1.7-0.7c0.2-0.1,0.3-0.3,0.5-0.4C23.9,50.6,22,50.4,22.1,48.8z
		 M28.9,57.1c-1.7-1.1-3.4-2.2-5.1-3.3c0.3,2.3,3.1,2.5,3.8,4.5c-1.1-0.6-2.2-1.1-3.2-1.8c-0.3-0.2-0.5-0.6-0.6-1
		c-0.3-1.1-0.5-2.1-0.8-3.4c0.3,0,0.7,0.1,1.1,0.1c0,0,0,0,0,0c1.2,1.1,2.3,2.3,3.5,3.4c0.5,0.5,1.1,0.8,1.6,1.2
		C29,56.9,29,57,28.9,57.1z M29.9,55.4c0.1-0.1,0.1-0.2,0.2-0.3c1.9,1,3.9,2,5.7,3C33.6,58,31.8,56.5,29.9,55.4z M21.6,45.8
		c2.5,2.1,4.9,4.3,7.6,6.2c2.7,1.9,5.7,3.5,8.4,5.4C31.6,54.5,25.8,51.3,21.6,45.8z M21.1,43c0.6-0.1,1.6,0.8,2.2,2
		C22.7,44.5,21.8,43.7,21.1,43z M23.7,45.8c2.5,1.8,4.8,3.5,7.3,5.1c2.4,1.6,5,3,7.5,4.4C36.9,55.9,25.8,48.8,23.7,45.8z M38.5,53.6
		c-7-2.8-12.3-7.8-17.4-13.2c0.3,0.2,0.7,0.3,1,0.5c2.3,2,4.4,4.2,6.8,6.1c2.5,1.9,5.2,3.4,7.8,5.1c0.6,0.4,1.3,0.8,2,1.2
		C38.7,53.4,38.6,53.5,38.5,53.6z M49.4,55.7c-1.4-0.3-2.8-0.6-4.1-1c-4.1-1.2-7.7-3.4-11.2-5.7c-2.5-1.6-4.8-3.6-7.1-5.4
		c-1.4-1.1-2.7-2.4-3.9-3.8c1,0.7,2,1.3,2.9,2c4.4,3.6,8.7,7.2,13.7,9.9c2.9,1.6,6,2.8,9.3,3.4c0.2,0,0.3,0.1,0.5,0.2
		C49.5,55.4,49.4,55.6,49.4,55.7z M31.1,41.7c0.6,0,1.2-0.1,1.5,0.1c1.5,1,3,2,4.3,3.2c2.6,2.8,6.1,4.1,9.4,5.6
		c1.2,0.6,2.6,0.6,3.8,1c0.8,0.3,1.4,0.9,2.5,1.5C44.1,51.3,37.1,47.6,31.1,41.7z M33.8,41.4c0.1-0.1,0.1-0.2,0.2-0.4
		c0.6,0.3,1.3,0.4,1.8,0.8c2.1,1.5,4.1,3.3,6.3,4.5c2.7,1.6,5.7,2.7,8.6,4c0.5,0.2,1,0.4,1.5,0.7C45.1,49.8,39.2,46,33.8,41.4z
		 M37.1,41.3c1-0.2,1.7,0.3,2.5,0.9c1.6,1.3,3.4,2.3,5.1,3.4c0.7,0.4,1.4,0.8,2.1,1.3c2.5,1.7,5.3,2.3,8.1,2.9
		c0.4,0.1,0.8,0.2,1.6,0.4C52.5,51,41.1,45.6,37.1,41.3z M40.6,41.1c5.2,4.1,11.2,6.4,17.6,7.9C51.7,47.9,45.5,45.9,40.6,41.1z
		 M43.5,41.1c5.3,3.1,10.8,5.5,16.8,6.8C54.1,47,48.4,44.9,43.5,41.1z M57.1,43.7c-1.6,0.3-7-1.9-7.8-3.2
		C52,41.6,54.5,42.6,57.1,43.7z M52.8,40.9c0.1-0.2,0.1-0.3,0.2-0.5c1.2,0.4,2.3,0.9,3.5,1.3c0,0.1-0.1,0.2-0.1,0.3
		C55.1,41.6,53.9,41.3,52.8,40.9z M55.7,44.9c0.4,0.1,0.8,0.3,1.2,0.4c-0.1,0.1-0.1,0.3-0.2,0.4c-3.7-1.1-7.4-2.3-10.5-4.5
		c0-0.1,0.1-0.3,0.1-0.4c0.3,0,0.6-0.1,0.9-0.1c0.3,0,0.5,0,0.6,0.3c0.4,0.4,0.8,1,1.3,1.2C51.2,43.2,53.5,44,55.7,44.9z M70.7,33.6
		c0.2-0.7,0.8-1.5,0.6-2.1c-0.2-0.7-1-1.2-1.7-1.7c0.4,0.6,0.7,1.3,1.1,1.9c-0.1,0.1-0.1,0.1-0.2,0.2c-0.7-0.6-1.3-1.2-2-1.7
		c-0.1,0.1-0.1,0.1-0.2,0.2c0.6,0.8,1.1,1.7,1.9,2.8c-0.5-0.2-0.7-0.3-1-0.5c-0.1,0.3-0.1,0.6-0.1,0.8c-0.9,0.2-2-0.9-2.1-2.1
		c-0.1-1,1.1-2.9,2-3.3c0.8-0.4,1.2-0.1,1.6,0.5c0.5,0.8,0.9,1.6,1.3,2.5C72.6,32.8,72.4,33,70.7,33.6z M72.8,39
		c-0.5-0.7-1.1-1.3-1.6-2c0.1-0.1,0.2-0.3,0.3-0.4c0.5,0.3,1,0.7,1.6,1.1c-0.1,0.2-1,0.6,0.5,1.1C73.3,38.9,73,39,72.8,39z M73,33.1
		c0-0.9,0-1.8,0-3.1c1.5,1.2,0.3,2.2,0.4,3.1C73.2,33.1,73.1,33.1,73,33.1z M74.5,31.8c1,0.3,0.6,2.2-1,3.4
		C73.9,34.1,74.2,33,74.5,31.8z M73.6,26.4c-0.6-0.7-1.2-1.4-1.8-2c-0.6-0.6-1.1-1.2-2-1.7c0.8,1,1.6,2.1,2.5,3.1
		c-0.1,0.1-0.2,0.2-0.2,0.3c-0.8-0.7-1.5-1.4-2.3-2.1c-0.1,0.1-0.1,0.1-0.2,0.2c0.6,0.7,1.2,1.5,1.8,2.3c-2.4-0.4-3.3-2.2-2.3-4.2
		c0.5-1,0.9-2,2.3-1.7c0.2,0,0.4-0.4,0.6-0.5c0.8,0.4,1.6,0.8,2.4,1.2c0,0.1,0,0.1-0.1,0.2c-0.3-0.1-0.6-0.1-1.2-0.2
		c0.4,0.7,0.8,1.2,1.1,1.7c-0.1,0.1-0.1,0.1-0.2,0.2c-0.4-0.7-0.9-1.3-1.3-2c-0.1,0.1-0.3,0.3-0.4,0.4c0.7,1.6,1.4,2.3,2.5,2.5
		C75.3,25.5,74.5,26,73.6,26.4z M85.7,18.7c0.3,0.1,0.6,0.3,1,0.5c-1,1-1.9,2-2.7,2.9c-0.1-0.1-0.2-0.1-0.3-0.2
		C84.3,20.9,84.9,19.9,85.7,18.7z M84.4,14.9c-0.3,0.5-0.5,1.1-0.7,1.7c-0.3,0.7-0.4,1.3,0.6,1.7c0.6,0.2,1,0.9,0.1,1.6
		c-0.7,0.5-1.3,1.2-2,1.8c-0.3,0.2-0.7,0.3-1,0.4c0.9-1.1,1.8-2.1,2.6-3c-0.1-0.1-0.2-0.2-0.4-0.3c-1,0.8-2,1.6-3,2.4
		c-0.1,0-0.1-0.1-0.2-0.1c0.5-0.6,0.9-1.3,1.4-1.9c-0.1-0.1-0.2-0.2-0.3-0.3c-0.9,0.7-1.8,1.4-3.1,2.3c0.7-1,1.2-1.7,1.7-2.5
		c-0.1-0.1-0.2-0.2-0.3-0.4c-0.8,0.6-1.6,1.2-2.4,1.8c-0.1-0.1-0.1-0.1-0.2-0.2c0.6-0.8,1.1-1.5,1.7-2.3c-0.1-0.1-0.2-0.2-0.3-0.3
		c-1,0.7-1.9,1.4-2.9,2.1c0,0-0.1-0.1-0.1-0.1c0.7-0.8,1.4-1.7,2-2.5c-0.1-0.1-0.2-0.3-0.3-0.4c-0.8,0.5-1.6,1-2.7,1.8
		c0.8-1.1,1.3-1.9,1.9-2.8c-0.1-0.1-0.2-0.2-0.3-0.3c-0.9,0.7-1.9,1.3-2.9,2.1c0.6-0.9,1.1-1.8,1.6-2.6c-0.1-0.1-0.1-0.2-0.2-0.3
		c-0.6,0.5-1.3,0.9-1.9,1.4c-0.1-0.6-0.2-1.2-0.3-1.5c0.5-0.4,0.9-0.7,1.3-1c-0.1-0.1-0.2-0.2-0.2-0.3c-0.6,0.1-1.3,0.3-2.2,0.4
		c-0.3,0.4-0.8,1.2-1.2,1.9c-0.1,0-0.2-0.1-0.3-0.1c0.3-0.8,0.6-1.5,0.8-2.3c-0.1-0.1-0.2-0.1-0.4-0.2c-0.8,1.2-1.6,2.4-2.3,3.6
		c-0.1-0.1-0.2-0.1-0.3-0.2c0.3-0.6,0.6-1.1,0.8-1.7c-0.8-0.5-0.8-0.4-1.6,0.9c-0.4,0.7-0.9,1.3-1.3,1.9c-0.1-0.1-0.2-0.1-0.3-0.2
		c0.4-0.7,0.7-1.4,1.1-2.2c-0.1-0.1-0.2-0.2-0.3-0.2c-0.4,0.5-0.9,1-1.4,1.5c-0.2-0.6-0.3-1.9-1.2-0.4c-0.1-1.5-0.7-1.2-1.5-0.5
		c-0.1-0.4-0.3-0.7-0.5-1.3c-0.2,0.7-0.3,1-0.3,1.4c-0.1-0.1-0.3-0.1-0.3-0.2c-0.2-0.4-0.3-0.9-0.5-1.3c-0.1-0.2-0.4-0.3-0.7-0.4
		c-0.1,0.3-0.2,0.6-0.1,0.8c0.2,0.5,0.4,0.9,0.4,1.5c-0.4-0.4-0.9-0.7-1.3-1.1c-0.1,0.1-0.2,0.2-0.3,0.2c0.6,0.7,1.1,1.5,1.7,2.2
		c-0.1,0.1-0.2,0.1-0.3,0.2c-1.1-1.2-2.2-2.3-3.3-3.5c-0.2,0.1-0.3,0.3-0.5,0.4c0.9,1.2,1.8,2.4,2.6,3.6c-0.1,0.1-0.1,0.2-0.2,0.2
		c-1.2-1.1-2.3-2.3-3.5-3.4c-0.1,0.1-0.2,0.2-0.3,0.3c1.2,1.5,2.4,3,3.6,4.5c-2.2-0.5-3-3.1-5-4.1c-0.1,0.1-0.2,0.2-0.3,0.3
		c0.5,0.7,1,1.6,1.6,2.2c1.3,1.1,2.7,2.2,4.2,3c0.6,0.3,1.7-0.1,2.6-0.2c0-0.2,0.1,0,0,0.1c-2,3.1-3.5,6.4-6.4,8.9
		c-1.1,0.9-1.9,2.1-3,3c-1.1,0.8-2.4,1.3-3.8,2.1c0.4-1.3,0.4-1.3,2.3-1.8c-1.6-0.6-3-1.1-4.3-1.6c2-0.2,3.6,1.7,5.6,0.8
		c0-0.1,0-0.3,0.1-0.4c-1.6-0.6-3.3-1.1-4.9-1.7c-0.8-0.3-1.5-0.7-2.2-1.2c-1.1-0.8-2.1-1.9-3.9-1.4c1.6,1.1,3.1,2.3,4.7,3.4
		c-3-0.4-4.6-3.5-7.6-3.9c2.6,2.4,5.3,4.5,8.4,6.2c-0.4-0.1-0.8-0.1-1.2-0.3c-2-1.2-4-2.5-6.1-3.6c-0.6-0.3-1.3-0.5-1.9-0.7
		c-0.1,0.2-0.2,0.4-0.2,0.5c1.1,0.6,2.3,1.2,3.5,1.9c-0.3,1.2,1,1.1,1.7,1.6c0.7,0.5,1.6,0.7,2.5,1c-0.1,0.2-0.1,0.4-0.2,0.6
		c-1.4-0.6-2.7-1.1-4-1.8c-1.2-0.7-2.4-1.5-3.5-2.3c-0.1,0.2-0.3,0.4-0.4,0.5c1,0.8,2,1.7,3.1,2.3c1.8,1,3.7,1.8,5.6,2.6
		c0.3,0.1,0.9-0.3,1.3-0.4c0.4-0.1,0.8-0.3,1.2-0.4c0,0.1,0.1,0.2,0.1,0.4c-1.1,0.5-2.2,1.1-3,1.5c-0.7-0.5-1.1-0.9-1.5-1.2
		c-1.8-1-3.7-1.9-5.5-3c-1.5-0.9-2.8-2-4.3-3c-0.2-0.1-0.5-0.1-0.8-0.1l0,0c0.1-0.3,0.1-0.5,0.2-0.8c-0.7-0.7-1.6-1.4-2.4-2.2
		c-0.2,0.2-0.3,0.3-0.5,0.5c0.9,0.9,1.7,1.7,2.6,2.6c1.9,1.6,3.8,3.3,5.6,4.9c0.4,0.3,0.9,0.6,1.2,1c-3.6-1.1-6-4.1-9.1-5.9
		c1.8,2.6,4.5,4.3,7,6.1c-3.2-0.3-4.9-3.1-7.7-4.5c0.6,2.3,6.9,6.4,8.9,6c-0.1-0.3-0.2-0.6-0.2-0.8c1,0.2,2,0.4,3.2,0.7
		c-0.2-0.5-0.3-0.7-0.4-0.9c0.8,0.1,1.6,0.3,2.9,0.4c-1.2,0.4-2.1,0.7-2.9,0.8c-0.8,0.2-1.7,0.1-2.5,0.3c-2.1,0.4-3.5-0.9-5-1.9
		c-0.9-0.5-1.8-1-2.8-1.5c0,0,0-0.5-0.2-0.5c-1.2-0.4-1.6-1.5-2.5-2.2c-0.4-0.3-0.9-0.3-1.4-0.5c-0.1,0.2-0.2,0.3-0.3,0.5
		c1.4,1.3,2.9,2.5,4.3,3.8c-3.1-0.8-4.5-4-7.3-5.3c-0.1,0.1-0.3,0.3-0.4,0.4c1.3,1.3,2.6,2.6,3.8,3.8c-0.6,0.3-1,0-1.7-0.8
		c-1.1-1.2-2.2-2.4-3.4-3.6c-0.2-0.2-0.7-0.2-1.1-0.3c0.1-0.5,0.2-1,0.4-1.8c0.8,0.8,1.4,1.5,2.1,2.2c0.1-0.1,0.3-0.2,0.4-0.3
		c-0.2-0.4-0.3-0.7-0.5-1.1c-0.4-0.6-0.8-1.3-1.2-1.9c-0.6-1.2-0.5-1.3,0.9-1.5C22.5,27,24.7,30,26.8,30c-0.9-1.3-1.9-2.5-2.8-3.8
		c-0.6-1-1.2-2-1.6-3.1c-0.4-0.9,0.1-1.4,1.2-1.4c-0.8-2.2,0.6-4,2-4.7c1.4-0.8,2.8-1.7,4.1-2.5c1.4-0.8,2.7-1.8,4.2-2.5
		c-2.7,2-5.5,4-8.2,6c0.1,0.2,0.2,0.3,0.3,0.5c2.2-1.4,4.4-2.8,6.6-4.2c0.1,0.1,0.1,0.2,0.2,0.3c-0.9,0.7-1.8,1.4-2.7,2.2
		c0.1,0.1,0.2,0.3,0.3,0.4c2.2-1.4,4.5-2.8,7-4.3c-0.6,0-0.8-0.1-1-0.1c1.7-0.5,3.6-0.8,4.7-2.5c0.6-0.2,1.4-0.2,2-0.6
		c2.7-1.3,5.3-2.7,8-4c4.8-2.3,9.6-2,14.6-0.5c1.9,0.6,3.9,1,5.9,1.3c1.4,0.2,2.8,0.3,4.3,0.4c0.3,0,1,0.2,0.2,0.6
		c0.1,0.1,0.3,0.3,0.4,0.4c2.4,1.6,4.8,3.3,7.3,4.8C84.7,13.4,85,13.9,84.4,14.9z"/>
	<path d="M97.8,1.1c3.4,0.1,6.8,0.2,10.2,0.3c0.4,0,0.9,0.1,1.3,0c1,0,2-0.1,3-0.2c-2.1-0.4-4.1-0.6-6.1-0.7c-1.7-0.1-3.3,0-5,0
		c-3.3-0.1-6.5-0.2-9.8-0.3c-0.6,0-1.1-0.2-1.7-0.2c-0.2,0-0.4,0-0.5,0c-2.1,0.1-4.2,0.2-6.3,0.3c-0.5,0-1,0.1-1.5,0.1
		c3,0.4,6,0.6,9,0.7C92.8,1.1,95.3,1,97.8,1.1z"/>
	<path d="M124.3,2.3c2.7,0.5,5.4,1.1,8.1,1.6c0-0.2,0.1-0.3,0.1-0.5c-5.5-1.4-11-2.8-16.8-2.3c0,0.1,0,0.2-0.1,0.4
		c1.6,0.2,3.1,0.4,4.7,0.5C121.7,2.2,123,2.1,124.3,2.3z"/>
	<path d="M80,26.2c-0.7,0.9-1.4,1.9-2.1,2.8c-0.1,0-0.2-0.1-0.4-0.1c0.4-1.1,0.8-2.3,1.2-3.4c-0.1,0-0.1,0-0.2,0
		c-1.1,1.3-2.2,2.7-3.2,4c0.1,0.1,0.7,0.3,0.7,0.5c0,1.2,0.7,0.8,1.3,0.6c0.3-0.1,0.7-0.2,1-0.3c0.6-1.3,1.2-2.6,1.9-3.9
		C80.1,26.3,80,26.2,80,26.2z"/>
	<path d="M98.5,39.3c0.9-1.2,1-3.3,0.1-4.7c0,0.6,0,1.2,0,1.9c-0.7-0.1-1.3-0.2-1.9-0.3c0.1,1.2,0.2,2.3,0.2,3.4c0.1,0,0.2,0,0.3,0
		c0.1-0.8,0.3-1.6,0.4-2.5c0.4,0.2,0.7,0.4,1,0.5C97.8,38.7,97.8,38.7,98.5,39.3z"/>
	<path d="M78.3,30.2L78.3,30.2C78.4,30.2,78.3,30.2,78.3,30.2C78.3,30.2,78.3,30.2,78.3,30.2C78.3,30.2,78.3,30.2,78.3,30.2
		L78.3,30.2C78.3,30.2,78.3,30.2,78.3,30.2C78.3,30.2,78.4,30.2,78.3,30.2C78.4,30.2,78.4,30.2,78.3,30.2z"/>
	<path d="M80.9,27.8c-0.8,0.7-1.7,1.6-2.6,2.4c-0.4,0.4-0.7,0.9-1.2,1.4C79.2,31.3,80.8,29.6,80.9,27.8z"/>
	<path d="M82.8,41c0.4-0.4,0.6-0.9,1.1-1.7c-0.7,0.4-1.1,0.6-1.6,0.8c-0.1-0.5-0.1-0.8-0.2-1.3c-0.3,0.2-0.6,0.3-0.8,0.4
		c0.3,0.4,0.5,0.7,0.7,0.9c-0.1,0.6-0.2,1-0.2,1.3C82,41.3,82.5,41.2,82.8,41z"/>
	<path d="M87.4,15.1c1.5,0.4,3,0.8,4.4,1.2c0-0.2,0.1-0.4,0.1-0.6c-1.5-0.3-3-0.7-4.4-1C87.5,14.8,87.5,15,87.4,15.1z"/>
	<path d="M103.1,20.9c0.1-0.1,0.2-0.2,0.3-0.3c-1.4-1.1-2.8-2.3-4.2-3.4c-0.1,0.1-0.1,0.2-0.2,0.3C100.3,18.6,101.7,19.8,103.1,20.9
		z"/>
	<path d="M68.3,42.5c-1.1,0.5-2.1,1-3.1,1.4C66.3,44.5,67.5,44,68.3,42.5z"/>
	<path d="M117.4,9.7c0.6-1,0.6-2.1,0.2-3.2c-0.2,1-0.5,2.1-0.7,3.1C117.1,9.6,117.2,9.6,117.4,9.7z"/>
	<path d="M81.8,31c1.2-0.2,1.5-1.2,1.8-1.9c-0.6,0.4-1.4,1-2.2,1.6C81.5,30.8,81.6,30.9,81.8,31z"/>
	<path d="M8.8,21.4C6.9,22.7,5,24,3.2,25.3c-1.4,1-1.5,1.3-1.2,3.3C4.4,27,5,26.3,4.5,25.4c1.3,0.3,4.2-2,5.3-4.1
		C9.4,21.3,9,21.2,8.8,21.4z"/>
	<path d="M54,23.3c-0.4,1.1-1.2,0.6-1.7,0.3c-0.9-0.6-1.7-1.5-2.5-2.2c-1.2-1-2.5-2-3.7-3.1c-0.1,0.1-0.2,0.2-0.3,0.3
		c1.1,1.1,2.2,2,3.2,3.2c1,1.1,2.7,1.4,3.3,2.9c-0.1,0.1-0.2,0.2-0.3,0.4c-1.9-1.4-3.8-2.7-6-4.3c1,2.8,8.5,7.2,10.6,6.2
		c-1.5-0.5-2.8-0.8-4.1-1.2c1.4-1.1,2.8-1.4,3.6-0.8c-0.5,0.2-0.9,0.4-1.4,0.6c0.6,0.5,1.1,0.7,1.7,0.8c0.3,0.1,0.8,0.1,0.9-0.1
		c0.4-0.4,0.6-1,1.1-1.7c-1.2-0.5-2.5-1-3.7-1.5C54.5,23,54.1,23.2,54,23.3z"/>
	<path d="M45.4,27.1c-1.1-0.6-2-1.8-3-2.7c-0.8-0.7-1.7-1.3-2.6-1.9c-0.6-0.5-1.2-1.1-1.9-1.6c-0.4-0.3-0.8-0.5-1.3-0.7
		c-0.1,0.1-0.2,0.3-0.2,0.4c0.9,0.9,1.8,1.8,2.7,2.7c0.5,0.5,0.8,1.1,1.3,1.4c1.1,0.8,2.5,1.5,3.5,2.4c2.3,2,5,2.9,7.8,3.8
		c0.8,0.2,1.3,0.1,1.6-0.8c-0.8-0.2-1.6-0.3-2.2-0.5C49.2,28.9,47.2,28.2,45.4,27.1z"/>
	<path d="M58.4,23.9c0.6-0.7,1.1-1.3,1.6-1.8c-2.3-1.3-4.4-2.4-6.4-3.6c-0.1,0.1-0.1,0.2-0.2,0.3c1.5,1.2,3,2.5,4.6,3.7
		c-3.1-0.6-4.7-3.4-7.3-4.7C52.5,20.8,55,23.1,58.4,23.9z"/>
	<path d="M51.6,29.3c0.9,0.3,1.9,1,3.3-0.1c-6-1.4-10.2-5.2-14.8-8.4C43.4,24.4,46.8,27.8,51.6,29.3z"/>
	<path d="M48.8,24.8c-0.4-0.2-0.9,0-1.4,0c2.4,1.8,4.7,3.8,7.9,3.4c-1.4-0.7-2.8-1.3-4.2-2C50.3,25.8,49.6,25.2,48.8,24.8z"/>
	<path d="M53.6,23c0.1-1.3-3.2-4-5-3.9c1.7,1.5,3.1,2.9,4.6,4.3C53.4,23.2,53.5,23.1,53.6,23z"/>
	<path d="M32.9,24.5c0.1,0.2,0.2,0.4,0.3,0.6c0.8,0.8,1.6,1.7,2.5,2.5c0.6,0.6,1.3,0.8,2.2,0.3c-1.6-1.3-3.2-2.5-4.7-3.7
		C33.1,24.3,33,24.4,32.9,24.5z"/>
	<path d="M32,26.2c1.6,1.1,2.2,3.3,4.5,3.6c0.1-0.1,0.2-0.2,0.2-0.3c-1.4-1.3-2.9-2.5-4.3-3.8C32.3,25.9,32.2,26.1,32,26.2z"/>
	<path d="M47.7,23.9c-1.4-1-2.9-1.9-4.3-2.9c-0.1,0.2-0.2,0.4-0.3,0.6C44.6,22.4,45.4,24.5,47.7,23.9z"/>
	<path d="M30.1,28c-1.2-1.1-2.2-2.2-3.3-3.2C27.2,26.9,29.3,28.7,30.1,28z"/>
	<path d="M24.6,24.3c-0.1,0.1-0.3,0.3-0.4,0.4c1.3,0.9,1,3.1,3.3,3.5C26.4,26.7,25.5,25.5,24.6,24.3z"/>
	<path d="M27.1,28.8c0.8,0.7,1.1,2,2.4,1.8c0.1-0.2,0.2-0.3,0.3-0.5c-0.8-0.6-1.6-1.2-2.4-1.8C27.3,28.6,27.2,28.7,27.1,28.8z"/>
	<path d="M38.9,25.6c0.7,0.4,1.4,0.8,2.1,1.3c0.1-0.2,0.2-0.3,0.3-0.5c-0.7-0.5-1.3-0.9-2-1.4C39.2,25.2,39.1,25.4,38.9,25.6z"/>
	<path d="M35.8,25.2c0.7,0.4,1.4,0.9,2,1.3c0.1-0.2,0.2-0.4,0.4-0.5c-0.7-0.4-1.3-0.9-2-1.3C36.1,24.9,35.9,25,35.8,25.2z"/>
	<path d="M18.9,61.2c-0.4-1.1-0.9-2.1-1.2-3.2c-0.4-1.3-1.7-1.2-2.5-1.2c-0.6,0-1.7,1-1.8,1.6c-0.1,1-1.2,2.2,0.3,3.1
		c0,0,0,0.2,0,0.3c0.2,0.5,0.2,1.2,0.5,1.5c0.8,0.8,1.6,1.3,2.9,0.8C18.5,63.6,18.6,62.5,18.9,61.2z M14,61.6c0-0.8-0.3-1.4-0.1-1.7
		c0.4-0.7,1-1.2,2-0.9C15.3,59.8,14.8,60.5,14,61.6z"/>
	<path d="M10.6,40.4c-0.2,0-0.4,0-0.6,0c0.1,2.1,0.2,4.2,0.4,6.3c0.1,0,0.2,0,0.3,0C10.6,44.7,10.6,42.6,10.6,40.4z"/>
	<path d="M11.4,31.2c0.4-2.5,0.9-5,1.4-7.9C11.7,25.4,10.9,30.4,11.4,31.2z"/>
	<path d="M11,34.6c-0.1,0-0.3,0-0.4,0c-0.1,1.8-0.3,3.5-0.4,5.3c0.2,0,0.3,0,0.5,0C10.8,38.2,10.9,36.4,11,34.6z"/>
	<path d="M10.4,47.9c0.2,1.2,0.3,2.5,0.5,3.7c0.2,0,0.4,0,0.6-0.1c-0.1-1.2-0.3-2.5-0.4-3.7C10.8,47.9,10.6,47.9,10.4,47.9z"/>
</g>
<g>
	<path d="M51.4,111.3c-1.3-0.2-2.7-0.4-4-0.4c-0.7,0-1.3-0.1-2-0.2c-1.8-0.4-3.6-0.8-5.4-0.6c-0.3,0-0.6,0-0.9,0
		c-2.3-0.2-4.6-0.8-6.8-1.3c-0.8-0.2-1.7-0.5-2.5-0.2c-1.8,0.6-3.7,1.3-5.5,1.9c-1.7,0.6-3.4,1.3-5.1,2.1c-0.8,0.3-0.9,0.2-1.1-0.5
		c-0.2-0.5-0.6-0.7-1-0.4c-0.2,0.1-0.2,0.3-0.2,0.5c-0.1,0.7-0.2,1.3-0.3,2c0,0.2,0,0.4,0.2,0.4c0.2,0.1,0.4-0.1,0.4-0.2
		c0.2-0.5,0.6-0.7,1.1-0.8c3.2-1.1,6.4-2.3,9.5-3.5c1.5-0.6,2.9-0.7,4.4-0.4c2.7,0.6,5.5,1.1,8.3,1.3c0.2,0,0.4,0,0.5,0.2
		c0.2,0.2,0.4,0.2,0.6-0.1c0.2-0.2,0.3-0.2,0.4,0c0.1,0.2,0.4,0.3,0.6,0.1c0.3-0.3,0.4-0.2,0.6,0.1c0.1,0.2,0.3,0.3,0.4,0.1
		c0.4-0.4,0.8-0.3,1.2-0.1c0.8,0.3,1.6,0.6,2.5,0.3c0.2-0.1,0.5,0,0.8,0c0.3,0,0.6,0.1,0.8,0.4c0.3,0.5,0.7,0.7,1.2,0.7
		c0.3,0,0.5,0.1,0.8,0.1c0.1,0,0.3,0,0.3,0.1c0,0.1-0.1,0.2-0.2,0.2c-0.4,0.2-0.9,0.2-1.3,0.2c-0.8-0.1-1.6-0.1-2.5-0.2
		c-0.4-0.1-0.7-0.1-1.1,0c-1,0.3-2,0.2-3-0.1c-0.4-0.1-0.8-0.1-1.1,0c-1,0.3-2,0.3-3-0.1c-0.5-0.2-0.9-0.2-1.4,0
		c-1.6,0.6-3.3,0.6-5,0.2c-0.8-0.2-0.8-0.2-1,0.6c0,0.1-0.1,0.1-0.1,0.2c-0.2,0.4-0.4,0.5-0.8,0.3c-0.3-0.1-0.5-0.4-0.8-0.6
		c-0.4-0.3-0.4-0.3-0.5,0.2c0,0.3-0.1,0.6-0.1,0.9c-0.2,0.9-0.7,1.1-1.5,0.8c-0.6-0.2-1.1-0.5-1.7-0.7c-0.2-0.1-0.5-0.2-0.6,0.2
		c-0.1,0.3,0.2,0.4,0.4,0.5c0.7,0.4,1.5,0.7,2.1,1.3c1.4,1.6,3.3,2,5.3,2.4c0.1,0,0.3,0,0.4,0c0.7-0.2,1.5-0.3,2.2-0.1
		c1.2,0.2,2.4,0.6,3.4,1.4c0.1,0.1,0.2,0.1,0.2,0.3c-0.1,0.2-0.2,0.1-0.3,0c-0.6-0.1-1.2,0-1.7,0.1c-0.6,0.1-1,0.6-1,1.3
		c0,0.3,0,0.7,0.2,1c0,0.1,0.1,0.2,0,0.3c0,0-0.1,0-0.2,0c-0.7-0.5-1.5-0.6-2.2-1c-1.3-0.6-2.7-0.5-4-0.5c-1.2,0-2.2-0.1-3.2-0.8
		c-0.3-0.2-0.4-0.1-0.5,0.1c-0.1,0.2-0.2,0.3-0.2,0.5c-0.1,0.5-0.5,0.7-0.9,0.8c-0.7,0.1-1.5,0.2-2.2,0.1c-1.3-0.1-2.5-0.4-3.8-0.6
		c-0.7-0.1-1.2-0.5-1.3-1.2c-0.1-0.2-0.1-0.4-0.2-0.5c-0.3-1.1-0.5-2.1-0.6-3.2c0-0.3-0.1-0.6-0.4-0.7c-0.3,0-0.3,0.3-0.4,0.6
		c-0.4,1.5-0.3,3.1-0.4,4.6c0,0.9,0,1.8,0.1,2.8c0.1,0.9,0.2,1.8,0.5,2.7c0.1,0.2,0.1,0.4,0.3,0.4c0.2,0,0.4-0.1,0.5-0.3
		c0.1-0.2,0.1-0.3,0.1-0.5c0.1-0.4,0.1-0.9,0.1-1.3c0-0.5,0.2-0.6,0.6-0.4c0.6,0.3,1.1,0.7,1.7,1c1.2,0.8,2.5,1.1,3.9,0.9
		c1.2-0.2,2.2-0.8,3.2-1.6c0.2-0.2,0.3-0.2,0.5,0c0.5,0.9,1.2,1.1,2.1,0.9c0.3-0.1,0.4,0,0.5,0.3c0.5,1.3,1,1.4,2.1,0.7
		c0.2-0.1,0.3-0.2,0.5-0.3c0.5-0.4,1-0.6,1.6-0.7c0.6-0.1,1-0.4,1.4-0.8c0.7-0.8,1.6-1.1,2.6-1c0.4,0.1,0.9,0.1,1.3-0.1
		c1-0.3,1.4-1,1.3-2c-0.1-0.7-0.3-1.3-0.6-1.9c-0.2-0.5-0.5-0.9-0.5-1.4c-0.1-0.5-0.3-0.9-0.6-1.3c-0.4-0.5-0.8-1.1-1.2-1.6
		c-0.1-0.2-0.2-0.3,0.1-0.4c1.6-0.2,3.2-0.6,4.8-0.5c0.8,0,1.7,0.2,2.5,0.1c1-0.1,1.9-0.1,2.9,0c1.1,0.1,2.1-0.2,3-0.6
		c0.5-0.2,0.8-0.6,1-1C52.7,112.3,52.5,111.5,51.4,111.3z M40.4,122.2c0,0.7-0.6,1.4-1.5,1.5c-0.8,0.1-1.8-0.6-1.9-1.4
		c-0.1-0.5,0.3-1,0.9-1.2c0.3-0.1,0.6-0.1,0.9-0.1C39.7,121,40.3,121.5,40.4,122.2z M51.4,112.2c-0.6,0.2-1.1,0-1.6-0.1
		c-0.2-0.1-0.1-0.3,0.1-0.3c0.2-0.1,0.4,0,0.8,0c0.2,0,0.5,0.1,0.8,0.1c0.1,0,0.2,0.1,0.2,0.2C51.6,112.1,51.5,112.2,51.4,112.2z"/>
	<path d="M15.7,127.1c-0.7,0.1-1.3,0.2-2,0.3c-0.5,0-0.8-0.1-0.9-0.7c0-0.2-0.1-0.3-0.1-0.5c-0.1-1.6-0.3-3.1-0.2-4.3
		c0-2.4,0.2-4.4,0.4-6.4c0.1-0.8,0.2-1.7,0.3-2.5c0.1-0.8,0.6-1.1,1.4-1c0.3,0,0.7,0.1,1,0.2c0.2,0,0.5,0,0.7,0
		c0.2,0,0.4-0.2,0.4-0.4c0-0.3-0.2-0.3-0.4-0.3c-0.3,0-0.6,0-1-0.1c-0.2,0-0.4-0.1-0.6-0.3c-0.8-1-2-1.2-3.1-0.5
		c-0.4,0.2-0.7,0.3-1.2,0.2c-0.4-0.1-0.8-0.2-1.1,0c-0.7,0.2-1.4,0.2-2.1,0c-0.3-0.1-0.7-0.1-1-0.2c-0.8-0.1-1.1,0.2-1,1
		c0,1.4-0.1,2.7,0.1,4.1c0.1,1-0.1,2-0.1,3c-0.1,2.1-0.2,4.1-0.1,6.2c0.1,0.8,0.1,1.5,0,2.3c-0.1,1.2-0.4,2.4-0.4,3.6
		c0,0.6,0.2,0.8,0.8,0.8c1.5,0,3-0.4,4.5-0.6c0.7-0.1,1.4-0.1,2.1,0.2c1,0.5,1.7,0.1,1.8-1c0.1-0.5,0.1-1,0.1-1.5
		c0-0.5,0.2-0.7,0.7-0.7c0.4,0,0.7-0.1,1.1-0.1c0.3,0,0.5-0.2,0.4-0.5C16.2,127.1,16,127.1,15.7,127.1z"/>
	<path d="M38,121.9c0-0.1,0.1-0.4-0.2-0.4c-0.2,0-0.3,0.1-0.4,0.3c-0.2,0.3-0.1,0.6,0,0.8c0.3,0.5,0.8,0.7,1.4,0.7
		c0.2,0,0.4,0,0.6-0.2c0.1-0.1,0.3-0.1,0.3-0.3c0-0.2-0.2-0.1-0.3-0.2c-0.3-0.1-0.5-0.1-0.8-0.1C38.3,122.5,38.1,122.3,38,121.9z"/>
</g>
</svg>
