<?xml version="1.0" encoding="utf-8"?>
<!-- Generator: Adobe Illustrator 22.1.0, SVG Export Plug-In . SVG Version: 6.00 Build 0)  -->
<svg version="1.1" id="Layer_1" xmlns="http://www.w3.org/2000/svg" xmlns:xlink="http://www.w3.org/1999/xlink" x="0px" y="0px"
	 viewBox="0 0 135 68.3" enable-background="new 0 0 135 68.3" xml:space="preserve">
<g id="layer1">
	<path d="M0.1,7.2c0.4,2.1,0.6,2.4,2.1,2.3c0,1.4,0.6,1.7,2.1,1.9c0.8,0.1,1.6,0.8,2.4,1c1.9,0.4,3.8,0.6,5.7,0.9c0.2,0,0.5,0,0.7,0
		c2.7-0.9,5.4-0.1,8.1,0.3c0.3,0,0.6,0,0.9,0.1c2.4,0.1,4.8,0.2,7.2,0.2c0.6,0,1.1-0.4,1.5-0.6c2.8,0.5,5.1,2.3,8.1,1.7
		c-0.7,0.5-1.5,1.1-2.2,1.6c0.1,0.1,0.1,0.2,0.2,0.3c1-0.6,1.9-1.1,2.9-1.8c0.9-0.6,1.6-0.4,2,0.8c1.1-0.6,2.2-1.4,3.3-1.7
		c1.2-0.2,2.5-0.1,3.7,0.2c0.6,0.2,1.2,0.8,1.6,1.4c0.4,0.7,0.4,1.5-0.6,1.6c-2,0.4-4.1,0.7-6.2,0.9c-0.5,0-1.1-0.6-2-1.1
		c0.3,1.2,0.6,2.3,0.8,3.2c-2.2,0.1-3.8,1.7-5.9,2.1c0,0.2,0.1,0.3,0.1,0.5c2.1-0.5,4.2-0.9,6.5-1.5c1.5,1.5,3.7,2,6,2.1
		c1.3,0.1,1.8,0.6,1.4,1.9c0.7-2.2,2.7-1.3,4.1-2.2c0,0.7-0.1,1.2-0.1,1.9c0.4-0.8,0.8-1.4,1.2-2.1c0.3,0.6,0.5,1,0.7,1.4
		c0.1-2,1.8-1.7,3.2-2.6c-0.9,2.3-0.6,4,0.9,5.6c-1.5-1-2.4-2.3-2.4-4.1c-1.5,1.5-0.1,4.2,2.9,5.6c-1.1,1-2,2.1-3.2,2.9
		c-0.3,0.2-1.3,0-1.7-0.4c-1-0.8-1.8-1.7-2.9-2.5c0.4,0.7,0.8,1.4,1.2,2.1c-0.4,0.2-0.7,0.4-1.3,0.7c-0.4-0.4-0.9-1.1-1.5-1.7
		c-0.2-0.2-0.7-0.3-1-0.4c0.1,0.4,0,0.8,0.2,1c0.3,0.5,0.7,0.9,1.1,1.3c-0.1,0.1-0.2,0.2-0.2,0.3c-0.8-0.7-1.6-1.5-2.4-2.2
		c-0.1,0-0.1,0.1-0.2,0.1c0.2,0.5,0.5,1,0.7,1.6c-0.1,0.1-0.2,0.2-0.3,0.3c-0.5-0.8-1-1.6-1.5-2.5c-0.2,0.2-0.5,0.4-0.7,0.6
		c0.4,0.7,0.8,1.5,1.2,2.2c-0.1,0.1-0.2,0.2-0.4,0.3c-0.6-0.6-1.2-1.2-1.9-1.9c0.1,0.3,0.1,0.7,0.2,1.1c-0.2,0.1-0.2,0.1-1.7-1.6
		c-0.1,0-0.2,0.1-0.3,0.1c0.4,0.7,0.7,1.5,1.1,2.2c0,0.1-0.1,0.1-0.1,0.2c-0.6-0.6-1.2-1.2-2-2c0.1,0.7,0.1,1.1,0.2,1.8
		c-0.8-0.9-1.4-1.5-1.9-2.2c-0.1,0-0.2,0.1-0.3,0.1c0.2,0.5,0.3,1.1,0.5,1.8c-1-0.2-1,0.3-0.6,1.1c-0.5,0-0.8,0-1.1,0.1
		c-0.2-1.4-0.3-2.7-2.3-2.6c-0.4-0.6-1-1.2-1.7-2.2c0.1,0.7,0.2,1,0.2,1.4c-0.1,0-0.2,0.1-0.3,0.1c-0.7-0.9-1.4-1.9-2.2-2.9
		c0.1,0-0.2,0.1-0.5,0.3c-0.1-0.3-0.3-0.6-0.6-1.1c0,0.7,0,1,0,1.5c-1.2-1-1.4-2.2-1.5-3.5c0-0.5,0.1-1.4-1.3-1
		c0.6,1.7,1.3,3.3,1.9,4.9c0.1,0.2,0.2,0.5,0.3,0.7c0.4,1.6,1.5,2.7,2.9,3.3c1.9,0.9,3.9,1.7,5.9,2.2c1.7,0.4,3.5,0.3,5.2,0.4
		c0.3,0,0.5-0.3,0.5-0.3c1.7,0,3.1,0,4.5,0c0.5,0,0.9,0.2,1.4,0.3c0.4,0,0.9,0,1.4,0c0.5,0.9,1,1.9,1.7,3.2c-0.6-0.3-1-0.4-1.5-0.6
		c0.8,2,2.1,3.3,4.1,3.9c-0.1,0.1-0.2,0.3-0.3,0.4c-1.4-0.8-2.7-1.5-4.1-2.3c-0.1,0.2-0.2,0.4-0.3,0.6c1.2,0.8,2.3,1.6,3.5,2.4
		c0,0.1-0.1,0.1-0.1,0.2c-1.1-0.5-2.2-0.9-3.3-1.4c-0.1,0.1-0.1,0.3-0.2,0.4c0.5,0.4,1,0.7,1.5,1.1c-0.1,0.1-0.1,0.2-0.2,0.3
		c-0.9-0.5-1.8-1.1-2.7-1.6c-0.1,0.3-0.3,0.6-0.4,0.9c-1.2-0.7-2.3-1.5-3.5-2.2c-0.1,0.1-0.1,0.1-0.2,0.2c0.8,0.8,1.5,1.6,2.3,2.4
		c-0.1,0.1-0.2,0.2-0.2,0.3c-1.1-0.7-2.3-1.4-3.4-2.1c-0.1,0.1-0.2,0.2-0.3,0.3c0.5,0.3,1.1,0.6,1.6,0.9c-0.1,0.2-0.3,0.3-0.4,0.5
		c-1-0.5-2-0.9-3.1-1.5c0.2,0.5,0.4,0.8,0.5,1.2c-0.1,0.1-0.1,0.2-0.2,0.2c-1-0.7-1.9-1.4-2.9-2c-0.1,0.1-0.2,0.2-0.2,0.3
		c1.1,1,2.3,1.9,3.5,3c-2-0.3-3.2-1.8-4.7-2.8c-0.2,1.5,2.2,1.6,1.6,3.4c-1.4-2.3-3.5-3.5-5.5-4.8c-0.1,0.3-0.2,0.4-0.2,0.4
		c0.8,0.8,2,1.5,2.3,2.4c0.4,1.3,1.1,1.9,2.1,2.3c1.6,0.5,3.3,1,5,1.3C49,47,52,45.9,55,44.9c0.9-0.3,2.1-0.4,2.9-1.2
		c0.4-0.5,1.1-0.7,1.8-1c0.2,0.4,0.4,0.8,0.6,1.1c-0.9-1.8,0.5-2.3,1.6-3.1c0.7-0.5,1.4-1.1,2.2-1.7c0.2,0.3,0.3,0.6,0.7,1.1
		c0-0.6,0.1-0.8,0.1-1c0-0.3,0-0.7,0-1c0.3,0.3,0.6,0.5,0.8,0.8c0.2,0.3,0.3,0.6,0.5,1c0.2-0.1,0.4-0.2,0.5-0.2
		c-0.3-0.7-0.6-1.5-1-2.4c0.3-0.2,0.6-0.5,1-0.9c0.1,0.7,0,1.1,0.2,1.5c0.1,0.3,0.5,0.5,0.7,0.7c0.1,0.1,0.4,0.2,0.4,0.3
		c-0.5,1.8,1.4,2.2,2.2,3.6c-1.7-0.2-2.2-1.5-3.1-2.6c-0.2,0.5-0.5,0.9-0.4,1c0.8,0.8,1.6,1.8,2.7,2.3c1.2,0.5,1.7-0.8,2-1.5
		c0.2-0.5,0.6-1.5-0.4-2c0.4-0.9,0.8-1.7,1.3-2.6c-0.1-0.1-0.2-0.1-0.2-0.2c-0.6,0.7-1.1,1.3-1.9,2.3c0.2-0.7,0.3-1.1,0.5-1.7
		c-1.4,0.9-1.4,0.9-0.9,2.8c-0.2-0.6-0.6-1.1-0.6-1.7c0-0.6,0.2-1.3,0.5-1.9c0.7-1.8,1.3-2.1,2.6-1.4c1.5,0.8,1.9,2.4,1.2,3.7
		c-0.5,0.8-1.6,1.6-0.6,2.9c0.1,0.2-0.5,0.9-0.8,1.3C70.8,44,70,45,69.1,46.1c-0.6-0.1-1.3-0.2-1.9-0.3c0-0.1,0-0.2,0-0.3
		c0.6,0,1.2,0,1.9,0c0-0.1,0.1-0.2,0.1-0.3c-0.9-0.6-1.9-1.1-3-1.8c0.1,0.7,0.1,1,0.2,1.7c-1-0.6-2-1.2-3.1-1.9
		c1,1.9,3.5,3.6,5.4,3.5c-0.2,0.3-0.4,0.6-0.6,0.9c-1.6-0.8-3.1-1.6-4.6-2.3c-0.1,0.1-0.2,0.3-0.3,0.4c0.6,0.5,1.2,1.1,1.8,1.6
		c-1.1-0.5-2.2-1-3.1-1.4c0.3,1.1,1.5,2,3.1,2.1c0,0.3,0,0.6,0,1.3c-1.4-0.8-2.7-1.6-3.9-2.3C61,46.9,60.9,47,60.8,47
		c0.5,0.6,1,1.2,1.6,1.7c0.6,0.5,1.3,0.8,1.9,1.1c-0.1,0.1-0.1,0.2-0.2,0.4c-0.8-0.3-1.7-0.6-2.4-1c-0.7-0.4-1.3-1-1.9-1.4
		c-0.1,0.1-0.2,0.2-0.3,0.4c1,0.8,1.9,1.7,2.9,2.5c-0.2,0.1-0.5,0.2-0.8,0.3c0.1-0.1,0.1-0.2,0.2-0.3c-1-0.6-2-1.3-2.5-1.7
		c0.4,0.4,1,1.2,1.7,2c-0.1,0.1-0.2,0.3-0.3,0.4c-1-0.6-2.1-1.3-3.1-1.9c-0.1,0.1-0.2,0.3-0.3,0.4c1.1,0.8,2.1,1.6,3.2,2.4
		c0,0.1,0,0.2,0,0.3c-1.2-0.5-2.3-1-3.5-1.5c-0.1,0.2-0.2,0.3-0.3,0.5c0.7,0.5,1.4,1.1,2.2,1.6c0,0.1-0.1,0.1-0.1,0.2
		c-1-0.6-2.1-1.1-3.1-1.7c-0.1,0.2-0.2,0.3-0.3,0.5c1,0.7,1.9,1.4,2.9,2.1c0,0.1-0.1,0.2-0.1,0.3c-1.4-0.7-2.8-1.5-4.4-2.3
		c0.3,0.7,0.6,1.3,0.9,1.8c-0.9-0.6-1.8-1.2-2.7-1.9c0.6,1.2,1.6,2,3,2.3c-0.4,0-1,0.2-1.3,0c-1-0.5-2-1.1-3.1-1.5
		c0.8,0.8,1.6,1.5,2.6,2.4c-1.2,0.1-1.9-2-3.3-0.5c-1.3-1.5-2.5-2.9-3.8-4.3c0.1-0.5,0.3-1.2,0.5-2.1c-0.6,0.3-0.8,0.4-1.2,0.6
		c0.1-0.5,0.2-0.7,0.3-1.1c-0.4,0-0.7,0-1.1,0c0,0.1-0.1,0.2-0.1,0.3c0.3,2.5,1.2,4.7,2.4,6.8c1,1.6,2.5,2.2,4.2,2.6
		c3.1,0.7,6,0.1,8.9-1c2.2-0.8,4.4-1.7,6.6-2.2c1.1-0.2,2.4,0.3,3.6,0.6c1.1,0.2,2.2,0.6,3.2,0.8c0.5,0.1,1-0.2,1.5-0.2
		c0.3,0,0.9-0.4,0.5,0.5c0,0,0.3,0.3,0.5,0.3c1.9,0.6,3.8,1.4,5.7,1.9c2.2,0.6,4.4,1,6.6,1.3c0.5,0.1,1.4,0.4,1.4-0.8
		c0-0.2,0.4-0.3,0.8-0.3c-0.2,0.2-0.3,0.5-0.7,1c3.2,0.8,6.3,0.6,9.3,0.9c3.2,0.3,6.2-0.8,9.2-0.8c0.8,1.6-0.1,4.2,2.3,4.8
		c0.1,0.6,0,1.2,0.3,1.6c1.6,1.7,3.5,2.8,6,2.6c2.7-0.2,5.3-0.2,8-0.2c2.4,0,4.7,0.1,7.1,0.1c1.3,0,2.1-1.7,1.8-3.5
		c-0.2-1.3-0.7-3-0.1-3.8c1.5-1.9,0.1-3.4-0.1-5c-0.2-1.8,0-3.2,1.3-4.4c0-0.2,0-0.4,0-0.5c-0.3-0.3-0.5-0.7-0.8-1
		c0.8-1,0.6-2.4-0.5-3.4c-1.2-1-2.5-1.9-3.7-3c-0.5-0.4-0.9-1-1.3-1.5c0.1-0.1,0.2-0.2,0.3-0.2c1.5,1.3,3,2.6,4.5,4
		c0.2-0.2,0.3-0.3,0.5-0.5c-1.2-2.3-4.2-3.1-5.2-5.5c0.1-0.1,0.2-0.2,0.3-0.2c1.4,1.4,2.9,2.8,4.3,4.2c0.2-0.1,0.3-0.1,0.5-0.2
		c-0.1-0.9,0.2-2-0.3-2.5c-1.3-1.4-2.9-2.4-4.4-3.7c-0.4-0.3-0.5-0.8-0.8-1.3c0.1-0.1,0.2-0.1,0.4-0.2c0.1,0.1,0.2,0.3,0.3,0.4
		c1.9,1.5,3.9,2.9,5.9,4.4c0-0.2,0-0.4,0-0.5c-3-1.7-5.3-4.3-7.8-6.7c0.6,0.1,1,0.3,1.3,0.6c1.6,1.6,3.2,3.1,5.2,4.1
		c0.8-0.8,0.6-1.5-0.1-1.8c-0.5-0.2-1.2-0.1-1.8-0.1c0-0.1,0-0.2,0-0.3c0.3-0.1,0.6-0.2,0.8-0.3c-1.7-1.5-3.3-3-4.9-4.4
		c0.1-0.1,0.2-0.2,0.3-0.4c1.5,1.3,3.1,2.7,4.6,4c0.3-0.3,0.5-0.6,0.7-0.9c-1.2-1-2.4-1.9-3.6-2.8c0.5,0.2,1.1,0.3,1.6,0.6
		c0.7,0.4,1.3,1,2.2,1.8c0.1-1.1,0.1-1.7,0.2-2.6c-0.6,0.3-1,0.4-1.3,0.6c0.2-0.5,0.3-0.9,0.4-1.3c0.3,0.1,0.6,0.1,1,0.2
		c-1.4-1.5-3-2.8-4.6-4c-1.1-0.8-2.3-1.4-3.2-2.4c-0.6-0.7-0.6-1.9-0.9-2.8c0,0,0,0,0,0c0,0,0,0,0,0l0,0c-0.3-0.7-0.6-1.4-1-2.3
		c3.1,2.2,5.8,4.1,8.5,6c0.1-0.1,0.1-0.2,0.2-0.3c-2.9-2.2-5.9-4.4-8.8-6.6c0.1-0.1,0.1-0.3,0.2-0.4c0.3,0.1,0.7,0.2,0.9,0.4
		c1.2,0.8,2.3,1.7,3.5,2.5c1,0.7,2,1.3,3,1.9c0.7,0.4,1.3,0.8,2.2,0c-2.5-1.8-5-3.6-7.5-5.4c0.1-0.2,0.2-0.3,0.4-0.5
		c1.4,1,2.8,2,4.2,3c1.3,0.9,2.6,1.7,3.9,2.6c0-0.2,0-0.4,0-0.5c-2-1.5-3.9-2.9-5.9-4.4c0.1-0.1,0.2-0.3,0.3-0.4
		c1.7,1.1,3.3,2.2,5,3.3c0-0.5-0.2-0.7-0.3-1c0-0.3,0.3-0.6,0.2-0.8c-0.7-1.2-0.7-2.6-0.5-3.9c0.3-1.8,0.4-3.5-0.2-5.2
		c-0.6-0.1-1.1-0.2-1.6-0.3c0-0.1,0-0.2,0-0.4c0.5,0,1,0,1.7,0c-0.4-0.7-0.7-1.3-0.9-1.6c0.7-0.6,1.4-1.1,2.1-1.7c0-0.2,0-0.4,0-0.5
		c-0.5-0.1-1-0.3-1.4-0.3c-2,0.1-4,0.3-6,0.5c-3,0.3-6,0.7-9,1c-3.9,0.4-7.3,1.8-9.9,4.8c-0.2,0.2,0,0.8,0,1.2
		c-1.6-0.7-0.9,1.6-1.5,1.7c-2.9-1.4-5.5-2.7-8.1-3.9C95,8,90.9,6.2,86.7,4.5C85.9,4.2,85,4.2,84.2,4c-0.2-0.2-0.5-0.6-0.9-0.7
		c-1.4-0.5-2.8-0.8-4.1-1.2c-1.8-0.6-3.6-1.4-5.5-2.1c-3.1,0-6.3,0-9.4,0c-1.6,0.1-3.2,0.3-4.8,0.4c0,0.1,0,0.3,0,0.4
		c2,0.1,4.1,0.4,6.1,0.2C67,0.9,67,0.6,67.4,1.3c-0.3,0.2-0.9,0.3-1,0.6c-0.4,1.2-1,2.3-2.6,2.2c-0.1-0.2-0.2-0.6-0.3-1
		c-2.4-0.3-1.9,2.1-3,3c0.1-0.6,0.3-1.3,0.4-1.9C60.8,4.1,60.6,4,60.5,4c-0.3,0.5-0.5,1-0.8,1.5c-0.2-0.3-0.4-0.6-0.8-1.1
		c-0.2,0.5-0.4,0.8-0.5,1.1c-0.1-0.1-0.1-0.2-0.2-0.3c-0.4,0.2-1,0.2-1.1,0.5c-0.2,0.5,0,1,0,1.5c-0.8-0.3-1.5-0.6-2.4-0.9
		c0,0.8,0,1.5,0,2.1c-0.1,0-0.2,0-0.2,0c-0.2-0.4-0.4-0.8-0.7-1.5c-0.3,0.5-0.6,0.9-1,1.5c-0.2-0.6-0.4-1-0.8-1.8
		c-0.1,0.9-0.2,1.6-0.3,2.3c-0.4-0.2-0.7-0.4-1.1-0.6c-0.2,0.4-0.3,0.7-0.5,1.3c-0.2-0.9-0.4-1.6-0.7-2.3c-0.1,0-0.2,0-0.3,0
		c0,1,0,2,0,3c-0.1,0-0.1,0-0.2,0c-0.3-0.7-0.6-1.4-0.8-2.1c-0.1,0-0.2,0-0.3,0.1c0,0.6,0.1,1.1,0.1,1.7c-0.2,0-0.3,0.1-0.5,0.1
		c-0.3-0.9-0.6-1.8-1-3c-0.1,1.1-0.1,2-0.2,3.1c-0.3-0.5-0.6-0.8-1-1.3c-0.1,0.6-0.1,1.1-0.2,1.8c-0.4-0.5-0.6-0.8-0.8-1.1
		c-0.7,0.7-0.7,0.7,0.2,1.6c-0.6,0.2-0.6,0.2-2.2-2.6c0.2,1.1,0.5,2.1,0.7,3.2c-0.2,0-0.3,0.1-0.5,0.1c-0.3-0.8-0.6-1.7-1-2.5
		c-0.1,0-0.2,0-0.2,0c0,0.6,0,1.2,0,2.2c-0.6-1.2-0.9-2-1.3-2.8c-0.1,0-0.2,0-0.3,0.1c0.1,0.6,0.1,1.3,0.2,1.9c-0.1,0-0.1,0-0.2,0.1
		c-0.3-0.5-0.7-1.1-1-1.6c-0.1,0-0.2,0-0.3,0.1c0.1,0.7,0.2,1.4,0.3,2.1c-0.1,0-0.2,0.1-0.3,0.1c-0.4-0.8-0.7-1.7-1.1-2.5
		c-0.1,0-0.2,0-0.3,0c0,0.5-0.1,1-0.1,1.7c-0.5-0.7-0.8-1.2-1.2-1.7c-0.1,0-0.1,0.1-0.2,0.1c0.1,0.5,0.1,1,0.3,1.8
		c-0.5-0.4-0.8-0.6-1.1-0.8c0,0.3,0,0.7,0,1c-0.1,0-0.2,0.1-0.2,0.1c-0.5-1.2-1-2.3-1.5-3.5c-0.1,0-0.1,0-0.2,0c0.1,1,0.3,2,0.4,3
		c-0.9,0.5-0.3-2.4-1.8-0.6c-0.4-0.9-0.8-1.8-1.1-2.6c-0.1,0-0.2,0-0.4,0c-0.1,0.6-0.2,1.2-0.2,1.7c-0.8,0.4-1.4,0.8-2.2,1.2
		c-0.2-0.3-0.4-0.6-0.6-0.9c-0.6,0.3-1.1,0.5-1.6,0.8c0.3,0.4,0.7,0.8,1,1.2c-0.6,0.3-0.6,0.3-1.2-0.5c-0.3-0.5-0.7-1-1-1.5
		c-0.1,0-0.2,0.1-0.4,0.1c0.2,0.6,0.3,1.1,0.5,1.7c-0.8,0.2-0.9-2.2-2-0.5c-0.3-0.4-0.5-0.7-0.8-1.1c-0.3,0.2-0.6,0.3-0.9,0.5
		c-0.3-0.4-0.6-0.7-0.9-1.1c-0.3,0.4-0.5,0.9-0.9,1c-0.8,0.3-1.5,0.1-1.7-0.9c-0.2-1-0.4-1.9-0.6-3.2c-1.1,1.2-0.1,2.5-1,4
		c-0.2-0.7-0.3-1.3-0.5-1.8c-0.2,0.2-0.4,0.3-0.5,0.5c0.1,0.6,0.2,1.2,0.4,2.1c-0.6-0.6-0.9-0.9-1.3-1.3c-0.3,0.3-0.5,0.5-0.9,0.8
		c-0.2-0.5-0.3-0.8-0.6-1.5c-0.3,0.9-0.6,1.5-0.8,2c-0.1,0-0.2-0.1-0.3-0.1c-0.1-0.5-0.2-1.1-0.3-1.6c-0.2,0-0.3,0-0.5,0
		c0,0.3-0.1,0.7-0.1,1.3C9.3,10,8.9,9.5,8.4,8.6c-0.1,0.7-0.1,1.1-0.1,1.6c-0.3-0.2-0.6-0.4-1-0.6C7.1,10,7,10.4,6.9,10.8
		c-0.9-1-2.6-0.8-2.9-2.4c0-0.1-0.4-0.1-0.7-0.2c0,0.3,0,0.6,0,0.8C2.4,8.8,1.4,9,0.8,7.7c-0.6-1.3,0.4-2,0.6-3
		C0.1,5-0.2,5.6,0.1,7.2z M67.6,47.9c-0.6,0.5-0.8,1.5-1.8,1.3c0.3-0.3,0.7-0.5,1-0.8c-0.6-0.4-1.1-0.8-1.6-1.1
		C65.9,47.5,66.7,47.7,67.6,47.9z M56.6,33.7c-0.2,0.9-0.3,1.4-0.4,1.9c-0.1,0-0.3,0-0.4-0.1c-0.2-0.4-0.4-0.8-0.5-1.2
		c-0.1,0-0.3,0.1-0.4,0.1c0.2,0.8,0.5,1.6,0.7,2.4c-0.1,0.1-0.1,0.1-0.2,0.2c-0.5-0.8-1.1-1.5-1.8-2.5
		C54.7,34.3,55.5,34.1,56.6,33.7z M56.8,35.7c0.5,0.5,1,0.9,1.4,1.3c-0.5,0.6-1,1.2-1.5,1.7c-0.1,0-0.1-0.1-0.2-0.1
		c0.3-0.5,0.6-1,0.9-1.6c-0.3-0.4-0.6-0.7-0.9-1.1C56.6,35.9,56.7,35.8,56.8,35.7z M58.1,35.9c-0.5-0.8-0.9-1.4-1.3-2
		c0.2-0.1,0.6-0.4,0.6-0.3C58.1,34,58.6,34.6,58.1,35.9z M59.2,41.1c-0.1,0.2-0.2,0.3-0.3,0.5c-1-0.3-1.8-0.9-2.6-1.5
		c0.1-0.1,0.1-0.2,0.2-0.3C57.5,40.2,58.3,40.7,59.2,41.1z M67.4,1.3c0,0.6,0,1.2-0.1,1.8c0,0,0,0,0,0C67,3.6,66.7,4,66.4,4.4
		c-0.1,0-0.2-0.1-0.3-0.1C66.5,3.3,66.9,2.3,67.4,1.3z M69.5,1.3c-0.6,1-1.1,2-1.8,3.2c-0.2-0.7-0.3-1.1-0.4-1.4
		c1.1,0.4,0.8-0.6,1.1-1.1c0.2-0.3,0.4-0.7,0.6-1C69.2,1.1,69.3,1.2,69.5,1.3z M111.3,15.7c0.5,0.6,0.9,1.3,1.5,1.9
		c0.5,0.6,1.1,1.1,1.7,1.6c-0.1,0.1-0.3,0.4-0.6,0.8c-0.9-1.3-1.9-2.7-2.9-4.1C111.1,15.8,111.2,15.8,111.3,15.7z M104.3,38.7
		c2-0.9,3.4-2.5,5.1-3.8c1.8-1.3,3.2-3.1,4.8-4.7C114.3,31.7,107.6,37.7,104.3,38.7z M108.2,40.6c-3,4.3-16.3,12.7-19.5,12.4
		c0.3-0.4,0.6-0.7,0.8-1c0.6,0,1,0,1.4-0.1c1-0.4,1.9-0.9,2.8-1.4c2.2-1.2,4.3-2.9,6.3-4.5C102.7,44,105,41.6,108.2,40.6z
		 M114.2,32.6c0.1,0.1,0.2,0.1,0.3,0.2c-0.2,0.3-0.3,0.7-0.6,1c-0.6,0.5-1.2,1-1.8,1.5c-0.6,0.5-1.2,1.1-1.8,1.6
		C111.6,35.5,112.9,34,114.2,32.6z M114.1,34.5c0.1,0.8,0.1,1.2,0.2,1.3c-1.4,1.1-2.7,2.1-4,3c-0.1-0.1-0.1-0.2-0.2-0.2
		C111.4,37.3,112.7,36,114.1,34.5z M114.7,25.5c-0.1,0-0.3-0.7-0.7-1.5c0.6,0.4,0.9,0.6,1.2,0.9c0.1-0.5,0.2-0.9,0.3-1.3
		c0.5,1.9,0.8,3.9,1.2,5.8c0.1,0.4,0.5,0.8,0.6,1c-0.1,0.8-0.2,1.5-0.3,2.1c0,0.7,0,1.4,0,2.2c-0.1,0-0.2,0-0.2,0
		c-0.3-2.5-0.5-5.1-0.9-7.6C115.9,26.6,116.4,25.1,114.7,25.5z M115.2,26.2c0.2,2.4,0.3,4.8,0.5,7.2c-0.1,0-0.3,0-0.4,0
		c-0.1-1.7-0.3-3.4-0.4-5.1c0-0.7-0.1-1.4-0.1-2C115,26.2,115.1,26.2,115.2,26.2z M116.2,19.2c-0.9-1.2-1.7-2.4-2.6-3.6
		c0.1-0.1,0.2-0.2,0.3-0.3c0.8,1.2,1.7,2.4,2.5,3.7C116.4,19.1,116.3,19.1,116.2,19.2z M123.6,10.5c0-0.1,0.1-0.2,0.1-0.2
		c0.5,0,1,0,1.3,0c0.6,1.7,2.4,1.6,3.4,2.5c-0.1,0.1-0.2,0.3-0.2,0.4C126.6,12.3,125.1,11.4,123.6,10.5z M122.6,15.1
		c0,0-0.3-0.6-0.5-1c0.1-0.1,0.2-0.2,0.3-0.3c1.2,0.7,2.4,1.3,3.7,2C124.8,16.3,124,14.6,122.6,15.1z M128.7,27.5
		c0.1-0.2,0.2-0.3,0.3-0.5c1,0.8,2,1.5,3,2.3c-0.1,0.1-0.1,0.2-0.2,0.3C130.7,28.9,129.7,28.2,128.7,27.5z M127.1,28.5
		c0.1-0.1,0.2-0.2,0.3-0.3c0.7,0.4,1.5,0.9,2.3,1.4c0,0.4,0.1,0.9,0.1,1.5c-0.6-0.5-1.1-0.9-1.7-1.5
		C127.7,29.4,127.4,28.9,127.1,28.5z M126.5,26.3c-0.1-0.4-0.2-0.8-0.4-1.6c1,0.9,1.7,1.5,2.7,2.4C127.8,26.7,127.1,26.5,126.5,26.3
		z M122.2,65.7c0.8-1.3,1.4-2.4,2-3.5C123.8,63.4,123.9,65.1,122.2,65.7z M110.1,59.1c1.3-0.6,2.5-1.4,4-1c-0.9,5.2,0.5,6,3.2,7.1
		c-0.6-0.7-1.1-1.3-1.4-1.9c-0.4-0.6-0.9-1.4-0.9-2.1c0-1.8,0.3-3.7,0.5-5.5c0-0.1,0.1-0.1,0.2-0.2c0.1,0.2,0.3,0.4,0.6,0.8
		c0.5-2.1,1-3.9,1.4-5.7c0.6-2.9,1.3-5.7,1.5-8.6c0.3-3.5,0.3-7.1,0.4-10.6c0.1-2.7,0.2-5.4-0.8-8c-0.2-0.5-0.6-0.9-0.9-1.3
		c-0.1-0.2-0.3-0.3-0.5-0.4c0.2-0.1,0.5-0.2,1-0.4c-1.9-2.9-3.8-5.7-5.7-8.6c0.4,0,1-0.3,1.5-0.1c1,0.3,2,0.6,2.8,1.2
		c1.1,0.6,2.3,1.3,2.9,2.3c1.3,2.1,2.3,4.3,3.4,6.5c0.6,1.3,1.1,2.7,1.3,4.2c0.3,1.4,0.2,3,0.4,4.4c0,0.3,0.4,0.5,0.7,0.8
		c-0.1,0.4-0.5,0.9-0.4,1.2c0.9,1.7,0.3,3.6,0.5,5.4c0.3,1.7,0.4,3.5,0.4,5.2c-0.1,2.9-0.4,5.7-0.7,8.6c-0.3,2.6-0.7,5.3-1.3,7.8
		c-0.5,2-1.4,3.9-3.6,4.7c-0.9,0.3-1.9,0.4-2.9,0.7c0.5,0.2,1,0.3,1.6,0.5c-0.7,0.4-1.3,0.7-1.9,1c0-0.1,0.1-0.3,0.1-0.4
		c-0.6-0.3-1.3-0.7-2-0.9c-0.2-0.1-0.6,0.1-1.2,0.2c-1.2-1.8-2.5-3.9-3.8-6c-0.1,0.1-0.3,0.2-0.4,0.3c0.8,1.4,1.7,2.8,2.5,4.2
		c-1.2-1.2-2.5-2.3-2.9-4C109.7,60,109.8,59.2,110.1,59.1z M110.5,51.7c0.2,0.1,0.3,0.3,0.5,0.4c-0.6,0.2-1.1,0.4-1.7,0.7
		c-1.1,0.6-2.1,1.3-3.2,2c0-0.1-0.1-0.1-0.1-0.2c2.3-1.9,4.6-3.8,6.9-5.8C113,50.4,111.1,50.6,110.5,51.7z M105.9,56.8
		c0.5-0.4,1.1-0.8,1.6-1.2c1.2-1.1,2.3-2.3,3.5-3.4c0,0,0,0,0,0c0.4,0,0.7-0.1,1.1-0.1c-0.3,1.2-0.5,2.3-0.8,3.4
		c-0.1,0.4-0.3,0.8-0.6,1c-1.1,0.7-2.2,1.2-3.2,1.8c0.7-2,3.5-2.2,3.8-4.5c-1.7,1.1-3.4,2.2-5.1,3.3C106,57,106,56.9,105.9,56.8z
		 M99.2,58.1c1.8-0.9,3.8-2,5.7-3c0.1,0.1,0.1,0.2,0.2,0.3C103.2,56.5,101.4,58,99.2,58.1z M97.3,57.3c2.8-1.8,5.7-3.4,8.4-5.4
		c2.7-1.9,5.1-4.1,7.6-6.2C109.2,51.3,103.4,54.5,97.3,57.3z M111.7,45c0.6-1.2,1.6-2.1,2.2-2C113.2,43.7,112.4,44.5,111.7,45z
		 M96.4,55.3c2.5-1.5,5.1-2.8,7.5-4.4c2.5-1.6,4.8-3.4,7.3-5.1C109.2,48.8,98.1,55.9,96.4,55.3z M96.3,53.3c0.7-0.4,1.3-0.8,2-1.2
		c2.6-1.7,5.4-3.2,7.8-5.1c2.4-1.8,4.6-4,6.8-6.1c0.3-0.2,0.6-0.3,1-0.5c-5.1,5.5-10.4,10.5-17.4,13.2
		C96.4,53.5,96.4,53.4,96.3,53.3z M85.5,55.3c0.2-0.1,0.3-0.2,0.5-0.2c3.3-0.6,6.4-1.8,9.3-3.4c5-2.8,9.3-6.3,13.7-9.9
		c0.9-0.7,1.9-1.3,2.9-2c-1.2,1.4-2.5,2.7-3.9,3.8c-2.3,1.9-4.6,3.8-7.1,5.4c-3.5,2.3-7.1,4.5-11.2,5.7c-1.4,0.4-2.7,0.7-4.1,1
		C85.6,55.6,85.5,55.4,85.5,55.3z M82.5,53.2c1-0.6,1.7-1.2,2.5-1.5c1.2-0.4,2.6-0.5,3.8-1c3.3-1.6,6.7-2.9,9.4-5.6
		c1.2-1.3,2.8-2.2,4.3-3.2c0.3-0.2,1-0.1,1.5-0.1C97.9,47.6,90.9,51.3,82.5,53.2z M82.8,51.1c0.5-0.3,1-0.5,1.5-0.7
		c2.9-1.3,5.9-2.5,8.6-4c2.2-1.3,4.2-3,6.3-4.5c0.5-0.4,1.2-0.5,1.8-0.8c0.1,0.1,0.1,0.2,0.2,0.4C95.8,46,89.9,49.8,82.8,51.1z
		 M78.4,50.2c0.8-0.2,1.2-0.3,1.6-0.4c2.8-0.6,5.7-1.2,8.1-2.9c0.7-0.5,1.4-0.9,2.1-1.3c1.7-1.1,3.5-2.1,5.1-3.4
		c0.8-0.6,1.5-1.2,2.5-0.9C93.9,45.6,82.5,51,78.4,50.2z M76.8,48.9c6.4-1.5,12.4-3.8,17.6-7.9C89.5,45.9,83.4,47.9,76.8,48.9z
		 M74.8,47.9c6-1.3,11.5-3.7,16.8-6.8C86.6,44.9,80.9,47,74.8,47.9z M85.7,40.6c-0.8,1.3-6.2,3.4-7.8,3.2
		C80.5,42.6,83,41.6,85.7,40.6z M78.7,42c0-0.1-0.1-0.2-0.1-0.3c1.2-0.4,2.3-0.9,3.5-1.3c0.1,0.2,0.1,0.3,0.2,0.5
		C81.1,41.3,79.9,41.6,78.7,42z M86,42.2c0.5-0.2,0.9-0.8,1.3-1.2c0.1-0.3,0.4-0.3,0.6-0.3c0.3,0,0.6,0,0.9,0.1
		c0,0.1,0.1,0.3,0.1,0.4c-3.2,2.2-6.9,3.4-10.5,4.5c-0.1-0.1-0.1-0.3-0.2-0.4c0.4-0.1,0.8-0.3,1.2-0.4C81.5,44,83.8,43.2,86,42.2z
		 M63.1,31.1c0.4-0.9,0.8-1.7,1.3-2.5c0.3-0.6,0.8-0.9,1.6-0.5c0.9,0.5,2.1,2.4,2,3.3c-0.1,1.2-1.2,2.3-2.1,2.1
		c0-0.2-0.1-0.5-0.1-0.8c-0.2,0.1-0.4,0.2-1,0.5c0.8-1.1,1.3-2,1.9-2.8c-0.1-0.1-0.1-0.1-0.2-0.2c-0.7,0.6-1.3,1.2-2,1.7
		c-0.1-0.1-0.1-0.1-0.2-0.2c0.4-0.6,0.7-1.3,1.1-1.9c-0.8,0.4-1.6,1-1.7,1.7c-0.1,0.6,0.4,1.4,0.6,2.1C62.6,33,62.4,32.8,63.1,31.1z
		 M61.4,38.9c1.5-0.5,0.7-0.9,0.5-1.1c0.6-0.4,1.1-0.8,1.6-1.1c0.1,0.1,0.2,0.3,0.3,0.4c-0.5,0.7-1.1,1.3-1.6,2
		C62,39,61.7,38.9,61.4,38.9z M61.7,33.1c0.1-0.9-1.1-1.9,0.4-3.1c0,1.2,0,2.2,0,3.1C61.9,33.1,61.8,33.1,61.7,33.1z M61.4,35.3
		c-1.6-1.2-2-3.1-1-3.4C60.8,33,61.1,34.1,61.4,35.3z M60,24.2c1-0.2,1.7-0.9,2.5-2.5c-0.1-0.1-0.3-0.3-0.4-0.4
		c-0.4,0.7-0.9,1.3-1.3,2c-0.1-0.1-0.1-0.1-0.2-0.2c0.4-0.5,0.7-1.1,1.1-1.7c-0.5,0.1-0.8,0.1-1.2,0.2c0-0.1,0-0.1-0.1-0.2
		c0.8-0.4,1.6-0.8,2.4-1.2c0.2,0.2,0.4,0.6,0.6,0.5c1.4-0.3,1.8,0.6,2.3,1.7c1,1.9,0,3.8-2.3,4.2c0.7-0.8,1.2-1.5,1.8-2.3
		c-0.1-0.1-0.1-0.1-0.2-0.2c-0.8,0.7-1.5,1.4-2.3,2.1c-0.1-0.1-0.2-0.2-0.2-0.3c0.8-1,1.6-2.1,2.5-3.1c-0.8,0.4-1.4,1-2,1.7
		c-0.6,0.6-1.2,1.3-1.8,2C60.5,26,59.7,25.5,60,24.2z M51.3,21.9c-0.1,0.1-0.2,0.1-0.3,0.2c-0.9-0.9-1.8-1.9-2.7-2.9
		c0.4-0.2,0.7-0.4,1-0.5C50.1,19.9,50.7,20.9,51.3,21.9z M51.2,12.8c2.5-1.6,4.9-3.2,7.3-4.8c0.2-0.1,0.3-0.3,0.4-0.4
		c-0.8-0.4-0.1-0.6,0.2-0.6c1.4-0.2,2.9-0.2,4.3-0.4c2-0.3,4-0.7,5.9-1.3c4.9-1.4,9.8-1.8,14.6,0.5c2.7,1.3,5.3,2.7,8,4
		c0.6,0.3,1.4,0.4,2,0.6c1.1,1.7,2.9,2,4.7,2.5c-0.2,0-0.4,0-1,0.1c2.5,1.6,4.8,3,7,4.3c0.1-0.1,0.2-0.3,0.3-0.4
		c-0.9-0.7-1.8-1.4-2.7-2.2c0.1-0.1,0.1-0.2,0.2-0.3c2.2,1.4,4.4,2.8,6.6,4.2c0.1-0.2,0.2-0.3,0.3-0.5c-2.7-2-5.5-4-8.2-6
		c1.5,0.7,2.8,1.6,4.2,2.5c1.4,0.8,2.7,1.7,4.1,2.5c1.4,0.7,2.8,2.5,2,4.7c1.1-0.1,1.6,0.4,1.2,1.4c-0.4,1.1-1,2.1-1.6,3.1
		c-0.8,1.3-1.8,2.5-2.8,3.8c2.1,0,4.2-3,3.9-5.2c1.4,0.2,1.5,0.3,0.9,1.5c-0.4,0.7-0.8,1.3-1.2,1.9c-0.2,0.3-0.4,0.7-0.5,1.1
		c0.1,0.1,0.3,0.2,0.4,0.3c0.7-0.7,1.3-1.4,2.1-2.2c0.2,0.8,0.3,1.3,0.4,1.8c-0.4,0.1-0.8,0.1-1.1,0.3c-1.2,1.2-2.3,2.3-3.4,3.6
		c-0.7,0.8-1.2,1.1-1.7,0.8c1.3-1.3,2.5-2.5,3.8-3.8c-0.1-0.1-0.3-0.3-0.4-0.4c-2.7,1.3-4.2,4.5-7.3,5.3c1.4-1.3,2.9-2.5,4.3-3.8
		c-0.1-0.2-0.2-0.3-0.3-0.5c-0.5,0.2-1,0.2-1.4,0.5c-0.9,0.6-1.3,1.8-2.5,2.2c-0.2,0.1-0.2,0.5-0.2,0.5c-1,0.5-1.9,1-2.8,1.5
		c-1.5,1-2.9,2.3-5,1.9c-0.8-0.2-1.7-0.1-2.5-0.3c-0.9-0.2-1.7-0.5-2.9-0.8c1.2-0.2,2-0.3,2.9-0.4c-0.1,0.2-0.2,0.4-0.4,0.9
		c1.2-0.2,2.2-0.4,3.2-0.7c-0.1,0.2-0.1,0.5-0.2,0.8c2.1,0.4,8.4-3.8,8.9-6c-2.8,1.4-4.5,4.2-7.7,4.5c2.5-1.8,5.2-3.5,7-6.1
		c-3.2,1.7-5.6,4.7-9.1,5.9c0.4-0.4,0.8-0.7,1.2-1c1.9-1.6,3.8-3.2,5.6-4.9c0.9-0.9,1.7-1.7,2.6-2.6c-0.2-0.2-0.3-0.3-0.5-0.5
		c-0.8,0.8-1.6,1.5-2.4,2.2c0.1,0.3,0.1,0.5,0.2,0.8l0,0c-0.3,0-0.6,0-0.8,0.1c-1.4,1-2.8,2.1-4.3,3c-1.8,1.1-3.7,2-5.5,3
		c-0.5,0.3-0.8,0.6-1.5,1.2c-0.8-0.4-1.9-1-3-1.5c0-0.1,0.1-0.2,0.1-0.4c0.4,0.1,0.8,0.3,1.2,0.4c0.4,0.1,1,0.5,1.3,0.4
		c1.9-0.8,3.8-1.6,5.6-2.6c1.1-0.6,2.1-1.5,3.1-2.3c-0.1-0.2-0.3-0.4-0.4-0.5c-1.2,0.8-2.3,1.6-3.5,2.3c-1.3,0.7-2.7,1.2-4,1.8
		c-0.1-0.2-0.1-0.4-0.2-0.6c0.8-0.3,1.7-0.5,2.5-1c0.7-0.4,2-0.4,1.7-1.6c1.2-0.6,2.3-1.3,3.5-1.9c-0.1-0.2-0.2-0.4-0.2-0.5
		c-0.6,0.2-1.4,0.3-1.9,0.7c-2,1.2-4,2.4-6.1,3.6c-0.3,0.2-0.8,0.2-1.2,0.3c3.1-1.7,5.9-3.9,8.4-6.2c-3,0.5-4.5,3.5-7.6,3.9
		c1.6-1.1,3.1-2.3,4.7-3.4c-1.8-0.5-2.7,0.6-3.9,1.4c-0.7,0.5-1.4,0.9-2.2,1.2c-1.6,0.6-3.2,1.1-4.9,1.7c0,0.1,0,0.3,0.1,0.4
		c2,0.9,3.7-1,5.6-0.8c-1.4,0.5-2.7,1-4.3,1.6c1.9,0.5,1.9,0.5,2.3,1.8c-1.4-0.7-2.7-1.3-3.8-2.1c-1.1-0.8-1.9-2.1-3-3
		c-2.9-2.4-4.4-5.8-6.4-8.9c-0.1-0.1,0-0.3,0-0.1c0.9,0.1,2,0.5,2.6,0.2c1.5-0.8,2.9-1.9,4.2-3c0.7-0.6,1.1-1.5,1.6-2.2
		c-0.1-0.1-0.2-0.2-0.3-0.3c-2,1-2.8,3.6-5,4.1c1.2-1.5,2.4-3,3.6-4.5c-0.1-0.1-0.2-0.2-0.3-0.3c-1.2,1.1-2.3,2.3-3.5,3.4
		c-0.1-0.1-0.1-0.2-0.2-0.2c0.9-1.2,1.8-2.4,2.6-3.6c-0.2-0.1-0.3-0.3-0.5-0.4c-1.1,1.2-2.2,2.3-3.3,3.5c-0.1-0.1-0.2-0.1-0.3-0.2
		c0.6-0.7,1.1-1.5,1.7-2.2c-0.1-0.1-0.2-0.2-0.3-0.2c-0.4,0.4-0.9,0.7-1.3,1.1c0-0.6,0.3-1,0.4-1.5c0.1-0.2-0.1-0.5-0.1-0.8
		c-0.2,0.1-0.6,0.2-0.7,0.4c-0.2,0.4-0.3,0.9-0.5,1.3c0,0.1-0.2,0.1-0.3,0.2c-0.1-0.4-0.2-0.7-0.3-1.4c-0.3,0.6-0.4,0.9-0.5,1.3
		c-0.7-0.7-1.3-0.9-1.5,0.5c-1-1.5-1-0.2-1.2,0.4c-0.5-0.6-0.9-1-1.4-1.5c-0.1,0.1-0.2,0.2-0.3,0.2c0.4,0.7,0.7,1.4,1.1,2.2
		c-0.1,0.1-0.2,0.1-0.3,0.2c-0.5-0.6-1-1.2-1.3-1.9c-0.8-1.4-0.8-1.4-1.6-0.9c0.3,0.6,0.6,1.1,0.8,1.7c-0.1,0.1-0.2,0.1-0.3,0.2
		c-0.8-1.2-1.6-2.4-2.3-3.6c-0.1,0.1-0.2,0.1-0.4,0.2c0.3,0.8,0.6,1.5,0.8,2.3c-0.1,0-0.2,0.1-0.3,0.1c-0.5-0.7-1-1.5-1.2-1.9
		c-0.9-0.2-1.6-0.3-2.2-0.4c-0.1,0.1-0.2,0.2-0.2,0.3c0.4,0.3,0.8,0.6,1.3,1c-0.1,0.3-0.2,0.9-0.3,1.5c-0.6-0.5-1.3-0.9-1.9-1.4
		c-0.1,0.1-0.1,0.2-0.2,0.3c0.5,0.8,1,1.6,1.6,2.6c-1.1-0.8-2-1.4-2.9-2.1c-0.1,0.1-0.2,0.2-0.3,0.3c0.6,0.8,1.1,1.6,1.9,2.8
		c-1.1-0.7-1.9-1.2-2.7-1.8c-0.1,0.1-0.2,0.3-0.3,0.4c0.7,0.8,1.4,1.7,2,2.5c0,0-0.1,0.1-0.1,0.1c-1-0.7-1.9-1.4-2.9-2.1
		c-0.1,0.1-0.2,0.2-0.3,0.3c0.6,0.8,1.1,1.5,1.7,2.3c-0.1,0.1-0.1,0.1-0.2,0.2c-0.8-0.6-1.6-1.2-2.4-1.8c-0.1,0.1-0.2,0.2-0.3,0.4
		c0.5,0.7,1,1.4,1.7,2.5c-1.2-0.9-2.1-1.6-3.1-2.3c-0.1,0.1-0.2,0.2-0.3,0.3c0.5,0.6,0.9,1.3,1.4,1.9c-0.1,0-0.1,0.1-0.2,0.1
		c-1-0.8-2-1.6-3-2.4c-0.1,0.1-0.2,0.2-0.4,0.3c0.9,1,1.7,2,2.6,3c-0.3-0.1-0.8-0.2-1-0.4c-0.7-0.6-1.3-1.3-2-1.8
		c-0.9-0.6-0.5-1.3,0.1-1.6c1-0.4,0.9-1,0.6-1.7c-0.2-0.6-0.4-1.2-0.7-1.7C50,13.9,50.3,13.4,51.2,12.8z"/>
	<path d="M37.2,1.1C33.8,1.2,30.4,1.3,27,1.4c-0.4,0-0.9,0.1-1.3,0c-1,0-2-0.1-3-0.2c2.1-0.4,4.1-0.6,6.1-0.7c1.7-0.1,3.3,0,5,0
		c3.3-0.1,6.5-0.2,9.8-0.3c0.6,0,1.1-0.2,1.7-0.2c0.2,0,0.4,0,0.5,0c2.1,0.1,4.2,0.2,6.3,0.3c0.5,0,1,0.1,1.5,0.1
		c-3,0.4-6,0.6-9,0.7C42.2,1.1,39.7,1,37.2,1.1z"/>
	<path d="M10.7,2.3C8,2.8,5.3,3.4,2.6,4c0-0.2-0.1-0.3-0.1-0.5c5.5-1.4,11-2.8,16.8-2.3c0,0.1,0,0.2,0.1,0.4
		c-1.6,0.2-3.1,0.4-4.7,0.5C13.3,2.2,12,2.1,10.7,2.3z"/>
	<path d="M55,26.2c0.7,0.9,1.4,1.9,2.1,2.8c0.1,0,0.2-0.1,0.4-0.1c-0.4-1.1-0.8-2.3-1.2-3.4c0.1,0,0.1,0,0.2,0
		c1.1,1.3,2.2,2.7,3.2,4c-0.1,0.1-0.7,0.3-0.7,0.5c0,1.2-0.7,0.8-1.3,0.6c-0.3-0.1-0.7-0.2-1-0.3c-0.6-1.3-1.2-2.6-1.9-3.9
		C54.9,26.3,55,26.2,55,26.2z"/>
	<path d="M36.5,39.3c-0.9-1.2-1-3.3-0.1-4.7c0,0.6,0,1.2,0,1.9c0.7-0.1,1.3-0.2,1.9-0.3c-0.1,1.2-0.2,2.3-0.2,3.4
		c-0.1,0-0.2,0-0.3,0c-0.1-0.8-0.3-1.6-0.4-2.5c-0.4,0.2-0.7,0.4-1,0.5C37.2,38.7,37.2,38.7,36.5,39.3z"/>
	<path d="M56.7,30.2L56.7,30.2C56.7,30.2,56.7,30.2,56.7,30.2C56.7,30.2,56.7,30.2,56.7,30.2C56.7,30.2,56.7,30.2,56.7,30.2
		L56.7,30.2C56.7,30.2,56.7,30.2,56.7,30.2C56.7,30.2,56.7,30.2,56.7,30.2C56.6,30.2,56.7,30.2,56.7,30.2z"/>
	<path d="M54.1,27.8c0.8,0.7,1.7,1.6,2.6,2.4c0.4,0.4,0.7,0.9,1.2,1.4C55.8,31.3,54.2,29.6,54.1,27.8z"/>
	<path d="M52.3,41c-0.4-0.4-0.6-0.9-1.1-1.7c0.7,0.4,1.1,0.6,1.6,0.8c0.1-0.5,0.1-0.8,0.2-1.3c0.3,0.2,0.6,0.3,0.8,0.4
		c-0.3,0.4-0.5,0.7-0.7,0.9c0.1,0.6,0.2,1,0.2,1.3C53,41.3,52.5,41.2,52.3,41z"/>
	<path d="M47.6,15.1c-1.5,0.4-3,0.8-4.4,1.2c0-0.2-0.1-0.4-0.1-0.6c1.5-0.3,3-0.7,4.4-1C47.5,14.8,47.5,15,47.6,15.1z"/>
	<path d="M31.9,20.9c-0.1-0.1-0.2-0.2-0.3-0.3c1.4-1.1,2.8-2.3,4.2-3.4c0.1,0.1,0.1,0.2,0.2,0.3C34.7,18.6,33.3,19.8,31.9,20.9z"/>
	<path d="M66.7,42.5c1.1,0.5,2.1,1,3.1,1.4C68.7,44.5,67.5,44,66.7,42.5z"/>
	<path d="M17.6,9.7c-0.6-1-0.6-2.1-0.2-3.2c0.2,1,0.5,2.1,0.7,3.1C17.9,9.6,17.8,9.6,17.6,9.7z"/>
	<path d="M53.3,31c-1.2-0.2-1.5-1.2-1.8-1.9c0.6,0.4,1.4,1,2.2,1.6C53.5,30.8,53.4,30.9,53.3,31z"/>
	<path d="M126.2,21.4c1.9,1.3,3.8,2.6,5.6,3.9c1.4,1,1.5,1.3,1.2,3.3c-2.4-1.6-3.1-2.3-2.6-3.2c-1.3,0.3-4.2-2-5.3-4.1
		C125.6,21.3,126,21.2,126.2,21.4z"/>
	<path d="M81,23.3c0.4,1.1,1.2,0.6,1.7,0.3c0.9-0.6,1.7-1.5,2.5-2.2c1.2-1,2.5-2,3.7-3.1c0.1,0.1,0.2,0.2,0.3,0.3
		c-1.1,1.1-2.2,2-3.2,3.2c-1,1.1-2.7,1.4-3.3,2.9c0.1,0.1,0.2,0.2,0.3,0.4c1.9-1.4,3.8-2.7,6-4.3c-1,2.8-8.5,7.2-10.6,6.2
		c1.5-0.5,2.8-0.8,4.1-1.2c-1.4-1.1-2.8-1.4-3.6-0.8c0.5,0.2,0.9,0.4,1.4,0.6c-0.6,0.5-1.1,0.7-1.7,0.8c-0.3,0.1-0.8,0.1-0.9-0.1
		c-0.4-0.4-0.6-1-1.1-1.7c1.2-0.5,2.5-1,3.7-1.5C80.5,23,80.9,23.2,81,23.3z"/>
	<path d="M89.7,27.1c1.1-0.6,2-1.8,3-2.7c0.8-0.7,1.7-1.3,2.6-1.9c0.6-0.5,1.2-1.1,1.9-1.6c0.4-0.3,0.8-0.5,1.3-0.7
		c0.1,0.1,0.2,0.3,0.2,0.4c-0.9,0.9-1.8,1.8-2.7,2.7c-0.5,0.5-0.8,1.1-1.3,1.4c-1.1,0.8-2.5,1.5-3.5,2.4c-2.3,2-5,2.9-7.8,3.8
		c-0.8,0.2-1.3,0.1-1.6-0.8c0.8-0.2,1.6-0.3,2.2-0.5C85.8,28.9,87.8,28.2,89.7,27.1z"/>
	<path d="M76.6,23.9c-0.6-0.7-1.1-1.3-1.6-1.8c2.3-1.3,4.4-2.4,6.4-3.6c0.1,0.1,0.1,0.2,0.2,0.3c-1.5,1.2-3,2.5-4.6,3.7
		c3.1-0.6,4.7-3.4,7.3-4.7C82.5,20.8,80,23.1,76.6,23.9z"/>
	<path d="M83.4,29.3c-0.9,0.3-1.9,1-3.3-0.1c6-1.4,10.2-5.2,14.8-8.4C91.6,24.4,88.2,27.8,83.4,29.3z"/>
	<path d="M86.2,24.8c0.4-0.2,0.9,0,1.4,0c-2.4,1.8-4.7,3.8-7.9,3.4c1.4-0.7,2.8-1.3,4.2-2C84.7,25.8,85.4,25.2,86.2,24.8z"/>
	<path d="M81.4,23c-0.1-1.3,3.2-4,5-3.9c-1.7,1.5-3.1,2.9-4.6,4.3C81.6,23.2,81.5,23.1,81.4,23z"/>
	<path d="M102.1,24.5c-0.1,0.2-0.2,0.4-0.3,0.6c-0.8,0.8-1.6,1.7-2.5,2.5c-0.6,0.6-1.3,0.8-2.2,0.3c1.6-1.3,3.2-2.5,4.7-3.7
		C101.9,24.3,102,24.4,102.1,24.5z"/>
	<path d="M103,26.2c-1.6,1.1-2.2,3.3-4.5,3.6c-0.1-0.1-0.2-0.2-0.2-0.3c1.4-1.3,2.9-2.5,4.3-3.8C102.7,25.9,102.8,26.1,103,26.2z"/>
	<path d="M87.3,23.9c1.4-1,2.9-1.9,4.3-2.9c0.1,0.2,0.2,0.4,0.3,0.6C90.4,22.4,89.6,24.5,87.3,23.9z"/>
	<path d="M104.9,28c1.2-1.1,2.2-2.2,3.3-3.2C107.8,26.9,105.7,28.7,104.9,28z"/>
	<path d="M110.4,24.3c0.1,0.1,0.3,0.3,0.4,0.4c-1.3,0.9-1,3.1-3.3,3.5C108.6,26.7,109.5,25.5,110.4,24.3z"/>
	<path d="M107.9,28.8c-0.8,0.7-1.1,2-2.4,1.8c-0.1-0.2-0.2-0.3-0.3-0.5c0.8-0.6,1.6-1.2,2.4-1.8C107.7,28.6,107.8,28.7,107.9,28.8z"
		/>
	<path d="M96.1,25.6c-0.7,0.4-1.4,0.8-2.1,1.3c-0.1-0.2-0.2-0.3-0.3-0.5c0.7-0.5,1.3-0.9,2-1.4C95.8,25.2,95.9,25.4,96.1,25.6z"/>
	<path d="M99.2,25.2c-0.7,0.4-1.4,0.9-2,1.3c-0.1-0.2-0.2-0.4-0.4-0.5c0.7-0.4,1.3-0.9,2-1.3C99,24.9,99.1,25,99.2,25.2z"/>
	<path d="M117.9,64.1c1.3,0.5,2.1,0,2.9-0.8c0.3-0.3,0.4-1,0.5-1.5c0-0.1,0-0.3,0-0.3c1.5-0.9,0.4-2.1,0.3-3.1
		c-0.1-0.6-1.2-1.6-1.8-1.6c-0.8,0-2.1-0.1-2.5,1.2c-0.3,1.1-0.8,2.1-1.2,3.2C116.4,62.5,116.5,63.6,117.9,64.1z M119.1,59
		c1-0.4,1.6,0.2,2,0.9c0.2,0.4,0,0.9-0.1,1.7C120.3,60.5,119.7,59.8,119.1,59z"/>
	<path d="M124.4,40.4c0.2,0,0.4,0,0.6,0c-0.1,2.1-0.2,4.2-0.4,6.3c-0.1,0-0.2,0-0.3,0C124.4,44.7,124.4,42.6,124.4,40.4z"/>
	<path d="M123.6,31.2c-0.4-2.5-0.9-5-1.4-7.9C123.3,25.4,124.1,30.4,123.6,31.2z"/>
	<path d="M124,34.6c0.1,0,0.3,0,0.4,0c0.1,1.8,0.3,3.5,0.4,5.3c-0.2,0-0.3,0-0.5,0C124.2,38.2,124.1,36.4,124,34.6z"/>
	<path d="M124.6,47.9c-0.2,1.2-0.3,2.5-0.5,3.7c-0.2,0-0.4,0-0.6-0.1c0.1-1.2,0.3-2.5,0.4-3.7C124.2,47.9,124.4,47.9,124.6,47.9z"/>
</g>
<g>
	<path d="M51.4,111.3c-1.3-0.2-2.7-0.4-4-0.4c-0.7,0-1.3-0.1-2-0.2c-1.8-0.4-3.6-0.8-5.4-0.6c-0.3,0-0.6,0-0.9,0
		c-2.3-0.2-4.6-0.8-6.8-1.3c-0.8-0.2-1.7-0.5-2.5-0.2c-1.8,0.6-3.7,1.3-5.5,1.9c-1.7,0.6-3.4,1.3-5.1,2.1c-0.8,0.3-0.9,0.2-1.1-0.5
		c-0.2-0.5-0.6-0.7-1-0.4c-0.2,0.1-0.2,0.3-0.2,0.5c-0.1,0.7-0.2,1.3-0.3,2c0,0.2,0,0.4,0.2,0.4c0.2,0.1,0.4-0.1,0.4-0.2
		c0.2-0.5,0.6-0.7,1.1-0.8c3.2-1.1,6.4-2.3,9.5-3.5c1.5-0.6,2.9-0.7,4.4-0.4c2.7,0.6,5.5,1.1,8.3,1.3c0.2,0,0.4,0,0.5,0.2
		c0.2,0.2,0.4,0.2,0.6-0.1c0.2-0.2,0.3-0.2,0.4,0c0.1,0.2,0.4,0.3,0.6,0.1c0.3-0.3,0.4-0.2,0.6,0.1c0.1,0.2,0.3,0.3,0.4,0.1
		c0.4-0.4,0.8-0.3,1.2-0.1c0.8,0.3,1.6,0.6,2.5,0.3c0.2-0.1,0.5,0,0.8,0c0.3,0,0.6,0.1,0.8,0.4c0.3,0.5,0.7,0.7,1.2,0.7
		c0.3,0,0.5,0.1,0.8,0.1c0.1,0,0.3,0,0.3,0.1c0,0.1-0.1,0.2-0.2,0.2c-0.4,0.2-0.9,0.2-1.3,0.2c-0.8-0.1-1.6-0.1-2.5-0.2
		c-0.4-0.1-0.7-0.1-1.1,0c-1,0.3-2,0.2-3-0.1c-0.4-0.1-0.8-0.1-1.1,0c-1,0.3-2,0.3-3-0.1c-0.5-0.2-0.9-0.2-1.4,0
		c-1.6,0.6-3.3,0.6-5,0.2c-0.8-0.2-0.8-0.2-1,0.6c0,0.1-0.1,0.1-0.1,0.2c-0.2,0.4-0.4,0.5-0.8,0.3c-0.3-0.1-0.5-0.4-0.8-0.6
		c-0.4-0.3-0.4-0.3-0.5,0.2c0,0.3-0.1,0.6-0.1,0.9c-0.2,0.9-0.7,1.1-1.5,0.8c-0.6-0.2-1.1-0.5-1.7-0.7c-0.2-0.1-0.5-0.2-0.6,0.2
		c-0.1,0.3,0.2,0.4,0.4,0.5c0.7,0.4,1.5,0.7,2.1,1.3c1.4,1.6,3.3,2,5.3,2.4c0.1,0,0.3,0,0.4,0c0.7-0.2,1.5-0.3,2.2-0.1
		c1.2,0.2,2.4,0.6,3.4,1.4c0.1,0.1,0.2,0.1,0.2,0.3c-0.1,0.2-0.2,0.1-0.3,0c-0.6-0.1-1.2,0-1.7,0.1c-0.6,0.1-1,0.6-1,1.3
		c0,0.3,0,0.7,0.2,1c0,0.1,0.1,0.2,0,0.3c0,0-0.1,0-0.2,0c-0.7-0.5-1.5-0.6-2.2-1c-1.3-0.6-2.7-0.5-4-0.5c-1.2,0-2.2-0.1-3.2-0.8
		c-0.3-0.2-0.4-0.1-0.5,0.1c-0.1,0.2-0.2,0.3-0.2,0.5c-0.1,0.5-0.5,0.7-0.9,0.8c-0.7,0.1-1.5,0.2-2.2,0.1c-1.3-0.1-2.5-0.4-3.8-0.6
		c-0.7-0.1-1.2-0.5-1.3-1.2c-0.1-0.2-0.1-0.4-0.2-0.5c-0.3-1.1-0.5-2.1-0.6-3.2c0-0.3-0.1-0.6-0.4-0.7c-0.3,0-0.3,0.3-0.4,0.6
		c-0.4,1.5-0.3,3.1-0.4,4.6c0,0.9,0,1.8,0.1,2.8c0.1,0.9,0.2,1.8,0.5,2.7c0.1,0.2,0.1,0.4,0.3,0.4c0.2,0,0.4-0.1,0.5-0.3
		c0.1-0.2,0.1-0.3,0.1-0.5c0.1-0.4,0.1-0.9,0.1-1.3c0-0.5,0.2-0.6,0.6-0.4c0.6,0.3,1.1,0.7,1.7,1c1.2,0.8,2.5,1.1,3.9,0.9
		c1.2-0.2,2.2-0.8,3.2-1.6c0.2-0.2,0.3-0.2,0.5,0c0.5,0.9,1.2,1.1,2.1,0.9c0.3-0.1,0.4,0,0.5,0.3c0.5,1.3,1,1.4,2.1,0.7
		c0.2-0.1,0.3-0.2,0.5-0.3c0.5-0.4,1-0.6,1.6-0.7c0.6-0.1,1-0.4,1.4-0.8c0.7-0.8,1.6-1.1,2.6-1c0.4,0.1,0.9,0.1,1.3-0.1
		c1-0.3,1.4-1,1.3-2c-0.1-0.7-0.3-1.3-0.6-1.9c-0.2-0.5-0.5-0.9-0.5-1.4c-0.1-0.5-0.3-0.9-0.6-1.3c-0.4-0.5-0.8-1.1-1.2-1.6
		c-0.1-0.2-0.2-0.3,0.1-0.4c1.6-0.2,3.2-0.6,4.8-0.5c0.8,0,1.7,0.2,2.5,0.1c1-0.1,1.9-0.1,2.9,0c1.1,0.1,2.1-0.2,3-0.6
		c0.5-0.2,0.8-0.6,1-1C52.7,112.3,52.5,111.5,51.4,111.3z M40.4,122.2c0,0.7-0.6,1.4-1.5,1.5c-0.8,0.1-1.8-0.6-1.9-1.4
		c-0.1-0.5,0.3-1,0.9-1.2c0.3-0.1,0.6-0.1,0.9-0.1C39.7,121,40.3,121.5,40.4,122.2z M51.4,112.2c-0.6,0.2-1.1,0-1.6-0.1
		c-0.2-0.1-0.1-0.3,0.1-0.3c0.2-0.1,0.4,0,0.8,0c0.2,0,0.5,0.1,0.8,0.1c0.1,0,0.2,0.1,0.2,0.2C51.6,112.1,51.5,112.2,51.4,112.2z"/>
	<path d="M15.7,127.1c-0.7,0.1-1.3,0.2-2,0.3c-0.5,0-0.8-0.1-0.9-0.7c0-0.2-0.1-0.3-0.1-0.5c-0.1-1.6-0.3-3.1-0.2-4.3
		c0-2.4,0.2-4.4,0.4-6.4c0.1-0.8,0.2-1.7,0.3-2.5c0.1-0.8,0.6-1.1,1.4-1c0.3,0,0.7,0.1,1,0.2c0.2,0,0.5,0,0.7,0
		c0.2,0,0.4-0.2,0.4-0.4c0-0.3-0.2-0.3-0.4-0.3c-0.3,0-0.6,0-1-0.1c-0.2,0-0.4-0.1-0.6-0.3c-0.8-1-2-1.2-3.1-0.5
		c-0.4,0.2-0.7,0.3-1.2,0.2c-0.4-0.1-0.8-0.2-1.1,0c-0.7,0.2-1.4,0.2-2.1,0c-0.3-0.1-0.7-0.1-1-0.2c-0.8-0.1-1.1,0.2-1,1
		c0,1.4-0.1,2.7,0.1,4.1c0.1,1-0.1,2-0.1,3c-0.1,2.1-0.2,4.1-0.1,6.2c0.1,0.8,0.1,1.5,0,2.3c-0.1,1.2-0.4,2.4-0.4,3.6
		c0,0.6,0.2,0.8,0.8,0.8c1.5,0,3-0.4,4.5-0.6c0.7-0.1,1.4-0.1,2.1,0.2c1,0.5,1.7,0.1,1.8-1c0.1-0.5,0.1-1,0.1-1.5
		c0-0.5,0.2-0.7,0.7-0.7c0.4,0,0.7-0.1,1.1-0.1c0.3,0,0.5-0.2,0.4-0.5C16.2,127.1,16,127.1,15.7,127.1z"/>
	<path d="M38,121.9c0-0.1,0.1-0.4-0.2-0.4c-0.2,0-0.3,0.1-0.4,0.3c-0.2,0.3-0.1,0.6,0,0.8c0.3,0.5,0.8,0.7,1.4,0.7
		c0.2,0,0.4,0,0.6-0.2c0.1-0.1,0.3-0.1,0.3-0.3c0-0.2-0.2-0.1-0.3-0.2c-0.3-0.1-0.5-0.1-0.8-0.1C38.3,122.5,38.1,122.3,38,121.9z"/>
</g>
</svg>
